<?xml version="1.0" standalone="no"?>
<!DOCTYPE svg PUBLIC "-//W3C//DTD SVG 1.1//EN" "http://www.w3.org/Graphics/SVG/1.1/DTD/svg11.dtd" >
<svg xmlns="http://www.w3.org/2000/svg" xmlns:xlink="http://www.w3.org/1999/xlink" version="1.1">
<metadata>
Created by FontForge 20170731 at Fri Feb  5 17:50:45 2016
 By Aleksey,,,
Copyright (c) 2014-2015 by Ryoichi Tsunekawa. All rights reserved.
</metadata>
<defs>
<font id="BioSans-Light" horiz-adv-x="601" >
  <font-face 
    font-family="Bio Sans Light"
    font-weight="300"
    font-stretch="normal"
    units-per-em="1000"
    panose-1="2 11 4 6 2 2 2 4 2 4"
    ascent="800"
    descent="-200"
    x-height="512"
    cap-height="680"
    bbox="-160 -226 1066 1068"
    underline-thickness="36"
    underline-position="-172"
    unicode-range="U+000D-FB02"
  />
<missing-glyph horiz-adv-x="694" 
d="M98 0v680h499v-680h-499zM347 378l178 261h-356zM141 79l179 261l-179 261v-522zM554 79v522l-179 -261zM169 41h356l-178 261z" />
    <glyph glyph-name="fi" unicode="fi" horiz-adv-x="568" 
d="M115 0v466h-101v46h101v66q0 152 133 152h75v-48h-66q-46 0 -66 -24t-20 -79v-67h149v-46h-149v-466h-56zM419 618v83h62v-83h-62zM422 0v512h56v-512h-56z" />
    <glyph glyph-name="fl" unicode="fl" horiz-adv-x="568" 
d="M115 0v466h-101v46h101v66q0 152 133 152h75v-48h-66q-46 0 -66 -24t-20 -79v-67h149v-46h-149v-466h-56zM422 0v730h56v-730h-56z" />
    <glyph glyph-name=".notdef" horiz-adv-x="694" 
d="M98 0v680h499v-680h-499zM347 378l178 261h-356zM141 79l179 261l-179 261v-522zM554 79v522l-179 -261zM169 41h356l-178 261z" />
    <glyph glyph-name=".null" horiz-adv-x="0" 
 />
    <glyph glyph-name="nonmarkingreturn" horiz-adv-x="333" 
 />
    <glyph glyph-name="CR" unicode="&#xd;" horiz-adv-x="270" 
 />
    <glyph glyph-name="space" unicode=" " horiz-adv-x="270" 
 />
    <glyph glyph-name="exclam" unicode="!" horiz-adv-x="273" 
d="M116 204l-8 316l-1 160h58l-1 -160l-8 -316h-40zM102 0v89h68v-89h-68z" />
    <glyph glyph-name="quotedbl" unicode="&#x22;" horiz-adv-x="365" 
d="M78 475l-10 205h64l-10 -205h-44zM244 475l-10 205h64l-10 -205h-44z" />
    <glyph glyph-name="numbersign" unicode="#" 
d="M117 0l23 185h-99v47h105l29 226h-99v47h105l22 175h52l-22 -175h177l22 175h52l-22 -175h97v-47h-103l-29 -226h97v-47h-103l-23 -185h-52l23 185h-177l-23 -185h-52zM198 232h177l29 226h-177z" />
    <glyph glyph-name="dollar" unicode="$" 
d="M278 -72v72q-105 5 -159 51t-54 132h52q0 -124 161 -132v271q-110 17 -156 57t-46 118q0 84 51.5 131t150.5 51v73h49v-73q93 -5 141.5 -50t48.5 -127h-52q0 116 -138 127v-261q111 -17 157.5 -58.5t46.5 -123.5q0 -174 -204 -185v-73h-49zM278 376v253
q-147 -7 -147 -125q0 -54 33.5 -83.5t113.5 -44.5zM327 51q149 9 149 128q0 57 -34 87.5t-115 46.5v-262z" />
    <glyph glyph-name="percent" unicode="%" horiz-adv-x="766" 
d="M185 318q-69 0 -105.5 34.5t-36.5 100.5v103q0 66 36.5 101t105.5 35t105.5 -35t36.5 -101v-103q0 -66 -36.5 -100.5t-105.5 -34.5zM155 -12l404 704h52l-404 -704h-52zM185 362q93 0 93 95v97q0 94 -93 94t-93 -94v-97q0 -95 93 -95zM581 -12q-69 0 -105.5 35t-36.5 101
v103q0 66 36.5 100.5t105.5 34.5t105.5 -34.5t36.5 -100.5v-103q0 -66 -36.5 -101t-105.5 -35zM581 32q93 0 93 95v97q0 94 -93 94t-93 -94v-97q0 -95 93 -95z" />
    <glyph glyph-name="ampersand" unicode="&#x26;" horiz-adv-x="658" 
d="M276 -12q-104 0 -164 49t-60 133q0 63 35 110.5t115 90.5q-41 45 -58 81t-17 76q0 74 48.5 119t128.5 45q75 0 120 -39t45 -103q0 -59 -40.5 -101.5t-138.5 -88.5l193 -198q33 66 39 165h56q-7 -123 -55 -206l118 -121h-76l-74 76q-79 -88 -215 -88zM254 397
q89 40 125 74t36 78q0 42 -30.5 68t-81.5 26q-55 0 -88 -30.5t-33 -83.5q0 -33 16 -61.5t56 -70.5zM278 38q112 0 175 77l-216 219q-69 -37 -99 -74.5t-30 -85.5q0 -63 45.5 -99.5t124.5 -36.5z" />
    <glyph glyph-name="quotesingle" unicode="'" horiz-adv-x="200" 
d="M78 475l-10 205h64l-10 -205h-44z" />
    <glyph glyph-name="parenleft" unicode="(" horiz-adv-x="327" 
d="M306 -130q-110 41 -171 155t-61 281t61 281t171 155v-46q-86 -42 -132 -143t-46 -247t46 -247t132 -143v-46z" />
    <glyph glyph-name="parenright" unicode=")" horiz-adv-x="327" 
d="M21 -130v46q86 42 132 143t46 247t-46 247t-132 143v46q110 -41 171 -155t61 -281t-61 -281t-171 -155z" />
    <glyph glyph-name="asterisk" unicode="*" horiz-adv-x="395" 
d="M105 314l-39 28l101 134l-158 45l15 48l155 -56l-5 167h47l-5 -167l155 56l15 -48l-158 -45l101 -134l-39 -28l-92 140z" />
    <glyph glyph-name="plus" unicode="+" 
d="M275 56v227h-218v50h218v228h52v-228h217v-50h-217v-227h-52z" />
    <glyph glyph-name="comma" unicode="," horiz-adv-x="256" 
d="M81 -120v38q39 5 39 64v18h-26v89h69v-93q0 -110 -82 -116z" />
    <glyph glyph-name="hyphen" unicode="-" horiz-adv-x="362" 
d="M35 264v54h293v-54h-293z" />
    <glyph glyph-name="period" unicode="." horiz-adv-x="256" 
d="M94 0v89h68v-89h-68z" />
    <glyph glyph-name="slash" unicode="/" horiz-adv-x="431" 
d="M10 -140l357 870h55l-357 -870h-55z" />
    <glyph glyph-name="zero" unicode="0" 
d="M301 -12q-112 0 -171 57.5t-59 166.5v256q0 109 59 166.5t171 57.5t170.5 -57.5t58.5 -166.5v-256q0 -109 -58.5 -166.5t-170.5 -57.5zM301 39q173 0 173 178v246q0 178 -173 178q-174 0 -174 -178v-246q0 -178 174 -178z" />
    <glyph glyph-name="one" unicode="1" 
d="M138 0v53h172v552q-74 -52 -192 -60v49q121 7 194 86h54v-627h172v-53h-400z" />
    <glyph glyph-name="two" unicode="2" 
d="M71 0v38q0 93 51 155.5t172 118.5q99 46 139 88.5t40 103.5q0 65 -42.5 101t-123.5 36q-83 0 -127 -39.5t-44 -116.5v-11h-54v17q0 96 59.5 148.5t167.5 52.5q106 0 162.5 -50t56.5 -137q0 -78 -46.5 -131.5t-159.5 -105.5q-107 -49 -151 -97t-45 -118h402v-53h-457z" />
    <glyph glyph-name="three" unicode="3" 
d="M303 -12q-114 0 -174.5 49t-60.5 140v18h55v-11q0 -145 180 -145q178 0 178 145q0 140 -174 140h-79v51h81q75 0 115 33t40 97q0 65 -42.5 100.5t-120.5 35.5q-81 0 -125 -38t-44 -106v-7h-54v11q0 89 60 140t166 51q101 0 158 -48.5t57 -134.5q0 -120 -107 -155v-1
q125 -36 125 -171q0 -96 -60 -145t-174 -49z" />
    <glyph glyph-name="four" unicode="4" 
d="M422 0v162h-374v55l366 463h64v-467h87v-51h-87v-162h-56zM110 213h312v397z" />
    <glyph glyph-name="five" unicode="5" 
d="M300 -12q-107 0 -168.5 47.5t-63.5 130.5h55q2 -59 48.5 -93t127.5 -34q91 0 139 44.5t48 131.5t-47 131t-130 44q-100 0 -169 -63h-49l22 353h398v-53h-348l-16 -242q70 56 171 56q106 0 165 -58.5t59 -166.5q0 -111 -63 -169.5t-179 -58.5z" />
    <glyph glyph-name="six" unicode="6" 
d="M310 -12q-112 0 -172 58t-60 169v248q0 111 61 170t175 59q100 0 156 -44.5t61 -127.5h-55q-11 121 -161 121q-181 0 -181 -183v-123q67 93 198 93q101 0 155 -55t54 -160q0 -108 -59 -166.5t-172 -58.5zM310 39q175 0 175 172q0 166 -162 166q-135 0 -189 -125v-34
q0 -179 176 -179z" />
    <glyph glyph-name="seven" unicode="7" 
d="M181 0q15 359 293 626h-417v54h482v-57q-283 -267 -298 -623h-60z" />
    <glyph glyph-name="eight" unicode="8" 
d="M301 -12q-121 0 -184.5 49.5t-63.5 142.5q0 136 134 173v2q-113 35 -113 153q0 87 60 135.5t167 48.5t167 -48.5t60 -135.5q0 -118 -114 -153v-1q134 -38 134 -174q0 -93 -63.5 -142.5t-183.5 -49.5zM301 376q84 0 128 33.5t44 97.5t-45 99t-127 35t-127 -35t-45 -99
t44 -97.5t128 -33.5zM301 39q191 0 191 143q0 144 -191 144q-192 0 -192 -144q0 -143 192 -143z" />
    <glyph glyph-name="nine" unicode="9" 
d="M288 -12q-100 0 -156 44.5t-61 127.5h54q11 -121 162 -121q180 0 180 183v123q-67 -93 -197 -93q-101 0 -155.5 55t-54.5 160q0 108 59 166.5t172 58.5q112 0 172 -58t60 -169v-248q0 -111 -60.5 -170t-174.5 -59zM278 303q135 0 189 125v34q0 179 -176 179
q-175 0 -175 -172q0 -166 162 -166z" />
    <glyph glyph-name="colon" unicode=":" horiz-adv-x="256" 
d="M94 384v89h68v-89h-68zM94 0v89h68v-89h-68z" />
    <glyph glyph-name="semicolon" unicode=";" horiz-adv-x="256" 
d="M94 384v89h68v-89h-68zM81 -120v38q39 5 39 64v18h-26v89h69v-93q0 -110 -82 -116z" />
    <glyph glyph-name="less" unicode="&#x3c;" 
d="M544 73l-487 210v49l487 210v-53l-420 -181l420 -182v-53z" />
    <glyph glyph-name="equal" unicode="=" 
d="M57 394v50h487v-50h-487zM57 172v50h487v-50h-487z" />
    <glyph glyph-name="greater" unicode="&#x3e;" 
d="M57 543l487 -210v-49l-487 -210v53l420 182l-420 181v53z" />
    <glyph glyph-name="question" unicode="?" horiz-adv-x="423" 
d="M169 204v27q0 58 21.5 96.5t72.5 70.5q44 29 61.5 56t17.5 67q0 59 -35 90.5t-99 31.5q-67 0 -102.5 -35.5t-35.5 -102.5h-54q0 89 50.5 138t142.5 49q89 0 138.5 -45t49.5 -126q0 -52 -21 -86.5t-72 -65.5q-49 -30 -68 -61t-19 -78v-26h-48zM159 0v89h68v-89h-68z" />
    <glyph glyph-name="at" unicode="@" horiz-adv-x="760" 
d="M411 -68q-169 0 -270.5 97.5t-101.5 258.5q0 160 99 260t260 100q154 0 247 -90.5t93 -236.5q0 -98 -42 -154.5t-114 -56.5q-78 0 -95 72q-46 -72 -128 -72q-59 0 -91.5 36.5t-32.5 101.5v78q0 65 32.5 101t91.5 36q80 0 126 -67l3 55h45v-222q0 -71 55 -71q45 0 71 42
t26 117q0 129 -77 205.5t-209 76.5q-139 0 -222 -85t-83 -224q0 -142 86 -225.5t231 -83.5q112 0 192 52l20 -45q-82 -56 -212 -56zM369 158q68 0 109 78v102q-41 78 -110 78q-78 0 -78 -95v-70q0 -93 79 -93z" />
    <glyph glyph-name="A" unicode="A" 
d="M12 0l260 680h58l259 -680h-61l-73 192h-311l-73 -192h-59zM164 245h271l-135 364z" />
    <glyph glyph-name="B" unicode="B" horiz-adv-x="638" 
d="M99 0v680h260q106 0 157.5 -43t51.5 -131q0 -122 -100 -153v-2q64 -16 94 -56.5t30 -110.5q0 -94 -52.5 -139t-161.5 -45h-279zM156 373h205q78 0 114 30t36 96q0 67 -37 97.5t-119 30.5h-199v-254zM156 53h215q86 0 124.5 32t38.5 102q0 71 -40.5 102t-132.5 31h-205
v-267z" />
    <glyph glyph-name="C" unicode="C" horiz-adv-x="614" 
d="M318 -12q-123 0 -186.5 66.5t-63.5 196.5v178q0 263 250 263q114 0 176 -56t67 -165h-56q-11 168 -187 168q-98 0 -145.5 -52.5t-47.5 -161.5v-170q0 -109 47.5 -161.5t145.5 -52.5q177 0 187 167h56q-5 -108 -67 -164t-176 -56z" />
    <glyph glyph-name="D" unicode="D" horiz-adv-x="647" 
d="M99 0v680h225q131 0 193.5 -63.5t62.5 -197.5v-158q0 -135 -62 -198t-194 -63h-225zM156 53h163q108 0 156 49t48 160v156q0 111 -48 160t-156 49h-163v-574z" />
    <glyph glyph-name="E" unicode="E" horiz-adv-x="582" 
d="M99 0v680h436v-53h-379v-251h329v-53h-329v-270h389v-53h-446z" />
    <glyph glyph-name="F" unicode="F" horiz-adv-x="545" 
d="M99 0v680h428v-53h-371v-251h321v-53h-321v-323h-57z" />
    <glyph glyph-name="G" unicode="G" horiz-adv-x="637" 
d="M325 -12q-124 0 -190.5 66t-66.5 191v190q0 122 66.5 189.5t187.5 67.5q111 0 175 -56.5t68 -160.5h-56q-5 79 -53 121.5t-135 42.5q-96 0 -146 -53.5t-50 -155.5v-180q0 -209 201 -209q96 0 143 49.5t47 152.5v50h-166v53h222v-104q0 -125 -62.5 -189.5t-184.5 -64.5z
" />
    <glyph glyph-name="H" unicode="H" horiz-adv-x="696" 
d="M99 0v680h57v-304h384v304h57v-680h-57v323h-384v-323h-57z" />
    <glyph glyph-name="I" unicode="I" horiz-adv-x="255" 
d="M99 0v680h57v-680h-57z" />
    <glyph glyph-name="J" unicode="J" horiz-adv-x="548" 
d="M241 -12q-114 0 -168.5 54t-54.5 168v14h55v-11q0 -91 39.5 -131.5t127.5 -40.5q91 0 131 44.5t40 145.5v449h57v-454q0 -122 -55 -180t-172 -58z" />
    <glyph glyph-name="K" unicode="K" horiz-adv-x="617" 
d="M99 0v680h57v-397l373 397h72l-259 -276l263 -404h-68l-235 361l-146 -153v-208h-57z" />
    <glyph glyph-name="L" unicode="L" horiz-adv-x="520" 
d="M99 0v680h57v-627h357v-53h-414z" />
    <glyph glyph-name="M" unicode="M" horiz-adv-x="861" 
d="M99 0v680h82l250 -591l250 591h81v-680h-57v600l-254 -600h-42l-254 600v-600h-56z" />
    <glyph glyph-name="N" unicode="N" horiz-adv-x="693" 
d="M99 0v680h70l369 -578v578h56v-680h-56l-383 600v-600h-56z" />
    <glyph glyph-name="O" unicode="O" horiz-adv-x="654" 
d="M327 -12q-127 0 -193 67t-66 197v176q0 130 66 197t193 67t193 -67t66 -197v-176q0 -130 -66 -197t-193 -67zM328 41q201 0 201 214v170q0 214 -201 214q-102 0 -152 -52.5t-50 -161.5v-170q0 -109 50 -161.5t152 -52.5z" />
    <glyph glyph-name="P" unicode="P" horiz-adv-x="599" 
d="M99 0v680h251q115 0 168 -48.5t53 -152.5t-53 -152t-168 -48h-194v-279h-57zM156 332h192q89 0 127 34t38 113q0 80 -38 114t-127 34h-192v-295z" />
    <glyph glyph-name="Q" unicode="Q" horiz-adv-x="653" 
d="M575 -62l-89 90q-61 -40 -159 -40q-127 0 -193 67t-66 197v176q0 130 66 197t193 67t193 -67t66 -197v-176q0 -121 -57 -187l86 -87zM328 41q74 0 120 28l-136 137l39 39l138 -140q40 52 40 150v170q0 214 -201 214q-102 0 -152 -52.5t-50 -161.5v-170q0 -109 50 -161.5
t152 -52.5z" />
    <glyph glyph-name="R" unicode="R" horiz-adv-x="629" 
d="M99 0v680h255q112 0 162.5 -46t50.5 -149q0 -88 -37.5 -134.5t-118.5 -57.5l181 -293h-68l-178 290h-190v-290h-57zM156 343h194q87 0 123 32t36 110t-36 110t-123 32h-194v-284z" />
    <glyph glyph-name="S" unicode="S" horiz-adv-x="556" 
d="M281 -12q-118 0 -180 49t-62 143h57q0 -68 47.5 -103.5t139.5 -35.5q176 0 176 134q0 67 -43 99.5t-149 46.5q-117 16 -166 57t-49 124q0 92 59.5 141t171.5 49q222 0 222 -187h-57q0 134 -166 134q-85 0 -129 -33t-44 -97q0 -61 41 -91.5t140 -43.5q123 -16 174.5 -60
t51.5 -134q0 -192 -235 -192z" />
    <glyph glyph-name="T" unicode="T" horiz-adv-x="501" 
d="M222 0v627h-214v53h486v-53h-215v-627h-57z" />
    <glyph glyph-name="U" unicode="U" horiz-adv-x="643" 
d="M322 -12q-127 0 -184.5 55.5t-57.5 177.5v459h57v-458q0 -99 42 -140t144 -41q101 0 143 41t42 140v458h55v-459q0 -122 -57 -177.5t-184 -55.5z" />
    <glyph glyph-name="V" unicode="V" horiz-adv-x="577" 
d="M259 0l-247 680h61l217 -601l216 601h59l-246 -680h-60z" />
    <glyph glyph-name="W" unicode="W" horiz-adv-x="871" 
d="M205 0l-192 680h59l165 -590l170 590h58l171 -592l165 592h57l-192 -680h-60l-171 586l-171 -586h-59z" />
    <glyph glyph-name="X" unicode="X" horiz-adv-x="563" 
d="M18 0l226 350l-218 330h67l193 -292l187 292h65l-219 -338l226 -342h-67l-200 304l-195 -304h-65z" />
    <glyph glyph-name="Y" unicode="Y" horiz-adv-x="540" 
d="M241 0v299l-244 381h68l206 -322l206 322h65l-244 -381v-299h-57z" />
    <glyph glyph-name="Z" unicode="Z" horiz-adv-x="542" 
d="M32 0v48l398 579h-380v53h451v-48l-398 -579h407v-53h-478z" />
    <glyph glyph-name="bracketleft" unicode="[" horiz-adv-x="327" 
d="M99 -118v848h207v-44h-153v-760h153v-44h-207z" />
    <glyph glyph-name="backslash" unicode="\" horiz-adv-x="431" 
d="M367 -140l-357 870h55l357 -870h-55z" />
    <glyph glyph-name="bracketright" unicode="]" horiz-adv-x="327" 
d="M21 -118v44h154v760h-154v44h208v-848h-208z" />
    <glyph glyph-name="asciicircum" unicode="^" 
d="M30 333l247 347h48l247 -347h-60l-211 297l-211 -297h-60z" />
    <glyph glyph-name="underscore" unicode="_" horiz-adv-x="500" 
d="M0 -115v48h500v-48h-500z" />
    <glyph glyph-name="grave" unicode="`" horiz-adv-x="500" 
d="M249 597l-122 127h72l108 -127h-58z" />
    <glyph glyph-name="a" unicode="a" horiz-adv-x="542" 
d="M217 -12q-79 0 -123 39.5t-44 112.5q0 155 210 155h146v46q0 134 -142 134q-136 0 -144 -112h-55q15 161 201 161q196 0 196 -183v-341h-48l-2 85q-71 -97 -195 -97zM224 36q118 0 182 110v101h-143q-83 0 -120 -25.5t-37 -79.5q0 -106 118 -106z" />
    <glyph glyph-name="b" unicode="b" horiz-adv-x="582" 
d="M333 -12q-124 0 -193 114l-2 -102h-48v730h56v-310q67 104 187 104q88 0 137 -54.5t49 -155.5v-115q0 -101 -49 -156t-137 -55zM327 37q65 0 100.5 42.5t35.5 122.5v108q0 80 -35.5 122.5t-100.5 42.5q-118 0 -181 -136v-165q63 -137 181 -137z" />
    <glyph glyph-name="c" unicode="c" horiz-adv-x="514" 
d="M272 -12q-101 0 -155 56t-54 161v102q0 106 53.5 161.5t154.5 55.5q93 0 144.5 -46.5t55.5 -130.5h-54q-9 128 -144 128q-154 0 -154 -171v-96q0 -171 154 -171q135 0 144 128h54q-4 -84 -55 -130.5t-144 -46.5z" />
    <glyph glyph-name="d" unicode="d" horiz-adv-x="582" 
d="M249 -12q-88 0 -137 55t-49 156v115q0 101 49 155.5t137 54.5q120 0 187 -104v310h56v-730h-48l-2 102q-69 -114 -193 -114zM255 37q118 0 181 137v165q-63 136 -181 136q-65 0 -100.5 -42.5t-35.5 -122.5v-108q0 -80 35.5 -122.5t100.5 -42.5z" />
    <glyph glyph-name="e" unicode="e" horiz-adv-x="546" 
d="M280 -12q-105 0 -161 55.5t-56 161.5v102q0 106 54.5 161.5t157.5 55.5t157 -55.5t54 -161.5v-63h-367v-35q0 -172 159 -172q68 0 106.5 29.5t43.5 83.5h54q-5 -78 -58 -120t-144 -42zM119 292h313v11q0 172 -157 172q-156 0 -156 -172v-11z" />
    <glyph glyph-name="f" unicode="f" horiz-adv-x="332" 
d="M115 0v466h-101v46h101v66q0 152 133 152h75v-48h-66q-46 0 -66 -24t-20 -79v-67h149v-46h-149v-466h-56z" />
    <glyph glyph-name="g" unicode="g" horiz-adv-x="582" 
d="M279 -194q-95 0 -147 38.5t-57 112.5h53q9 -102 149 -102q82 0 120.5 37t38.5 115v107q-69 -104 -187 -104q-88 0 -137 55t-49 156v93q0 101 49 155.5t137 54.5q123 0 193 -113l2 101h48v-505q0 -201 -213 -201zM255 60q118 0 181 136v143q-63 136 -181 136
q-65 0 -100.5 -42.5t-35.5 -122.5v-85q0 -81 35 -123t101 -42z" />
    <glyph glyph-name="h" unicode="h" horiz-adv-x="566" 
d="M90 0v730h56v-308q64 102 178 102q160 0 160 -185v-339h-56v333q0 140 -113 140q-110 0 -169 -133v-340h-56z" />
    <glyph glyph-name="i" unicode="i" horiz-adv-x="236" 
d="M87 618v83h62v-83h-62zM90 0v512h56v-512h-56z" />
    <glyph glyph-name="j" unicode="j" horiz-adv-x="236" 
d="M87 618v83h62v-83h-62zM-3 -182v49h22q42 0 56.5 18t14.5 68v559h56v-558q0 -72 -27.5 -104t-89.5 -32h-32z" />
    <glyph glyph-name="k" unicode="k" horiz-adv-x="521" 
d="M90 0v730h56v-503l286 285h72l-210 -209l214 -303h-68l-186 263l-108 -106v-157h-56z" />
    <glyph glyph-name="l" unicode="l" horiz-adv-x="236" 
d="M90 0v730h56v-730h-56z" />
    <glyph glyph-name="m" unicode="m" horiz-adv-x="870" 
d="M90 0v512h48l2 -94q61 106 172 106q118 0 146 -107q62 107 174 107q75 0 115.5 -45t40.5 -129v-350h-56v345q0 128 -107 128q-99 0 -159 -129v-344h-56v345q0 128 -106 128q-100 0 -158 -130v-343h-56z" />
    <glyph glyph-name="n" unicode="n" horiz-adv-x="566" 
d="M90 0v512h48l2 -99q65 111 184 111q160 0 160 -185v-339h-56v333q0 140 -113 140q-110 0 -169 -133v-340h-56z" />
    <glyph glyph-name="o" unicode="o" horiz-adv-x="560" 
d="M280 -12q-106 0 -161.5 57t-55.5 164v94q0 107 55.5 164t161.5 57q105 0 161 -57t56 -164v-94q0 -107 -56 -164t-161 -57zM280 37q161 0 161 176v87q0 175 -161 175t-161 -175v-87q0 -176 161 -176z" />
    <glyph glyph-name="p" unicode="p" horiz-adv-x="582" 
d="M90 -182v694h48l2 -101q68 113 193 113q88 0 137 -54.5t49 -155.5v-115q0 -101 -49 -156t-137 -55q-120 0 -187 105v-275h-56zM327 37q65 0 100.5 42.5t35.5 122.5v108q0 80 -35.5 122.5t-100.5 42.5q-118 0 -181 -136v-165q63 -137 181 -137z" />
    <glyph glyph-name="q" unicode="q" horiz-adv-x="582" 
d="M436 -182v275q-67 -105 -187 -105q-88 0 -137 55t-49 156v115q0 101 49 155.5t137 54.5q123 0 192 -112l3 100h48v-694h-56zM255 37q118 0 181 137v165q-63 136 -181 136q-65 0 -100.5 -42.5t-35.5 -122.5v-108q0 -80 35.5 -122.5t100.5 -42.5z" />
    <glyph glyph-name="r" unicode="r" horiz-adv-x="346" 
d="M90 0v512h48l2 -105q42 115 159 115h33v-54h-27q-66 0 -104.5 -37.5t-54.5 -119.5v-311h-56z" />
    <glyph glyph-name="s" unicode="s" horiz-adv-x="496" 
d="M248 -12q-101 0 -153.5 40t-52.5 117h54q0 -108 151 -108q147 0 147 99q0 47 -35 69.5t-121 31.5q-100 10 -141.5 41.5t-41.5 96.5q0 71 50 110t142 39t141 -39t49 -113h-55q0 104 -134 104q-66 0 -102.5 -25.5t-36.5 -71.5q0 -43 33.5 -63.5t115.5 -28.5
q104 -10 147.5 -44t43.5 -103q0 -74 -51 -113t-150 -39z" />
    <glyph glyph-name="t" unicode="t" horiz-adv-x="332" 
d="M241 0q-69 0 -100 36t-31 116v314h-96v46h97l5 140h50v-140h140v-46h-140v-314q0 -58 18.5 -80.5t67.5 -22.5h60v-49h-71z" />
    <glyph glyph-name="u" unicode="u" horiz-adv-x="571" 
d="M244 -12q-162 0 -162 185v339h56v-333q0 -140 115 -140q113 0 172 136v337h56v-512h-48l-2 101q-65 -113 -187 -113z" />
    <glyph glyph-name="v" unicode="v" horiz-adv-x="472" 
d="M205 0l-190 512h60l162 -447l162 447h58l-190 -512h-62z" />
    <glyph glyph-name="w" unicode="w" horiz-adv-x="772" 
d="M183 0l-168 512h59l141 -442l144 442h56l143 -442l141 442h57l-168 -512h-60l-142 433l-142 -433h-61z" />
    <glyph glyph-name="x" unicode="x" horiz-adv-x="484" 
d="M13 0l192 266l-182 246h68l157 -212l152 212h63l-183 -255l190 -257h-68l-166 224l-160 -224h-63z" />
    <glyph glyph-name="y" unicode="y" horiz-adv-x="461" 
d="M57 -182v49h34q35 0 52.5 14t32.5 55l32 87l-193 489h60l163 -419l151 419h57l-216 -584q-23 -63 -52 -86.5t-82 -23.5h-39z" />
    <glyph glyph-name="z" unicode="z" horiz-adv-x="455" 
d="M32 0v42l314 422h-293v48h363v-42l-313 -421h318v-49h-389z" />
    <glyph glyph-name="braceleft" unicode="{" horiz-adv-x="327" 
d="M259 -118q-72 0 -105.5 37.5t-33.5 120.5v166q0 45 -18 61.5t-67 16.5v44q49 0 67 16.5t18 61.5v166q0 83 33.5 120.5t105.5 37.5h47v-44h-39q-50 0 -71.5 -26t-21.5 -86v-162q0 -91 -60 -105v-2q60 -16 60 -105v-162q0 -60 21.5 -86t71.5 -26h39v-44h-47z" />
    <glyph glyph-name="bar" unicode="|" horiz-adv-x="279" 
d="M114 -226v1000h52v-1000h-52z" />
    <glyph glyph-name="braceright" unicode="}" horiz-adv-x="327" 
d="M21 -118v44h38q50 0 72 26t22 86v162q0 89 59 105v2q-59 14 -59 105v162q0 60 -22 86t-72 26h-38v44h46q72 0 105.5 -37.5t33.5 -120.5v-166q0 -45 18.5 -61.5t67.5 -16.5v-44q-49 0 -67.5 -16.5t-18.5 -61.5v-166q0 -83 -33.5 -120.5t-105.5 -37.5h-46z" />
    <glyph glyph-name="asciitilde" unicode="~" 
d="M411 235q-62 0 -123 53q-51 45 -99 45q-78 0 -86 -90h-45q4 67 38.5 103t94.5 36q34 0 61 -12t62 -41q54 -45 99 -45q77 0 86 90h45q-4 -67 -38.5 -103t-94.5 -36z" />
    <glyph glyph-name="uni00A0" unicode="&#xa0;" horiz-adv-x="270" 
 />
    <glyph glyph-name="exclamdown" unicode="&#xa1;" horiz-adv-x="273" 
d="M102 423v89h68v-89h-68zM107 -168l1 160l8 316h40l8 -316l1 -160h-58z" />
    <glyph glyph-name="cent" unicode="&#xa2;" 
d="M286 -72v73q-93 5 -141.5 57.5t-48.5 148.5v98q0 195 190 206v73h49v-73q84 -6 129.5 -49.5t49.5 -119.5h-54q-7 110 -125 120v-412q117 10 125 120h54q-4 -76 -49.5 -119.5t-129.5 -49.5v-73h-49zM286 50v412q-70 -5 -102 -44t-32 -116v-92q0 -77 32.5 -116t101.5 -44z
" />
    <glyph glyph-name="sterling" unicode="&#xa3;" 
d="M85 0v49q47 30 68.5 68.5t21.5 96.5q0 44 -12 81h-99v51h81q-39 85 -39 152q0 95 56 144.5t161 49.5q104 0 159.5 -48.5t55.5 -139.5h-54q0 137 -163 137q-160 0 -160 -144q0 -53 40 -151h274v-51h-258q10 -39 10 -78q0 -109 -70 -164h372v-53h-444z" />
    <glyph glyph-name="currency" unicode="&#xa4;" 
d="M83 86l-38 37l121 123q-29 42 -29 94t29 94l-121 123l38 37l120 -122q42 31 97 31q53 0 97 -31l121 122l38 -37l-122 -123q29 -42 29 -94t-29 -94l122 -123l-38 -37l-121 122q-44 -31 -97 -31q-55 0 -97 31zM301 228q47 0 78.5 32t31.5 80t-31.5 80t-78.5 32
q-48 0 -79.5 -32t-31.5 -80t31.5 -80t79.5 -32z" />
    <glyph glyph-name="yen" unicode="&#xa5;" 
d="M272 0v140h-196v46h196v95h-196v46h190l-230 353h66l199 -309l200 309h64l-230 -353h190v-46h-197v-95h197v-46h-197v-140h-56z" />
    <glyph glyph-name="brokenbar" unicode="&#xa6;" horiz-adv-x="279" 
d="M114 374v400h52v-400h-52zM114 -226v400h52v-400h-52z" />
    <glyph glyph-name="section" unicode="&#xa7;" horiz-adv-x="584" 
d="M288 -196q-106 0 -162.5 44.5t-56.5 128.5h54q0 -124 165 -124q80 0 121.5 29.5t41.5 83.5q0 52 -41.5 80.5t-142.5 47.5q-114 21 -162 59t-48 106q0 99 100 143v2q-76 39 -76 125q0 78 53.5 120.5t151.5 42.5t152 -43.5t54 -123.5h-55q0 118 -150 118
q-72 0 -111.5 -28.5t-39.5 -80.5q0 -50 40.5 -78.5t139.5 -46.5q115 -21 163 -58.5t48 -106.5q0 -98 -99 -141v-2q77 -41 77 -130q0 -81 -55.5 -124t-161.5 -43zM374 125q99 28 99 110q0 51 -39.5 79t-140.5 47q-54 10 -82 19q-99 -29 -99 -113q0 -50 39 -77.5t138 -44.5
q57 -11 85 -20z" />
    <glyph glyph-name="dieresis" unicode="&#xa8;" horiz-adv-x="500" 
d="M134 620v79h64v-79h-64zM302 620v79h64v-79h-64z" />
    <glyph glyph-name="copyright" unicode="&#xa9;" horiz-adv-x="779" 
d="M389 -12q-152 0 -252 100t-100 252t100 252t252 100t252 -100t100 -252t-100 -252t-252 -100zM389 34q135 0 218.5 85.5t83.5 220.5t-83.5 220.5t-218.5 85.5q-134 0 -217.5 -85.5t-83.5 -220.5t83.5 -220.5t217.5 -85.5zM388 150q-142 0 -142 143v93q0 144 142 144
q137 0 141 -124h-50q-4 80 -89 80q-47 0 -69.5 -25t-22.5 -77v-87q0 -53 22.5 -78t69.5 -25q85 0 89 80h50q-4 -124 -141 -124z" />
    <glyph glyph-name="ordfeminine" unicode="&#xaa;" horiz-adv-x="425" 
d="M162 315q-58 0 -90 28t-32 79q0 54 35.5 82.5t102.5 28.5h122v33q0 82 -98 82q-94 0 -103 -69h-46q5 55 43.5 84t107.5 29q146 0 146 -127v-238h-43l-3 56q-54 -68 -142 -68zM170 358q85 0 130 75v61h-114q-96 0 -96 -70q0 -66 80 -66zM46 182v44h305v-44h-305z" />
    <glyph glyph-name="guillemotleft" unicode="&#xab;" horiz-adv-x="454" 
d="M171 82l-145 174l145 174h63l-145 -174l145 -174h-63zM366 82l-145 174l145 174h63l-145 -174l145 -174h-63z" />
    <glyph glyph-name="logicalnot" unicode="&#xac;" 
d="M492 126v228h-435v49h487v-277h-52z" />
    <glyph glyph-name="uni00AD" unicode="&#xad;" horiz-adv-x="362" 
d="M35 264v54h293v-54h-293z" />
    <glyph glyph-name="registered" unicode="&#xae;" horiz-adv-x="779" 
d="M389 -12q-152 0 -252 100t-100 252t100 252t252 100t252 -100t100 -252t-100 -252t-252 -100zM389 34q135 0 218.5 85.5t83.5 220.5t-83.5 220.5t-218.5 85.5q-134 0 -217.5 -85.5t-83.5 -220.5t83.5 -220.5t217.5 -85.5zM255 160v360h151q66 0 96 -25.5t30 -81.5
q0 -88 -78 -104l99 -149h-59l-95 145h-92v-145h-52zM307 348h93q43 0 62 15t19 49t-18.5 49t-62.5 15h-93v-128z" />
    <glyph glyph-name="macron" unicode="&#xaf;" horiz-adv-x="500" 
d="M143 638v45h214v-45h-214z" />
    <glyph glyph-name="degree" unicode="&#xb0;" horiz-adv-x="363" 
d="M182 414q-64 0 -107 43t-43 107t43 107t107 43t107 -43t43 -107t-43 -107t-107 -43zM181 460q44 0 72.5 29.5t28.5 74.5t-28.5 74.5t-72.5 29.5t-72.5 -29.5t-28.5 -74.5t28.5 -74.5t72.5 -29.5z" />
    <glyph glyph-name="plusminus" unicode="&#xb1;" 
d="M275 99v214h-218v50h218v219h52v-219h217v-50h-217v-214h-52zM57 0v50h487v-50h-487z" />
    <glyph glyph-name="uni00B2" unicode="&#xb2;" horiz-adv-x="366" 
d="M45 416v29q0 56 30 93t100 69q53 24 75 47t22 54q0 33 -22 51.5t-63 18.5q-43 0 -65.5 -21t-22.5 -60v-6h-47v12q0 57 35.5 88t101.5 31q63 0 97.5 -29.5t34.5 -83.5q0 -46 -28 -78t-93 -62q-58 -26 -81 -50t-25 -58h227v-45h-276z" />
    <glyph glyph-name="uni00B3" unicode="&#xb3;" horiz-adv-x="366" 
d="M186 404q-70 0 -106.5 28.5t-36.5 82.5v12h47v-6q0 -73 96 -73q93 0 93 75q0 73 -93 73h-47v44h47q83 0 83 68q0 70 -85 70q-42 0 -65 -19t-23 -53v-4h-47v7q0 53 36.5 83t100.5 30q62 0 96.5 -29t34.5 -82q0 -69 -59 -89v-1q70 -20 70 -100q0 -117 -142 -117z" />
    <glyph glyph-name="acute" unicode="&#xb4;" horiz-adv-x="500" 
d="M193 597l108 127h72l-122 -127h-58z" />
    <glyph glyph-name="uni00B5" unicode="&#xb5;" horiz-adv-x="578" 
d="M90 -182v694h56v-333q0 -140 113 -140q111 0 173 136v337h56v-512h-48l-2 103q-66 -115 -185 -115q-69 0 -107 38v-208h-56z" />
    <glyph glyph-name="paragraph" unicode="&#xb6;" horiz-adv-x="584" 
d="M475 680v-863h-56v814h-131v-814h-56v476h-4q-103 0 -151.5 46.5t-48.5 146.5t48 147t152 47h247z" />
    <glyph glyph-name="periodcentered" unicode="&#xb7;" horiz-adv-x="256" 
d="M94 246v89h68v-89h-68z" />
    <glyph glyph-name="cedilla" unicode="&#xb8;" horiz-adv-x="500" 
d="M231 -198q-55 0 -90 19l14 34q29 -18 68 -18q56 0 56 35q0 16 -12.5 22.5t-46.5 6.5h-26l42 114h38l-31 -83h2q88 0 88 -62q0 -68 -102 -68z" />
    <glyph glyph-name="uni00B9" unicode="&#xb9;" horiz-adv-x="366" 
d="M89 416v44h94v289q-46 -26 -106 -28v39q70 4 109 50h46v-350h96v-44h-239z" />
    <glyph glyph-name="ordmasculine" unicode="&#xba;" horiz-adv-x="419" 
d="M209 315q-77 0 -116.5 39.5t-39.5 116.5v65q0 76 40 116t116 40t116 -40t40 -116v-65q0 -77 -39.5 -116.5t-116.5 -39.5zM210 358q106 0 106 115v61q0 114 -106 114t-106 -114v-61q0 -115 106 -115zM57 182v44h305v-44h-305z" />
    <glyph glyph-name="guillemotright" unicode="&#xbb;" horiz-adv-x="454" 
d="M26 82l145 174l-145 174h63l145 -174l-145 -174h-63zM221 82l145 174l-145 174h63l145 -174l-145 -174h-63z" />
    <glyph glyph-name="onequarter" unicode="&#xbc;" horiz-adv-x="834" 
d="M247 -12l370 704h51l-369 -704h-52zM89 286v44h94v289q-46 -26 -106 -28v39q70 4 109 50h46v-350h96v-44h-239zM712 0v88h-214v46l211 260h53v-262h51v-44h-51v-88h-50zM552 132h160v200z" />
    <glyph glyph-name="onehalf" unicode="&#xbd;" horiz-adv-x="834" 
d="M206 -12l370 704h51l-369 -704h-52zM89 286v44h94v289q-46 -26 -106 -28v39q70 4 109 50h46v-350h96v-44h-239zM513 0v29q0 56 30 93t100 69q53 24 75 47t22 54q0 33 -22 51.5t-63 18.5q-43 0 -65.5 -21t-22.5 -60v-6h-47v12q0 57 35.5 88t101.5 31q63 0 97.5 -29.5
t34.5 -83.5q0 -46 -28 -78t-93 -62q-58 -26 -81 -50t-25 -58h227v-45h-276z" />
    <glyph glyph-name="threequarters" unicode="&#xbe;" horiz-adv-x="834" 
d="M186 274q-70 0 -106.5 28.5t-36.5 82.5v12h47v-6q0 -73 96 -73q93 0 93 75q0 73 -93 73h-47v44h47q83 0 83 68q0 70 -85 70q-42 0 -65 -19t-23 -53v-4h-47v7q0 53 36.5 83t100.5 30q62 0 96.5 -29t34.5 -82q0 -69 -59 -89v-1q70 -20 70 -100q0 -117 -142 -117zM247 -12
l370 704h51l-369 -704h-52zM712 0v88h-214v46l211 260h53v-262h51v-44h-51v-88h-50zM552 132h160v200z" />
    <glyph glyph-name="questiondown" unicode="&#xbf;" horiz-adv-x="423" 
d="M196 423v89h68v-89h-68zM214 -180q-89 0 -138.5 45t-49.5 126q0 52 21.5 87t73.5 67q47 29 66 59.5t19 77.5v26h48v-27q0 -58 -22 -96.5t-72 -70.5q-44 -29 -61.5 -56t-17.5 -67q0 -58 34.5 -89.5t99.5 -31.5q67 0 102.5 35t35.5 102h54q0 -89 -50.5 -138t-142.5 -49z
" />
    <glyph glyph-name="Agrave" unicode="&#xc0;" 
d="M300 754l-122 127h72l108 -127h-58zM12 0l260 680h58l259 -680h-61l-73 192h-311l-73 -192h-59zM164 245h271l-135 364z" />
    <glyph glyph-name="Aacute" unicode="&#xc1;" 
d="M244 754l108 127h72l-122 -127h-58zM12 0l260 680h58l259 -680h-61l-73 192h-311l-73 -192h-59zM164 245h271l-135 364z" />
    <glyph glyph-name="Acircumflex" unicode="&#xc2;" 
d="M165 754l108 127h55l109 -127h-58l-78 82l-78 -82h-58zM12 0l260 680h58l259 -680h-61l-73 192h-311l-73 -192h-59zM164 245h271l-135 364z" />
    <glyph glyph-name="Atilde" unicode="&#xc3;" 
d="M355 767q-28 0 -65 29q-28 22 -44 22q-31 0 -38 -52h-41q6 99 80 99q27 0 65 -29q31 -23 44 -23q32 0 38 52h41q-6 -98 -80 -98zM12 0l260 680h58l259 -680h-61l-73 192h-311l-73 -192h-59zM164 245h271l-135 364z" />
    <glyph glyph-name="Adieresis" unicode="&#xc4;" 
d="M185 777v79h64v-79h-64zM353 777v79h64v-79h-64zM12 0l260 680h58l259 -680h-61l-73 192h-311l-73 -192h-59zM164 245h271l-135 364z" />
    <glyph glyph-name="Aring" unicode="&#xc5;" 
d="M301 742q-40 0 -66 25.5t-26 64.5t26 64.5t66 25.5t66 -25.5t26 -64.5t-26 -64.5t-66 -25.5zM301 782q21 0 34.5 14t13.5 36t-13.5 36t-34.5 14q-22 0 -35.5 -14t-13.5 -36t13.5 -36t35.5 -14zM12 0l260 680h58l259 -680h-61l-73 192h-311l-73 -192h-59zM164 245h271
l-135 364z" />
    <glyph glyph-name="AE" unicode="&#xc6;" horiz-adv-x="896" 
d="M-3 0l419 680h433v-53h-353v-251h303v-53h-303v-270h363v-53h-420v192h-259l-119 -192h-64zM212 245h227v374z" />
    <glyph glyph-name="Ccedilla" unicode="&#xc7;" horiz-adv-x="614" 
d="M318 41q177 0 187 167h56q-5 -102 -60 -157.5t-157 -61.5l-21 -57h2q88 0 88 -62q0 -68 -102 -68q-55 0 -90 19l14 34q29 -18 68 -18q56 0 56 35q0 16 -12.5 22.5t-46.5 6.5h-26l32 87q-117 3 -177.5 69.5t-60.5 193.5v178q0 263 250 263q114 0 176 -56t67 -165h-56
q-11 168 -187 168q-98 0 -145.5 -52.5t-47.5 -161.5v-170q0 -109 47.5 -161.5t145.5 -52.5z" />
    <glyph glyph-name="Egrave" unicode="&#xc8;" horiz-adv-x="582" 
d="M316 754l-122 127h72l108 -127h-58zM99 0v680h436v-53h-379v-251h329v-53h-329v-270h389v-53h-446z" />
    <glyph glyph-name="Eacute" unicode="&#xc9;" horiz-adv-x="582" 
d="M260 754l108 127h72l-122 -127h-58zM99 0v680h436v-53h-379v-251h329v-53h-329v-270h389v-53h-446z" />
    <glyph glyph-name="Ecircumflex" unicode="&#xca;" horiz-adv-x="582" 
d="M181 754l108 127h55l109 -127h-58l-78 82l-78 -82h-58zM99 0v680h436v-53h-379v-251h329v-53h-329v-270h389v-53h-446z" />
    <glyph glyph-name="Edieresis" unicode="&#xcb;" horiz-adv-x="582" 
d="M201 777v79h64v-79h-64zM369 777v79h64v-79h-64zM99 0v680h436v-53h-379v-251h329v-53h-329v-270h389v-53h-446z" />
    <glyph glyph-name="Igrave" unicode="&#xcc;" horiz-adv-x="255" 
d="M127 754l-122 127h72l108 -127h-58zM99 0v680h57v-680h-57z" />
    <glyph glyph-name="Iacute" unicode="&#xcd;" horiz-adv-x="255" 
d="M71 754l108 127h72l-122 -127h-58zM99 0v680h57v-680h-57z" />
    <glyph glyph-name="Icircumflex" unicode="&#xce;" horiz-adv-x="255" 
d="M-3 754l103 127h56l103 -127h-57l-74 82l-74 -82h-57zM99 0v680h57v-680h-57z" />
    <glyph glyph-name="Idieresis" unicode="&#xcf;" horiz-adv-x="255" 
d="M27 777v79h64v-79h-64zM166 777v79h64v-79h-64zM99 0v680h57v-680h-57z" />
    <glyph glyph-name="Eth" unicode="&#xd0;" horiz-adv-x="657" 
d="M334 680q131 0 193.5 -63.5t62.5 -197.5v-158q0 -135 -62 -198t-194 -63h-225v323h-80v53h80v304h225zM533 262v156q0 111 -48 160t-156 49h-163v-251h181v-53h-181v-270h163q108 0 156 49t48 160z" />
    <glyph glyph-name="Ntilde" unicode="&#xd1;" horiz-adv-x="693" 
d="M400 767q-28 0 -65 29q-28 22 -44 22q-31 0 -38 -52h-41q6 99 80 99q27 0 65 -29q31 -23 44 -23q32 0 38 52h41q-6 -98 -80 -98zM99 0v680h70l369 -578v578h56v-680h-56l-383 600v-600h-56z" />
    <glyph glyph-name="Ograve" unicode="&#xd2;" horiz-adv-x="654" 
d="M326 754l-122 127h72l108 -127h-58zM327 -12q-127 0 -193 67t-66 197v176q0 130 66 197t193 67t193 -67t66 -197v-176q0 -130 -66 -197t-193 -67zM328 41q201 0 201 214v170q0 214 -201 214q-102 0 -152 -52.5t-50 -161.5v-170q0 -109 50 -161.5t152 -52.5z" />
    <glyph glyph-name="Oacute" unicode="&#xd3;" horiz-adv-x="654" 
d="M270 754l108 127h72l-122 -127h-58zM327 -12q-127 0 -193 67t-66 197v176q0 130 66 197t193 67t193 -67t66 -197v-176q0 -130 -66 -197t-193 -67zM328 41q201 0 201 214v170q0 214 -201 214q-102 0 -152 -52.5t-50 -161.5v-170q0 -109 50 -161.5t152 -52.5z" />
    <glyph glyph-name="Ocircumflex" unicode="&#xd4;" horiz-adv-x="654" 
d="M191 754l108 127h55l109 -127h-58l-78 82l-78 -82h-58zM327 -12q-127 0 -193 67t-66 197v176q0 130 66 197t193 67t193 -67t66 -197v-176q0 -130 -66 -197t-193 -67zM328 41q201 0 201 214v170q0 214 -201 214q-102 0 -152 -52.5t-50 -161.5v-170q0 -109 50 -161.5
t152 -52.5z" />
    <glyph glyph-name="Otilde" unicode="&#xd5;" horiz-adv-x="654" 
d="M381 767q-28 0 -65 29q-28 22 -44 22q-31 0 -38 -52h-41q6 99 80 99q27 0 65 -29q31 -23 44 -23q32 0 38 52h41q-6 -98 -80 -98zM327 -12q-127 0 -193 67t-66 197v176q0 130 66 197t193 67t193 -67t66 -197v-176q0 -130 -66 -197t-193 -67zM328 41q201 0 201 214v170
q0 214 -201 214q-102 0 -152 -52.5t-50 -161.5v-170q0 -109 50 -161.5t152 -52.5z" />
    <glyph glyph-name="Odieresis" unicode="&#xd6;" horiz-adv-x="654" 
d="M211 777v79h64v-79h-64zM379 777v79h64v-79h-64zM327 -12q-127 0 -193 67t-66 197v176q0 130 66 197t193 67t193 -67t66 -197v-176q0 -130 -66 -197t-193 -67zM328 41q201 0 201 214v170q0 214 -201 214q-102 0 -152 -52.5t-50 -161.5v-170q0 -109 50 -161.5t152 -52.5z
" />
    <glyph glyph-name="multiply" unicode="&#xd7;" 
d="M535 509l-200 -200l200 -200l-34 -35l-200 200l-200 -200l-35 35l200 200l-200 200l35 35l200 -200l200 200z" />
    <glyph glyph-name="Oslash" unicode="&#xd8;" horiz-adv-x="654" 
d="M586 663l-45 -64q45 -63 45 -171v-176q0 -130 -66 -197t-193 -67q-115 0 -179 55l-39 -55l-41 29l45 64q-45 63 -45 171v176q0 130 66 197t193 67q115 0 179 -55l39 55zM126 255q0 -74 23 -123l325 460q-50 47 -146 47q-102 0 -152 -52.5t-50 -161.5v-170zM529 425
q0 75 -24 124l-325 -460q51 -48 148 -48q201 0 201 214v170z" />
    <glyph glyph-name="Ugrave" unicode="&#xd9;" horiz-adv-x="643" 
d="M321 754l-122 127h72l108 -127h-58zM322 -12q-127 0 -184.5 55.5t-57.5 177.5v459h57v-458q0 -99 42 -140t144 -41q101 0 143 41t42 140v458h55v-459q0 -122 -57 -177.5t-184 -55.5z" />
    <glyph glyph-name="Uacute" unicode="&#xda;" horiz-adv-x="643" 
d="M265 754l108 127h72l-122 -127h-58zM322 -12q-127 0 -184.5 55.5t-57.5 177.5v459h57v-458q0 -99 42 -140t144 -41q101 0 143 41t42 140v458h55v-459q0 -122 -57 -177.5t-184 -55.5z" />
    <glyph glyph-name="Ucircumflex" unicode="&#xdb;" horiz-adv-x="643" 
d="M186 754l108 127h55l109 -127h-58l-78 82l-78 -82h-58zM322 -12q-127 0 -184.5 55.5t-57.5 177.5v459h57v-458q0 -99 42 -140t144 -41q101 0 143 41t42 140v458h55v-459q0 -122 -57 -177.5t-184 -55.5z" />
    <glyph glyph-name="Udieresis" unicode="&#xdc;" horiz-adv-x="643" 
d="M206 777v79h64v-79h-64zM374 777v79h64v-79h-64zM322 -12q-127 0 -184.5 55.5t-57.5 177.5v459h57v-458q0 -99 42 -140t144 -41q101 0 143 41t42 140v458h55v-459q0 -122 -57 -177.5t-184 -55.5z" />
    <glyph glyph-name="Yacute" unicode="&#xdd;" horiz-adv-x="540" 
d="M213 754l108 127h72l-122 -127h-58zM241 0v299l-244 381h68l206 -322l206 322h65l-244 -381v-299h-57z" />
    <glyph glyph-name="Thorn" unicode="&#xde;" horiz-adv-x="599" 
d="M99 0v680h57v-111h194q115 0 168 -48.5t53 -152.5t-53 -152t-168 -48h-194v-168h-57zM156 220h192q89 0 127 34.5t38 113.5t-38 113.5t-127 34.5h-192v-296z" />
    <glyph glyph-name="germandbls" unicode="&#xdf;" horiz-adv-x="589" 
d="M115 0v466h-101v46h101v57q0 84 48.5 128.5t142.5 44.5q86 0 132 -37t46 -105q0 -37 -15 -66t-52 -63q-30 -27 -41 -46t-11 -42q0 -28 16.5 -45.5t63.5 -38.5q62 -28 87 -60.5t25 -84.5q0 -154 -200 -154h-54v49h53q145 0 145 101q0 36 -19.5 59t-70.5 45
q-56 24 -78.5 52t-22.5 73q0 37 14.5 64.5t52.5 62.5q29 27 40.5 47.5t11.5 46.5q0 45 -31 69t-91 24q-136 0 -136 -124v-569h-56z" />
    <glyph glyph-name="agrave" unicode="&#xe0;" horiz-adv-x="542" 
d="M261 597l-122 127h72l108 -127h-58zM217 -12q-79 0 -123 39.5t-44 112.5q0 155 210 155h146v46q0 134 -142 134q-136 0 -144 -112h-55q15 161 201 161q196 0 196 -183v-341h-48l-2 85q-71 -97 -195 -97zM224 36q118 0 182 110v101h-143q-83 0 -120 -25.5t-37 -79.5
q0 -106 118 -106z" />
    <glyph glyph-name="aacute" unicode="&#xe1;" horiz-adv-x="542" 
d="M205 597l108 127h72l-122 -127h-58zM217 -12q-79 0 -123 39.5t-44 112.5q0 155 210 155h146v46q0 134 -142 134q-136 0 -144 -112h-55q15 161 201 161q196 0 196 -183v-341h-48l-2 85q-71 -97 -195 -97zM224 36q118 0 182 110v101h-143q-83 0 -120 -25.5t-37 -79.5
q0 -106 118 -106z" />
    <glyph glyph-name="acircumflex" unicode="&#xe2;" horiz-adv-x="542" 
d="M126 597l108 127h55l109 -127h-58l-78 82l-78 -82h-58zM217 -12q-79 0 -123 39.5t-44 112.5q0 155 210 155h146v46q0 134 -142 134q-136 0 -144 -112h-55q15 161 201 161q196 0 196 -183v-341h-48l-2 85q-71 -97 -195 -97zM224 36q118 0 182 110v101h-143
q-83 0 -120 -25.5t-37 -79.5q0 -106 118 -106z" />
    <glyph glyph-name="atilde" unicode="&#xe3;" horiz-adv-x="542" 
d="M316 610q-28 0 -65 29q-28 22 -44 22q-31 0 -38 -52h-41q6 99 80 99q27 0 65 -29q31 -23 44 -23q32 0 38 52h41q-6 -98 -80 -98zM217 -12q-79 0 -123 39.5t-44 112.5q0 155 210 155h146v46q0 134 -142 134q-136 0 -144 -112h-55q15 161 201 161q196 0 196 -183v-341h-48
l-2 85q-71 -97 -195 -97zM224 36q118 0 182 110v101h-143q-83 0 -120 -25.5t-37 -79.5q0 -106 118 -106z" />
    <glyph glyph-name="adieresis" unicode="&#xe4;" horiz-adv-x="542" 
d="M146 620v79h64v-79h-64zM314 620v79h64v-79h-64zM217 -12q-79 0 -123 39.5t-44 112.5q0 155 210 155h146v46q0 134 -142 134q-136 0 -144 -112h-55q15 161 201 161q196 0 196 -183v-341h-48l-2 85q-71 -97 -195 -97zM224 36q118 0 182 110v101h-143q-83 0 -120 -25.5
t-37 -79.5q0 -106 118 -106z" />
    <glyph glyph-name="aring" unicode="&#xe5;" horiz-adv-x="542" 
d="M262 585q-40 0 -66 25.5t-26 64.5t26 64.5t66 25.5t66 -25.5t26 -64.5t-26 -64.5t-66 -25.5zM262 625q21 0 34.5 14t13.5 36t-13.5 36t-34.5 14q-22 0 -35.5 -14t-13.5 -36t13.5 -36t35.5 -14zM217 -12q-79 0 -123 39.5t-44 112.5q0 155 210 155h146v46q0 134 -142 134
q-136 0 -144 -112h-55q15 161 201 161q196 0 196 -183v-341h-48l-2 85q-71 -97 -195 -97zM224 36q118 0 182 110v101h-143q-83 0 -120 -25.5t-37 -79.5q0 -106 118 -106z" />
    <glyph glyph-name="ae" unicode="&#xe6;" horiz-adv-x="889" 
d="M220 -12q-80 0 -125 39t-45 112q0 156 209 156h147v46q0 134 -142 134q-135 0 -144 -112h-55q7 79 57.5 120t140.5 41q142 0 177 -103q44 103 181 103q101 0 154.5 -55.5t53.5 -161.5v-63h-367v-35q0 -172 160 -172q68 0 106 29.5t43 83.5h54q-5 -79 -57.5 -120.5
t-145.5 -41.5q-148 0 -195 107q-77 -107 -207 -107zM462 292h313v11q0 172 -156 172q-157 0 -157 -172v-11zM226 36q118 0 184 117q-4 21 -4 52v42h-143q-82 0 -119.5 -26t-37.5 -80q0 -51 31 -78t89 -27z" />
    <glyph glyph-name="ccedilla" unicode="&#xe7;" horiz-adv-x="514" 
d="M273 37q135 0 144 128h54q-4 -77 -48 -123t-124 -53l-21 -57h2q88 0 88 -62q0 -68 -102 -68q-55 0 -90 19l14 34q28 -18 68 -18q56 0 56 35q0 16 -12.5 22.5t-46.5 6.5h-26l32 87q-96 3 -147 59t-51 158v102q0 106 53.5 161.5t154.5 55.5q93 0 144.5 -46.5t55.5 -130.5
h-54q-9 128 -144 128q-154 0 -154 -171v-96q0 -171 154 -171z" />
    <glyph glyph-name="egrave" unicode="&#xe8;" horiz-adv-x="546" 
d="M273 597l-122 127h72l108 -127h-58zM280 -12q-105 0 -161 55.5t-56 161.5v102q0 106 54.5 161.5t157.5 55.5t157 -55.5t54 -161.5v-63h-367v-35q0 -172 159 -172q68 0 106.5 29.5t43.5 83.5h54q-5 -78 -58 -120t-144 -42zM119 292h313v11q0 172 -157 172
q-156 0 -156 -172v-11z" />
    <glyph glyph-name="eacute" unicode="&#xe9;" horiz-adv-x="546" 
d="M217 597l108 127h72l-122 -127h-58zM280 -12q-105 0 -161 55.5t-56 161.5v102q0 106 54.5 161.5t157.5 55.5t157 -55.5t54 -161.5v-63h-367v-35q0 -172 159 -172q68 0 106.5 29.5t43.5 83.5h54q-5 -78 -58 -120t-144 -42zM119 292h313v11q0 172 -157 172
q-156 0 -156 -172v-11z" />
    <glyph glyph-name="ecircumflex" unicode="&#xea;" horiz-adv-x="546" 
d="M138 597l108 127h55l109 -127h-58l-78 82l-78 -82h-58zM280 -12q-105 0 -161 55.5t-56 161.5v102q0 106 54.5 161.5t157.5 55.5t157 -55.5t54 -161.5v-63h-367v-35q0 -172 159 -172q68 0 106.5 29.5t43.5 83.5h54q-5 -78 -58 -120t-144 -42zM119 292h313v11
q0 172 -157 172q-156 0 -156 -172v-11z" />
    <glyph glyph-name="edieresis" unicode="&#xeb;" horiz-adv-x="546" 
d="M158 620v79h64v-79h-64zM326 620v79h64v-79h-64zM280 -12q-105 0 -161 55.5t-56 161.5v102q0 106 54.5 161.5t157.5 55.5t157 -55.5t54 -161.5v-63h-367v-35q0 -172 159 -172q68 0 106.5 29.5t43.5 83.5h54q-5 -78 -58 -120t-144 -42zM119 292h313v11q0 172 -157 172
q-156 0 -156 -172v-11z" />
    <glyph glyph-name="igrave" unicode="&#xec;" horiz-adv-x="236" 
d="M117 597l-122 127h72l108 -127h-58zM90 0v512h56v-512h-56z" />
    <glyph glyph-name="iacute" unicode="&#xed;" horiz-adv-x="236" 
d="M61 597l108 127h72l-122 -127h-58zM90 0v512h56v-512h-56z" />
    <glyph glyph-name="icircumflex" unicode="&#xee;" horiz-adv-x="236" 
d="M-13 597l103 127h56l103 -127h-57l-74 82l-74 -82h-57zM90 0v512h56v-512h-56z" />
    <glyph glyph-name="idieresis" unicode="&#xef;" horiz-adv-x="236" 
d="M17 620v79h64v-79h-64zM156 620v79h64v-79h-64zM90 0v512h56v-512h-56z" />
    <glyph glyph-name="eth" unicode="&#xf0;" horiz-adv-x="554" 
d="M277 -12q-106 0 -161.5 56.5t-55.5 164.5v65q0 101 51 157t142 56q105 0 168 -80q-33 100 -116 189l-145 -57l-17 43l126 50q-64 58 -143 98h88q55 -31 107 -78l100 39l17 -43l-82 -32q65 -71 101.5 -157t36.5 -172v-78q0 -108 -55.5 -164.5t-161.5 -56.5zM277 37
q161 0 161 176v91q-53 133 -177 133q-70 0 -107.5 -42t-37.5 -124v-58q0 -176 161 -176z" />
    <glyph glyph-name="ntilde" unicode="&#xf1;" horiz-adv-x="566" 
d="M339 610q-28 0 -65 29q-28 22 -44 22q-31 0 -38 -52h-41q6 99 80 99q27 0 65 -29q31 -23 44 -23q32 0 38 52h41q-6 -98 -80 -98zM90 0v512h48l2 -99q65 111 184 111q160 0 160 -185v-339h-56v333q0 140 -113 140q-110 0 -169 -133v-340h-56z" />
    <glyph glyph-name="ograve" unicode="&#xf2;" horiz-adv-x="560" 
d="M278 597l-122 127h72l108 -127h-58zM280 -12q-106 0 -161.5 57t-55.5 164v94q0 107 55.5 164t161.5 57q105 0 161 -57t56 -164v-94q0 -107 -56 -164t-161 -57zM280 37q161 0 161 176v87q0 175 -161 175t-161 -175v-87q0 -176 161 -176z" />
    <glyph glyph-name="oacute" unicode="&#xf3;" horiz-adv-x="560" 
d="M222 597l108 127h72l-122 -127h-58zM280 -12q-106 0 -161.5 57t-55.5 164v94q0 107 55.5 164t161.5 57q105 0 161 -57t56 -164v-94q0 -107 -56 -164t-161 -57zM280 37q161 0 161 176v87q0 175 -161 175t-161 -175v-87q0 -176 161 -176z" />
    <glyph glyph-name="ocircumflex" unicode="&#xf4;" horiz-adv-x="560" 
d="M143 597l108 127h55l109 -127h-58l-78 82l-78 -82h-58zM280 -12q-106 0 -161.5 57t-55.5 164v94q0 107 55.5 164t161.5 57q105 0 161 -57t56 -164v-94q0 -107 -56 -164t-161 -57zM280 37q161 0 161 176v87q0 175 -161 175t-161 -175v-87q0 -176 161 -176z" />
    <glyph glyph-name="otilde" unicode="&#xf5;" horiz-adv-x="560" 
d="M333 610q-28 0 -65 29q-28 22 -44 22q-31 0 -38 -52h-41q6 99 80 99q27 0 65 -29q31 -23 44 -23q32 0 38 52h41q-6 -98 -80 -98zM280 -12q-106 0 -161.5 57t-55.5 164v94q0 107 55.5 164t161.5 57q105 0 161 -57t56 -164v-94q0 -107 -56 -164t-161 -57zM280 37
q161 0 161 176v87q0 175 -161 175t-161 -175v-87q0 -176 161 -176z" />
    <glyph glyph-name="odieresis" unicode="&#xf6;" horiz-adv-x="560" 
d="M163 620v79h64v-79h-64zM331 620v79h64v-79h-64zM280 -12q-106 0 -161.5 57t-55.5 164v94q0 107 55.5 164t161.5 57q105 0 161 -57t56 -164v-94q0 -107 -56 -164t-161 -57zM280 37q161 0 161 176v87q0 175 -161 175t-161 -175v-87q0 -176 161 -176z" />
    <glyph glyph-name="divide" unicode="&#xf7;" 
d="M269 469v84h64v-84h-64zM57 283v50h487v-50h-487zM269 64v84h64v-84h-64z" />
    <glyph glyph-name="oslash" unicode="&#xf8;" horiz-adv-x="560" 
d="M497 494l-38 -49q38 -53 38 -142v-94q0 -107 -56 -164t-161 -57q-91 0 -146 43l-34 -43l-37 30l38 48q-38 55 -38 143v94q0 107 55.5 164t161.5 57q91 0 146 -43l34 43zM119 213q0 -61 19 -99l255 324q-40 37 -113 37q-161 0 -161 -175v-87zM441 300q0 60 -19 99
l-255 -325q40 -37 113 -37q161 0 161 176v87z" />
    <glyph glyph-name="ugrave" unicode="&#xf9;" horiz-adv-x="571" 
d="M280 597l-122 127h72l108 -127h-58zM244 -12q-162 0 -162 185v339h56v-333q0 -140 115 -140q113 0 172 136v337h56v-512h-48l-2 101q-65 -113 -187 -113z" />
    <glyph glyph-name="uacute" unicode="&#xfa;" horiz-adv-x="571" 
d="M224 597l108 127h72l-122 -127h-58zM244 -12q-162 0 -162 185v339h56v-333q0 -140 115 -140q113 0 172 136v337h56v-512h-48l-2 101q-65 -113 -187 -113z" />
    <glyph glyph-name="ucircumflex" unicode="&#xfb;" horiz-adv-x="571" 
d="M145 597l108 127h55l109 -127h-58l-78 82l-78 -82h-58zM244 -12q-162 0 -162 185v339h56v-333q0 -140 115 -140q113 0 172 136v337h56v-512h-48l-2 101q-65 -113 -187 -113z" />
    <glyph glyph-name="udieresis" unicode="&#xfc;" horiz-adv-x="571" 
d="M165 620v79h64v-79h-64zM333 620v79h64v-79h-64zM244 -12q-162 0 -162 185v339h56v-333q0 -140 115 -140q113 0 172 136v337h56v-512h-48l-2 101q-65 -113 -187 -113z" />
    <glyph glyph-name="yacute" unicode="&#xfd;" horiz-adv-x="461" 
d="M175 597l108 127h72l-122 -127h-58zM57 -182v49h34q35 0 52.5 14t32.5 55l32 87l-193 489h60l163 -419l151 419h57l-216 -584q-23 -63 -52 -86.5t-82 -23.5h-39z" />
    <glyph glyph-name="thorn" unicode="&#xfe;" horiz-adv-x="582" 
d="M90 -182v912h56v-310q67 104 187 104q88 0 137 -54.5t49 -155.5v-115q0 -101 -49 -156t-137 -55q-120 0 -187 105v-275h-56zM327 37q65 0 100.5 42.5t35.5 122.5v108q0 80 -35.5 122.5t-100.5 42.5q-118 0 -181 -136v-165q63 -137 181 -137z" />
    <glyph glyph-name="ydieresis" unicode="&#xff;" horiz-adv-x="461" 
d="M116 620v79h64v-79h-64zM284 620v79h64v-79h-64zM57 -182v49h34q35 0 52.5 14t32.5 55l32 87l-193 489h60l163 -419l151 419h57l-216 -584q-23 -63 -52 -86.5t-82 -23.5h-39z" />
    <glyph glyph-name="Amacron" unicode="&#x100;" 
d="M194 795v45h214v-45h-214zM12 0l260 680h58l259 -680h-61l-73 192h-311l-73 -192h-59zM164 245h271l-135 364z" />
    <glyph glyph-name="amacron" unicode="&#x101;" horiz-adv-x="542" 
d="M155 638v45h214v-45h-214zM217 -12q-79 0 -123 39.5t-44 112.5q0 155 210 155h146v46q0 134 -142 134q-136 0 -144 -112h-55q15 161 201 161q196 0 196 -183v-341h-48l-2 85q-71 -97 -195 -97zM224 36q118 0 182 110v101h-143q-83 0 -120 -25.5t-37 -79.5
q0 -106 118 -106z" />
    <glyph glyph-name="Abreve" unicode="&#x102;" 
d="M301 757q55 0 86.5 31t35.5 85h-46q-5 -70 -76 -70t-76 70h-45q4 -54 35 -85t86 -31zM12 0l260 680h58l259 -680h-61l-73 192h-311l-73 -192h-59zM164 245h271l-135 364z" />
    <glyph glyph-name="abreve" unicode="&#x103;" horiz-adv-x="542" 
d="M262 600q55 0 86.5 31t35.5 85h-46q-5 -70 -76 -70t-76 70h-45q4 -54 35 -85t86 -31zM217 -12q-79 0 -123 39.5t-44 112.5q0 155 210 155h146v46q0 134 -142 134q-136 0 -144 -112h-55q15 161 201 161q196 0 196 -183v-341h-48l-2 85q-71 -97 -195 -97zM224 36
q118 0 182 110v101h-143q-83 0 -120 -25.5t-37 -79.5q0 -106 118 -106z" />
    <glyph glyph-name="Aogonek" unicode="&#x104;" 
d="M536 -155q27 0 54 17v-47q-30 -14 -63 -14q-44 0 -67.5 21t-23.5 59q0 72 89 128l-70 183h-311l-73 -192h-59l260 680h58l259 -680h-12q-91 -51 -91 -108q0 -47 50 -47zM164 245h271l-135 364z" />
    <glyph glyph-name="aogonek" unicode="&#x105;" horiz-adv-x="542" 
d="M447 0q-89 -51 -89 -107q0 -47 50 -47q27 0 54 17v-47q-30 -14 -63 -14q-44 0 -67.5 21t-23.5 59q0 78 106 138l-2 65q-71 -97 -195 -97q-79 0 -123 39.5t-44 112.5q0 155 210 155h146v46q0 134 -142 134q-136 0 -144 -112h-55q15 161 201 161q196 0 196 -183v-341h-15z
M406 146v101h-143q-83 0 -120 -25.5t-37 -79.5q0 -106 118 -106t182 110z" />
    <glyph glyph-name="Cacute" unicode="&#x106;" horiz-adv-x="614" 
d="M260 754l108 127h72l-122 -127h-58zM318 -12q-123 0 -186.5 66.5t-63.5 196.5v178q0 263 250 263q114 0 176 -56t67 -165h-56q-11 168 -187 168q-98 0 -145.5 -52.5t-47.5 -161.5v-170q0 -109 47.5 -161.5t145.5 -52.5q177 0 187 167h56q-5 -108 -67 -164t-176 -56z" />
    <glyph glyph-name="cacute" unicode="&#x107;" horiz-adv-x="514" 
d="M211 597l108 127h72l-122 -127h-58zM272 -12q-101 0 -155 56t-54 161v102q0 106 53.5 161.5t154.5 55.5q93 0 144.5 -46.5t55.5 -130.5h-54q-9 128 -144 128q-154 0 -154 -171v-96q0 -171 154 -171q135 0 144 128h54q-4 -84 -55 -130.5t-144 -46.5z" />
    <glyph glyph-name="Ccircumflex" unicode="&#x108;" horiz-adv-x="614" 
d="M181 754l108 127h55l109 -127h-58l-78 82l-78 -82h-58zM318 -12q-123 0 -186.5 66.5t-63.5 196.5v178q0 263 250 263q114 0 176 -56t67 -165h-56q-11 168 -187 168q-98 0 -145.5 -52.5t-47.5 -161.5v-170q0 -109 47.5 -161.5t145.5 -52.5q177 0 187 167h56
q-5 -108 -67 -164t-176 -56z" />
    <glyph glyph-name="ccircumflex" unicode="&#x109;" horiz-adv-x="514" 
d="M132 597l108 127h55l109 -127h-58l-78 82l-78 -82h-58zM272 -12q-101 0 -155 56t-54 161v102q0 106 53.5 161.5t154.5 55.5q93 0 144.5 -46.5t55.5 -130.5h-54q-9 128 -144 128q-154 0 -154 -171v-96q0 -171 154 -171q135 0 144 128h54q-4 -84 -55 -130.5t-144 -46.5z
" />
    <glyph glyph-name="Cdotaccent" unicode="&#x10a;" horiz-adv-x="614" 
d="M285 777v79h64v-79h-64zM318 -12q-123 0 -186.5 66.5t-63.5 196.5v178q0 263 250 263q114 0 176 -56t67 -165h-56q-11 168 -187 168q-98 0 -145.5 -52.5t-47.5 -161.5v-170q0 -109 47.5 -161.5t145.5 -52.5q177 0 187 167h56q-5 -108 -67 -164t-176 -56z" />
    <glyph glyph-name="cdotaccent" unicode="&#x10b;" horiz-adv-x="514" 
d="M236 620v79h64v-79h-64zM272 -12q-101 0 -155 56t-54 161v102q0 106 53.5 161.5t154.5 55.5q93 0 144.5 -46.5t55.5 -130.5h-54q-9 128 -144 128q-154 0 -154 -171v-96q0 -171 154 -171q135 0 144 128h54q-4 -84 -55 -130.5t-144 -46.5z" />
    <glyph glyph-name="Ccaron" unicode="&#x10c;" horiz-adv-x="614" 
d="M289 754l-108 127h58l78 -82l78 82h58l-109 -127h-55zM318 -12q-123 0 -186.5 66.5t-63.5 196.5v178q0 263 250 263q114 0 176 -56t67 -165h-56q-11 168 -187 168q-98 0 -145.5 -52.5t-47.5 -161.5v-170q0 -109 47.5 -161.5t145.5 -52.5q177 0 187 167h56
q-5 -108 -67 -164t-176 -56z" />
    <glyph glyph-name="ccaron" unicode="&#x10d;" horiz-adv-x="514" 
d="M240 597l-108 127h58l78 -82l78 82h58l-109 -127h-55zM272 -12q-101 0 -155 56t-54 161v102q0 106 53.5 161.5t154.5 55.5q93 0 144.5 -46.5t55.5 -130.5h-54q-9 128 -144 128q-154 0 -154 -171v-96q0 -171 154 -171q135 0 144 128h54q-4 -84 -55 -130.5t-144 -46.5z" />
    <glyph glyph-name="Dcaron" unicode="&#x10e;" horiz-adv-x="647" 
d="M287 754l-108 127h58l78 -82l78 82h58l-109 -127h-55zM99 0v680h225q131 0 193.5 -63.5t62.5 -197.5v-158q0 -135 -62 -198t-194 -63h-225zM156 53h163q108 0 156 49t48 160v156q0 111 -48 160t-156 49h-163v-574z" />
    <glyph glyph-name="dcaron" unicode="&#x10f;" horiz-adv-x="582" 
d="M249 -12q-88 0 -137 55t-49 156v115q0 101 49 155.5t137 54.5q120 0 187 -104v310h56v-730h-48l-2 102q-69 -114 -193 -114zM541 535l41 195h61l-59 -195h-43zM255 37q118 0 181 137v165q-63 136 -181 136q-65 0 -100.5 -42.5t-35.5 -122.5v-108q0 -80 35.5 -122.5
t100.5 -42.5z" />
    <glyph glyph-name="Dcroat" unicode="&#x110;" horiz-adv-x="657" 
d="M334 680q131 0 193.5 -63.5t62.5 -197.5v-158q0 -135 -62 -198t-194 -63h-225v323h-80v53h80v304h225zM533 262v156q0 111 -48 160t-156 49h-163v-251h181v-53h-181v-270h163q108 0 156 49t48 160z" />
    <glyph glyph-name="dcroat" unicode="&#x111;" horiz-adv-x="590" 
d="M580 635v-46h-88v-589h-48l-2 102q-69 -114 -193 -114q-88 0 -137 55t-49 156v115q0 101 49 155.5t137 54.5q120 0 187 -104v169h-139v46h139v95h56v-95h88zM436 174v165q-63 136 -181 136q-65 0 -100.5 -42.5t-35.5 -122.5v-108q0 -80 35.5 -122.5t100.5 -42.5
q118 0 181 137z" />
    <glyph glyph-name="Emacron" unicode="&#x112;" horiz-adv-x="582" 
d="M210 795v45h214v-45h-214zM99 0v680h436v-53h-379v-251h329v-53h-329v-270h389v-53h-446z" />
    <glyph glyph-name="emacron" unicode="&#x113;" horiz-adv-x="546" 
d="M167 638v45h214v-45h-214zM280 -12q-105 0 -161 55.5t-56 161.5v102q0 106 54.5 161.5t157.5 55.5t157 -55.5t54 -161.5v-63h-367v-35q0 -172 159 -172q68 0 106.5 29.5t43.5 83.5h54q-5 -78 -58 -120t-144 -42zM119 292h313v11q0 172 -157 172q-156 0 -156 -172v-11z
" />
    <glyph glyph-name="Ebreve" unicode="&#x114;" horiz-adv-x="582" 
d="M317 757q55 0 86.5 31t35.5 85h-46q-5 -70 -76 -70t-76 70h-45q4 -54 35 -85t86 -31zM99 0v680h436v-53h-379v-251h329v-53h-329v-270h389v-53h-446z" />
    <glyph glyph-name="ebreve" unicode="&#x115;" horiz-adv-x="546" 
d="M274 600q55 0 86.5 31t35.5 85h-46q-5 -70 -76 -70t-76 70h-45q4 -54 35 -85t86 -31zM280 -12q-105 0 -161 55.5t-56 161.5v102q0 106 54.5 161.5t157.5 55.5t157 -55.5t54 -161.5v-63h-367v-35q0 -172 159 -172q68 0 106.5 29.5t43.5 83.5h54q-5 -78 -58 -120t-144 -42z
M119 292h313v11q0 172 -157 172q-156 0 -156 -172v-11z" />
    <glyph glyph-name="Edotaccent" unicode="&#x116;" horiz-adv-x="582" 
d="M285 777v79h64v-79h-64zM99 0v680h436v-53h-379v-251h329v-53h-329v-270h389v-53h-446z" />
    <glyph glyph-name="edotaccent" unicode="&#x117;" horiz-adv-x="546" 
d="M242 620v79h64v-79h-64zM280 -12q-105 0 -161 55.5t-56 161.5v102q0 106 54.5 161.5t157.5 55.5t157 -55.5t54 -161.5v-63h-367v-35q0 -172 159 -172q68 0 106.5 29.5t43.5 83.5h54q-5 -78 -58 -120t-144 -42zM119 292h313v11q0 172 -157 172q-156 0 -156 -172v-11z" />
    <glyph glyph-name="Eogonek" unicode="&#x118;" horiz-adv-x="582" 
d="M530 0q-89 -51 -89 -107q0 -47 50 -47q27 0 54 17v-47q-30 -14 -63 -14q-44 0 -67.5 21t-23.5 59q0 65 74 118h-366v680h436v-53h-379v-251h329v-53h-329v-270h389v-53h-15z" />
    <glyph glyph-name="eogonek" unicode="&#x119;" horiz-adv-x="546" 
d="M486 244h-367v-35q0 -172 159 -172q68 0 106.5 29.5t43.5 83.5h54q-6 -80 -60 -122q-77 -76 -77 -134q0 -48 50 -48q27 0 54 17v-47q-24 -14 -62 -14q-92 0 -92 82q0 54 46 109q-32 -5 -61 -5q-105 0 -161 55.5t-56 161.5v102q0 106 54.5 161.5t157.5 55.5t157 -55.5
t54 -161.5v-63zM119 303v-11h313v11q0 172 -157 172q-156 0 -156 -172z" />
    <glyph glyph-name="Ecaron" unicode="&#x11a;" horiz-adv-x="582" 
d="M289 754l-108 127h58l78 -82l78 82h58l-109 -127h-55zM99 0v680h436v-53h-379v-251h329v-53h-329v-270h389v-53h-446z" />
    <glyph glyph-name="ecaron" unicode="&#x11b;" horiz-adv-x="546" 
d="M246 597l-108 127h58l78 -82l78 82h58l-109 -127h-55zM280 -12q-105 0 -161 55.5t-56 161.5v102q0 106 54.5 161.5t157.5 55.5t157 -55.5t54 -161.5v-63h-367v-35q0 -172 159 -172q68 0 106.5 29.5t43.5 83.5h54q-5 -78 -58 -120t-144 -42zM119 292h313v11
q0 172 -157 172q-156 0 -156 -172v-11z" />
    <glyph glyph-name="Gcircumflex" unicode="&#x11c;" horiz-adv-x="637" 
d="M184 754l108 127h55l109 -127h-58l-78 82l-78 -82h-58zM325 -12q-124 0 -190.5 66t-66.5 191v190q0 122 66.5 189.5t187.5 67.5q111 0 175 -56.5t68 -160.5h-56q-5 79 -53 121.5t-135 42.5q-96 0 -146 -53.5t-50 -155.5v-180q0 -209 201 -209q96 0 143 49.5t47 152.5v50
h-166v53h222v-104q0 -125 -62.5 -189.5t-184.5 -64.5z" />
    <glyph glyph-name="gcircumflex" unicode="&#x11d;" horiz-adv-x="582" 
d="M143 597l108 127h55l109 -127h-58l-78 82l-78 -82h-58zM279 -194q-95 0 -147 38.5t-57 112.5h53q9 -102 149 -102q82 0 120.5 37t38.5 115v107q-69 -104 -187 -104q-88 0 -137 55t-49 156v93q0 101 49 155.5t137 54.5q123 0 193 -113l2 101h48v-505q0 -201 -213 -201z
M255 60q118 0 181 136v143q-63 136 -181 136q-65 0 -100.5 -42.5t-35.5 -122.5v-85q0 -81 35 -123t101 -42z" />
    <glyph glyph-name="Gbreve" unicode="&#x11e;" horiz-adv-x="637" 
d="M320 757q55 0 86.5 31t35.5 85h-46q-5 -70 -76 -70t-76 70h-45q4 -54 35 -85t86 -31zM325 -12q-124 0 -190.5 66t-66.5 191v190q0 122 66.5 189.5t187.5 67.5q111 0 175 -56.5t68 -160.5h-56q-5 79 -53 121.5t-135 42.5q-96 0 -146 -53.5t-50 -155.5v-180
q0 -209 201 -209q96 0 143 49.5t47 152.5v50h-166v53h222v-104q0 -125 -62.5 -189.5t-184.5 -64.5z" />
    <glyph glyph-name="gbreve" unicode="&#x11f;" horiz-adv-x="582" 
d="M279 600q55 0 86.5 31t35.5 85h-46q-5 -70 -76 -70t-76 70h-45q4 -54 35 -85t86 -31zM279 -194q-95 0 -147 38.5t-57 112.5h53q9 -102 149 -102q82 0 120.5 37t38.5 115v107q-69 -104 -187 -104q-88 0 -137 55t-49 156v93q0 101 49 155.5t137 54.5q123 0 193 -113l2 101
h48v-505q0 -201 -213 -201zM255 60q118 0 181 136v143q-63 136 -181 136q-65 0 -100.5 -42.5t-35.5 -122.5v-85q0 -81 35 -123t101 -42z" />
    <glyph glyph-name="Gdotaccent" unicode="&#x120;" horiz-adv-x="637" 
d="M288 777v79h64v-79h-64zM325 -12q-124 0 -190.5 66t-66.5 191v190q0 122 66.5 189.5t187.5 67.5q111 0 175 -56.5t68 -160.5h-56q-5 79 -53 121.5t-135 42.5q-96 0 -146 -53.5t-50 -155.5v-180q0 -209 201 -209q96 0 143 49.5t47 152.5v50h-166v53h222v-104
q0 -125 -62.5 -189.5t-184.5 -64.5z" />
    <glyph glyph-name="gdotaccent" unicode="&#x121;" horiz-adv-x="582" 
d="M247 620v79h64v-79h-64zM279 -194q-95 0 -147 38.5t-57 112.5h53q9 -102 149 -102q82 0 120.5 37t38.5 115v107q-69 -104 -187 -104q-88 0 -137 55t-49 156v93q0 101 49 155.5t137 54.5q123 0 193 -113l2 101h48v-505q0 -201 -213 -201zM255 60q118 0 181 136v143
q-63 136 -181 136q-65 0 -100.5 -42.5t-35.5 -122.5v-85q0 -81 35 -123t101 -42z" />
    <glyph glyph-name="Gcommaaccent" unicode="&#x122;" horiz-adv-x="637" 
d="M325 -12q-124 0 -190.5 66t-66.5 191v190q0 122 66.5 189.5t187.5 67.5q111 0 175 -56.5t68 -160.5h-56q-5 79 -53 121.5t-135 42.5q-96 0 -146 -53.5t-50 -155.5v-180q0 -209 201 -209q96 0 143 49.5t47 152.5v50h-166v53h222v-104q0 -125 -62.5 -189.5t-184.5 -64.5z
M284 -225v32q36 0 36 46h-26v64h64v-57q0 -42 -16.5 -63t-57.5 -22z" />
    <glyph glyph-name="gcommaaccent" unicode="&#x123;" horiz-adv-x="582" 
d="M321 737v-32q-36 0 -36 -46h26v-64h-64v57q0 42 16.5 63t57.5 22zM279 -194q-95 0 -147 38.5t-57 112.5h53q9 -102 149 -102q82 0 120.5 37t38.5 115v107q-69 -104 -187 -104q-88 0 -137 55t-49 156v93q0 101 49 155.5t137 54.5q123 0 193 -113l2 101h48v-505
q0 -201 -213 -201zM255 60q118 0 181 136v143q-63 136 -181 136q-65 0 -100.5 -42.5t-35.5 -122.5v-85q0 -81 35 -123t101 -42z" />
    <glyph glyph-name="Hcircumflex" unicode="&#x124;" horiz-adv-x="696" 
d="M212 754l108 127h55l109 -127h-58l-78 82l-78 -82h-58zM99 0v680h57v-304h384v304h57v-680h-57v323h-384v-323h-57z" />
    <glyph glyph-name="hcircumflex" unicode="&#x125;" horiz-adv-x="566" 
d="M-18 804l108 127h55l109 -127h-58l-78 82l-78 -82h-58zM90 0v730h56v-308q64 102 178 102q160 0 160 -185v-339h-56v333q0 140 -113 140q-110 0 -169 -133v-340h-56z" />
    <glyph glyph-name="Hbar" unicode="&#x126;" horiz-adv-x="716" 
d="M687 543v-49h-80v-494h-57v323h-384v-323h-57v494h-80v49h80v137h57v-137h384v137h57v-137h80zM550 376v118h-384v-118h384z" />
    <glyph glyph-name="hbar" unicode="&#x127;" horiz-adv-x="574" 
d="M332 524q160 0 160 -185v-339h-56v333q0 140 -113 140q-110 0 -169 -133v-340h-56v589h-89v46h89v95h56v-95h138v-46h-138v-167q64 102 178 102z" />
    <glyph glyph-name="Itilde" unicode="&#x128;" horiz-adv-x="255" 
d="M178 767q-25 0 -61 29q-27 22 -41 22q-31 0 -36 -52h-41q6 99 77 99q25 0 62 -29q29 -23 41 -23q32 0 36 52h41q-6 -98 -78 -98zM99 0v680h57v-680h-57z" />
    <glyph glyph-name="itilde" unicode="&#x129;" horiz-adv-x="236" 
d="M168 610q-25 0 -61 29q-27 22 -41 22q-31 0 -36 -52h-41q6 99 77 99q25 0 62 -29q29 -23 41 -23q32 0 36 52h41q-6 -98 -78 -98zM90 0v512h56v-512h-56z" />
    <glyph glyph-name="Imacron" unicode="&#x12a;" horiz-adv-x="255" 
d="M29 795v45h198v-45h-198zM99 0v680h57v-680h-57z" />
    <glyph glyph-name="imacron" unicode="&#x12b;" horiz-adv-x="236" 
d="M19 638v45h198v-45h-198zM90 0v512h56v-512h-56z" />
    <glyph glyph-name="Ibreve" unicode="&#x12c;" horiz-adv-x="255" 
d="M128 757q-53 0 -83 31t-33 85h45q3 -70 71 -70q33 0 51 18.5t20 51.5h45q-3 -54 -33 -85t-83 -31zM99 0v680h57v-680h-57z" />
    <glyph glyph-name="ibreve" unicode="&#x12d;" horiz-adv-x="236" 
d="M118 600q-53 0 -83 31t-33 85h45q3 -70 71 -70q33 0 51 18.5t20 51.5h45q-3 -54 -33 -85t-83 -31zM90 0v512h56v-512h-56z" />
    <glyph glyph-name="Iogonek" unicode="&#x12e;" horiz-adv-x="255" 
d="M138 -154q30 0 55 17v-47q-31 -14 -63 -14q-44 0 -68 21t-24 59q0 62 64 118h-3v680h57v-680h-3q-65 -55 -65 -106q0 -48 50 -48z" />
    <glyph glyph-name="iogonek" unicode="&#x12f;" horiz-adv-x="236" 
d="M149 701v-83h-62v83h62zM127 -154q29 0 55 17v-47q-31 -14 -63 -14q-44 0 -68 21t-24 59q0 62 64 118h-1v512h56v-512h-4q-65 -55 -65 -106q0 -48 50 -48z" />
    <glyph glyph-name="Idotaccent" unicode="&#x130;" horiz-adv-x="255" 
d="M96 777v79h64v-79h-64zM99 0v680h57v-680h-57z" />
    <glyph glyph-name="dotlessi" unicode="&#x131;" horiz-adv-x="236" 
d="M90 0v512h56v-512h-56z" />
    <glyph glyph-name="IJ" unicode="&#x132;" horiz-adv-x="803" 
d="M99 0v680h57v-680h-57zM496 -12q-114 0 -168.5 54t-54.5 168v14h55v-11q0 -91 39.5 -131.5t127.5 -40.5q91 0 131 44.5t40 145.5v449h57v-454q0 -122 -55 -180t-172 -58z" />
    <glyph glyph-name="ij" unicode="&#x133;" horiz-adv-x="472" 
d="M87 618v83h62v-83h-62zM323 618v83h62v-83h-62zM90 0v512h56v-512h-56zM233 -182v49h22q42 0 56.5 18t14.5 68v559h56v-558q0 -72 -27.5 -104t-89.5 -32h-32z" />
    <glyph glyph-name="Jcircumflex" unicode="&#x134;" horiz-adv-x="548" 
d="M308 754l103 127h56l103 -127h-57l-74 82l-74 -82h-57zM241 -12q-114 0 -168.5 54t-54.5 168v14h55v-11q0 -91 39.5 -131.5t127.5 -40.5q91 0 131 44.5t40 145.5v449h57v-454q0 -122 -55 -180t-172 -58z" />
    <glyph glyph-name="jcircumflex" unicode="&#x135;" horiz-adv-x="236" 
d="M-13 597l103 127h56l103 -127h-57l-74 82l-74 -82h-57zM-3 -182v49h22q42 0 56.5 18t14.5 68v559h56v-558q0 -72 -27.5 -104t-89.5 -32h-32z" />
    <glyph glyph-name="Kcommaaccent" unicode="&#x136;" horiz-adv-x="617" 
d="M99 0v680h57v-397l373 397h72l-259 -276l263 -404h-68l-235 361l-146 -153v-208h-57zM294 -225v32q36 0 36 46h-26v64h64v-57q0 -42 -16.5 -63t-57.5 -22z" />
    <glyph glyph-name="kcommaaccent" unicode="&#x137;" horiz-adv-x="521" 
d="M90 0v730h56v-503l286 285h72l-210 -209l214 -303h-68l-186 263l-108 -106v-157h-56zM245 -225v32q36 0 36 46h-26v64h64v-57q0 -42 -16.5 -63t-57.5 -22z" />
    <glyph glyph-name="kgreenlandic" unicode="&#x138;" horiz-adv-x="521" 
d="M90 0v512h56v-285l286 285h72l-210 -209l214 -303h-68l-186 263l-108 -106v-157h-56z" />
    <glyph glyph-name="Lacute" unicode="&#x139;" horiz-adv-x="520" 
d="M71 754l108 127h72l-122 -127h-58zM99 0v680h57v-627h357v-53h-414z" />
    <glyph glyph-name="lacute" unicode="&#x13a;" horiz-adv-x="236" 
d="M61 804l108 127h72l-122 -127h-58zM90 0v730h56v-730h-56z" />
    <glyph glyph-name="Lcommaaccent" unicode="&#x13b;" horiz-adv-x="520" 
d="M99 0v680h57v-627h357v-53h-414zM263 -225v32q36 0 36 46h-26v64h64v-57q0 -42 -16.5 -63t-57.5 -22z" />
    <glyph glyph-name="lcommaaccent" unicode="&#x13c;" horiz-adv-x="236" 
d="M90 0v730h56v-730h-56zM76 -225v32q36 0 36 46h-26v64h64v-57q0 -42 -16.5 -63t-57.5 -22z" />
    <glyph glyph-name="Lcaron" unicode="&#x13d;" horiz-adv-x="520" 
d="M99 0v680h57v-627h357v-53h-414zM223 485l41 195h61l-59 -195h-43z" />
    <glyph glyph-name="lcaron" unicode="&#x13e;" horiz-adv-x="235" 
d="M90 0v730h56v-730h-56zM194 535l41 195h61l-59 -195h-43z" />
    <glyph glyph-name="Ldot" unicode="&#x13f;" horiz-adv-x="520" 
d="M99 0v680h57v-627h357v-53h-414zM353 310v82h68v-82h-68z" />
    <glyph glyph-name="ldot" unicode="&#x140;" horiz-adv-x="246" 
d="M90 0v730h56v-730h-56zM207 321v78h66v-78h-66z" />
    <glyph glyph-name="Lslash" unicode="&#x141;" horiz-adv-x="530" 
d="M166 53h357v-53h-414v218l-80 -56v60l80 56v402h57v-362l221 156v-60l-221 -156v-205z" />
    <glyph glyph-name="lslash" unicode="&#x142;" horiz-adv-x="258" 
d="M250 493v-56l-93 -72v-365h-56v321l-93 -72v57l93 72v352h56v-309z" />
    <glyph glyph-name="Nacute" unicode="&#x143;" horiz-adv-x="693" 
d="M289 754l108 127h72l-122 -127h-58zM99 0v680h70l369 -578v578h56v-680h-56l-383 600v-600h-56z" />
    <glyph glyph-name="nacute" unicode="&#x144;" horiz-adv-x="566" 
d="M228 597l108 127h72l-122 -127h-58zM90 0v512h48l2 -99q65 111 184 111q160 0 160 -185v-339h-56v333q0 140 -113 140q-110 0 -169 -133v-340h-56z" />
    <glyph glyph-name="Ncommaaccent" unicode="&#x145;" horiz-adv-x="693" 
d="M99 0v680h70l369 -578v578h56v-680h-56l-383 600v-600h-56zM304 -225v32q36 0 36 46h-26v64h64v-57q0 -42 -16.5 -63t-57.5 -22z" />
    <glyph glyph-name="ncommaaccent" unicode="&#x146;" horiz-adv-x="566" 
d="M90 0v512h48l2 -99q65 111 184 111q160 0 160 -185v-339h-56v333q0 140 -113 140q-110 0 -169 -133v-340h-56zM245 -225v32q36 0 36 46h-26v64h64v-57q0 -42 -16.5 -63t-57.5 -22z" />
    <glyph glyph-name="Ncaron" unicode="&#x147;" horiz-adv-x="693" 
d="M318 754l-108 127h58l78 -82l78 82h58l-109 -127h-55zM99 0v680h70l369 -578v578h56v-680h-56l-383 600v-600h-56z" />
    <glyph glyph-name="ncaron" unicode="&#x148;" horiz-adv-x="566" 
d="M257 597l-108 127h58l78 -82l78 82h58l-109 -127h-55zM90 0v512h48l2 -99q65 111 184 111q160 0 160 -185v-339h-56v333q0 140 -113 140q-110 0 -169 -133v-340h-56z" />
    <glyph glyph-name="napostrophe" unicode="&#x149;" horiz-adv-x="566" 
d="M77 568v31q34 1 34 44v8h-24v72h62v-70q0 -41 -16 -62.5t-56 -22.5zM90 0v512h48l2 -99q65 111 184 111q160 0 160 -185v-339h-56v333q0 140 -113 140q-110 0 -169 -133v-340h-56z" />
    <glyph glyph-name="Eng" unicode="&#x14a;" horiz-adv-x="693" 
d="M442 -182v49h25q42 0 56.5 18t14.5 68v48l-383 599v-600h-56v680h70l369 -578v578h56v-726q0 -72 -27.5 -104t-89.5 -32h-35z" />
    <glyph glyph-name="eng" unicode="&#x14b;" horiz-adv-x="566" 
d="M324 524q160 0 160 -185v-385q0 -72 -27.5 -104t-88.5 -32h-35v48h24q42 0 56.5 18t14.5 69v380q0 140 -113 140q-110 0 -169 -133v-340h-56v512h48l2 -99q65 111 184 111z" />
    <glyph glyph-name="Omacron" unicode="&#x14c;" horiz-adv-x="654" 
d="M220 795v45h214v-45h-214zM327 -12q-127 0 -193 67t-66 197v176q0 130 66 197t193 67t193 -67t66 -197v-176q0 -130 -66 -197t-193 -67zM328 41q201 0 201 214v170q0 214 -201 214q-102 0 -152 -52.5t-50 -161.5v-170q0 -109 50 -161.5t152 -52.5z" />
    <glyph glyph-name="omacron" unicode="&#x14d;" horiz-adv-x="560" 
d="M172 638v45h214v-45h-214zM280 -12q-106 0 -161.5 57t-55.5 164v94q0 107 55.5 164t161.5 57q105 0 161 -57t56 -164v-94q0 -107 -56 -164t-161 -57zM280 37q161 0 161 176v87q0 175 -161 175t-161 -175v-87q0 -176 161 -176z" />
    <glyph glyph-name="Obreve" unicode="&#x14e;" horiz-adv-x="654" 
d="M327 757q55 0 86.5 31t35.5 85h-46q-5 -70 -76 -70t-76 70h-45q4 -54 35 -85t86 -31zM327 -12q-127 0 -193 67t-66 197v176q0 130 66 197t193 67t193 -67t66 -197v-176q0 -130 -66 -197t-193 -67zM328 41q201 0 201 214v170q0 214 -201 214q-102 0 -152 -52.5t-50 -161.5
v-170q0 -109 50 -161.5t152 -52.5z" />
    <glyph glyph-name="obreve" unicode="&#x14f;" horiz-adv-x="560" 
d="M279 600q55 0 86.5 31t35.5 85h-46q-5 -70 -76 -70t-76 70h-45q4 -54 35 -85t86 -31zM280 -12q-106 0 -161.5 57t-55.5 164v94q0 107 55.5 164t161.5 57q105 0 161 -57t56 -164v-94q0 -107 -56 -164t-161 -57zM280 37q161 0 161 176v87q0 175 -161 175t-161 -175v-87
q0 -176 161 -176z" />
    <glyph glyph-name="Ohungarumlaut" unicode="&#x150;" horiz-adv-x="654" 
d="M203 754l85 127h70l-101 -127h-54zM361 754l86 127h69l-101 -127h-54zM327 -12q-127 0 -193 67t-66 197v176q0 130 66 197t193 67t193 -67t66 -197v-176q0 -130 -66 -197t-193 -67zM328 41q201 0 201 214v170q0 214 -201 214q-102 0 -152 -52.5t-50 -161.5v-170
q0 -109 50 -161.5t152 -52.5z" />
    <glyph glyph-name="ohungarumlaut" unicode="&#x151;" horiz-adv-x="560" 
d="M155 597l85 127h70l-101 -127h-54zM313 597l86 127h69l-101 -127h-54zM280 -12q-106 0 -161.5 57t-55.5 164v94q0 107 55.5 164t161.5 57q105 0 161 -57t56 -164v-94q0 -107 -56 -164t-161 -57zM280 37q161 0 161 176v87q0 175 -161 175t-161 -175v-87q0 -176 161 -176z
" />
    <glyph glyph-name="OE" unicode="&#x152;" horiz-adv-x="923" 
d="M324 0q-132 0 -194.5 63t-62.5 198v158q0 134 63 197.5t194 63.5h552v-53h-353v-251h303v-53h-303v-270h363v-53h-562zM329 53h137v574h-137q-108 0 -156.5 -49t-48.5 -160v-156q0 -111 48.5 -160t156.5 -49z" />
    <glyph glyph-name="oe" unicode="&#x153;" horiz-adv-x="923" 
d="M278 -12q-104 0 -159.5 57.5t-55.5 163.5v94q0 106 55.5 163.5t159.5 57.5q144 0 190 -110q43 110 186 110q101 0 155 -55.5t54 -161.5v-63h-367v-35q0 -172 159 -172q68 0 106.5 29.5t43.5 83.5h54q-5 -78 -57.5 -120t-143.5 -42q-146 0 -190 110q-46 -110 -190 -110z
M279 37q162 0 162 176v87q0 175 -162 175q-160 0 -160 -175v-87q0 -176 160 -176zM496 292h313v11q0 172 -157 172q-156 0 -156 -172v-11z" />
    <glyph glyph-name="Racute" unicode="&#x154;" horiz-adv-x="629" 
d="M250 754l108 127h72l-122 -127h-58zM99 0v680h255q112 0 162.5 -46t50.5 -149q0 -88 -37.5 -134.5t-118.5 -57.5l181 -293h-68l-178 290h-190v-290h-57zM156 343h194q87 0 123 32t36 110t-36 110t-123 32h-194v-284z" />
    <glyph glyph-name="racute" unicode="&#x155;" horiz-adv-x="346" 
d="M135 597l108 127h72l-122 -127h-58zM90 0v512h48l2 -105q42 115 159 115h33v-54h-27q-66 0 -104.5 -37.5t-54.5 -119.5v-311h-56z" />
    <glyph glyph-name="Rcommaaccent" unicode="&#x156;" horiz-adv-x="629" 
d="M99 0v680h255q112 0 162.5 -46t50.5 -149q0 -88 -37.5 -134.5t-118.5 -57.5l181 -293h-68l-178 290h-190v-290h-57zM156 343h194q87 0 123 32t36 110t-36 110t-123 32h-194v-284zM291 -225v32q36 0 36 46h-26v64h64v-57q0 -42 -16.5 -63t-57.5 -22z" />
    <glyph glyph-name="rcommaaccent" unicode="&#x157;" horiz-adv-x="346" 
d="M90 0v512h48l2 -105q42 115 159 115h33v-54h-27q-66 0 -104.5 -37.5t-54.5 -119.5v-311h-56zM76 -225v32q36 0 36 46h-26v64h64v-57q0 -42 -16.5 -63t-57.5 -22z" />
    <glyph glyph-name="Rcaron" unicode="&#x158;" horiz-adv-x="629" 
d="M279 754l-108 127h58l78 -82l78 82h58l-109 -127h-55zM99 0v680h255q112 0 162.5 -46t50.5 -149q0 -88 -37.5 -134.5t-118.5 -57.5l181 -293h-68l-178 290h-190v-290h-57zM156 343h194q87 0 123 32t36 110t-36 110t-123 32h-194v-284z" />
    <glyph glyph-name="rcaron" unicode="&#x159;" horiz-adv-x="346" 
d="M164 597l-108 127h58l78 -82l78 82h58l-109 -127h-55zM90 0v512h48l2 -105q42 115 159 115h33v-54h-27q-66 0 -104.5 -37.5t-54.5 -119.5v-311h-56z" />
    <glyph glyph-name="Sacute" unicode="&#x15a;" horiz-adv-x="556" 
d="M217 754l108 127h72l-122 -127h-58zM281 -12q-118 0 -180 49t-62 143h57q0 -68 47.5 -103.5t139.5 -35.5q176 0 176 134q0 67 -43 99.5t-149 46.5q-117 16 -166 57t-49 124q0 92 59.5 141t171.5 49q222 0 222 -187h-57q0 134 -166 134q-85 0 -129 -33t-44 -97
q0 -61 41 -91.5t140 -43.5q123 -16 174.5 -60t51.5 -134q0 -192 -235 -192z" />
    <glyph glyph-name="sacute" unicode="&#x15b;" horiz-adv-x="496" 
d="M186 597l108 127h72l-122 -127h-58zM248 -12q-101 0 -153.5 40t-52.5 117h54q0 -108 151 -108q147 0 147 99q0 47 -35 69.5t-121 31.5q-100 10 -141.5 41.5t-41.5 96.5q0 71 50 110t142 39t141 -39t49 -113h-55q0 104 -134 104q-66 0 -102.5 -25.5t-36.5 -71.5
q0 -43 33.5 -63.5t115.5 -28.5q104 -10 147.5 -44t43.5 -103q0 -74 -51 -113t-150 -39z" />
    <glyph glyph-name="Scircumflex" unicode="&#x15c;" horiz-adv-x="556" 
d="M138 754l108 127h55l109 -127h-58l-78 82l-78 -82h-58zM281 -12q-118 0 -180 49t-62 143h57q0 -68 47.5 -103.5t139.5 -35.5q176 0 176 134q0 67 -43 99.5t-149 46.5q-117 16 -166 57t-49 124q0 92 59.5 141t171.5 49q222 0 222 -187h-57q0 134 -166 134q-85 0 -129 -33
t-44 -97q0 -61 41 -91.5t140 -43.5q123 -16 174.5 -60t51.5 -134q0 -192 -235 -192z" />
    <glyph glyph-name="scircumflex" unicode="&#x15d;" horiz-adv-x="496" 
d="M107 597l108 127h55l109 -127h-58l-78 82l-78 -82h-58zM248 -12q-101 0 -153.5 40t-52.5 117h54q0 -108 151 -108q147 0 147 99q0 47 -35 69.5t-121 31.5q-100 10 -141.5 41.5t-41.5 96.5q0 71 50 110t142 39t141 -39t49 -113h-55q0 104 -134 104q-66 0 -102.5 -25.5
t-36.5 -71.5q0 -43 33.5 -63.5t115.5 -28.5q104 -10 147.5 -44t43.5 -103q0 -74 -51 -113t-150 -39z" />
    <glyph glyph-name="Scedilla" unicode="&#x15e;" horiz-adv-x="556" 
d="M516 180q0 -182 -210 -191l-21 -57h2q88 0 88 -62q0 -68 -102 -68q-55 0 -90 19l14 34q29 -18 68 -18q56 0 56 35q0 16 -12.5 22.5t-46.5 6.5h-26l32 87q-112 3 -170.5 52t-58.5 140h57q0 -68 47.5 -103.5t139.5 -35.5q176 0 176 134q0 67 -43 99.5t-149 46.5
q-117 16 -166 57t-49 124q0 92 59.5 141t171.5 49q222 0 222 -187h-57q0 134 -166 134q-85 0 -129 -33t-44 -97q0 -61 41 -91.5t140 -43.5q123 -16 174.5 -60t51.5 -134z" />
    <glyph glyph-name="scedilla" unicode="&#x15f;" horiz-adv-x="496" 
d="M449 140q0 -142 -177 -151l-21 -57h2q88 0 88 -62q0 -68 -102 -68q-55 0 -90 19l14 34q29 -18 68 -18q56 0 56 35q0 16 -12.5 22.5t-46.5 6.5h-26l32 87q-192 6 -192 157h54q0 -108 151 -108q147 0 147 99q0 47 -35 69.5t-121 31.5q-100 10 -141.5 41.5t-41.5 96.5
q0 71 50 110t142 39t141 -39t49 -113h-55q0 104 -134 104q-66 0 -102.5 -25.5t-36.5 -71.5q0 -43 33.5 -63.5t115.5 -28.5q104 -10 147.5 -44t43.5 -103z" />
    <glyph glyph-name="Scaron" unicode="&#x160;" horiz-adv-x="556" 
d="M246 754l-108 127h58l78 -82l78 82h58l-109 -127h-55zM281 -12q-118 0 -180 49t-62 143h57q0 -68 47.5 -103.5t139.5 -35.5q176 0 176 134q0 67 -43 99.5t-149 46.5q-117 16 -166 57t-49 124q0 92 59.5 141t171.5 49q222 0 222 -187h-57q0 134 -166 134q-85 0 -129 -33
t-44 -97q0 -61 41 -91.5t140 -43.5q123 -16 174.5 -60t51.5 -134q0 -192 -235 -192z" />
    <glyph glyph-name="scaron" unicode="&#x161;" horiz-adv-x="496" 
d="M215 597l-108 127h58l78 -82l78 82h58l-109 -127h-55zM248 -12q-101 0 -153.5 40t-52.5 117h54q0 -108 151 -108q147 0 147 99q0 47 -35 69.5t-121 31.5q-100 10 -141.5 41.5t-41.5 96.5q0 71 50 110t142 39t141 -39t49 -113h-55q0 104 -134 104q-66 0 -102.5 -25.5
t-36.5 -71.5q0 -43 33.5 -63.5t115.5 -28.5q104 -10 147.5 -44t43.5 -103q0 -74 -51 -113t-150 -39z" />
    <glyph glyph-name="uni0162" unicode="&#x162;" horiz-adv-x="501" 
d="M279 0h-8l-26 -68h1q88 0 88 -62q0 -68 -102 -68q-55 0 -90 19l14 34q28 -18 68 -18q56 0 56 35q0 16 -12.5 22.5t-46.5 6.5h-26l37 99h-10v627h-214v53h486v-53h-215v-627z" />
    <glyph glyph-name="uni0163" unicode="&#x163;" horiz-adv-x="332" 
d="M241 0q-17 0 -25 1l-26 -69h2q88 0 88 -62q0 -68 -102 -68q-55 0 -90 19l14 34q28 -18 68 -18q56 0 56 35q0 16 -12.5 22.5t-46.5 6.5h-26l40 108q-71 26 -71 143v314h-96v46h97l5 140h50v-140h140v-46h-140v-314q0 -58 18.5 -80.5t67.5 -22.5h60v-49h-71z" />
    <glyph glyph-name="Tcaron" unicode="&#x164;" horiz-adv-x="501" 
d="M223 754l-108 127h58l78 -82l78 82h58l-109 -127h-55zM222 0v627h-214v53h486v-53h-215v-627h-57z" />
    <glyph glyph-name="tcaron" unicode="&#x165;" horiz-adv-x="332" 
d="M215 580l41 195h61l-59 -195h-43zM241 0q-69 0 -100 36t-31 116v314h-96v46h97l5 140h50v-140h140v-46h-140v-314q0 -58 18.5 -80.5t67.5 -22.5h60v-49h-71z" />
    <glyph glyph-name="Tbar" unicode="&#x166;" horiz-adv-x="501" 
d="M494 627h-215v-247h144v-53h-144v-327h-57v327h-143v53h143v247h-214v53h486v-53z" />
    <glyph glyph-name="tbar" unicode="&#x167;" horiz-adv-x="332" 
d="M252 49h60v-49h-71q-69 0 -100 36t-31 116v139h-89v46h89v129h-96v46h97l5 140h50v-140h140v-46h-140v-129h131v-46h-131v-139q0 -58 18.5 -80.5t67.5 -22.5z" />
    <glyph glyph-name="Utilde" unicode="&#x168;" horiz-adv-x="643" 
d="M376 767q-28 0 -65 29q-28 22 -44 22q-31 0 -38 -52h-41q6 99 80 99q27 0 65 -29q31 -23 44 -23q32 0 38 52h41q-6 -98 -80 -98zM322 -12q-127 0 -184.5 55.5t-57.5 177.5v459h57v-458q0 -99 42 -140t144 -41q101 0 143 41t42 140v458h55v-459q0 -122 -57 -177.5
t-184 -55.5z" />
    <glyph glyph-name="utilde" unicode="&#x169;" horiz-adv-x="571" 
d="M335 610q-28 0 -65 29q-28 22 -44 22q-31 0 -38 -52h-41q6 99 80 99q27 0 65 -29q31 -23 44 -23q32 0 38 52h41q-6 -98 -80 -98zM244 -12q-162 0 -162 185v339h56v-333q0 -140 115 -140q113 0 172 136v337h56v-512h-48l-2 101q-65 -113 -187 -113z" />
    <glyph glyph-name="Umacron" unicode="&#x16a;" horiz-adv-x="643" 
d="M215 795v45h214v-45h-214zM322 -12q-127 0 -184.5 55.5t-57.5 177.5v459h57v-458q0 -99 42 -140t144 -41q101 0 143 41t42 140v458h55v-459q0 -122 -57 -177.5t-184 -55.5z" />
    <glyph glyph-name="umacron" unicode="&#x16b;" horiz-adv-x="571" 
d="M174 638v45h214v-45h-214zM244 -12q-162 0 -162 185v339h56v-333q0 -140 115 -140q113 0 172 136v337h56v-512h-48l-2 101q-65 -113 -187 -113z" />
    <glyph glyph-name="Ubreve" unicode="&#x16c;" horiz-adv-x="643" 
d="M322 757q55 0 86.5 31t35.5 85h-46q-5 -70 -76 -70t-76 70h-45q4 -54 35 -85t86 -31zM322 -12q-127 0 -184.5 55.5t-57.5 177.5v459h57v-458q0 -99 42 -140t144 -41q101 0 143 41t42 140v458h55v-459q0 -122 -57 -177.5t-184 -55.5z" />
    <glyph glyph-name="ubreve" unicode="&#x16d;" horiz-adv-x="571" 
d="M281 600q55 0 86.5 31t35.5 85h-46q-5 -70 -76 -70t-76 70h-45q4 -54 35 -85t86 -31zM244 -12q-162 0 -162 185v339h56v-333q0 -140 115 -140q113 0 172 136v337h56v-512h-48l-2 101q-65 -113 -187 -113z" />
    <glyph glyph-name="Uring" unicode="&#x16e;" horiz-adv-x="643" 
d="M322 742q-40 0 -66 25.5t-26 64.5t26 64.5t66 25.5t66 -25.5t26 -64.5t-26 -64.5t-66 -25.5zM322 782q21 0 34.5 14t13.5 36t-13.5 36t-34.5 14q-22 0 -35.5 -14t-13.5 -36t13.5 -36t35.5 -14zM322 -12q-127 0 -184.5 55.5t-57.5 177.5v459h57v-458q0 -99 42 -140
t144 -41q101 0 143 41t42 140v458h55v-459q0 -122 -57 -177.5t-184 -55.5z" />
    <glyph glyph-name="uring" unicode="&#x16f;" horiz-adv-x="571" 
d="M281 585q-40 0 -66 25.5t-26 64.5t26 64.5t66 25.5t66 -25.5t26 -64.5t-26 -64.5t-66 -25.5zM281 625q21 0 34.5 14t13.5 36t-13.5 36t-34.5 14q-22 0 -35.5 -14t-13.5 -36t13.5 -36t35.5 -14zM244 -12q-162 0 -162 185v339h56v-333q0 -140 115 -140q113 0 172 136v337
h56v-512h-48l-2 101q-65 -113 -187 -113z" />
    <glyph glyph-name="Uhungarumlaut" unicode="&#x170;" horiz-adv-x="643" 
d="M198 754l85 127h70l-101 -127h-54zM356 754l86 127h69l-101 -127h-54zM322 -12q-127 0 -184.5 55.5t-57.5 177.5v459h57v-458q0 -99 42 -140t144 -41q101 0 143 41t42 140v458h55v-459q0 -122 -57 -177.5t-184 -55.5z" />
    <glyph glyph-name="uhungarumlaut" unicode="&#x171;" horiz-adv-x="571" 
d="M157 597l85 127h70l-101 -127h-54zM315 597l86 127h69l-101 -127h-54zM244 -12q-162 0 -162 185v339h56v-333q0 -140 115 -140q113 0 172 136v337h56v-512h-48l-2 101q-65 -113 -187 -113z" />
    <glyph glyph-name="Uogonek" unicode="&#x172;" horiz-adv-x="643" 
d="M508 680h55v-459q0 -96 -34.5 -150t-109.5 -73q-100 -42 -100 -105q0 -47 50 -47q26 0 54 17v-47q-24 -14 -62 -14q-44 0 -68 21t-24 59q0 61 63 106h-10q-127 0 -184.5 55.5t-57.5 177.5v459h57v-458q0 -99 42 -140t144 -41q101 0 143 41t42 140v458z" />
    <glyph glyph-name="uogonek" unicode="&#x173;" horiz-adv-x="571" 
d="M466 0q-89 -51 -89 -107q0 -47 50 -47q27 0 54 17v-47q-30 -14 -63 -14q-44 0 -67.5 21t-23.5 59q0 78 106 138l-2 81q-65 -113 -187 -113q-162 0 -162 185v339h56v-333q0 -140 115 -140q113 0 172 136v337h56v-512h-15z" />
    <glyph glyph-name="Wcircumflex" unicode="&#x174;" horiz-adv-x="871" 
d="M300 754l108 127h55l109 -127h-58l-78 82l-78 -82h-58zM205 0l-192 680h59l165 -590l170 590h58l171 -592l165 592h57l-192 -680h-60l-171 586l-171 -586h-59z" />
    <glyph glyph-name="wcircumflex" unicode="&#x175;" horiz-adv-x="772" 
d="M250 597l108 127h55l109 -127h-58l-78 82l-78 -82h-58zM183 0l-168 512h59l141 -442l144 442h56l143 -442l141 442h57l-168 -512h-60l-142 433l-142 -433h-61z" />
    <glyph glyph-name="Ycircumflex" unicode="&#x176;" horiz-adv-x="540" 
d="M134 754l108 127h55l109 -127h-58l-78 82l-78 -82h-58zM241 0v299l-244 381h68l206 -322l206 322h65l-244 -381v-299h-57z" />
    <glyph glyph-name="ycircumflex" unicode="&#x177;" horiz-adv-x="461" 
d="M96 597l108 127h55l109 -127h-58l-78 82l-78 -82h-58zM57 -182v49h34q35 0 52.5 14t32.5 55l32 87l-193 489h60l163 -419l151 419h57l-216 -584q-23 -63 -52 -86.5t-82 -23.5h-39z" />
    <glyph glyph-name="Ydieresis" unicode="&#x178;" horiz-adv-x="540" 
d="M154 777v79h64v-79h-64zM322 777v79h64v-79h-64zM241 0v299l-244 381h68l206 -322l206 322h65l-244 -381v-299h-57z" />
    <glyph glyph-name="Zacute" unicode="&#x179;" horiz-adv-x="542" 
d="M218 754l108 127h72l-122 -127h-58zM32 0v48l398 579h-380v53h451v-48l-398 -579h407v-53h-478z" />
    <glyph glyph-name="zacute" unicode="&#x17a;" horiz-adv-x="455" 
d="M173 597l108 127h72l-122 -127h-58zM32 0v42l314 422h-293v48h363v-42l-313 -421h318v-49h-389z" />
    <glyph glyph-name="Zdotaccent" unicode="&#x17b;" horiz-adv-x="542" 
d="M243 777v79h64v-79h-64zM32 0v48l398 579h-380v53h451v-48l-398 -579h407v-53h-478z" />
    <glyph glyph-name="zdotaccent" unicode="&#x17c;" horiz-adv-x="455" 
d="M198 620v79h64v-79h-64zM32 0v42l314 422h-293v48h363v-42l-313 -421h318v-49h-389z" />
    <glyph glyph-name="Zcaron" unicode="&#x17d;" horiz-adv-x="542" 
d="M247 754l-108 127h58l78 -82l78 82h58l-109 -127h-55zM32 0v48l398 579h-380v53h451v-48l-398 -579h407v-53h-478z" />
    <glyph glyph-name="zcaron" unicode="&#x17e;" horiz-adv-x="455" 
d="M202 597l-108 127h58l78 -82l78 82h58l-109 -127h-55zM32 0v42l314 422h-293v48h363v-42l-313 -421h318v-49h-389z" />
    <glyph glyph-name="florin" unicode="&#x192;" 
d="M58 -60l5 49h55q52 0 77 25.5t32 87.5l38 306h-138v49h144l11 88q11 83 46.5 119t107.5 36h80l-5 -49h-65q-52 0 -77 -25t-32 -88l-10 -81h162v-49h-168l-38 -313q-10 -82 -46.5 -118.5t-107.5 -36.5h-71z" />
    <glyph glyph-name="Aringacute" unicode="&#x1fa;" 
d="M244 941l108 127h72l-122 -127h-58zM301 724q-40 0 -66 25.5t-26 64.5t26 64.5t66 25.5t66 -25.5t26 -64.5t-26 -64.5t-66 -25.5zM301 764q21 0 34.5 14t13.5 36t-13.5 36t-34.5 14q-22 0 -35.5 -14t-13.5 -36t13.5 -36t35.5 -14zM12 0l260 680h58l259 -680h-61l-73 192
h-311l-73 -192h-59zM164 245h271l-135 364z" />
    <glyph glyph-name="aringacute" unicode="&#x1fb;" horiz-adv-x="542" 
d="M205 784l108 127h72l-122 -127h-58zM262 567q-40 0 -66 25.5t-26 64.5t26 64.5t66 25.5t66 -25.5t26 -64.5t-26 -64.5t-66 -25.5zM262 607q21 0 34.5 14t13.5 36t-13.5 36t-34.5 14q-22 0 -35.5 -14t-13.5 -36t13.5 -36t35.5 -14zM217 -12q-79 0 -123 39.5t-44 112.5
q0 155 210 155h146v46q0 134 -142 134q-136 0 -144 -112h-55q15 161 201 161q196 0 196 -183v-341h-48l-2 85q-71 -97 -195 -97zM224 36q118 0 182 110v101h-143q-83 0 -120 -25.5t-37 -79.5q0 -106 118 -106z" />
    <glyph glyph-name="AEacute" unicode="&#x1fc;" horiz-adv-x="896" 
d="M402 754l108 127h72l-122 -127h-58zM-3 0l419 680h433v-53h-353v-251h303v-53h-303v-270h363v-53h-420v192h-259l-119 -192h-64zM212 245h227v374z" />
    <glyph glyph-name="aeacute" unicode="&#x1fd;" horiz-adv-x="889" 
d="M382 597l108 127h72l-122 -127h-58zM220 -12q-80 0 -125 39t-45 112q0 156 209 156h147v46q0 134 -142 134q-135 0 -144 -112h-55q7 79 57.5 120t140.5 41q142 0 177 -103q44 103 181 103q101 0 154.5 -55.5t53.5 -161.5v-63h-367v-35q0 -172 160 -172q68 0 106 29.5
t43 83.5h54q-5 -79 -57.5 -120.5t-145.5 -41.5q-148 0 -195 107q-77 -107 -207 -107zM462 292h313v11q0 172 -156 172q-157 0 -157 -172v-11zM226 36q118 0 184 117q-4 21 -4 52v42h-143q-82 0 -119.5 -26t-37.5 -80q0 -51 31 -78t89 -27z" />
    <glyph glyph-name="Oslashacute" unicode="&#x1fe;" horiz-adv-x="654" 
d="M450 881l-122 -127h-58l108 127h72zM586 663l-45 -64q45 -63 45 -171v-176q0 -130 -66 -197t-193 -67q-115 0 -179 55l-39 -55l-41 29l45 64q-45 63 -45 171v176q0 130 66 197t193 67q115 0 179 -55l39 55zM126 255q0 -74 23 -123l325 460q-50 47 -146 47
q-102 0 -152 -52.5t-50 -161.5v-170zM529 425q0 75 -24 124l-325 -460q51 -48 148 -48q201 0 201 214v170z" />
    <glyph glyph-name="oslashacute" unicode="&#x1ff;" horiz-adv-x="560" 
d="M402 724l-122 -127h-58l108 127h72zM497 494l-38 -49q38 -53 38 -142v-94q0 -107 -56 -164t-161 -57q-91 0 -146 43l-34 -43l-37 30l38 48q-38 55 -38 143v94q0 107 55.5 164t161.5 57q91 0 146 -43l34 43zM119 213q0 -61 19 -99l255 324q-40 37 -113 37
q-161 0 -161 -175v-87zM441 300q0 60 -19 99l-255 -325q40 -37 113 -37q161 0 161 176v87z" />
    <glyph glyph-name="Scommaaccent" unicode="&#x218;" horiz-adv-x="556" 
d="M281 -12q-118 0 -180 49t-62 143h57q0 -68 47.5 -103.5t139.5 -35.5q176 0 176 134q0 67 -43 99.5t-149 46.5q-117 16 -166 57t-49 124q0 92 59.5 141t171.5 49q222 0 222 -187h-57q0 134 -166 134q-85 0 -129 -33t-44 -97q0 -61 41 -91.5t140 -43.5q123 -16 174.5 -60
t51.5 -134q0 -192 -235 -192zM250 -225v32q36 0 36 46h-26v64h64v-57q0 -42 -16.5 -63t-57.5 -22z" />
    <glyph glyph-name="scommaaccent" unicode="&#x219;" horiz-adv-x="496" 
d="M248 -12q-101 0 -153.5 40t-52.5 117h54q0 -108 151 -108q147 0 147 99q0 47 -35 69.5t-121 31.5q-100 10 -141.5 41.5t-41.5 96.5q0 71 50 110t142 39t141 -39t49 -113h-55q0 104 -134 104q-66 0 -102.5 -25.5t-36.5 -71.5q0 -43 33.5 -63.5t115.5 -28.5
q104 -10 147.5 -44t43.5 -103q0 -74 -51 -113t-150 -39zM216 -225v32q36 0 36 46h-26v64h64v-57q0 -42 -16.5 -63t-57.5 -22z" />
    <glyph glyph-name="uni021A" unicode="&#x21a;" horiz-adv-x="501" 
d="M222 0v627h-214v53h486v-53h-215v-627h-57zM209 -225v32q36 0 36 46h-26v64h64v-57q0 -42 -16.5 -63t-57.5 -22z" />
    <glyph glyph-name="uni021B" unicode="&#x21b;" horiz-adv-x="332" 
d="M241 0q-69 0 -100 36t-31 116v314h-96v46h97l5 140h50v-140h140v-46h-140v-314q0 -58 18.5 -80.5t67.5 -22.5h60v-49h-71zM155 -225v32q36 0 36 46h-26v64h64v-57q0 -42 -16.5 -63t-57.5 -22z" />
    <glyph glyph-name="uni0237" unicode="&#x237;" horiz-adv-x="236" 
d="M-3 -182v49h22q42 0 56.5 18t14.5 68v559h56v-558q0 -72 -27.5 -104t-89.5 -32h-32z" />
    <glyph glyph-name="uni02BC" unicode="&#x2bc;" horiz-adv-x="127" 
d="M27 568v31q34 1 34 44v8h-24v72h62v-70q0 -41 -16 -62.5t-56 -22.5z" />
    <glyph glyph-name="circumflex" unicode="&#x2c6;" horiz-adv-x="500" 
d="M114 597l108 127h55l109 -127h-58l-78 82l-78 -82h-58z" />
    <glyph glyph-name="caron" unicode="&#x2c7;" horiz-adv-x="500" 
d="M222 597l-108 127h58l78 -82l78 82h58l-109 -127h-55z" />
    <glyph glyph-name="uni02C9" unicode="&#x2c9;" horiz-adv-x="500" 
d="M143 638v45h214v-45h-214z" />
    <glyph glyph-name="breve" unicode="&#x2d8;" horiz-adv-x="500" 
d="M250 600q55 0 86.5 31t35.5 85h-46q-5 -70 -76 -70t-76 70h-45q4 -54 35 -85t86 -31z" />
    <glyph glyph-name="dotaccent" unicode="&#x2d9;" horiz-adv-x="500" 
d="M218 620v79h64v-79h-64z" />
    <glyph glyph-name="ring" unicode="&#x2da;" horiz-adv-x="500" 
d="M250 585q-40 0 -66 25.5t-26 64.5t26 64.5t66 25.5t66 -25.5t26 -64.5t-26 -64.5t-66 -25.5zM250 625q21 0 34.5 14t13.5 36t-13.5 36t-34.5 14q-22 0 -35.5 -14t-13.5 -36t13.5 -36t35.5 -14z" />
    <glyph glyph-name="ogonek" unicode="&#x2db;" horiz-adv-x="500" 
d="M264 -198q-44 0 -67.5 21t-23.5 59q0 85 127 150l23 -26q-100 -54 -100 -113q0 -47 50 -47q27 0 54 17v-47q-30 -14 -63 -14z" />
    <glyph glyph-name="tilde" unicode="&#x2dc;" horiz-adv-x="500" 
d="M304 610q-28 0 -65 29q-28 22 -44 22q-31 0 -38 -52h-41q6 99 80 99q27 0 65 -29q31 -23 44 -23q32 0 38 52h41q-6 -98 -80 -98z" />
    <glyph glyph-name="hungarumlaut" unicode="&#x2dd;" horiz-adv-x="500" 
d="M126 597l85 127h70l-101 -127h-54zM284 597l86 127h69l-101 -127h-54z" />
    <glyph glyph-name="gravecomb" unicode="&#x300;" horiz-adv-x="0" 
d="M-1 597l-122 127h72l108 -127h-58z" />
    <glyph glyph-name="acutecomb" unicode="&#x301;" horiz-adv-x="0" 
d="M-57 597l108 127h72l-122 -127h-58z" />
    <glyph glyph-name="uni0302" unicode="&#x302;" horiz-adv-x="0" 
d="M-136 597l108 127h55l109 -127h-58l-78 82l-78 -82h-58z" />
    <glyph glyph-name="tildecomb" unicode="&#x303;" horiz-adv-x="0" 
d="M54 610q-28 0 -65 29q-28 22 -44 22q-31 0 -38 -52h-41q6 99 80 99q27 0 65 -29q31 -23 44 -23q32 0 38 52h41q-6 -98 -80 -98z" />
    <glyph glyph-name="uni0304" unicode="&#x304;" horiz-adv-x="0" 
d="M-107 638v45h214v-45h-214z" />
    <glyph glyph-name="uni0306" unicode="&#x306;" horiz-adv-x="0" 
d="M0 600q55 0 86.5 31t35.5 85h-46q-5 -70 -76 -70t-76 70h-45q4 -54 35 -85t86 -31z" />
    <glyph glyph-name="uni0307" unicode="&#x307;" horiz-adv-x="0" 
d="M-32 620v79h64v-79h-64z" />
    <glyph glyph-name="uni0308" unicode="&#x308;" horiz-adv-x="0" 
d="M-116 620v79h64v-79h-64zM52 620v79h64v-79h-64z" />
    <glyph glyph-name="uni030A" unicode="&#x30a;" horiz-adv-x="0" 
d="M0 585q-40 0 -66 25.5t-26 64.5t26 64.5t66 25.5t66 -25.5t26 -64.5t-26 -64.5t-66 -25.5zM0 625q21 0 34.5 14t13.5 36t-13.5 36t-34.5 14q-22 0 -35.5 -14t-13.5 -36t13.5 -36t35.5 -14z" />
    <glyph glyph-name="uni030B" unicode="&#x30b;" horiz-adv-x="0" 
d="M-124 597l85 127h70l-101 -127h-54zM34 597l86 127h69l-101 -127h-54z" />
    <glyph glyph-name="uni030C" unicode="&#x30c;" horiz-adv-x="0" 
d="M-28 597l-108 127h58l78 -82l78 82h58l-109 -127h-55z" />
    <glyph glyph-name="uni0312" unicode="&#x312;" horiz-adv-x="0" 
d="M-32 596v56q0 42 16.5 63t57.5 22v-31q-20 -1 -27.5 -12t-7.5 -34h25v-64h-64z" />
    <glyph glyph-name="uni0326" unicode="&#x326;" horiz-adv-x="0" 
d="M-42 -225v32q36 0 36 46h-26v64h64v-57q0 -42 -16.5 -63t-57.5 -22z" />
    <glyph glyph-name="uni0327" unicode="&#x327;" horiz-adv-x="0" 
d="M-19 -198q-55 0 -90 19l14 34q29 -18 68 -18q56 0 56 35q0 16 -12.5 22.5t-46.5 6.5h-26l42 114h38l-31 -83h2q88 0 88 -62q0 -68 -102 -68z" />
    <glyph glyph-name="uni0328" unicode="&#x328;" horiz-adv-x="0" 
d="M14 -198q-44 0 -67.5 21t-23.5 59q0 85 127 150l23 -26q-100 -54 -100 -113q0 -47 50 -47q27 0 54 17v-47q-30 -14 -63 -14z" />
    <glyph glyph-name="uni0394" unicode="&#x394;" horiz-adv-x="594" 
d="M12 0l255 680h60l255 -680h-570zM91 53h409l-204 549z" />
    <glyph glyph-name="uni03A9" unicode="&#x3a9;" horiz-adv-x="654" 
d="M73 0v53h95q-47 29 -73.5 84t-26.5 128v163q0 130 66 197t193 67t193 -67t66 -197v-163q0 -73 -26.5 -128t-73.5 -84h95v-53h-204v47q73 14 112.5 68.5t39.5 142.5v167q0 109 -50 161.5t-152 52.5t-152 -52.5t-50 -161.5v-167q0 -88 39.5 -142.5t112.5 -68.5v-47h-204z
" />
    <glyph glyph-name="uni03BC" unicode="&#x3bc;" horiz-adv-x="578" 
d="M90 -182v694h56v-333q0 -140 113 -140q111 0 173 136v337h56v-512h-48l-2 103q-66 -115 -185 -115q-69 0 -107 38v-208h-56z" />
    <glyph glyph-name="pi" unicode="&#x3c0;" horiz-adv-x="587" 
d="M115 0v463h-101v49h553v-49h-102v-324q0 -51 15.5 -70.5t55.5 -19.5h30v-49h-45q-60 0 -86 32t-26 105v326h-238v-463h-56z" />
    <glyph glyph-name="Wgrave" unicode="&#x1e80;" horiz-adv-x="871" 
d="M435 754l-122 127h72l108 -127h-58zM205 0l-192 680h59l165 -590l170 590h58l171 -592l165 592h57l-192 -680h-60l-171 586l-171 -586h-59z" />
    <glyph glyph-name="wgrave" unicode="&#x1e81;" horiz-adv-x="772" 
d="M385 597l-122 127h72l108 -127h-58zM183 0l-168 512h59l141 -442l144 442h56l143 -442l141 442h57l-168 -512h-60l-142 433l-142 -433h-61z" />
    <glyph glyph-name="Wacute" unicode="&#x1e82;" horiz-adv-x="871" 
d="M379 754l108 127h72l-122 -127h-58zM205 0l-192 680h59l165 -590l170 590h58l171 -592l165 592h57l-192 -680h-60l-171 586l-171 -586h-59z" />
    <glyph glyph-name="wacute" unicode="&#x1e83;" horiz-adv-x="772" 
d="M329 597l108 127h72l-122 -127h-58zM183 0l-168 512h59l141 -442l144 442h56l143 -442l141 442h57l-168 -512h-60l-142 433l-142 -433h-61z" />
    <glyph glyph-name="Wdieresis" unicode="&#x1e84;" horiz-adv-x="871" 
d="M320 777v79h64v-79h-64zM488 777v79h64v-79h-64zM205 0l-192 680h59l165 -590l170 590h58l171 -592l165 592h57l-192 -680h-60l-171 586l-171 -586h-59z" />
    <glyph glyph-name="wdieresis" unicode="&#x1e85;" horiz-adv-x="772" 
d="M270 620v79h64v-79h-64zM438 620v79h64v-79h-64zM183 0l-168 512h59l141 -442l144 442h56l143 -442l141 442h57l-168 -512h-60l-142 433l-142 -433h-61z" />
    <glyph glyph-name="uni1E9E" unicode="&#x1e9e;" horiz-adv-x="625" 
d="M81 0v476q0 104 55.5 154t171.5 50h236v-48l-188 -248q127 -1 183 -46.5t56 -146.5q0 -100 -52.5 -145.5t-167.5 -45.5h-118v53h113q89 0 128 32t39 105q0 76 -43.5 109t-145.5 33h-64v45l189 250h-161q-92 0 -133 -36t-41 -116v-475h-57z" />
    <glyph glyph-name="Ygrave" unicode="&#x1ef2;" horiz-adv-x="540" 
d="M269 754l-122 127h72l108 -127h-58zM241 0v299l-244 381h68l206 -322l206 322h65l-244 -381v-299h-57z" />
    <glyph glyph-name="ygrave" unicode="&#x1ef3;" horiz-adv-x="461" 
d="M231 597l-122 127h72l108 -127h-58zM57 -182v49h34q35 0 52.5 14t32.5 55l32 87l-193 489h60l163 -419l151 419h57l-216 -584q-23 -63 -52 -86.5t-82 -23.5h-39z" />
    <glyph glyph-name="uni2002" unicode="&#x2002;" horiz-adv-x="500" 
 />
    <glyph glyph-name="uni2003" unicode="&#x2003;" horiz-adv-x="900" 
 />
    <glyph glyph-name="uni2007" unicode="&#x2007;" 
 />
    <glyph glyph-name="uni2008" unicode="&#x2008;" horiz-adv-x="256" 
 />
    <glyph glyph-name="uni200B" unicode="&#x200b;" horiz-adv-x="0" 
 />
    <glyph glyph-name="figuredash" unicode="&#x2012;" 
d="M30 267v48h541v-48h-541z" />
    <glyph glyph-name="endash" unicode="&#x2013;" horiz-adv-x="500" 
d="M30 267v48h440v-48h-440z" />
    <glyph glyph-name="emdash" unicode="&#x2014;" horiz-adv-x="900" 
d="M30 267v48h840v-48h-840z" />
    <glyph glyph-name="quoteleft" unicode="&#x2018;" horiz-adv-x="229" 
d="M80 482v94q0 110 82 116v-38q-39 -5 -39 -65v-17h25v-90h-68z" />
    <glyph glyph-name="quoteright" unicode="&#x2019;" horiz-adv-x="229" 
d="M68 470v39q39 3 39 64v18h-26v89h69v-94q0 -109 -82 -116z" />
    <glyph glyph-name="quotesinglbase" unicode="&#x201a;" horiz-adv-x="229" 
d="M68 -121v39q39 3 39 64v18h-26v89h69v-94q0 -109 -82 -116z" />
    <glyph glyph-name="quotedblleft" unicode="&#x201c;" horiz-adv-x="402" 
d="M80 482v94q0 110 82 116v-38q-39 -5 -39 -65v-17h25v-90h-68zM253 482v94q0 110 82 116v-38q-39 -5 -39 -65v-17h25v-90h-68z" />
    <glyph glyph-name="quotedblright" unicode="&#x201d;" horiz-adv-x="402" 
d="M68 470v39q39 3 39 64v18h-26v89h69v-94q0 -109 -82 -116zM241 470v39q39 3 39 64v18h-26v89h69v-94q0 -109 -82 -116z" />
    <glyph glyph-name="quotedblbase" unicode="&#x201e;" horiz-adv-x="402" 
d="M68 -121v39q39 3 39 64v18h-26v89h69v-94q0 -109 -82 -116zM241 -121v39q39 3 39 64v18h-26v89h69v-94q0 -109 -82 -116z" />
    <glyph glyph-name="dagger" unicode="&#x2020;" horiz-adv-x="584" 
d="M264 -182v557l-225 -5v57l225 -5v258h56v-258l225 5v-57l-225 5v-557h-56z" />
    <glyph glyph-name="daggerdbl" unicode="&#x2021;" horiz-adv-x="584" 
d="M264 -182v238l-225 -5v57l225 -5v292l-225 -5v57l225 -5v238h56v-238l225 5v-57l-225 5v-292l225 5v-57l-225 5v-238h-56z" />
    <glyph glyph-name="bullet" unicode="&#x2022;" horiz-adv-x="500" 
d="M155 194v194h189v-194h-189z" />
    <glyph glyph-name="ellipsis" unicode="&#x2026;" horiz-adv-x="900" 
d="M116 0v89h68v-89h-68zM416 0v89h68v-89h-68zM716 0v89h68v-89h-68z" />
    <glyph glyph-name="perthousand" unicode="&#x2030;" horiz-adv-x="1109" 
d="M185 318q-69 0 -105.5 34.5t-36.5 100.5v103q0 66 36.5 101t105.5 35t105.5 -35t36.5 -101v-103q0 -66 -36.5 -100.5t-105.5 -34.5zM155 -12l404 704h52l-404 -704h-52zM185 362q93 0 93 95v97q0 94 -93 94t-93 -94v-97q0 -95 93 -95zM581 -12q-69 0 -105.5 35t-36.5 101
v103q0 66 36.5 100.5t105.5 34.5t105.5 -34.5t36.5 -100.5v-103q0 -66 -36.5 -101t-105.5 -35zM924 -12q-69 0 -105.5 35t-36.5 101v103q0 66 36.5 100.5t105.5 34.5t105.5 -34.5t36.5 -100.5v-103q0 -66 -36.5 -101t-105.5 -35zM581 32q93 0 93 95v97q0 94 -93 94t-93 -94
v-97q0 -95 93 -95zM924 32q93 0 93 95v97q0 94 -93 94t-93 -94v-97q0 -95 93 -95z" />
    <glyph glyph-name="guilsinglleft" unicode="&#x2039;" horiz-adv-x="259" 
d="M171 82l-145 174l145 174h63l-145 -174l145 -174h-63z" />
    <glyph glyph-name="guilsinglright" unicode="&#x203a;" horiz-adv-x="259" 
d="M26 82l145 174l-145 174h63l145 -174l-145 -174h-63z" />
    <glyph glyph-name="fraction" unicode="&#x2044;" horiz-adv-x="102" 
d="M-160 -12l370 704h51l-369 -704h-52z" />
    <glyph glyph-name="uni2070" unicode="&#x2070;" horiz-adv-x="366" 
d="M183 404q-68 0 -104 35t-36 101v146q0 66 36 101t104 35t104 -35t36 -101v-146q0 -66 -36 -101t-104 -35zM183 448q91 0 91 95v141q0 94 -91 94t-91 -94v-141q0 -95 91 -95z" />
    <glyph glyph-name="uni2074" unicode="&#x2074;" horiz-adv-x="366" 
d="M244 416v88h-214v46l211 260h53v-262h51v-44h-51v-88h-50zM84 548h160v200z" />
    <glyph glyph-name="uni2075" unicode="&#x2075;" horiz-adv-x="366" 
d="M182 404q-64 0 -101 28.5t-39 78.5h47q1 -29 26 -46t66 -17q99 0 99 90q0 42 -23.5 65t-68.5 23q-57 0 -92 -32h-40l12 216h241v-45h-201l-8 -126q40 31 99 31q62 0 96 -34.5t34 -96.5q0 -66 -38 -100.5t-109 -34.5z" />
    <glyph glyph-name="uni2076" unicode="&#x2076;" horiz-adv-x="366" 
d="M189 404q-69 0 -106 34.5t-37 99.5v148q0 65 37.5 100.5t107.5 35.5q63 0 96.5 -27.5t35.5 -77.5h-47q-5 61 -85 61q-96 0 -96 -96v-67q39 50 110 50q59 0 91.5 -33.5t32.5 -94.5q0 -133 -140 -133zM189 448q91 0 91 88q0 85 -84 85q-71 0 -101 -64v-16q0 -45 24 -69
t70 -24z" />
    <glyph glyph-name="uni2077" unicode="&#x2077;" horiz-adv-x="366" 
d="M107 416q9 206 169 349h-241v45h294v-48q-161 -143 -170 -346h-52z" />
    <glyph glyph-name="uni2078" unicode="&#x2078;" horiz-adv-x="366" 
d="M183 404q-151 0 -151 115q0 78 73 102v2q-61 19 -61 89q0 53 36 81.5t103 28.5t102.5 -28.5t35.5 -81.5q0 -70 -60 -89v-2q73 -25 73 -103q0 -114 -151 -114zM183 640q91 0 91 69q0 70 -91 70q-44 0 -67.5 -18t-23.5 -52q0 -69 91 -69zM183 447q101 0 101 75t-101 75
q-102 0 -102 -75t102 -75z" />
    <glyph glyph-name="uni2079" unicode="&#x2079;" horiz-adv-x="366" 
d="M175 404q-63 0 -96.5 27.5t-35.5 77.5h47q3 -61 85 -61q95 0 95 96v66q-40 -49 -110 -49q-59 0 -91.5 33.5t-32.5 94.5q0 65 36 99t104 34q70 0 106.5 -34.5t36.5 -99.5v-148q0 -66 -37 -101t-107 -35zM170 605q70 0 100 64v16q0 93 -94 93q-91 0 -91 -88q0 -85 85 -85z
" />
    <glyph glyph-name="uni2080" unicode="&#x2080;" horiz-adv-x="366" 
d="M183 -132q-68 0 -104 35t-36 101v146q0 66 36 101t104 35t104 -35t36 -101v-146q0 -66 -36 -101t-104 -35zM183 -88q91 0 91 95v141q0 94 -91 94t-91 -94v-141q0 -95 91 -95z" />
    <glyph glyph-name="uni2081" unicode="&#x2081;" horiz-adv-x="366" 
d="M89 -120v44h94v289q-46 -26 -106 -28v39q70 4 109 50h46v-350h96v-44h-239z" />
    <glyph glyph-name="uni2082" unicode="&#x2082;" horiz-adv-x="366" 
d="M45 -120v29q0 56 30 93t100 69q53 24 75 47t22 54q0 33 -22 51.5t-63 18.5q-43 0 -65.5 -21t-22.5 -60v-6h-47v12q0 57 35.5 88t101.5 31q63 0 97.5 -29.5t34.5 -83.5q0 -46 -28 -78t-93 -62q-58 -26 -81 -50t-25 -58h227v-45h-276z" />
    <glyph glyph-name="uni2083" unicode="&#x2083;" horiz-adv-x="366" 
d="M186 -132q-70 0 -106.5 28.5t-36.5 82.5v12h47v-6q0 -73 96 -73q93 0 93 75q0 73 -93 73h-47v44h47q83 0 83 68q0 70 -85 70q-42 0 -65 -19t-23 -53v-4h-47v7q0 53 36.5 83t100.5 30q62 0 96.5 -29t34.5 -82q0 -69 -59 -89v-1q70 -20 70 -100q0 -117 -142 -117z" />
    <glyph glyph-name="uni2084" unicode="&#x2084;" horiz-adv-x="366" 
d="M244 -120v88h-214v46l211 260h53v-262h51v-44h-51v-88h-50zM84 12h160v200z" />
    <glyph glyph-name="uni2085" unicode="&#x2085;" horiz-adv-x="366" 
d="M182 -132q-64 0 -101 28.5t-39 78.5h47q1 -29 26 -46t66 -17q99 0 99 90q0 42 -23.5 65t-68.5 23q-57 0 -92 -32h-40l12 216h241v-45h-201l-8 -126q40 31 99 31q62 0 96 -34.5t34 -96.5q0 -66 -38 -100.5t-109 -34.5z" />
    <glyph glyph-name="uni2086" unicode="&#x2086;" horiz-adv-x="366" 
d="M189 -132q-69 0 -106 34.5t-37 99.5v148q0 65 37.5 100.5t107.5 35.5q63 0 96.5 -27.5t35.5 -77.5h-47q-5 61 -85 61q-96 0 -96 -96v-67q39 50 110 50q59 0 91.5 -33.5t32.5 -94.5q0 -133 -140 -133zM189 -88q91 0 91 88q0 85 -84 85q-71 0 -101 -64v-16q0 -45 24 -69
t70 -24z" />
    <glyph glyph-name="uni2087" unicode="&#x2087;" horiz-adv-x="366" 
d="M107 -120q9 206 169 349h-241v45h294v-48q-161 -143 -170 -346h-52z" />
    <glyph glyph-name="uni2088" unicode="&#x2088;" horiz-adv-x="366" 
d="M183 -132q-151 0 -151 115q0 78 73 102v2q-61 19 -61 89q0 53 36 81.5t103 28.5t102.5 -28.5t35.5 -81.5q0 -70 -60 -89v-2q73 -25 73 -103q0 -114 -151 -114zM183 104q91 0 91 69q0 70 -91 70q-44 0 -67.5 -18t-23.5 -52q0 -69 91 -69zM183 -89q101 0 101 75t-101 75
q-102 0 -102 -75t102 -75z" />
    <glyph glyph-name="uni2089" unicode="&#x2089;" horiz-adv-x="366" 
d="M175 -132q-63 0 -96.5 27.5t-35.5 77.5h47q3 -61 85 -61q95 0 95 96v66q-40 -49 -110 -49q-59 0 -91.5 33.5t-32.5 94.5q0 65 36 99t104 34q70 0 106.5 -34.5t36.5 -99.5v-148q0 -66 -37 -101t-107 -35zM170 69q70 0 100 64v16q0 93 -94 93q-91 0 -91 -88q0 -85 85 -85z
" />
    <glyph glyph-name="Euro" unicode="&#x20ac;" 
d="M328 -12q-109 0 -168 58.5t-59 166.5v30h-58v47h58v100h-58v47h58v30q0 108 59 166.5t168 58.5q100 0 155 -50t62 -145h-54q-10 144 -163 144q-171 0 -171 -177v-27h230l-7 -47h-223v-100h203l-7 -47h-196v-27q0 -177 171 -177q153 0 163 144h54q-7 -94 -62 -144.5
t-155 -50.5z" />
    <glyph glyph-name="uni20B9" unicode="&#x20b9;" 
d="M411 0l-332 291v42h127q96 0 142 33.5t50 107.5h-334l11 47h321q-9 59 -51.5 85.5t-127.5 26.5h-153l11 47h485l-11 -47h-168q59 -33 71 -112h108l-11 -47h-95q-3 -96 -63.5 -142t-181.5 -46h-41l326 -286h-83z" />
    <glyph glyph-name="uni2113" unicode="&#x2113;" horiz-adv-x="460" 
d="M256 -12q-84 0 -128.5 47.5t-44.5 138.5v384q0 184 163 184q151 0 151 -159q0 -203 -258 -371v-40q0 -133 123 -133q68 0 125 45l23 -44q-66 -52 -154 -52zM139 272q202 138 202 307q0 112 -95 112q-107 0 -107 -134v-285z" />
    <glyph glyph-name="uni2116" unicode="&#x2116;" horiz-adv-x="1085" 
d="M99 0v680h70l369 -578v578h56v-680h-56l-383 600v-600h-56zM866 133q-76 0 -116 39.5t-40 116.5v65q0 76 40 116t116 40t116 -40t40 -116v-65q0 -77 -40 -116.5t-116 -39.5zM867 176q106 0 106 115v61q0 114 -106 114t-106 -114v-61q0 -115 106 -115zM714 0v44h305v-44
h-305z" />
    <glyph glyph-name="uni2117" unicode="&#x2117;" horiz-adv-x="779" 
d="M389 -12q-152 0 -252 100t-100 252t100 252t252 100t252 -100t100 -252t-100 -252t-252 -100zM389 34q135 0 218.5 85.5t83.5 220.5t-83.5 220.5t-218.5 85.5q-134 0 -217.5 -85.5t-83.5 -220.5t83.5 -220.5t217.5 -85.5zM275 160v360h145q67 0 97.5 -26.5t30.5 -84.5
t-30.5 -85t-97.5 -27h-93v-137h-52zM327 342h89q43 0 62 15.5t19 51.5q0 35 -19 51t-62 16h-89v-134z" />
    <glyph glyph-name="uni2120" unicode="&#x2120;" horiz-adv-x="688" 
d="M136 353q-116 0 -116 95h47q0 -56 69 -56q68 0 68 52q0 25 -17.5 38.5t-62.5 20.5q-54 9 -76.5 29.5t-22.5 61.5q0 94 111 94q108 0 108 -93h-46q0 54 -64 54q-63 0 -63 -51q0 -25 17 -37.5t60 -19.5q56 -9 79.5 -30.5t23.5 -63.5q0 -94 -115 -94zM320 361v319h69
l96 -255l96 255h68v-319h-47v261l-100 -261h-37l-101 264v-264h-44z" />
    <glyph glyph-name="trademark" unicode="&#x2122;" horiz-adv-x="663" 
d="M95 361v278h-94v41h235v-41h-94v-278h-47zM295 361v319h68l96 -255l96 255h69v-319h-47v264l-101 -264h-37l-100 261v-261h-44z" />
    <glyph glyph-name="uni2126" unicode="&#x2126;" horiz-adv-x="654" 
d="M73 0v53h95q-47 29 -73.5 84t-26.5 128v163q0 130 66 197t193 67t193 -67t66 -197v-163q0 -73 -26.5 -128t-73.5 -84h95v-53h-204v47q73 14 112.5 68.5t39.5 142.5v167q0 109 -50 161.5t-152 52.5t-152 -52.5t-50 -161.5v-167q0 -88 39.5 -142.5t112.5 -68.5v-47h-204z
" />
    <glyph glyph-name="estimated" unicode="&#x212e;" horiz-adv-x="804" 
d="M411 -12q-154 0 -262.5 103t-108.5 249t108.5 249t262.5 103t262.5 -103t108.5 -249v-9h-601q-5 0 -5 -5v-191q0 -10 9 -21q89 -105 228 -105q69 0 132 31.5t107 85.5h54q-52 -64 -129.5 -101t-165.5 -37zM181 351h461q6 0 6 6v193q0 12 -10 22q-94 99 -225 99
q-135 0 -228 -103q-9 -11 -9 -22v-190q0 -5 5 -5z" />
    <glyph glyph-name="uni2153" unicode="&#x2153;" horiz-adv-x="834" 
d="M206 -12l370 704h51l-369 -704h-52zM89 286v44h94v289q-46 -26 -106 -28v39q70 4 109 50h46v-350h96v-44h-239zM654 -12q-70 0 -106.5 28.5t-36.5 82.5v12h47v-6q0 -73 96 -73q93 0 93 75q0 73 -93 73h-47v44h47q83 0 83 68q0 70 -85 70q-42 0 -65 -19t-23 -53v-4h-47v7
q0 53 36.5 83t100.5 30q62 0 96.5 -29t34.5 -82q0 -69 -59 -89v-1q70 -20 70 -100q0 -117 -142 -117z" />
    <glyph glyph-name="uni2154" unicode="&#x2154;" horiz-adv-x="834" 
d="M45 286v29q0 56 30 93t100 69q53 24 75 47t22 54q0 33 -22 51.5t-63 18.5q-43 0 -65.5 -21t-22.5 -60v-6h-47v12q0 57 35.5 88t101.5 31q63 0 97.5 -29.5t34.5 -83.5q0 -46 -28 -78t-93 -62q-58 -26 -81 -50t-25 -58h227v-45h-276zM206 -12l370 704h51l-369 -704h-52z
M654 -12q-70 0 -106.5 28.5t-36.5 82.5v12h47v-6q0 -73 96 -73q93 0 93 75q0 73 -93 73h-47v44h47q83 0 83 68q0 70 -85 70q-42 0 -65 -19t-23 -53v-4h-47v7q0 53 36.5 83t100.5 30q62 0 96.5 -29t34.5 -82q0 -69 -59 -89v-1q70 -20 70 -100q0 -117 -142 -117z" />
    <glyph glyph-name="uni2155" unicode="&#x2155;" horiz-adv-x="834" 
d="M206 -12l370 704h51l-369 -704h-52zM89 286v44h94v289q-46 -26 -106 -28v39q70 4 109 50h46v-350h96v-44h-239zM650 -12q-64 0 -101 28.5t-39 78.5h47q1 -29 26 -46t66 -17q99 0 99 90q0 42 -23.5 65t-68.5 23q-57 0 -92 -32h-40l12 216h241v-45h-201l-8 -126
q40 31 99 31q62 0 96 -34.5t34 -96.5q0 -66 -38 -100.5t-109 -34.5z" />
    <glyph glyph-name="uni2156" unicode="&#x2156;" horiz-adv-x="834" 
d="M45 286v29q0 56 30 93t100 69q53 24 75 47t22 54q0 33 -22 51.5t-63 18.5q-43 0 -65.5 -21t-22.5 -60v-6h-47v12q0 57 35.5 88t101.5 31q63 0 97.5 -29.5t34.5 -83.5q0 -46 -28 -78t-93 -62q-58 -26 -81 -50t-25 -58h227v-45h-276zM206 -12l370 704h51l-369 -704h-52z
M650 -12q-64 0 -101 28.5t-39 78.5h47q1 -29 26 -46t66 -17q99 0 99 90q0 42 -23.5 65t-68.5 23q-57 0 -92 -32h-40l12 216h241v-45h-201l-8 -126q40 31 99 31q62 0 96 -34.5t34 -96.5q0 -66 -38 -100.5t-109 -34.5z" />
    <glyph glyph-name="uni2157" unicode="&#x2157;" horiz-adv-x="834" 
d="M186 274q-70 0 -106.5 28.5t-36.5 82.5v12h47v-6q0 -73 96 -73q93 0 93 75q0 73 -93 73h-47v44h47q83 0 83 68q0 70 -85 70q-42 0 -65 -19t-23 -53v-4h-47v7q0 53 36.5 83t100.5 30q62 0 96.5 -29t34.5 -82q0 -69 -59 -89v-1q70 -20 70 -100q0 -117 -142 -117zM206 -12
l370 704h51l-369 -704h-52zM650 -12q-64 0 -101 28.5t-39 78.5h47q1 -29 26 -46t66 -17q99 0 99 90q0 42 -23.5 65t-68.5 23q-57 0 -92 -32h-40l12 216h241v-45h-201l-8 -126q40 31 99 31q62 0 96 -34.5t34 -96.5q0 -66 -38 -100.5t-109 -34.5z" />
    <glyph glyph-name="uni2158" unicode="&#x2158;" horiz-adv-x="834" 
d="M206 -12l370 704h51l-369 -704h-52zM244 286v88h-214v46l211 260h53v-262h51v-44h-51v-88h-50zM84 418h160v200zM650 -12q-64 0 -101 28.5t-39 78.5h47q1 -29 26 -46t66 -17q99 0 99 90q0 42 -23.5 65t-68.5 23q-57 0 -92 -32h-40l12 216h241v-45h-201l-8 -126
q40 31 99 31q62 0 96 -34.5t34 -96.5q0 -66 -38 -100.5t-109 -34.5z" />
    <glyph glyph-name="uni2159" unicode="&#x2159;" horiz-adv-x="834" 
d="M206 -12l370 704h51l-369 -704h-52zM89 286v44h94v289q-46 -26 -106 -28v39q70 4 109 50h46v-350h96v-44h-239zM657 -12q-69 0 -106 34.5t-37 99.5v148q0 65 37.5 100.5t107.5 35.5q63 0 96.5 -27.5t35.5 -77.5h-47q-5 61 -85 61q-96 0 -96 -96v-67q39 50 110 50
q59 0 91.5 -33.5t32.5 -94.5q0 -133 -140 -133zM657 32q91 0 91 88q0 85 -84 85q-71 0 -101 -64v-16q0 -45 24 -69t70 -24z" />
    <glyph glyph-name="uni215A" unicode="&#x215a;" horiz-adv-x="834" 
d="M206 -12l370 704h51l-369 -704h-52zM182 274q-64 0 -101 28.5t-39 78.5h47q1 -29 26 -46t66 -17q99 0 99 90q0 42 -23.5 65t-68.5 23q-57 0 -92 -32h-40l12 216h241v-45h-201l-8 -126q40 31 99 31q62 0 96 -34.5t34 -96.5q0 -66 -38 -100.5t-109 -34.5zM657 -12
q-69 0 -106 34.5t-37 99.5v148q0 65 37.5 100.5t107.5 35.5q63 0 96.5 -27.5t35.5 -77.5h-47q-5 61 -85 61q-96 0 -96 -96v-67q39 50 110 50q59 0 91.5 -33.5t32.5 -94.5q0 -133 -140 -133zM657 32q91 0 91 88q0 85 -84 85q-71 0 -101 -64v-16q0 -45 24 -69t70 -24z" />
    <glyph glyph-name="oneeighth" unicode="&#x215b;" horiz-adv-x="834" 
d="M206 -12l370 704h51l-369 -704h-52zM89 286v44h94v289q-46 -26 -106 -28v39q70 4 109 50h46v-350h96v-44h-239zM651 -12q-151 0 -151 115q0 78 73 102v2q-61 19 -61 89q0 53 36 81.5t103 28.5t102.5 -28.5t35.5 -81.5q0 -70 -60 -89v-2q73 -25 73 -103q0 -114 -151 -114z
M651 224q91 0 91 69q0 70 -91 70q-44 0 -67.5 -18t-23.5 -52q0 -69 91 -69zM651 31q101 0 101 75t-101 75q-102 0 -102 -75t102 -75z" />
    <glyph glyph-name="threeeighths" unicode="&#x215c;" horiz-adv-x="834" 
d="M186 274q-70 0 -106.5 28.5t-36.5 82.5v12h47v-6q0 -73 96 -73q93 0 93 75q0 73 -93 73h-47v44h47q83 0 83 68q0 70 -85 70q-42 0 -65 -19t-23 -53v-4h-47v7q0 53 36.5 83t100.5 30q62 0 96.5 -29t34.5 -82q0 -69 -59 -89v-1q70 -20 70 -100q0 -117 -142 -117zM206 -12
l370 704h51l-369 -704h-52zM651 -12q-151 0 -151 115q0 78 73 102v2q-61 19 -61 89q0 53 36 81.5t103 28.5t102.5 -28.5t35.5 -81.5q0 -70 -60 -89v-2q73 -25 73 -103q0 -114 -151 -114zM651 224q91 0 91 69q0 70 -91 70q-44 0 -67.5 -18t-23.5 -52q0 -69 91 -69zM651 31
q101 0 101 75t-101 75q-102 0 -102 -75t102 -75z" />
    <glyph glyph-name="fiveeighths" unicode="&#x215d;" horiz-adv-x="834" 
d="M206 -12l370 704h51l-369 -704h-52zM182 274q-64 0 -101 28.5t-39 78.5h47q1 -29 26 -46t66 -17q99 0 99 90q0 42 -23.5 65t-68.5 23q-57 0 -92 -32h-40l12 216h241v-45h-201l-8 -126q40 31 99 31q62 0 96 -34.5t34 -96.5q0 -66 -38 -100.5t-109 -34.5zM651 -12
q-151 0 -151 115q0 78 73 102v2q-61 19 -61 89q0 53 36 81.5t103 28.5t102.5 -28.5t35.5 -81.5q0 -70 -60 -89v-2q73 -25 73 -103q0 -114 -151 -114zM651 224q91 0 91 69q0 70 -91 70q-44 0 -67.5 -18t-23.5 -52q0 -69 91 -69zM651 31q101 0 101 75t-101 75q-102 0 -102 -75
t102 -75z" />
    <glyph glyph-name="seveneighths" unicode="&#x215e;" horiz-adv-x="834" 
d="M173 -12l370 704h51l-369 -704h-52zM107 286q9 206 169 349h-241v45h294v-48q-161 -143 -170 -346h-52zM651 -12q-151 0 -151 115q0 78 73 102v2q-61 19 -61 89q0 53 36 81.5t103 28.5t102.5 -28.5t35.5 -81.5q0 -70 -60 -89v-2q73 -25 73 -103q0 -114 -151 -114z
M651 224q91 0 91 69q0 70 -91 70q-44 0 -67.5 -18t-23.5 -52q0 -69 91 -69zM651 31q101 0 101 75t-101 75q-102 0 -102 -75t102 -75z" />
    <glyph glyph-name="arrowleft" unicode="&#x2190;" horiz-adv-x="800" 
d="M363 30l-309 310l309 310l34 -33l-252 -251h600v-52h-600l252 -251z" />
    <glyph glyph-name="arrowup" unicode="&#x2191;" horiz-adv-x="800" 
d="M373 0v600l-252 -254l-33 33l312 313l312 -313l-33 -33l-253 255v-601h-53z" />
    <glyph glyph-name="arrowright" unicode="&#x2192;" horiz-adv-x="800" 
d="M436 32l-33 33l251 251h-600v52h600l-251 251l33 33l310 -310z" />
    <glyph glyph-name="arrowdown" unicode="&#x2193;" horiz-adv-x="800" 
d="M400 -12l-312 313l33 33l252 -254v600h53v-601l253 255l33 -33z" />
    <glyph glyph-name="arrowboth" unicode="&#x2194;" horiz-adv-x="1000" 
d="M343 50l-289 290l289 290l34 -33l-232 -231h709l-231 231l33 33l290 -290l-290 -290l-33 33l231 231h-709l232 -231z" />
    <glyph glyph-name="arrowupdn" unicode="&#x2195;" horiz-adv-x="800" 
d="M400 -84l-291 291l33 33l231 -233v666l-231 -233l-33 33l291 291l290 -291l-33 -33l-231 233v-666l231 233l33 -33z" />
    <glyph glyph-name="uni2196" unicode="&#x2196;" horiz-adv-x="800" 
d="M659 50l-476 475l2 -345h-49v428h428v-46l-346 1l477 -477z" />
    <glyph glyph-name="uni2197" unicode="&#x2197;" horiz-adv-x="800" 
d="M142 50l-36 36l477 477l-347 -1v46h428v-428h-49l1 343z" />
    <glyph glyph-name="uni2198" unicode="&#x2198;" horiz-adv-x="800" 
d="M236 72v46l347 -1l-477 477l36 36l474 -473l-1 343h49v-428h-428z" />
    <glyph glyph-name="uni2199" unicode="&#x2199;" horiz-adv-x="800" 
d="M136 72v428h49l-2 -345l476 475l36 -36l-477 -477l346 1v-46h-428z" />
    <glyph glyph-name="partialdiff" unicode="&#x2202;" horiz-adv-x="603" 
d="M260 -12q-101 0 -157.5 59.5t-56.5 162.5q0 113 65.5 183.5t171.5 70.5q137 0 198 -113q1 15 1 47q0 153 -48 224t-155 71q-86 0 -144 -47v57q60 39 153 39q129 0 189.5 -82t60.5 -257q0 -198 -72 -306.5t-206 -108.5zM262 37q85 0 138 59t72 170q-19 68 -68.5 108
t-118.5 40q-82 0 -132.5 -56t-50.5 -147q0 -82 42 -128t118 -46z" />
    <glyph glyph-name="emptyset" unicode="&#x2205;" horiz-adv-x="845" 
d="M105 -12l-34 34l84 84q-84 97 -84 234q0 152 100 252t252 100q138 0 233 -84l84 84l34 -34l-84 -84q84 -97 84 -234q0 -152 -100 -252t-251 -100q-137 0 -234 84zM190 141l431 432q-83 70 -199 70q-130 0 -215 -86t-85 -217q0 -115 68 -199zM422 37q130 0 215 86t85 217
q0 116 -68 198l-430 -431q83 -70 198 -70z" />
    <glyph glyph-name="uni2206" unicode="&#x2206;" horiz-adv-x="594" 
d="M12 0l255 680h60l255 -680h-570zM91 53h409l-204 549z" />
    <glyph glyph-name="product" unicode="&#x220f;" horiz-adv-x="785" 
d="M105 -183v954h575v-954h-55v904h-465v-904h-55z" />
    <glyph glyph-name="summation" unicode="&#x2211;" horiz-adv-x="605" 
d="M23 -183v53l335 424l-335 424v53h560v-50h-495l339 -427l-339 -427h495v-50h-560z" />
    <glyph glyph-name="minus" unicode="&#x2212;" 
d="M57 283v50h487v-50h-487z" />
    <glyph glyph-name="uni2215" unicode="&#x2215;" horiz-adv-x="390" 
d="M6 -12l322 704h56l-323 -704h-55z" />
    <glyph glyph-name="uni2219" unicode="&#x2219;" horiz-adv-x="256" 
d="M94 263v89h68v-89h-68z" />
    <glyph glyph-name="radical" unicode="&#x221a;" 
d="M256 -183l-119 354h-80v49h115l110 -322l275 873h53l-301 -954h-53z" />
    <glyph glyph-name="infinity" unicode="&#x221e;" horiz-adv-x="930" 
d="M249 108q-85 0 -137.5 58t-52.5 151q0 95 53 153.5t140 58.5q78 0 126 -42t89 -118q45 86 94.5 123t120.5 37q85 0 137 -58t52 -151q0 -95 -53 -153.5t-139 -58.5q-78 0 -126 42t-89 118q-45 -86 -95 -123t-120 -37zM255 156q60 0 100.5 34.5t84.5 122.5q-22 42 -35.5 64
t-37 50t-51.5 40.5t-63 12.5q-63 0 -102.5 -46t-39.5 -118t39.5 -116t104.5 -44zM678 157q63 0 102 45.5t39 118.5q0 71 -39.5 115t-103.5 44q-60 0 -101 -34.5t-84 -121.5q21 -40 35 -63.5t37 -51t51.5 -40t63.5 -12.5z" />
    <glyph glyph-name="integral" unicode="&#x222b;" horiz-adv-x="297" 
d="M46 -194q-30 0 -59 11v50q27 -12 53 -12q43 0 62.5 28.5t19.5 91.5v644q0 85 31 125.5t97 40.5q27 0 60 -10v-51q-30 12 -55 12q-43 0 -62 -28t-19 -92v-644q0 -85 -31 -125.5t-97 -40.5z" />
    <glyph glyph-name="approxequal" unicode="&#x2248;" 
d="M411 336q-62 0 -123 53q-51 45 -99 45q-78 0 -86 -90h-45q4 67 38.5 103t94.5 36q34 0 61 -12t62 -41q54 -45 99 -45q77 0 86 90h45q-4 -67 -38.5 -103t-94.5 -36zM411 114q-62 0 -123 53q-51 45 -99 45q-78 0 -86 -90h-45q4 67 38.5 103t94.5 36q34 0 61 -12t62 -41
q54 -45 99 -45q77 0 86 90h45q-4 -67 -38.5 -103t-94.5 -36z" />
    <glyph glyph-name="notequal" unicode="&#x2260;" 
d="M544 394h-155l-121 -172h276v-50h-311l-103 -146h-57l103 146h-119v50h154l121 172h-275v50h310l103 147h57l-103 -147h120v-50z" />
    <glyph glyph-name="lessequal" unicode="&#x2264;" 
d="M544 116l-487 203v47l487 202v-53l-416 -173l416 -172v-54zM57 0v50h487v-50h-487z" />
    <glyph glyph-name="greaterequal" unicode="&#x2265;" 
d="M57 116v54l416 172l-416 173v53l487 -202v-47zM57 0v50h487v-50h-487z" />
    <glyph glyph-name="lozenge" unicode="&#x25ca;" 
d="M300 -32l-267 372l267 372l267 -372zM300 52l207 288l-207 288l-207 -288z" />
    <glyph glyph-name="uniF8FF" unicode="&#xf8ff;" horiz-adv-x="649" 
d="M263 50q-101 0 -163 61t-62 163q0 101 64.5 163t185.5 62h50v116h157v-116h132v-149h-132v-51q0 -116 -63.5 -182.5t-168.5 -66.5zM266 205q72 0 72 92v53h-49q-89 0 -89 -76q0 -32 17.5 -50.5t48.5 -18.5z" />
    <glyph glyph-name="Iacute_J.loclNLD" horiz-adv-x="803" 
d="M71 754l108 127h72l-122 -127h-58zM637 754l108 127h72l-122 -127h-58zM99 0v680h57v-680h-57zM496 -12q-114 0 -168.5 54t-54.5 168v14h55v-11q0 -91 39.5 -131.5t127.5 -40.5q91 0 131 44.5t40 145.5v449h57v-454q0 -122 -55 -180t-172 -58z" />
    <glyph glyph-name="iacute_j.loclNLD" horiz-adv-x="472" 
d="M61 597l108 127h72l-122 -127h-58zM297 597l108 127h72l-122 -127h-58zM90 0v512h56v-512h-56zM233 -182v49h22q42 0 56.5 18t14.5 68v559h56v-558q0 -72 -27.5 -104t-89.5 -32h-32z" />
    <glyph glyph-name="i.loclTRK" horiz-adv-x="236" 
d="M87 618v83h62v-83h-62zM90 0v512h56v-512h-56z" />
    <glyph glyph-name="germandbls.calt" horiz-adv-x="625" 
d="M81 0v476q0 104 55.5 154t171.5 50h236v-48l-188 -248q127 -1 183 -46.5t56 -146.5q0 -100 -52.5 -145.5t-167.5 -45.5h-118v53h113q89 0 128 32t39 105q0 76 -43.5 109t-145.5 33h-64v45l189 250h-161q-92 0 -133 -36t-41 -116v-475h-57z" />
    <glyph glyph-name="zero.pf" horiz-adv-x="634" 
d="M317 -12q-112 0 -171 57.5t-59 166.5v256q0 109 59 166.5t171 57.5t170.5 -57.5t58.5 -166.5v-256q0 -109 -58.5 -166.5t-170.5 -57.5zM317 39q173 0 173 178v246q0 178 -173 178q-174 0 -174 -178v-246q0 -178 174 -178z" />
    <glyph glyph-name="one.pf" horiz-adv-x="417" 
d="M250 0v605q-74 -52 -192 -60v49q121 7 194 86h54v-680h-56z" />
    <glyph glyph-name="two.pf" horiz-adv-x="572" 
d="M60 0v38q0 93 51 155.5t172 118.5q99 46 139 88.5t40 103.5q0 65 -42.5 101t-123.5 36q-83 0 -127 -39.5t-44 -116.5v-11h-54v17q0 96 59.5 148.5t167.5 52.5q106 0 162.5 -50t56.5 -137q0 -78 -46.5 -131.5t-159.5 -105.5q-107 -49 -151 -97t-45 -118h402v-53h-457z" />
    <glyph glyph-name="three.pf" horiz-adv-x="597" 
d="M300 -12q-114 0 -174.5 49t-60.5 140v18h55v-11q0 -145 180 -145q178 0 178 145q0 140 -174 140h-79v51h81q75 0 115 33t40 97q0 65 -42.5 100.5t-120.5 35.5q-81 0 -125 -38t-44 -106v-7h-54v11q0 89 60 140t166 51q101 0 158 -48.5t57 -134.5q0 -120 -107 -155v-1
q125 -36 125 -171q0 -96 -60 -145t-174 -49z" />
    <glyph glyph-name="four.pf" horiz-adv-x="590" 
d="M415 0v162h-374v55l366 463h64v-467h87v-51h-87v-162h-56zM103 213h312v397z" />
    <glyph glyph-name="five.pf" horiz-adv-x="579" 
d="M288 -12q-107 0 -168.5 47.5t-63.5 130.5h55q2 -59 48.5 -93t127.5 -34q91 0 139 44.5t48 131.5t-47 131t-130 44q-100 0 -169 -63h-49l22 353h398v-53h-348l-16 -242q70 56 171 56q106 0 165 -58.5t59 -166.5q0 -111 -63 -169.5t-179 -58.5z" />
    <glyph glyph-name="six.pf" horiz-adv-x="628" 
d="M323 -12q-112 0 -172 58t-60 169v248q0 111 61 170t175 59q100 0 156 -44.5t61 -127.5h-55q-11 121 -161 121q-181 0 -181 -183v-123q67 93 198 93q101 0 155 -55t54 -160q0 -108 -59 -166.5t-172 -58.5zM323 39q175 0 175 172q0 166 -162 166q-135 0 -189 -125v-34
q0 -179 176 -179z" />
    <glyph glyph-name="seven.pf" horiz-adv-x="536" 
d="M148 0q15 359 293 626h-417v54h482v-57q-283 -267 -298 -623h-60z" />
    <glyph glyph-name="eight.pf" horiz-adv-x="619" 
d="M310 -12q-121 0 -184.5 49.5t-63.5 142.5q0 136 134 173v2q-113 35 -113 153q0 87 60 135.5t167 48.5t167 -48.5t60 -135.5q0 -118 -114 -153v-1q134 -38 134 -174q0 -93 -63.5 -142.5t-183.5 -49.5zM310 376q84 0 128 33.5t44 97.5t-45 99t-127 35t-127 -35t-45 -99
t44 -97.5t128 -33.5zM310 39q191 0 191 143q0 144 -191 144q-192 0 -192 -144q0 -143 192 -143z" />
    <glyph glyph-name="nine.pf" horiz-adv-x="628" 
d="M302 -12q-100 0 -156 44.5t-61 127.5h54q11 -121 162 -121q180 0 180 183v123q-67 -93 -197 -93q-101 0 -155.5 55t-54.5 160q0 108 59 166.5t172 58.5q112 0 172 -58t60 -169v-248q0 -111 -60.5 -170t-174.5 -59zM292 303q135 0 189 125v34q0 179 -176 179
q-175 0 -175 -172q0 -166 162 -166z" />
    <glyph glyph-name="zero.numr" horiz-adv-x="366" 
d="M183 274q-68 0 -104 35t-36 101v146q0 66 36 101t104 35t104 -35t36 -101v-146q0 -66 -36 -101t-104 -35zM183 318q91 0 91 95v141q0 94 -91 94t-91 -94v-141q0 -95 91 -95z" />
    <glyph glyph-name="one.numr" horiz-adv-x="366" 
d="M89 286v44h94v289q-46 -26 -106 -28v39q70 4 109 50h46v-350h96v-44h-239z" />
    <glyph glyph-name="two.numr" horiz-adv-x="366" 
d="M45 286v29q0 56 30 93t100 69q53 24 75 47t22 54q0 33 -22 51.5t-63 18.5q-43 0 -65.5 -21t-22.5 -60v-6h-47v12q0 57 35.5 88t101.5 31q63 0 97.5 -29.5t34.5 -83.5q0 -46 -28 -78t-93 -62q-58 -26 -81 -50t-25 -58h227v-45h-276z" />
    <glyph glyph-name="three.numr" horiz-adv-x="366" 
d="M186 274q-70 0 -106.5 28.5t-36.5 82.5v12h47v-6q0 -73 96 -73q93 0 93 75q0 73 -93 73h-47v44h47q83 0 83 68q0 70 -85 70q-42 0 -65 -19t-23 -53v-4h-47v7q0 53 36.5 83t100.5 30q62 0 96.5 -29t34.5 -82q0 -69 -59 -89v-1q70 -20 70 -100q0 -117 -142 -117z" />
    <glyph glyph-name="four.numr" horiz-adv-x="366" 
d="M244 286v88h-214v46l211 260h53v-262h51v-44h-51v-88h-50zM84 418h160v200z" />
    <glyph glyph-name="five.numr" horiz-adv-x="366" 
d="M182 274q-64 0 -101 28.5t-39 78.5h47q1 -29 26 -46t66 -17q99 0 99 90q0 42 -23.5 65t-68.5 23q-57 0 -92 -32h-40l12 216h241v-45h-201l-8 -126q40 31 99 31q62 0 96 -34.5t34 -96.5q0 -66 -38 -100.5t-109 -34.5z" />
    <glyph glyph-name="six.numr" horiz-adv-x="366" 
d="M189 274q-69 0 -106 34.5t-37 99.5v148q0 65 37.5 100.5t107.5 35.5q63 0 96.5 -27.5t35.5 -77.5h-47q-5 61 -85 61q-96 0 -96 -96v-67q39 50 110 50q59 0 91.5 -33.5t32.5 -94.5q0 -133 -140 -133zM189 318q91 0 91 88q0 85 -84 85q-71 0 -101 -64v-16q0 -45 24 -69
t70 -24z" />
    <glyph glyph-name="seven.numr" horiz-adv-x="366" 
d="M107 286q9 206 169 349h-241v45h294v-48q-161 -143 -170 -346h-52z" />
    <glyph glyph-name="eight.numr" horiz-adv-x="366" 
d="M183 274q-151 0 -151 115q0 78 73 102v2q-61 19 -61 89q0 53 36 81.5t103 28.5t102.5 -28.5t35.5 -81.5q0 -70 -60 -89v-2q73 -25 73 -103q0 -114 -151 -114zM183 510q91 0 91 69q0 70 -91 70q-44 0 -67.5 -18t-23.5 -52q0 -69 91 -69zM183 317q101 0 101 75t-101 75
q-102 0 -102 -75t102 -75z" />
    <glyph glyph-name="nine.numr" horiz-adv-x="366" 
d="M175 274q-63 0 -96.5 27.5t-35.5 77.5h47q3 -61 85 -61q95 0 95 96v66q-40 -49 -110 -49q-59 0 -91.5 33.5t-32.5 94.5q0 65 36 99t104 34q70 0 106.5 -34.5t36.5 -99.5v-148q0 -66 -37 -101t-107 -35zM170 475q70 0 100 64v16q0 93 -94 93q-91 0 -91 -88q0 -85 85 -85z
" />
    <glyph glyph-name="zero.dnom" horiz-adv-x="366" 
d="M183 -12q-68 0 -104 35t-36 101v146q0 66 36 101t104 35t104 -35t36 -101v-146q0 -66 -36 -101t-104 -35zM183 32q91 0 91 95v141q0 94 -91 94t-91 -94v-141q0 -95 91 -95z" />
    <glyph glyph-name="one.dnom" horiz-adv-x="366" 
d="M89 0v44h94v289q-46 -26 -106 -28v39q70 4 109 50h46v-350h96v-44h-239z" />
    <glyph glyph-name="two.dnom" horiz-adv-x="366" 
d="M45 0v29q0 56 30 93t100 69q53 24 75 47t22 54q0 33 -22 51.5t-63 18.5q-43 0 -65.5 -21t-22.5 -60v-6h-47v12q0 57 35.5 88t101.5 31q63 0 97.5 -29.5t34.5 -83.5q0 -46 -28 -78t-93 -62q-58 -26 -81 -50t-25 -58h227v-45h-276z" />
    <glyph glyph-name="three.dnom" horiz-adv-x="366" 
d="M186 -12q-70 0 -106.5 28.5t-36.5 82.5v12h47v-6q0 -73 96 -73q93 0 93 75q0 73 -93 73h-47v44h47q83 0 83 68q0 70 -85 70q-42 0 -65 -19t-23 -53v-4h-47v7q0 53 36.5 83t100.5 30q62 0 96.5 -29t34.5 -82q0 -69 -59 -89v-1q70 -20 70 -100q0 -117 -142 -117z" />
    <glyph glyph-name="four.dnom" horiz-adv-x="366" 
d="M244 0v88h-214v46l211 260h53v-262h51v-44h-51v-88h-50zM84 132h160v200z" />
    <glyph glyph-name="five.dnom" horiz-adv-x="366" 
d="M182 -12q-64 0 -101 28.5t-39 78.5h47q1 -29 26 -46t66 -17q99 0 99 90q0 42 -23.5 65t-68.5 23q-57 0 -92 -32h-40l12 216h241v-45h-201l-8 -126q40 31 99 31q62 0 96 -34.5t34 -96.5q0 -66 -38 -100.5t-109 -34.5z" />
    <glyph glyph-name="six.dnom" horiz-adv-x="366" 
d="M189 -12q-69 0 -106 34.5t-37 99.5v148q0 65 37.5 100.5t107.5 35.5q63 0 96.5 -27.5t35.5 -77.5h-47q-5 61 -85 61q-96 0 -96 -96v-67q39 50 110 50q59 0 91.5 -33.5t32.5 -94.5q0 -133 -140 -133zM189 32q91 0 91 88q0 85 -84 85q-71 0 -101 -64v-16q0 -45 24 -69
t70 -24z" />
    <glyph glyph-name="seven.dnom" horiz-adv-x="366" 
d="M107 0q9 206 169 349h-241v45h294v-48q-161 -143 -170 -346h-52z" />
    <glyph glyph-name="eight.dnom" horiz-adv-x="366" 
d="M183 -12q-151 0 -151 115q0 78 73 102v2q-61 19 -61 89q0 53 36 81.5t103 28.5t102.5 -28.5t35.5 -81.5q0 -70 -60 -89v-2q73 -25 73 -103q0 -114 -151 -114zM183 224q91 0 91 69q0 70 -91 70q-44 0 -67.5 -18t-23.5 -52q0 -69 91 -69zM183 31q101 0 101 75t-101 75
q-102 0 -102 -75t102 -75z" />
    <glyph glyph-name="nine.dnom" horiz-adv-x="366" 
d="M175 -12q-63 0 -96.5 27.5t-35.5 77.5h47q3 -61 85 -61q95 0 95 96v66q-40 -49 -110 -49q-59 0 -91.5 33.5t-32.5 94.5q0 65 36 99t104 34q70 0 106.5 -34.5t36.5 -99.5v-148q0 -66 -37 -101t-107 -35zM170 189q70 0 100 64v16q0 93 -94 93q-91 0 -91 -88q0 -85 85 -85z
" />
    <glyph glyph-name="exclamdown.case" horiz-adv-x="273" 
d="M102 591v89h68v-89h-68zM107 0l1 160l8 316h40l8 -316l1 -160h-58z" />
    <glyph glyph-name="questiondown.case" horiz-adv-x="423" 
d="M196 591v89h68v-89h-68zM214 -12q-89 0 -138.5 45t-49.5 126q0 52 21.5 87t73.5 67q47 29 66 59.5t19 77.5v26h48v-27q0 -58 -22 -96.5t-72 -70.5q-44 -29 -61.5 -56t-17.5 -67q0 -58 34.5 -89.5t99.5 -31.5q67 0 102.5 35t35.5 102h54q0 -89 -50.5 -138t-142.5 -49z" />
    <glyph glyph-name="at.case" horiz-adv-x="760" 
d="M411 -18q-169 0 -270.5 97.5t-101.5 258.5q0 160 99 260t260 100q154 0 247 -90.5t93 -236.5q0 -98 -42 -154.5t-114 -56.5q-78 0 -95 72q-46 -72 -128 -72q-59 0 -91.5 36.5t-32.5 101.5v78q0 65 32.5 101t91.5 36q80 0 126 -67l3 55h45v-222q0 -71 55 -71q45 0 71 42
t26 117q0 129 -77 205.5t-209 76.5q-139 0 -222 -85t-83 -224q0 -142 86 -225.5t231 -83.5q112 0 192 52l20 -45q-82 -56 -212 -56zM369 208q68 0 109 78v102q-41 78 -110 78q-78 0 -78 -95v-70q0 -93 79 -93z" />
    <glyph glyph-name="parenleft.case" horiz-adv-x="327" 
d="M306 -96q-110 41 -171 155t-61 281t61 281t171 155v-46q-86 -42 -132 -143t-46 -247t46 -247t132 -143v-46z" />
    <glyph glyph-name="parenright.case" horiz-adv-x="327" 
d="M21 -96v46q86 42 132 143t46 247t-46 247t-132 143v46q110 -41 171 -155t61 -281t-61 -281t-171 -155z" />
    <glyph glyph-name="braceleft.case" horiz-adv-x="327" 
d="M259 -84q-72 0 -105.5 37.5t-33.5 120.5v166q0 45 -18 61.5t-67 16.5v44q49 0 67 16.5t18 61.5v166q0 83 33.5 120.5t105.5 37.5h47v-44h-39q-50 0 -71.5 -26t-21.5 -86v-162q0 -91 -60 -105v-2q60 -16 60 -105v-162q0 -60 21.5 -86t71.5 -26h39v-44h-47z" />
    <glyph glyph-name="braceright.case" horiz-adv-x="327" 
d="M21 -84v44h38q50 0 72 26t22 86v162q0 89 59 105v2q-59 14 -59 105v162q0 60 -22 86t-72 26h-38v44h46q72 0 105.5 -37.5t33.5 -120.5v-166q0 -45 18.5 -61.5t67.5 -16.5v-44q-49 0 -67.5 -16.5t-18.5 -61.5v-166q0 -83 -33.5 -120.5t-105.5 -37.5h-46z" />
    <glyph glyph-name="bracketleft.case" horiz-adv-x="327" 
d="M99 -84v848h207v-44h-153v-760h153v-44h-207z" />
    <glyph glyph-name="bracketright.case" horiz-adv-x="327" 
d="M21 -84v44h154v760h-154v44h208v-848h-208z" />
    <glyph glyph-name="bar.case" horiz-adv-x="279" 
d="M114 -160v1000h52v-1000h-52z" />
    <glyph glyph-name="brokenbar.case" horiz-adv-x="279" 
d="M114 440v400h52v-400h-52zM114 -160v400h52v-400h-52z" />
    <glyph glyph-name="periodcentered.case" horiz-adv-x="256" 
d="M94 295v89h68v-89h-68z" />
    <glyph glyph-name="bullet.case" horiz-adv-x="500" 
d="M155 243v194h189v-194h-189z" />
    <glyph glyph-name="hyphen.case" horiz-adv-x="362" 
d="M35 313v54h293v-54h-293z" />
    <glyph glyph-name="uni00AD.case" horiz-adv-x="362" 
d="M35 313v54h293v-54h-293z" />
    <glyph glyph-name="figuredash.case" 
d="M30 316v48h541v-48h-541z" />
    <glyph glyph-name="endash.case" horiz-adv-x="500" 
d="M30 316v48h440v-48h-440z" />
    <glyph glyph-name="emdash.case" horiz-adv-x="900" 
d="M30 316v48h840v-48h-840z" />
    <glyph glyph-name="guillemotleft.case" horiz-adv-x="454" 
d="M171 166l-145 174l145 174h63l-145 -174l145 -174h-63zM366 166l-145 174l145 174h63l-145 -174l145 -174h-63z" />
    <glyph glyph-name="guillemotright.case" horiz-adv-x="454" 
d="M26 166l145 174l-145 174h63l145 -174l-145 -174h-63zM221 166l145 174l-145 174h63l145 -174l-145 -174h-63z" />
    <glyph glyph-name="guilsinglleft.case" horiz-adv-x="259" 
d="M171 166l-145 174l145 174h63l-145 -174l145 -174h-63z" />
    <glyph glyph-name="guilsinglright.case" horiz-adv-x="259" 
d="M26 166l145 174l-145 174h63l145 -174l-145 -174h-63z" />
    <glyph glyph-name="caron.alt" horiz-adv-x="128" 
d="M20 535l41 195h61l-59 -195h-43z" />
    <glyph glyph-name="ringacute" horiz-adv-x="500" 
d="M193 784l108 127h72l-122 -127h-58zM250 567q-40 0 -66 25.5t-26 64.5t26 64.5t66 25.5t66 -25.5t26 -64.5t-26 -64.5t-66 -25.5zM250 607q21 0 34.5 14t13.5 36t-13.5 36t-34.5 14q-22 0 -35.5 -14t-13.5 -36t13.5 -36t35.5 -14z" />
    <glyph glyph-name="NULL" horiz-adv-x="0" 
 />
    </font>
</defs>
</svg>
