<?xml version="1.0" standalone="no"?>
<!DOCTYPE svg PUBLIC "-//W3C//DTD SVG 1.1//EN" "http://www.w3.org/Graphics/SVG/1.1/DTD/svg11.dtd" >
<svg xmlns="http://www.w3.org/2000/svg" xmlns:xlink="http://www.w3.org/1999/xlink" version="1.1">
<metadata>
Created by FontForge 20170731 at Fri Feb  5 17:50:38 2016
 By Aleksey,,,
Copyright (c) 2014-2015 by Ryoichi Tsunekawa. All rights reserved.
</metadata>
<defs>
<font id="BioSans-LightItalic" horiz-adv-x="366" >
  <font-face 
    font-family="Bio Sans Light"
    font-weight="300"
    font-style="italic"
    font-stretch="normal"
    units-per-em="1000"
    panose-1="2 11 4 6 2 2 2 11 2 4"
    ascent="800"
    descent="-200"
    x-height="512"
    cap-height="680"
    bbox="-208 -226 1065 1068"
    underline-thickness="36"
    underline-position="-172"
    slope="-10"
    unicode-range="U+000D-FB02"
  />
<missing-glyph horiz-adv-x="694" 
d="M53 0l120 680h498l-119 -680h-499zM367 380l223 259h-356zM109 79l226 263l-133 259zM522 79l93 522l-226 -263zM134 41h356l-133 259z" />
    <glyph glyph-name="fi" unicode="fi" horiz-adv-x="568" 
d="M70 0l83 466h-103l8 46h103l12 69q13 77 51.5 113t104.5 36h77l-8 -48h-64q-46 0 -71 -24.5t-35 -79.5l-12 -66h148l-8 -46h-148l-82 -466h-56zM483 618l14 83h63l-14 -83h-63zM377 0l90 512h56l-90 -512h-56z" />
    <glyph glyph-name="fl" unicode="fl" horiz-adv-x="568" 
d="M70 0l83 466h-103l8 46h103l12 69q13 77 51.5 113t104.5 36h77l-8 -48h-64q-46 0 -71 -24.5t-35 -79.5l-12 -66h148l-8 -46h-148l-82 -466h-56zM377 0l129 730h56l-129 -730h-56z" />
    <glyph glyph-name=".notdef" horiz-adv-x="694" 
d="M53 0l120 680h498l-119 -680h-499zM367 380l223 259h-356zM109 79l226 263l-133 259zM522 79l93 522l-226 -263zM134 41h356l-133 259z" />
    <glyph glyph-name=".null" horiz-adv-x="0" 
 />
    <glyph glyph-name="nonmarkingreturn" horiz-adv-x="333" 
 />
    <glyph glyph-name="CR" unicode="&#xd;" horiz-adv-x="270" 
 />
    <glyph glyph-name="space" unicode=" " horiz-adv-x="270" 
 />
    <glyph glyph-name="exclam" unicode="!" horiz-adv-x="273" 
d="M107 204l49 316l26 160h58l-29 -160l-64 -316h-40zM57 0l15 89h69l-16 -89h-68z" />
    <glyph glyph-name="quotedbl" unicode="&#x22;" horiz-adv-x="365" 
d="M117 475l26 205h64l-46 -205h-44zM283 475l26 205h64l-46 -205h-44z" />
    <glyph glyph-name="numbersign" unicode="#" horiz-adv-x="601" 
d="M72 0l56 185h-99l8 47h105l68 226h-98l8 47h104l53 175h52l-53 -175h177l53 175h52l-53 -175h99l-9 -47h-104l-68 -226h98l-9 -47h-103l-56 -185h-52l56 185h-177l-56 -185h-52zM194 232h177l68 226h-177z" />
    <glyph glyph-name="dollar" unicode="$" horiz-adv-x="601" 
d="M220 -72l13 72q-89 5 -136.5 41.5t-47.5 103.5q0 17 3 38h52q-3 -17 -3 -30q0 -97 141 -103l48 273q-101 19 -138 50t-37 97q0 92 64.5 148.5t173.5 61.5l13 72h48l-13 -73q79 -5 121 -40.5t42 -98.5q0 -21 -4 -38h-51q3 15 3 29q0 90 -119 98l-46 -262
q101 -19 138 -51.5t37 -101.5q0 -95 -64 -151t-176 -62l-13 -73h-49zM299 376l45 253q-81 -6 -127.5 -46t-46.5 -104q0 -44 27 -65.5t102 -37.5zM291 51q83 7 129.5 47.5t46.5 107.5q0 46 -27 69t-103 39z" />
    <glyph glyph-name="percent" unicode="%" horiz-adv-x="766" 
d="M200 318q-125 0 -125 104q0 16 3 33l18 102q23 135 162 135q125 0 125 -104q0 -16 -3 -33l-18 -102q-23 -135 -162 -135zM107 -12l529 704h52l-528 -704h-53zM202 362q94 0 112 97l17 95q2 9 2 30q0 64 -76 64q-97 0 -113 -97l-16 -96q-3 -24 -3 -29q0 -64 77 -64z
M539 -12q-125 0 -125 104q0 16 3 33l18 102q23 135 162 135q125 0 125 -104q0 -16 -3 -33l-18 -102q-23 -135 -162 -135zM540 32q94 0 112 97l17 96q2 16 2 29q0 64 -76 64q-97 0 -113 -97l-16 -95q-3 -14 -3 -30q0 -64 77 -64z" />
    <glyph glyph-name="ampersand" unicode="&#x26;" horiz-adv-x="658" 
d="M232 -12q-94 0 -145.5 40.5t-51.5 115.5q0 70 46 125t144 105q-52 71 -52 129q0 81 59 135t149 54q67 0 104.5 -32.5t37.5 -88.5q0 -64 -50.5 -113.5t-164.5 -99.5l158 -196q46 67 68 165h57q-31 -128 -91 -207l96 -120h-73l-61 77q-92 -89 -230 -89zM276 398
q104 44 148.5 82.5t44.5 85.5q0 36 -24.5 56.5t-69.5 20.5q-64 0 -105.5 -40t-41.5 -97q0 -44 48 -108zM236 38q115 0 194 79l-174 218q-88 -43 -126 -86t-38 -98q0 -56 37.5 -84.5t106.5 -28.5z" />
    <glyph glyph-name="quotesingle" unicode="'" horiz-adv-x="200" 
d="M117 475l26 205h64l-46 -205h-44z" />
    <glyph glyph-name="parenleft" unicode="(" horiz-adv-x="327" 
d="M237 -130q-166 69 -166 315q0 117 35 229t109.5 203t175.5 125l-8 -48q-82 -37 -143 -125.5t-89 -191t-28 -203.5q0 -196 122 -260z" />
    <glyph glyph-name="parenright" unicode=")" horiz-adv-x="327" 
d="M-47 -130l8 48q82 37 143 125.5t89 191t28 203.5q0 196 -122 260l8 44q166 -69 166 -315q0 -117 -35 -229t-109.5 -203t-175.5 -125z" />
    <glyph glyph-name="asterisk" unicode="*" horiz-adv-x="395" 
d="M119 314l-36 32l122 131l-149 45l17 47l151 -59l24 170h47l-34 -166l160 54l12 -47l-168 -46l81 -139l-42 -22l-69 140z" />
    <glyph glyph-name="plus" unicode="+" horiz-adv-x="601" 
d="M240 56l40 227h-218l9 50h218l40 228h51l-40 -228h218l-9 -50h-217l-40 -227h-52z" />
    <glyph glyph-name="comma" unicode="," horiz-adv-x="256" 
d="M14 -120l7 38q18 2 31.5 19t18.5 46l3 17h-26l16 89h69l-17 -96q-10 -56 -34.5 -83t-67.5 -30z" />
    <glyph glyph-name="hyphen" unicode="-" horiz-adv-x="362" 
d="M36 264l9 54h293l-9 -54h-293z" />
    <glyph glyph-name="period" unicode="." horiz-adv-x="256" 
d="M49 0l16 89h69l-16 -89h-69z" />
    <glyph glyph-name="slash" unicode="/" horiz-adv-x="431" 
d="M-60 -140l509 870h57l-510 -870h-56z" />
    <glyph glyph-name="zero" unicode="0" horiz-adv-x="601" 
d="M257 -12q-97 0 -147.5 43t-50.5 126q0 31 5 59l45 253q19 110 86.5 166.5t178.5 56.5q97 0 147.5 -43t50.5 -126q0 -32 -5 -59l-44 -253q-19 -110 -87 -166.5t-179 -56.5zM259 39q177 0 209 181l43 244q4 20 4 51q0 126 -144 126q-176 0 -208 -181l-43 -244
q-5 -25 -5 -51q0 -126 144 -126z" />
    <glyph glyph-name="one" unicode="1" horiz-adv-x="601" 
d="M93 0l9 53h172l98 551q-81 -51 -203 -59l8 49q120 7 209 86h55l-111 -627h172l-9 -53h-400z" />
    <glyph glyph-name="two" unicode="2" horiz-adv-x="601" 
d="M26 0l7 41q16 92 77 153t195 120q115 50 165 100t50 115q0 112 -142 112q-85 0 -136.5 -40t-65.5 -116l-2 -11h-54l4 22q17 93 83.5 144.5t175.5 51.5q192 0 192 -159q0 -85 -59 -147t-193 -120q-115 -50 -167 -97.5t-65 -115.5h401l-9 -53h-457z" />
    <glyph glyph-name="three" unicode="3" horiz-adv-x="601" 
d="M257 -12q-100 0 -153 39.5t-53 109.5q0 13 4 41l3 17h54l-2 -14q-3 -18 -3 -33q0 -109 153 -109q99 0 155.5 46t56.5 126q0 59 -35 86t-116 27h-80l8 51h80q83 0 133 43.5t50 112.5q0 110 -138 110q-84 0 -136 -39t-63 -106l-1 -6h-54l2 12q14 88 82 139t175 51
q188 0 188 -156q0 -67 -36.5 -114.5t-100.5 -67.5v-2q98 -29 98 -140q0 -103 -73.5 -163.5t-197.5 -60.5z" />
    <glyph glyph-name="four" unicode="4" horiz-adv-x="601" 
d="M377 0l29 162h-374l9 55l447 463h65l-82 -467h87l-9 -51h-87l-29 -162h-56zM107 213h307l69 389z" />
    <glyph glyph-name="five" unicode="5" horiz-adv-x="601" 
d="M254 -12q-95 0 -149.5 40t-54.5 108q0 12 2 30h55q-2 -14 -2 -22q0 -50 40 -77.5t110 -27.5q106 0 167.5 60t61.5 153q0 138 -149 138q-99 0 -182 -63h-49l84 353h398l-10 -53h-348l-56 -238q76 52 176 52q192 0 192 -183q0 -119 -77.5 -194.5t-208.5 -75.5z" />
    <glyph glyph-name="six" unicode="6" horiz-adv-x="601" 
d="M267 -12q-97 0 -148.5 43.5t-51.5 128.5q0 28 5 56l44 251q19 111 89 168t182 57q92 0 142 -38.5t50 -108.5q0 -17 -2 -25h-54q1 5 1 16q0 105 -138 105q-183 0 -216 -185l-21 -119q82 91 210 91q88 0 134 -42t46 -120q0 -126 -73 -202t-199 -76zM269 39
q101 0 157.5 60.5t56.5 159.5q0 118 -135 118q-136 0 -214 -127l-6 -33q-5 -28 -5 -50q0 -128 146 -128z" />
    <glyph glyph-name="seven" unicode="7" horiz-adv-x="601" 
d="M136 0q78 359 401 626h-414l9 54h483l-10 -57q-333 -271 -409 -623h-60z" />
    <glyph glyph-name="eight" unicode="8" horiz-adv-x="601" 
d="M251 -12q-215 0 -215 164q0 76 45.5 128.5t124.5 73.5v2q-91 28 -91 127q0 93 73 151t190 58q94 0 145 -40t51 -118q0 -67 -38 -113.5t-106 -65.5v-2q107 -32 107 -146q0 -102 -77.5 -160.5t-208.5 -58.5zM315 376q95 0 150 42t55 112q0 111 -144 111q-94 0 -150 -44
t-56 -113q0 -108 145 -108zM254 39q105 0 167 45t62 123q0 119 -161 119q-105 0 -167 -44.5t-62 -123.5q0 -119 161 -119z" />
    <glyph glyph-name="nine" unicode="9" horiz-adv-x="601" 
d="M243 -12q-92 0 -141.5 38.5t-49.5 108.5q0 17 1 25h54q-1 -5 -1 -16q0 -105 139 -105q183 0 216 185l21 119q-82 -91 -210 -91q-88 0 -134 42t-46 120q0 126 73 202t198 76q97 0 149 -43.5t52 -128.5q0 -29 -5 -56l-44 -251q-19 -111 -89.5 -168t-182.5 -57zM283 303
q138 0 215 129l5 31q5 28 5 50q0 128 -146 128q-101 0 -157.5 -60.5t-56.5 -159.5q0 -118 135 -118z" />
    <glyph glyph-name="colon" unicode=":" horiz-adv-x="256" 
d="M117 384l16 89h69l-16 -89h-69zM49 0l16 89h69l-16 -89h-69z" />
    <glyph glyph-name="semicolon" unicode=";" horiz-adv-x="256" 
d="M117 384l16 89h69l-16 -89h-69zM14 -120l7 38q18 2 31.5 19t18.5 46l3 17h-26l16 89h69l-17 -96q-10 -56 -34.5 -83t-67.5 -30z" />
    <glyph glyph-name="less" unicode="&#x3c;" horiz-adv-x="601" 
d="M512 72l-450 211l9 49l524 210l-10 -56l-453 -182l389 -181z" />
    <glyph glyph-name="equal" unicode="=" horiz-adv-x="601" 
d="M81 394l9 50h487l-9 -50h-487zM43 172l9 50h487l-9 -50h-487z" />
    <glyph glyph-name="greater" unicode="&#x3e;" horiz-adv-x="601" 
d="M25 74l10 56l452 181l-389 182l9 51l450 -211l-8 -49z" />
    <glyph glyph-name="question" unicode="?" horiz-adv-x="423" 
d="M160 204l5 30q10 58 37 94.5t87 72.5q57 34 79.5 67.5t22.5 83.5q0 91 -113 91q-67 0 -110 -36t-54 -102h-54q16 91 73 139t149 48q79 0 122 -35.5t43 -99.5q0 -65 -28 -108.5t-96 -82.5q-53 -31 -77.5 -61.5t-33.5 -75.5l-5 -25h-47zM114 0l15 89h69l-16 -89h-68z" />
    <glyph glyph-name="at" unicode="@" horiz-adv-x="760" 
d="M383 -68q-159 0 -249.5 84.5t-90.5 232.5q0 169 112.5 284t286.5 115q140 0 225.5 -76.5t85.5 -204.5q0 -101 -51.5 -179t-139.5 -78q-82 0 -88 71q-57 -71 -137 -71q-52 0 -79.5 27t-27.5 75q0 16 3 37l14 79q24 135 145 135q82 0 117 -71l14 59h45l-40 -226
q-2 -16 -2 -23q0 -44 44 -44q42 0 72.5 34t44 80.5t13.5 95.5q0 107 -70 169t-187 62q-152 0 -248.5 -100.5t-96.5 -248.5q0 -127 75 -198t208 -71q116 0 197 53l21 -48q-88 -54 -216 -54zM348 158q70 0 128 81l17 99q-25 78 -94 78q-81 0 -98 -96l-12 -69q-3 -14 -3 -31
q0 -62 62 -62z" />
    <glyph glyph-name="A" unicode="A" horiz-adv-x="602" 
d="M-33 0l379 680h59l140 -680h-60l-38 192h-312l-107 -192h-61zM164 245h273l-73 365z" />
    <glyph glyph-name="B" unicode="B" horiz-adv-x="638" 
d="M54 0l120 680h257q96 0 140 -35t44 -111q0 -69 -34 -115.5t-98 -65.5v-2q53 -13 76.5 -46t23.5 -90q0 -101 -66 -158t-183 -57h-280zM177 373h204q84 0 130.5 41t46.5 113q0 55 -31 77.5t-105 22.5h-200zM120 53h214q90 0 141 43t51 120q0 58 -34 81t-118 23h-206z" />
    <glyph glyph-name="C" unicode="C" horiz-adv-x="613" 
d="M276 -12q-106 0 -161 48.5t-55 143.5q0 38 7 74l32 176q47 262 291 262q103 0 157 -45.5t54 -129.5q0 -23 -3 -46h-56q2 22 2 35q0 133 -157 133q-195 0 -233 -216l-30 -169q-6 -31 -6 -68q0 -145 159 -145q179 0 218 167h57q-50 -220 -276 -220z" />
    <glyph glyph-name="D" unicode="D" horiz-adv-x="648" 
d="M54 0l120 680h223q221 0 221 -183q0 -34 -8 -80l-28 -159q-24 -135 -95 -196.5t-203 -61.5h-230zM120 53h164q107 0 165 50t77 158l28 159q6 31 6 68q0 74 -41 106.5t-131 32.5h-166z" />
    <glyph glyph-name="E" unicode="E" horiz-adv-x="582" 
d="M54 0l120 680h436l-9 -53h-379l-45 -251h329l-9 -53h-329l-48 -270h389l-9 -53h-446z" />
    <glyph glyph-name="F" unicode="F" horiz-adv-x="545" 
d="M54 0l120 680h428l-9 -53h-371l-45 -251h321l-9 -53h-321l-57 -323h-57z" />
    <glyph glyph-name="G" unicode="G" horiz-adv-x="636" 
d="M281 -12q-108 0 -165 50t-57 142q0 32 6 66l34 190q22 123 98 189.5t196 66.5q101 0 156.5 -47.5t55.5 -132.5q0 -19 -3 -37h-55q2 16 2 30q0 64 -40.5 99t-117.5 35q-96 0 -157 -54t-79 -154l-32 -182q-6 -33 -6 -61q0 -147 167 -147q98 0 153.5 51.5t75.5 153.5l9 47
h-167l9 53h223l-19 -105q-46 -253 -287 -253z" />
    <glyph glyph-name="H" unicode="H" horiz-adv-x="695" 
d="M54 0l120 681h57l-54 -304h383l54 304h57l-120 -681h-57l57 323h-383l-57 -323h-57z" />
    <glyph glyph-name="I" unicode="I" horiz-adv-x="255" 
d="M54 0l120 680h57l-120 -680h-57z" />
    <glyph glyph-name="J" unicode="J" horiz-adv-x="549" 
d="M196 -12q-99 0 -145 40t-46 126q0 33 5 59l2 11h55l-1 -11q0 -2 -3 -24.5t-3 -33.5q0 -60 33 -87t105 -27q94 0 142.5 44.5t66.5 146.5l79 448h57l-80 -457q-21 -121 -85 -178t-182 -57z" />
    <glyph glyph-name="K" unicode="K" horiz-adv-x="617" 
d="M54 0l120 680h57l-70 -395l440 395h75l-308 -278l192 -402h-64l-172 362l-177 -157l-36 -205h-57z" />
    <glyph glyph-name="L" unicode="L" horiz-adv-x="520" 
d="M54 0l120 680h57l-111 -627h357l-9 -53h-414z" />
    <glyph glyph-name="M" unicode="M" horiz-adv-x="861" 
d="M54 0l120 680h79l145 -591l355 591h84l-120 -680h-57l106 600l-360 -600h-42l-148 600l-106 -600h-56z" />
    <glyph glyph-name="N" unicode="N" horiz-adv-x="693" 
d="M613 680h55l-119 -680h-55l-278 603l-106 -603h-56l120 680h66l270 -586z" />
    <glyph glyph-name="O" unicode="O" horiz-adv-x="652" 
d="M283 -12q-109 0 -165.5 49.5t-56.5 146.5q0 39 6 70l32 176q47 262 301 262q109 0 165.5 -49.5t56.5 -146.5q0 -34 -7 -70l-31 -176q-22 -130 -98.5 -196t-202.5 -66zM285 41q206 0 243 214l30 171q6 33 6 65q0 148 -167 148q-206 0 -243 -214l-30 -171q-6 -33 -6 -65
q0 -148 167 -148z" />
    <glyph glyph-name="P" unicode="P" horiz-adv-x="599" 
d="M54 0l120 680h250q103 0 147 -37t44 -124q0 -115 -67 -177.5t-191 -62.5h-197l-49 -279h-57zM170 332h190q96 0 147.5 47.5t51.5 134.5q0 63 -32 88t-112 25h-193z" />
    <glyph glyph-name="Q" unicode="Q" horiz-adv-x="653" 
d="M400 692q109 0 165.5 -49.5t56.5 -146.5q0 -34 -7 -70l-31 -176q-21 -122 -90 -188l72 -88l-45 -37l-73 90q-68 -39 -165 -39q-109 0 -165.5 49.5t-56.5 146.5q0 39 6 70l32 176q47 262 301 262zM558 426q6 33 6 65q0 148 -167 148q-206 0 -243 -214l-30 -171
q-6 -33 -6 -65q0 -148 167 -148q76 0 130 30l-111 135l43 35l112 -137q53 54 69 151z" />
    <glyph glyph-name="R" unicode="R" horiz-adv-x="629" 
d="M54 0l120 680h252q100 0 142.5 -36t42.5 -120q0 -98 -50 -157t-144 -73l129 -294h-62l-127 290h-195l-51 -290h-57zM172 343h191q93 0 142 46t49 132q0 60 -29.5 83t-107.5 23h-195z" />
    <glyph glyph-name="S" unicode="S" horiz-adv-x="556" 
d="M240 -12q-106 0 -162 39.5t-56 112.5q0 19 3 40h57q-3 -18 -3 -32q0 -107 163 -107q98 0 152.5 44.5t54.5 128.5q0 44 -38 69t-126 39q-105 17 -149 49.5t-44 93.5q0 108 70.5 167.5t189.5 59.5q200 0 200 -146q0 -18 -3 -41h-57q3 19 3 34q0 52 -35 76t-108 24
q-93 0 -148 -43.5t-55 -121.5q0 -41 35 -63t122 -36q108 -18 154 -53.5t46 -100.5q0 -113 -71 -173t-195 -60z" />
    <glyph glyph-name="T" unicode="T" horiz-adv-x="501" 
d="M177 0l111 627h-215l9 53h486l-9 -53h-214l-111 -627h-57z" />
    <glyph glyph-name="U" unicode="U" horiz-adv-x="643" 
d="M278 -13q-110 0 -160.5 40t-50.5 125q0 32 7 71l81 457h57l-81 -460q-6 -31 -6 -62q0 -65 37 -91.5t118 -26.5q103 0 154 41.5t68 141.5l80 457h56l-81 -460q-21 -123 -85.5 -178t-193.5 -55z" />
    <glyph glyph-name="V" unicode="V" horiz-adv-x="578" 
d="M214 0l-127 680h59l111 -601l323 601h61l-367 -680h-60z" />
    <glyph glyph-name="W" unicode="W" horiz-adv-x="871" 
d="M161 0l-73 680h57l61 -589l274 589h58l67 -590l268 590h60l-312 -680h-59l-68 588l-275 -588h-58z" />
    <glyph glyph-name="X" unicode="X" horiz-adv-x="563" 
d="M-27 0l289 351l-161 329h64l141 -293l239 293h68l-278 -340l165 -340h-64l-146 304l-248 -304h-69z" />
    <glyph glyph-name="Y" unicode="Y" horiz-adv-x="540" 
d="M196 0l53 300l-177 380h64l150 -322l262 322h69l-311 -383l-53 -297h-57z" />
    <glyph glyph-name="Z" unicode="Z" horiz-adv-x="542" 
d="M-13 0l9 48l495 579h-375l9 53h451l-8 -48l-495 -579h401l-9 -53h-478z" />
    <glyph glyph-name="bracketleft" unicode="[" horiz-adv-x="327" 
d="M33 -118l150 848h206l-7 -44h-154l-133 -760h153l-8 -44h-207z" />
    <glyph glyph-name="backslash" unicode="\" horiz-adv-x="431" 
d="M298 -140l-204 870h53l204 -870h-53z" />
    <glyph glyph-name="bracketright" unicode="]" horiz-adv-x="327" 
d="M-45 -118l8 44h154l134 760h-155l8 44h208l-149 -848h-208z" />
    <glyph glyph-name="asciicircum" unicode="^" horiz-adv-x="601" 
d="M43 333l308 347h48l186 -347h-56l-159 297l-263 -297h-64z" />
    <glyph glyph-name="underscore" unicode="_" horiz-adv-x="500" 
d="M-65 -115l8 48h500l-8 -48h-500z" />
    <glyph glyph-name="grave" unicode="`" horiz-adv-x="500" 
d="M312 597l-100 127h69l85 -127h-54z" />
    <glyph glyph-name="a" unicode="a" horiz-adv-x="541" 
d="M174 -12q-147 0 -147 130q0 86 63 131.5t173 45.5h150l8 46q4 24 4 39q0 95 -120 95q-138 0 -166 -112h-55q41 161 225 161q172 0 172 -139q0 -21 -4 -44l-60 -341h-48l12 81q-86 -93 -207 -93zM183 36q121 0 205 113l17 98h-143q-85 0 -132 -31.5t-47 -94.5
q0 -85 100 -85z" />
    <glyph glyph-name="b" unicode="b" horiz-adv-x="582" 
d="M289 -12q-126 0 -175 116l-21 -104h-48l129 730h56l-55 -309q87 103 202 103q76 0 117 -40.5t41 -115.5q0 -25 -6 -57l-20 -115q-17 -98 -74.5 -153t-145.5 -55zM287 37q67 0 110 44t57 122l19 109q5 32 5 49q0 56 -28 85t-81 29q-122 0 -209 -140l-29 -160
q37 -138 156 -138z" />
    <glyph glyph-name="c" unicode="c" horiz-adv-x="513" 
d="M227 -12q-86 0 -132.5 41.5t-46.5 121.5q0 29 5 56l18 102q18 107 81 161t162 54q84 0 129 -39t45 -109q0 -20 -1 -29h-55q1 9 1 23q0 105 -119 105q-159 0 -188 -172l-16 -96q-5 -33 -5 -52q0 -118 125 -118q138 0 170 128h54q-19 -85 -77 -131t-150 -46z" />
    <glyph glyph-name="d" unicode="d" horiz-adv-x="582" 
d="M205 -12q-76 0 -116.5 40.5t-40.5 115.5q0 30 5 58l21 114q18 99 74.5 153.5t144.5 54.5q120 0 171 -107l56 313h56l-129 -730h-48l15 99q-87 -111 -209 -111zM214 37q120 0 207 137l30 167q-38 134 -156 134q-67 0 -109 -43.5t-57 -122.5l-20 -108q-5 -25 -5 -50
q0 -114 110 -114z" />
    <glyph glyph-name="e" unicode="e" horiz-adv-x="545" 
d="M235 -12q-92 0 -139 42t-47 124q0 33 4 53l18 102q18 104 81 159.5t165 55.5q89 0 135.5 -41.5t46.5 -122.5q0 -26 -5 -54l-10 -62h-368l-6 -37q-5 -33 -5 -50q0 -61 32 -90.5t99 -29.5q69 0 113.5 30t59.5 83h54q-20 -80 -79 -121t-149 -41zM124 292h313l2 10q6 32 6 57
q0 116 -129 116q-80 0 -126.5 -42.5t-63.5 -130.5z" />
    <glyph glyph-name="f" unicode="f" horiz-adv-x="332" 
d="M70 0l83 466h-103l8 46h103l12 69q13 77 51.5 113t104.5 36h77l-8 -48h-64q-46 0 -71 -24.5t-35 -79.5l-12 -66h148l-8 -46h-148l-82 -466h-56z" />
    <glyph glyph-name="g" unicode="g" horiz-adv-x="583" 
d="M204 -194q-88 0 -135 34t-47 97q0 11 1 20h52v-12q0 -90 130 -90q82 0 128 37.5t60 114.5l19 107q-85 -104 -203 -104q-76 0 -116.5 41t-40.5 116q0 29 5 57l17 92q18 99 74.5 153.5t144.5 54.5q126 0 176 -117l21 105h48l-90 -510q-34 -196 -244 -196zM218 60
q122 0 209 140l25 137q-37 138 -156 138q-67 0 -109.5 -43.5t-57.5 -122.5l-16 -86q-5 -24 -5 -49q0 -114 110 -114z" />
    <glyph glyph-name="h" unicode="h" horiz-adv-x="566" 
d="M45 0l129 730h56l-54 -305q81 99 192 99q135 0 135 -132q0 -30 -5 -55l-59 -337h-56l58 332q5 25 5 52q0 89 -90 89q-114 0 -195 -136l-60 -337h-56z" />
    <glyph glyph-name="i" unicode="i" horiz-adv-x="236" 
d="M151 618l14 83h63l-14 -83h-63zM45 0l90 512h56l-90 -512h-56z" />
    <glyph glyph-name="j" unicode="j" horiz-adv-x="236" 
d="M151 618l14 83h63l-14 -83h-63zM-81 -182l9 49h21q42 0 60.5 18.5t27.5 68.5l98 558h56l-99 -560q-13 -72 -45 -103t-94 -31h-34z" />
    <glyph glyph-name="k" unicode="k" horiz-adv-x="521" 
d="M45 0l129 730h56l-89 -501l334 283h74l-247 -210l161 -302h-63l-141 265l-130 -109l-28 -156h-56z" />
    <glyph glyph-name="l" unicode="l" horiz-adv-x="236" 
d="M45 0l129 730h56l-129 -730h-56z" />
    <glyph glyph-name="m" unicode="m" horiz-adv-x="871" 
d="M45 0l90 512h48l-14 -92q78 104 187 104q120 0 131 -106q80 106 189 106q65 0 99 -32.5t34 -94.5q0 -24 -4 -49l-61 -348h-56l61 346q3 15 3 40q0 87 -85 87q-102 0 -185 -132l-60 -341h-56l61 346q4 20 4 42q0 85 -86 85q-102 0 -183 -130l-61 -343h-56z" />
    <glyph glyph-name="n" unicode="n" horiz-adv-x="566" 
d="M45 0l90 512h48l-14 -97q81 109 199 109q135 0 135 -132q0 -30 -5 -55l-59 -337h-56l58 332q5 25 5 52q0 89 -90 89q-114 0 -195 -135l-60 -338h-56z" />
    <glyph glyph-name="o" unicode="o" horiz-adv-x="559" 
d="M236 -12q-92 0 -139.5 43t-47.5 124q0 30 5 55l17 94q20 108 83.5 164t168.5 56q92 0 139.5 -42.5t47.5 -123.5q0 -31 -5 -56l-17 -94q-20 -108 -83.5 -164t-168.5 -56zM238 37q163 0 195 177l16 89q4 23 4 49q0 123 -132 123q-163 0 -195 -177l-16 -89q-4 -23 -4 -49
q0 -123 132 -123z" />
    <glyph glyph-name="p" unicode="p" horiz-adv-x="582" 
d="M12 -182l123 694h48l-15 -99q90 111 209 111q76 0 117 -40.5t41 -115.5q0 -25 -6 -57l-20 -115q-17 -98 -74.5 -153t-145.5 -55q-121 0 -172 109l-49 -279h-56zM287 37q67 0 110 44t57 122l19 109q5 32 5 49q0 56 -28 85t-81 29q-122 0 -210 -141l-28 -159
q37 -138 156 -138z" />
    <glyph glyph-name="q" unicode="q" horiz-adv-x="582" 
d="M358 -182l48 271q-85 -101 -201 -101q-76 0 -116.5 40.5t-40.5 115.5q0 30 5 58l21 114q18 99 74.5 153.5t144.5 54.5q125 0 174 -114l21 102h48l-122 -694h-56zM214 37q118 0 207 136l29 169q-37 133 -155 133q-67 0 -109 -43.5t-57 -122.5l-20 -108q-5 -25 -5 -50
q0 -114 110 -114z" />
    <glyph glyph-name="r" unicode="r" horiz-adv-x="346" 
d="M45 0l90 512h48l-15 -104q60 114 176 114h35l-9 -54h-26q-65 0 -111 -37.5t-77 -118.5l-55 -312h-56z" />
    <glyph glyph-name="s" unicode="s" horiz-adv-x="496" 
d="M201 -12q-88 0 -135 32.5t-47 93.5q0 14 3 31h53q-2 -16 -2 -24q0 -84 131 -84q78 0 124.5 30.5t46.5 85.5q0 37 -31 56t-106 28q-88 10 -126.5 37.5t-38.5 80.5q0 77 60 123t158 46q80 0 124.5 -32.5t44.5 -90.5q0 -14 -3 -29h-54q2 8 2 23q0 81 -117 81
q-71 0 -115.5 -31.5t-44.5 -82.5q0 -33 29.5 -50t101.5 -25q91 -10 131.5 -40t40.5 -86q0 -83 -62 -128t-168 -45z" />
    <glyph glyph-name="t" unicode="t" horiz-adv-x="332" 
d="M198 0q-111 0 -111 102q0 24 5 52l55 312h-97l8 46h98l29 140h51l-25 -140h140l-9 -46h-139l-55 -315q-5 -28 -5 -45q0 -32 16 -44.5t55 -12.5h62l-9 -49h-69z" />
    <glyph glyph-name="u" unicode="u" horiz-adv-x="570" 
d="M200 -12q-137 0 -137 134q0 21 5 53l60 337h56l-59 -334q-5 -25 -5 -49q0 -90 92 -90q114 0 197 133l60 340h56l-90 -512h-48l14 95q-83 -107 -201 -107z" />
    <glyph glyph-name="v" unicode="v" horiz-adv-x="473" 
d="M161 0l-100 512h58l84 -446l240 446h59l-279 -512h-62z" />
    <glyph glyph-name="w" unicode="w" horiz-adv-x="773" 
d="M139 0l-78 512h57l63 -442l222 442h56l66 -442l218 442h59l-258 -512h-60l-66 433l-218 -433h-61z" />
    <glyph glyph-name="x" unicode="x" horiz-adv-x="484" 
d="M-31 0l239 268l-139 244h64l119 -212l188 212h69l-229 -255l145 -257h-63l-126 224l-199 -224h-68z" />
    <glyph glyph-name="y" unicode="y" horiz-adv-x="464" 
d="M-20 -182l9 49h32q35 0 55.5 14t43.5 57l48 89l-107 485h58l89 -418l226 418h59l-321 -588q-34 -61 -66 -83.5t-85 -22.5h-41z" />
    <glyph glyph-name="z" unicode="z" horiz-adv-x="455" 
d="M-14 0l7 42l385 422h-289l9 48h363l-7 -42l-384 -421h314l-8 -49h-390z" />
    <glyph glyph-name="braceleft" unicode="{" horiz-adv-x="327" 
d="M195 -118q-117 0 -117 109q0 18 5 50l29 166q3 17 3 29q0 27 -17 37.5t-58 10.5l8 44q47 0 69 17.5t30 61.5l30 166q15 84 53.5 120.5t110.5 36.5h48l-7 -44h-37q-47 0 -76 -26.5t-40 -88.5l-28 -160q-8 -49 -26.5 -73.5t-51.5 -31.5v-1q44 -15 44 -70q0 -14 -3 -35
l-29 -163q-4 -23 -4 -40q0 -38 18 -54.5t59 -16.5h40l-8 -44h-45z" />
    <glyph glyph-name="bar" unicode="|" horiz-adv-x="279" 
d="M29 -226l177 1000h51l-176 -1000h-52z" />
    <glyph glyph-name="braceright" unicode="}" horiz-adv-x="327" 
d="M-45 -118l8 44h36q48 0 76.5 26.5t39.5 88.5l28 160q8 48 27 73t51 32v1q-44 15 -44 70q0 7 4 35l28 163q4 23 4 40q0 38 -18 54.5t-59 16.5h-40l9 44h44q118 0 118 -109q0 -18 -5 -50l-30 -166q-3 -17 -3 -29q0 -27 17 -37.5t58 -10.5l-7 -44q-48 0 -70.5 -17.5
t-29.5 -61.5l-29 -166q-15 -83 -54 -120t-111 -37h-48z" />
    <glyph glyph-name="asciitilde" unicode="~" horiz-adv-x="601" 
d="M410 235q-34 0 -59.5 12t-56.5 41q-46 45 -90 45q-79 0 -104 -90h-45q16 68 55.5 103.5t98.5 35.5q34 0 59.5 -12t56.5 -41q46 -45 90 -45q79 0 104 90h45q-15 -67 -55 -103t-99 -36z" />
    <glyph glyph-name="uni00A0" unicode="&#xa0;" horiz-adv-x="270" 
 />
    <glyph glyph-name="exclamdown" unicode="&#xa1;" horiz-adv-x="273" 
d="M132 423l15 89h69l-16 -89h-68zM33 -168l29 160l64 316h40l-48 -316l-27 -160h-58z" />
    <glyph glyph-name="cent" unicode="&#xa2;" horiz-adv-x="601" 
d="M228 -72l13 73q-78 6 -118 45.5t-40 109.5q0 25 5 53l17 97q34 195 225 206l13 72h49l-13 -73q75 -6 113.5 -43t38.5 -99q0 -18 -1 -27h-55q2 14 2 22q0 91 -106 98l-73 -412q120 11 147 120h54q-37 -160 -209 -169l-13 -73h-49zM249 50l73 412q-71 -6 -110 -45.5
t-52 -115.5l-16 -93q-5 -32 -5 -49q0 -53 26.5 -79t83.5 -30z" />
    <glyph glyph-name="sterling" unicode="&#xa3;" horiz-adv-x="601" 
d="M40 0l9 49q64 40 94 92t30 128q0 18 -1 26h-101l9 51h83q-19 74 -19 106q0 112 68 176t185 64q91 0 139.5 -38t48.5 -109q0 -20 -3 -41h-54q3 16 3 34q0 103 -139 103q-93 0 -142.5 -49.5t-49.5 -140.5q0 -27 16 -105h275l-9 -51h-258q1 -9 1 -23q0 -144 -102 -219h370
l-9 -53h-444z" />
    <glyph glyph-name="currency" unicode="&#xa4;" horiz-adv-x="601" 
d="M98 86l-38 37l121 123q-29 42 -29 94t29 94l-121 123l38 37l120 -122q42 31 97 31q53 0 97 -31l121 122l38 -37l-122 -123q29 -42 29 -94t-29 -94l122 -123l-38 -37l-121 122q-44 -31 -97 -31q-55 0 -97 31zM315 228q47 0 78.5 32t31.5 80t-31.5 80t-78.5 32
q-48 0 -79.5 -32t-31.5 -80t31.5 -80t79.5 -32z" />
    <glyph glyph-name="yen" unicode="&#xa5;" horiz-adv-x="601" 
d="M227 0l25 140h-197l8 46h197l16 95h-196l8 46h192l-169 353h62l146 -309l253 309h68l-291 -353h188l-8 -46h-197l-16 -95h196l-8 -46h-196l-25 -140h-56z" />
    <glyph glyph-name="brokenbar" unicode="&#xa6;" horiz-adv-x="279" 
d="M135 374l71 400h51l-70 -400h-52zM29 -226l71 400h51l-70 -400h-52z" />
    <glyph glyph-name="section" unicode="&#xa7;" horiz-adv-x="584" 
d="M210 -196q-92 0 -142.5 36t-50.5 102q0 16 3 35h55q-3 -15 -3 -27q0 -97 141 -97q85 0 137.5 36t52.5 98q0 43 -30.5 63.5t-131.5 44.5q-108 26 -146.5 55t-38.5 87q0 56 33.5 99t95.5 67v2q-31 18 -44 41.5t-13 60.5q0 84 65 134.5t169 50.5q86 0 133.5 -35t47.5 -99
q0 -15 -3 -33h-55q3 13 3 27q0 91 -128 91q-79 0 -128.5 -35t-49.5 -93q0 -43 31 -64t129 -43q108 -25 147 -55t39 -87q0 -115 -129 -165v-2q33 -18 46 -42t13 -63q0 -88 -68 -139t-180 -51zM344 124q59 15 94 50.5t35 82.5q0 41 -32 61.5t-127 42.5q-53 12 -76 20
q-59 -17 -93 -53t-34 -82q0 -42 31.5 -63t124.5 -40q47 -9 77 -19z" />
    <glyph glyph-name="dieresis" unicode="&#xa8;" horiz-adv-x="500" 
d="M198 620l14 79h63l-13 -79h-64zM366 620l14 79h63l-13 -79h-64z" />
    <glyph glyph-name="copyright" unicode="&#xa9;" horiz-adv-x="779" 
d="M404 -12q-152 0 -252 100t-100 252t100 252t252 100t252 -100t100 -252t-100 -252t-252 -100zM403 34q135 0 218.5 85.5t83.5 220.5t-83.5 220.5t-218.5 85.5q-134 0 -217.5 -85.5t-83.5 -220.5t83.5 -220.5t217.5 -85.5zM403 150q-142 0 -142 143v93q0 144 142 144
q137 0 141 -124h-50q-4 80 -89 80q-47 0 -69.5 -25t-22.5 -77v-87q0 -53 22.5 -78t69.5 -25q85 0 89 80h50q-4 -124 -141 -124z" />
    <glyph glyph-name="ordfeminine" unicode="&#xaa;" horiz-adv-x="425" 
d="M178 315q-110 0 -110 94q0 58 41.5 91t113.5 33h127l6 36q2 18 2 20q0 59 -84 59q-97 0 -117 -69h-46q26 113 167 113q130 0 130 -98q0 -4 -4 -32l-41 -235h-43l7 53q-62 -65 -149 -65zM188 358q84 0 145 79l10 57h-116q-51 0 -80 -21.5t-29 -59.5q0 -55 70 -55zM33 182
l8 44h304l-7 -44h-305z" />
    <glyph glyph-name="guillemotleft" unicode="&#xab;" horiz-adv-x="454" 
d="M143 82l-116 175l174 173h67l-179 -178l112 -170h-58zM338 82l-116 175l174 173h67l-179 -178l112 -170h-58z" />
    <glyph glyph-name="logicalnot" unicode="&#xac;" horiz-adv-x="601" 
d="M469 126l40 228h-435l9 49h486l-48 -277h-52z" />
    <glyph glyph-name="uni00AD" unicode="&#xad;" horiz-adv-x="362" 
d="M36 264l9 54h293l-9 -54h-293z" />
    <glyph glyph-name="registered" unicode="&#xae;" horiz-adv-x="779" 
d="M404 -12q-152 0 -252 100t-100 252t100 252t252 100t252 -100t100 -252t-100 -252t-252 -100zM403 34q135 0 218.5 85.5t83.5 220.5t-83.5 220.5t-218.5 85.5q-134 0 -217.5 -85.5t-83.5 -220.5t83.5 -220.5t217.5 -85.5zM269 160v360h151q66 0 96 -25.5t30 -81.5
q0 -88 -77 -104l99 -149h-59l-95 145h-93v-145h-52zM321 348h93q43 0 62 15t19 49t-18.5 49t-62.5 15h-93v-128z" />
    <glyph glyph-name="macron" unicode="&#xaf;" horiz-adv-x="500" 
d="M210 638l8 45h214l-8 -45h-214z" />
    <glyph glyph-name="degree" unicode="&#xb0;" horiz-adv-x="363" 
d="M218 414q-59 0 -96 36.5t-37 95.5q0 70 49.5 119t119.5 49q59 0 96 -36.5t37 -95.5q0 -70 -49.5 -119t-119.5 -49zM218 460q49 0 84.5 36t35.5 86q0 40 -23 63t-61 23q-50 0 -85.5 -36t-35.5 -86q0 -40 23.5 -63t61.5 -23z" />
    <glyph glyph-name="plusminus" unicode="&#xb1;" horiz-adv-x="601" 
d="M247 99l38 214h-217l9 50h216l39 219h52l-39 -219h218l-8 -50h-218l-38 -214h-52zM12 0l9 50h487l-9 -50h-487z" />
    <glyph glyph-name="uni00B2" unicode="&#xb2;" 
d="M253 565q-60 -25 -86.5 -48t-35.5 -56h226l-8 -45h-276l5 31q9 55 46 92.5t114 69.5q61 26 88.5 52.5t27.5 60.5q0 56 -72 56q-91 0 -105 -81l-1 -6h-48l3 15q24 116 154 116q117 0 117 -97q0 -51 -35 -88.5t-114 -71.5z" />
    <glyph glyph-name="uni00B3" unicode="&#xb3;" 
d="M213 404q-61 0 -94 23.5t-33 64.5q0 12 2 24l2 11h47l-1 -6q-1 -6 -1 -16q0 -57 79 -57q54 0 83.5 25t29.5 66q0 30 -18 43.5t-63 13.5h-48l7 44h46q46 0 72.5 23t26.5 60q0 55 -71 55q-43 0 -70.5 -18.5t-33.5 -52.5l-1 -5h-47l1 8q10 55 50.5 83.5t103.5 28.5
q117 0 117 -96q0 -81 -78 -105v-1q55 -19 55 -83q0 -62 -44 -97.5t-119 -35.5z" />
    <glyph glyph-name="acute" unicode="&#xb4;" horiz-adv-x="500" 
d="M252 597l130 127h75l-144 -127h-61z" />
    <glyph glyph-name="uni00B5" unicode="&#xb5;" horiz-adv-x="579" 
d="M13 -182l123 694h56l-59 -335q-5 -28 -5 -48q0 -90 91 -90q115 0 200 140l59 333h56l-90 -512h-48l15 99q-86 -111 -201 -111q-71 0 -103 41l-38 -211h-56z" />
    <glyph glyph-name="paragraph" unicode="&#xb6;" horiz-adv-x="584" 
d="M154 -183l84 476h-1q-92 0 -132.5 35.5t-40.5 116.5q0 111 62.5 173t174.5 62h249l-152 -863h-56l143 814h-132l-143 -814h-56z" />
    <glyph glyph-name="periodcentered" unicode="&#xb7;" horiz-adv-x="256" 
d="M93 246l16 89h69l-16 -89h-69z" />
    <glyph glyph-name="cedilla" unicode="&#xb8;" horiz-adv-x="500" 
d="M153 -198q-52 0 -89 19l19 34q25 -18 62 -18q32 0 50 11.5t18 31.5q0 13 -11 17t-44 4h-27l62 114h39l-45 -83q78 0 78 -55q0 -36 -29 -55.5t-83 -19.5z" />
    <glyph glyph-name="uni00B9" unicode="&#xb9;" 
d="M117 416l8 44h94l51 287q-50 -24 -112 -26l7 39q66 4 118 50h47l-62 -350h95l-7 -44h-239z" />
    <glyph glyph-name="ordmasculine" unicode="&#xba;" horiz-adv-x="419" 
d="M224 315q-136 0 -136 117q0 22 4 41l12 65q29 154 178 154q66 0 101.5 -29.5t35.5 -87.5q0 -22 -4 -41l-12 -65q-28 -154 -179 -154zM225 358q109 0 129 115l11 63q3 18 3 35q0 77 -87 77q-108 0 -128 -114l-11 -63q-4 -24 -4 -35q0 -78 87 -78zM44 182l8 44h305l-8 -44
h-305z" />
    <glyph glyph-name="guillemotright" unicode="&#xbb;" horiz-adv-x="454" 
d="M-10 82l180 178l-112 170h58l116 -176l-174 -172h-68zM185 82l180 178l-112 170h58l116 -176l-174 -172h-68z" />
    <glyph glyph-name="onequarter" unicode="&#xbc;" horiz-adv-x="834" 
d="M199 -12l494 704h53l-494 -704h-53zM94 286l8 44h94l51 287q-50 -24 -112 -26l7 39q66 4 118 50h47l-62 -350h95l-7 -44h-239zM668 0l16 88h-216l8 46l258 260h53l-47 -262h51l-8 -44h-50l-16 -88h-49zM532 132h159l36 199z" />
    <glyph glyph-name="onehalf" unicode="&#xbd;" horiz-adv-x="834" 
d="M158 -12l494 704h53l-494 -704h-53zM94 286l8 44h94l51 287q-50 -24 -112 -26l7 39q66 4 118 50h47l-62 -350h95l-7 -44h-239zM648 149q-60 -25 -86.5 -48t-35.5 -56h226l-8 -45h-276l5 31q9 55 46 92.5t114 69.5q61 26 88.5 52.5t27.5 60.5q0 56 -72 56q-91 0 -105 -81
l-1 -6h-48l3 15q24 116 154 116q117 0 117 -97q0 -51 -35 -88.5t-114 -71.5z" />
    <glyph glyph-name="threequarters" unicode="&#xbe;" horiz-adv-x="834" 
d="M190 274q-61 0 -94 23.5t-33 64.5q0 12 2 24l2 11h47l-1 -6q-1 -6 -1 -16q0 -57 79 -57q54 0 83.5 25t29.5 66q0 30 -18 43.5t-63 13.5h-48l7 44h46q46 0 72.5 23t26.5 60q0 55 -71 55q-43 0 -70.5 -18.5t-33.5 -52.5l-1 -5h-47l1 8q10 55 50.5 83.5t103.5 28.5
q117 0 117 -96q0 -81 -78 -105v-1q55 -19 55 -83q0 -62 -44 -97.5t-119 -35.5zM199 -12l494 704h53l-494 -704h-53zM668 0l16 88h-216l8 46l258 260h53l-47 -262h51l-8 -44h-50l-16 -88h-49zM532 132h159l36 199z" />
    <glyph glyph-name="questiondown" unicode="&#xbf;" horiz-adv-x="423" 
d="M226 423l15 89h69l-16 -89h-68zM141 -180q-79 0 -122 35.5t-43 100.5q0 64 28 107.5t96 82.5q53 31 77.5 61.5t33.5 75.5l5 25h48l-6 -30q-12 -59 -38.5 -95.5t-85.5 -71.5q-57 -34 -79.5 -67.5t-22.5 -83.5q0 -90 113 -90q67 0 110 35.5t55 101.5h53
q-16 -90 -73.5 -138.5t-148.5 -48.5z" />
    <glyph glyph-name="Agrave" unicode="&#xc0;" horiz-adv-x="602" 
d="M391 754l-100 127h69l85 -127h-54zM-33 0l379 680h59l140 -680h-60l-38 192h-312l-107 -192h-61zM164 245h273l-73 365z" />
    <glyph glyph-name="Aacute" unicode="&#xc1;" horiz-adv-x="602" 
d="M331 754l130 127h75l-144 -127h-61zM-33 0l379 680h59l140 -680h-60l-38 192h-312l-107 -192h-61zM164 245h273l-73 365z" />
    <glyph glyph-name="Acircumflex" unicode="&#xc2;" horiz-adv-x="602" 
d="M253 754l130 127h55l86 -127h-54l-63 82l-93 -82h-61zM-33 0l379 680h59l140 -680h-60l-38 192h-312l-107 -192h-61zM164 245h273l-73 365z" />
    <glyph glyph-name="Atilde" unicode="&#xc3;" horiz-adv-x="602" 
d="M451 767q-33 0 -63 29q-23 22 -40 22q-33 0 -49 -52h-42q23 99 92 99q33 0 63 -29q23 -23 40 -23q33 0 49 52h42q-23 -98 -92 -98zM-33 0l379 680h59l140 -680h-60l-38 192h-312l-107 -192h-61zM164 245h273l-73 365z" />
    <glyph glyph-name="Adieresis" unicode="&#xc4;" horiz-adv-x="602" 
d="M277 777l14 79h63l-13 -79h-64zM445 777l14 79h63l-13 -79h-64zM-33 0l379 680h59l140 -680h-60l-38 192h-312l-107 -192h-61zM164 245h273l-73 365z" />
    <glyph glyph-name="Aring" unicode="&#xc5;" horiz-adv-x="602" 
d="M395 742q-37 0 -60.5 22.5t-23.5 58.5q0 42 29 70.5t72 28.5q38 0 61 -22.5t23 -59.5q0 -41 -29 -69.5t-72 -28.5zM396 782q24 0 40.5 17t16.5 42q0 19 -12 30t-31 11q-24 0 -40.5 -17t-16.5 -42q0 -19 11.5 -30t31.5 -11zM-33 0l379 680h59l140 -680h-60l-38 192h-312
l-107 -192h-61zM164 245h273l-73 365z" />
    <glyph glyph-name="AE" unicode="&#xc6;" horiz-adv-x="896" 
d="M-48 0l539 680h432l-9 -53h-352l-45 -251h303l-9 -53h-303l-48 -270h363l-9 -53h-420l34 192h-257l-153 -192h-66zM212 245h225l66 372z" />
    <glyph glyph-name="Ccedilla" unicode="&#xc7;" horiz-adv-x="613" 
d="M598 471h-56q2 22 2 35q0 133 -157 133q-195 0 -233 -216l-30 -169q-6 -31 -6 -68q0 -145 159 -145q179 0 218 167h57q-47 -209 -255 -220l-31 -56q78 0 78 -55q0 -36 -29 -55.5t-83 -19.5q-52 0 -89 19l19 34q26 -18 62 -18q32 0 50 11.5t18 31.5q0 13 -11 17t-44 4h-27
l48 87q-97 4 -147.5 53t-50.5 139q0 38 7 74l32 176q47 262 291 262q103 0 157 -45.5t54 -129.5q0 -23 -3 -46z" />
    <glyph glyph-name="Egrave" unicode="&#xc8;" horiz-adv-x="582" 
d="M407 754l-100 127h69l85 -127h-54zM54 0l120 680h436l-9 -53h-379l-45 -251h329l-9 -53h-329l-48 -270h389l-9 -53h-446z" />
    <glyph glyph-name="Eacute" unicode="&#xc9;" horiz-adv-x="582" 
d="M347 754l130 127h75l-144 -127h-61zM54 0l120 680h436l-9 -53h-379l-45 -251h329l-9 -53h-329l-48 -270h389l-9 -53h-446z" />
    <glyph glyph-name="Ecircumflex" unicode="&#xca;" horiz-adv-x="582" 
d="M269 754l130 127h55l86 -127h-54l-63 82l-93 -82h-61zM54 0l120 680h436l-9 -53h-379l-45 -251h329l-9 -53h-329l-48 -270h389l-9 -53h-446z" />
    <glyph glyph-name="Edieresis" unicode="&#xcb;" horiz-adv-x="582" 
d="M293 777l14 79h63l-13 -79h-64zM461 777l14 79h63l-13 -79h-64zM54 0l120 680h436l-9 -53h-379l-45 -251h329l-9 -53h-329l-48 -270h389l-9 -53h-446z" />
    <glyph glyph-name="Igrave" unicode="&#xcc;" horiz-adv-x="255" 
d="M218 754l-100 127h69l85 -127h-54zM54 0l120 680h57l-120 -680h-57z" />
    <glyph glyph-name="Iacute" unicode="&#xcd;" horiz-adv-x="255" 
d="M158 754l130 127h75l-144 -127h-61zM54 0l120 680h57l-120 -680h-57z" />
    <glyph glyph-name="Icircumflex" unicode="&#xce;" horiz-adv-x="255" 
d="M85 754l125 127h56l80 -127h-53l-59 82l-89 -82h-60zM54 0l120 680h57l-120 -680h-57z" />
    <glyph glyph-name="Idieresis" unicode="&#xcf;" horiz-adv-x="255" 
d="M119 777l14 79h63l-13 -79h-64zM258 777l14 79h63l-13 -79h-64zM54 0l120 680h57l-120 -680h-57z" />
    <glyph glyph-name="Eth" unicode="&#xd0;" horiz-adv-x="658" 
d="M407 680q221 0 221 -183q0 -34 -8 -80l-28 -159q-24 -135 -95 -196.5t-203 -61.5h-230l57 323h-81l9 53h81l54 304h223zM564 420q6 31 6 68q0 74 -41 106.5t-131 32.5h-166l-45 -251h180l-9 -53h-180l-48 -270h164q107 0 165 50t77 158z" />
    <glyph glyph-name="Ntilde" unicode="&#xd1;" horiz-adv-x="693" 
d="M496 767q-33 0 -63 29q-23 22 -40 22q-33 0 -49 -52h-42q22 99 92 99q33 0 63 -29q23 -23 40 -23q33 0 49 52h42q-23 -98 -92 -98zM613 680h55l-119 -680h-55l-278 603l-106 -603h-56l120 680h66l270 -586z" />
    <glyph glyph-name="Ograve" unicode="&#xd2;" horiz-adv-x="652" 
d="M416 754l-100 127h69l85 -127h-54zM283 -12q-109 0 -165.5 49.5t-56.5 146.5q0 39 6 70l32 176q47 262 301 262q109 0 165.5 -49.5t56.5 -146.5q0 -34 -7 -70l-31 -176q-22 -130 -98.5 -196t-202.5 -66zM285 41q206 0 243 214l30 171q6 33 6 65q0 148 -167 148
q-206 0 -243 -214l-30 -171q-6 -33 -6 -65q0 -148 167 -148z" />
    <glyph glyph-name="Oacute" unicode="&#xd3;" horiz-adv-x="652" 
d="M356 754l130 127h75l-144 -127h-61zM283 -12q-109 0 -165.5 49.5t-56.5 146.5q0 39 6 70l32 176q47 262 301 262q109 0 165.5 -49.5t56.5 -146.5q0 -34 -7 -70l-31 -176q-22 -130 -98.5 -196t-202.5 -66zM285 41q206 0 243 214l30 171q6 33 6 65q0 148 -167 148
q-206 0 -243 -214l-30 -171q-6 -33 -6 -65q0 -148 167 -148z" />
    <glyph glyph-name="Ocircumflex" unicode="&#xd4;" horiz-adv-x="652" 
d="M278 754l130 127h55l86 -127h-54l-63 82l-93 -82h-61zM283 -12q-109 0 -165.5 49.5t-56.5 146.5q0 39 6 70l32 176q47 262 301 262q109 0 165.5 -49.5t56.5 -146.5q0 -34 -7 -70l-31 -176q-22 -130 -98.5 -196t-202.5 -66zM285 41q206 0 243 214l30 171q6 33 6 65
q0 148 -167 148q-206 0 -243 -214l-30 -171q-6 -33 -6 -65q0 -148 167 -148z" />
    <glyph glyph-name="Otilde" unicode="&#xd5;" horiz-adv-x="652" 
d="M476 767q-33 0 -63 29q-23 22 -40 22q-33 0 -49 -52h-42q22 99 92 99q33 0 63 -29q23 -23 40 -23q33 0 49 52h42q-23 -98 -92 -98zM283 -12q-109 0 -165.5 49.5t-56.5 146.5q0 39 6 70l32 176q47 262 301 262q109 0 165.5 -49.5t56.5 -146.5q0 -34 -7 -70l-31 -176
q-22 -130 -98.5 -196t-202.5 -66zM285 41q206 0 243 214l30 171q6 33 6 65q0 148 -167 148q-206 0 -243 -214l-30 -171q-6 -33 -6 -65q0 -148 167 -148z" />
    <glyph glyph-name="Odieresis" unicode="&#xd6;" horiz-adv-x="652" 
d="M302 777l14 79h63l-13 -79h-64zM470 777l14 79h63l-13 -79h-64zM283 -12q-109 0 -165.5 49.5t-56.5 146.5q0 39 6 70l32 176q47 262 301 262q109 0 165.5 -49.5t56.5 -146.5q0 -34 -7 -70l-31 -176q-22 -130 -98.5 -196t-202.5 -66zM285 41q206 0 243 214l30 171
q6 33 6 65q0 148 -167 148q-206 0 -243 -214l-30 -171q-6 -33 -6 -65q0 -148 167 -148z" />
    <glyph glyph-name="multiply" unicode="&#xd7;" horiz-adv-x="601" 
d="M74 74l-34 39l233 198l-163 198l42 35l162 -197l232 197l34 -39l-233 -198l163 -198l-42 -35l-162 197z" />
    <glyph glyph-name="Oslash" unicode="&#xd8;" horiz-adv-x="653" 
d="M657 661l-57 -64q22 -41 22 -101q0 -34 -7 -70l-31 -176q-22 -130 -98.5 -196t-202.5 -66q-116 0 -172 56l-50 -56l-35 31l57 64q-22 41 -22 101q0 39 6 70l32 176q47 262 301 262q116 0 172 -56l50 56zM118 189q0 -31 8 -58l407 461q-40 47 -136 47q-206 0 -243 -214
l-30 -171q-6 -33 -6 -65zM564 491q0 33 -7 57l-408 -460q40 -47 136 -47q206 0 243 214l30 171q6 33 6 65z" />
    <glyph glyph-name="Ugrave" unicode="&#xd9;" horiz-adv-x="643" 
d="M412 754l-100 127h69l85 -127h-54zM278 -13q-110 0 -160.5 40t-50.5 125q0 32 7 71l81 457h57l-81 -460q-6 -31 -6 -62q0 -65 37 -91.5t118 -26.5q103 0 154 41.5t68 141.5l80 457h56l-81 -460q-21 -123 -85.5 -178t-193.5 -55z" />
    <glyph glyph-name="Uacute" unicode="&#xda;" horiz-adv-x="643" 
d="M352 754l130 127h75l-144 -127h-61zM278 -13q-110 0 -160.5 40t-50.5 125q0 32 7 71l81 457h57l-81 -460q-6 -31 -6 -62q0 -65 37 -91.5t118 -26.5q103 0 154 41.5t68 141.5l80 457h56l-81 -460q-21 -123 -85.5 -178t-193.5 -55z" />
    <glyph glyph-name="Ucircumflex" unicode="&#xdb;" horiz-adv-x="643" 
d="M274 754l130 127h55l86 -127h-54l-63 82l-93 -82h-61zM278 -13q-110 0 -160.5 40t-50.5 125q0 32 7 71l81 457h57l-81 -460q-6 -31 -6 -62q0 -65 37 -91.5t118 -26.5q103 0 154 41.5t68 141.5l80 457h56l-81 -460q-21 -123 -85.5 -178t-193.5 -55z" />
    <glyph glyph-name="Udieresis" unicode="&#xdc;" horiz-adv-x="643" 
d="M298 777l14 79h63l-13 -79h-64zM466 777l14 79h63l-13 -79h-64zM278 -13q-110 0 -160.5 40t-50.5 125q0 32 7 71l81 457h57l-81 -460q-6 -31 -6 -62q0 -65 37 -91.5t118 -26.5q103 0 154 41.5t68 141.5l80 457h56l-81 -460q-21 -123 -85.5 -178t-193.5 -55z" />
    <glyph glyph-name="Yacute" unicode="&#xdd;" horiz-adv-x="540" 
d="M300 754l130 127h75l-144 -127h-61zM196 0l53 300l-177 380h64l150 -322l262 322h69l-311 -383l-53 -297h-57z" />
    <glyph glyph-name="Thorn" unicode="&#xde;" horiz-adv-x="599" 
d="M54 0l120 680h57l-20 -111h193q103 0 147 -37.5t44 -123.5q0 -114 -67.5 -177t-190.5 -63h-196l-30 -168h-57zM150 220h190q96 0 147.5 48t51.5 135q0 63 -32 88t-112 25h-193z" />
    <glyph glyph-name="germandbls" unicode="&#xdf;" horiz-adv-x="589" 
d="M70 0l82 466h-102l8 46h102l11 60q30 170 217 170q159 0 159 -120q0 -81 -92 -153q-39 -31 -54.5 -53t-15.5 -47q0 -24 13.5 -38.5t53.5 -33.5q53 -25 71.5 -49t18.5 -68q0 -83 -60 -131.5t-168 -48.5h-56l9 49h51q78 0 122.5 32.5t44.5 87.5q0 30 -15.5 48t-58.5 39
q-47 22 -64 43.5t-17 59.5q0 41 20 74t67 71q41 32 58 58t17 56q0 75 -104 75q-140 0 -162 -126l-100 -567h-56z" />
    <glyph glyph-name="agrave" unicode="&#xe0;" horiz-adv-x="541" 
d="M324 597l-100 127h69l85 -127h-54zM174 -12q-147 0 -147 130q0 86 63 131.5t173 45.5h150l8 46q4 24 4 39q0 95 -120 95q-138 0 -166 -112h-55q41 161 225 161q172 0 172 -139q0 -21 -4 -44l-60 -341h-48l12 81q-86 -93 -207 -93zM183 36q121 0 205 113l17 98h-143
q-85 0 -132 -31.5t-47 -94.5q0 -85 100 -85z" />
    <glyph glyph-name="aacute" unicode="&#xe1;" horiz-adv-x="541" 
d="M264 597l130 127h75l-144 -127h-61zM174 -12q-147 0 -147 130q0 86 63 131.5t173 45.5h150l8 46q4 24 4 39q0 95 -120 95q-138 0 -166 -112h-55q41 161 225 161q172 0 172 -139q0 -21 -4 -44l-60 -341h-48l12 81q-86 -93 -207 -93zM183 36q121 0 205 113l17 98h-143
q-85 0 -132 -31.5t-47 -94.5q0 -85 100 -85z" />
    <glyph glyph-name="acircumflex" unicode="&#xe2;" horiz-adv-x="541" 
d="M186 597l130 127h55l86 -127h-54l-63 82l-93 -82h-61zM174 -12q-147 0 -147 130q0 86 63 131.5t173 45.5h150l8 46q4 24 4 39q0 95 -120 95q-138 0 -166 -112h-55q41 161 225 161q172 0 172 -139q0 -21 -4 -44l-60 -341h-48l12 81q-86 -93 -207 -93zM183 36
q121 0 205 113l17 98h-143q-85 0 -132 -31.5t-47 -94.5q0 -85 100 -85z" />
    <glyph glyph-name="atilde" unicode="&#xe3;" horiz-adv-x="541" 
d="M384 610q-33 0 -63 29q-23 22 -40 22q-33 0 -49 -52h-42q22 99 92 99q33 0 63 -29q23 -23 40 -23q33 0 49 52h42q-23 -98 -92 -98zM174 -12q-147 0 -147 130q0 86 63 131.5t173 45.5h150l8 46q4 24 4 39q0 95 -120 95q-138 0 -166 -112h-55q41 161 225 161
q172 0 172 -139q0 -21 -4 -44l-60 -341h-48l12 81q-86 -93 -207 -93zM183 36q121 0 205 113l17 98h-143q-85 0 -132 -31.5t-47 -94.5q0 -85 100 -85z" />
    <glyph glyph-name="adieresis" unicode="&#xe4;" horiz-adv-x="541" 
d="M210 620l14 79h63l-13 -79h-64zM378 620l14 79h63l-13 -79h-64zM174 -12q-147 0 -147 130q0 86 63 131.5t173 45.5h150l8 46q4 24 4 39q0 95 -120 95q-138 0 -166 -112h-55q41 161 225 161q172 0 172 -139q0 -21 -4 -44l-60 -341h-48l12 81q-86 -93 -207 -93zM183 36
q121 0 205 113l17 98h-143q-85 0 -132 -31.5t-47 -94.5q0 -85 100 -85z" />
    <glyph glyph-name="aring" unicode="&#xe5;" horiz-adv-x="541" 
d="M328 585q-37 0 -60.5 22.5t-23.5 58.5q0 42 29 70.5t72 28.5q38 0 61 -22.5t23 -59.5q0 -41 -29 -69.5t-72 -28.5zM329 625q24 0 40.5 17t16.5 42q0 19 -12 30t-31 11q-24 0 -40.5 -17t-16.5 -42q0 -19 11.5 -30t31.5 -11zM174 -12q-147 0 -147 130q0 86 63 131.5
t173 45.5h150l8 46q4 24 4 39q0 95 -120 95q-138 0 -166 -112h-55q41 161 225 161q172 0 172 -139q0 -21 -4 -44l-60 -341h-48l12 81q-86 -93 -207 -93zM183 36q121 0 205 113l17 98h-143q-85 0 -132 -31.5t-47 -94.5q0 -85 100 -85z" />
    <glyph glyph-name="ae" unicode="&#xe6;" horiz-adv-x="889" 
d="M664 524q179 0 179 -162q0 -28 -5 -56l-10 -62h-368l-6 -37q-5 -33 -5 -50q0 -61 32 -90.5t99 -29.5q69 0 113.5 29.5t59.5 83.5h54q-20 -80 -79 -121t-149 -41q-148 0 -180 106q-95 -106 -222 -106q-150 0 -150 130q0 85 63 130.5t173 45.5h150l8 48q4 24 4 40
q0 93 -120 93q-139 0 -166 -112h-55q40 161 223 161q143 0 160 -103q61 103 197 103zM468 292h313l2 10q6 30 6 57q0 116 -129 116q-80 0 -126.5 -42.5t-63.5 -130.5zM185 36q121 0 207 120q0 23 6 53l7 38h-144q-84 0 -131 -31.5t-47 -94.5q0 -85 102 -85z" />
    <glyph glyph-name="ccedilla" unicode="&#xe7;" horiz-adv-x="513" 
d="M487 347h-55q1 9 1 23q0 105 -119 105q-159 0 -188 -172l-16 -96q-5 -33 -5 -52q0 -118 125 -118q138 0 170 128h54q-17 -79 -69 -124.5t-133 -51.5l-31 -57q78 0 78 -55q0 -36 -29 -55.5t-83 -19.5q-52 0 -89 19l19 34q25 -18 62 -18q32 0 50 11.5t18 31.5q0 13 -11 17
t-44 4h-27l47 87q-79 4 -121.5 45t-42.5 118q0 29 5 56l18 102q18 107 81 161t162 54q84 0 129 -39t45 -109q0 -20 -1 -29z" />
    <glyph glyph-name="egrave" unicode="&#xe8;" horiz-adv-x="545" 
d="M335 597l-100 127h69l85 -127h-54zM235 -12q-92 0 -139 42t-47 124q0 33 4 53l18 102q18 104 81 159.5t165 55.5q89 0 135.5 -41.5t46.5 -122.5q0 -26 -5 -54l-10 -62h-368l-6 -37q-5 -33 -5 -50q0 -61 32 -90.5t99 -29.5q69 0 113.5 30t59.5 83h54q-20 -80 -79 -121
t-149 -41zM124 292h313l2 10q6 32 6 57q0 116 -129 116q-80 0 -126.5 -42.5t-63.5 -130.5z" />
    <glyph glyph-name="eacute" unicode="&#xe9;" horiz-adv-x="545" 
d="M275 597l130 127h75l-144 -127h-61zM235 -12q-92 0 -139 42t-47 124q0 33 4 53l18 102q18 104 81 159.5t165 55.5q89 0 135.5 -41.5t46.5 -122.5q0 -26 -5 -54l-10 -62h-368l-6 -37q-5 -33 -5 -50q0 -61 32 -90.5t99 -29.5q69 0 113.5 30t59.5 83h54q-20 -80 -79 -121
t-149 -41zM124 292h313l2 10q6 32 6 57q0 116 -129 116q-80 0 -126.5 -42.5t-63.5 -130.5z" />
    <glyph glyph-name="ecircumflex" unicode="&#xea;" horiz-adv-x="545" 
d="M197 597l130 127h55l86 -127h-54l-63 82l-93 -82h-61zM235 -12q-92 0 -139 42t-47 124q0 33 4 53l18 102q18 104 81 159.5t165 55.5q89 0 135.5 -41.5t46.5 -122.5q0 -26 -5 -54l-10 -62h-368l-6 -37q-5 -33 -5 -50q0 -61 32 -90.5t99 -29.5q69 0 113.5 30t59.5 83h54
q-20 -80 -79 -121t-149 -41zM124 292h313l2 10q6 32 6 57q0 116 -129 116q-80 0 -126.5 -42.5t-63.5 -130.5z" />
    <glyph glyph-name="edieresis" unicode="&#xeb;" horiz-adv-x="545" 
d="M221 620l14 79h63l-13 -79h-64zM389 620l14 79h63l-13 -79h-64zM235 -12q-92 0 -139 42t-47 124q0 33 4 53l18 102q18 104 81 159.5t165 55.5q89 0 135.5 -41.5t46.5 -122.5q0 -26 -5 -54l-10 -62h-368l-6 -37q-5 -33 -5 -50q0 -61 32 -90.5t99 -29.5q69 0 113.5 30
t59.5 83h54q-20 -80 -79 -121t-149 -41zM124 292h313l2 10q6 32 6 57q0 116 -129 116q-80 0 -126.5 -42.5t-63.5 -130.5z" />
    <glyph glyph-name="igrave" unicode="&#xec;" horiz-adv-x="236" 
d="M180 597l-100 127h69l85 -127h-54zM45 0l90 512h56l-90 -512h-56z" />
    <glyph glyph-name="iacute" unicode="&#xed;" horiz-adv-x="236" 
d="M120 597l130 127h75l-144 -127h-61zM45 0l90 512h56l-90 -512h-56z" />
    <glyph glyph-name="icircumflex" unicode="&#xee;" horiz-adv-x="236" 
d="M47 597l125 127h56l80 -127h-53l-59 82l-89 -82h-60zM45 0l90 512h56l-90 -512h-56z" />
    <glyph glyph-name="idieresis" unicode="&#xef;" horiz-adv-x="236" 
d="M81 620l14 79h63l-13 -79h-64zM220 620l14 79h63l-13 -79h-64zM45 0l90 512h56l-90 -512h-56z" />
    <glyph glyph-name="eth" unicode="&#xf0;" horiz-adv-x="554" 
d="M233 -12q-92 0 -139.5 42.5t-47.5 122.5q0 32 5 57l12 66q19 102 78 156.5t149 54.5q111 0 159 -88q-12 105 -82 198l-155 -57l-15 41l140 51q-54 59 -124 98h82q53 -33 94 -79l105 39l15 -41l-91 -33q87 -118 87 -259q0 -29 -7 -73l-13 -77q-18 -109 -83 -164t-169 -55z
M234 37q163 0 196 178l17 90q-29 132 -151 132q-72 0 -117.5 -44t-60.5 -125l-11 -58q-5 -30 -5 -54q0 -119 132 -119z" />
    <glyph glyph-name="ntilde" unicode="&#xf1;" horiz-adv-x="566" 
d="M407 610q-33 0 -63 29q-23 22 -40 22q-33 0 -49 -52h-42q23 99 92 99q33 0 63 -29q23 -23 40 -23q33 0 49 52h42q-23 -98 -92 -98zM45 0l90 512h48l-14 -97q81 109 199 109q135 0 135 -132q0 -30 -5 -55l-59 -337h-56l58 332q5 25 5 52q0 89 -90 89q-114 0 -195 -135
l-60 -338h-56z" />
    <glyph glyph-name="ograve" unicode="&#xf2;" horiz-adv-x="559" 
d="M341 597l-100 127h69l85 -127h-54zM236 -12q-92 0 -139.5 43t-47.5 124q0 30 5 55l17 94q20 108 83.5 164t168.5 56q92 0 139.5 -42.5t47.5 -123.5q0 -31 -5 -56l-17 -94q-20 -108 -83.5 -164t-168.5 -56zM238 37q163 0 195 177l16 89q4 23 4 49q0 123 -132 123
q-163 0 -195 -177l-16 -89q-4 -23 -4 -49q0 -123 132 -123z" />
    <glyph glyph-name="oacute" unicode="&#xf3;" horiz-adv-x="559" 
d="M281 597l130 127h75l-144 -127h-61zM236 -12q-92 0 -139.5 43t-47.5 124q0 30 5 55l17 94q20 108 83.5 164t168.5 56q92 0 139.5 -42.5t47.5 -123.5q0 -31 -5 -56l-17 -94q-20 -108 -83.5 -164t-168.5 -56zM238 37q163 0 195 177l16 89q4 23 4 49q0 123 -132 123
q-163 0 -195 -177l-16 -89q-4 -23 -4 -49q0 -123 132 -123z" />
    <glyph glyph-name="ocircumflex" unicode="&#xf4;" horiz-adv-x="559" 
d="M203 597l130 127h55l86 -127h-54l-63 82l-93 -82h-61zM236 -12q-92 0 -139.5 43t-47.5 124q0 30 5 55l17 94q20 108 83.5 164t168.5 56q92 0 139.5 -42.5t47.5 -123.5q0 -31 -5 -56l-17 -94q-20 -108 -83.5 -164t-168.5 -56zM238 37q163 0 195 177l16 89q4 23 4 49
q0 123 -132 123q-163 0 -195 -177l-16 -89q-4 -23 -4 -49q0 -123 132 -123z" />
    <glyph glyph-name="otilde" unicode="&#xf5;" horiz-adv-x="559" 
d="M401 610q-33 0 -63 29q-23 22 -40 22q-33 0 -49 -52h-42q23 99 92 99q33 0 63 -29q23 -23 40 -23q33 0 49 52h42q-23 -98 -92 -98zM236 -12q-92 0 -139.5 43t-47.5 124q0 30 5 55l17 94q20 108 83.5 164t168.5 56q92 0 139.5 -42.5t47.5 -123.5q0 -31 -5 -56l-17 -94
q-20 -108 -83.5 -164t-168.5 -56zM238 37q163 0 195 177l16 89q4 23 4 49q0 123 -132 123q-163 0 -195 -177l-16 -89q-4 -23 -4 -49q0 -123 132 -123z" />
    <glyph glyph-name="odieresis" unicode="&#xf6;" horiz-adv-x="559" 
d="M227 620l14 79h63l-13 -79h-64zM395 620l14 79h63l-13 -79h-64zM236 -12q-92 0 -139.5 43t-47.5 124q0 30 5 55l17 94q20 108 83.5 164t168.5 56q92 0 139.5 -42.5t47.5 -123.5q0 -31 -5 -56l-17 -94q-20 -108 -83.5 -164t-168.5 -56zM238 37q163 0 195 177l16 89
q4 23 4 49q0 123 -132 123q-163 0 -195 -177l-16 -89q-4 -23 -4 -49q0 -123 132 -123z" />
    <glyph glyph-name="divide" unicode="&#xf7;" horiz-adv-x="601" 
d="M306 469l15 84h63l-14 -84h-64zM62 283l9 50h487l-9 -50h-487zM235 64l15 84h63l-14 -84h-64z" />
    <glyph glyph-name="oslash" unicode="&#xf8;" horiz-adv-x="559" 
d="M538 493l-47 -49q19 -35 19 -86q0 -31 -5 -56l-17 -94q-20 -108 -83.5 -164t-168.5 -56q-92 0 -141 44l-42 -44l-32 31l47 49q-19 35 -19 87q0 30 5 55l17 94q20 108 83.5 164t168.5 56q92 0 141 -44l42 44zM106 160q0 -26 6 -46l313 325q-33 36 -104 36
q-163 0 -195 -177l-16 -89q-4 -23 -4 -49zM453 352q0 26 -6 46l-313 -325q33 -36 104 -36q163 0 195 177l16 89q4 23 4 49z" />
    <glyph glyph-name="ugrave" unicode="&#xf9;" horiz-adv-x="570" 
d="M343 597l-100 127h69l85 -127h-54zM200 -12q-137 0 -137 134q0 21 5 53l60 337h56l-59 -334q-5 -25 -5 -49q0 -90 92 -90q114 0 197 133l60 340h56l-90 -512h-48l14 95q-83 -107 -201 -107z" />
    <glyph glyph-name="uacute" unicode="&#xfa;" horiz-adv-x="570" 
d="M283 597l130 127h75l-144 -127h-61zM200 -12q-137 0 -137 134q0 21 5 53l60 337h56l-59 -334q-5 -25 -5 -49q0 -90 92 -90q114 0 197 133l60 340h56l-90 -512h-48l14 95q-83 -107 -201 -107z" />
    <glyph glyph-name="ucircumflex" unicode="&#xfb;" horiz-adv-x="570" 
d="M205 597l130 127h55l86 -127h-54l-63 82l-93 -82h-61zM200 -12q-137 0 -137 134q0 21 5 53l60 337h56l-59 -334q-5 -25 -5 -49q0 -90 92 -90q114 0 197 133l60 340h56l-90 -512h-48l14 95q-83 -107 -201 -107z" />
    <glyph glyph-name="udieresis" unicode="&#xfc;" horiz-adv-x="570" 
d="M229 620l14 79h63l-13 -79h-64zM397 620l14 79h63l-13 -79h-64zM200 -12q-137 0 -137 134q0 21 5 53l60 337h56l-59 -334q-5 -25 -5 -49q0 -90 92 -90q114 0 197 133l60 340h56l-90 -512h-48l14 95q-83 -107 -201 -107z" />
    <glyph glyph-name="yacute" unicode="&#xfd;" horiz-adv-x="464" 
d="M235 597l130 127h75l-144 -127h-61zM-20 -182l9 49h32q35 0 55.5 14t43.5 57l48 89l-107 485h58l89 -418l226 418h59l-321 -588q-34 -61 -66 -83.5t-85 -22.5h-41z" />
    <glyph glyph-name="thorn" unicode="&#xfe;" horiz-adv-x="582" 
d="M12 -182l161 912h56l-55 -310q86 104 203 104q76 0 117 -40.5t41 -115.5q0 -25 -6 -57l-20 -115q-17 -98 -74.5 -153t-145.5 -55q-121 0 -172 109l-49 -279h-56zM287 37q67 0 110 44t57 122l19 109q5 32 5 49q0 56 -28 85t-81 29q-122 0 -210 -141l-28 -158
q37 -139 156 -139z" />
    <glyph glyph-name="ydieresis" unicode="&#xff;" horiz-adv-x="464" 
d="M181 620l14 79h63l-13 -79h-64zM349 620l14 79h63l-13 -79h-64zM-20 -182l9 49h32q35 0 55.5 14t43.5 57l48 89l-107 485h58l89 -418l226 418h59l-321 -588q-34 -61 -66 -83.5t-85 -22.5h-41z" />
    <glyph glyph-name="Amacron" unicode="&#x100;" horiz-adv-x="602" 
d="M289 795l8 45h214l-8 -45h-214zM-33 0l379 680h59l140 -680h-60l-38 192h-312l-107 -192h-61zM164 245h273l-73 365z" />
    <glyph glyph-name="amacron" unicode="&#x101;" horiz-adv-x="541" 
d="M222 638l8 45h214l-8 -45h-214zM174 -12q-147 0 -147 130q0 86 63 131.5t173 45.5h150l8 46q4 24 4 39q0 95 -120 95q-138 0 -166 -112h-55q41 161 225 161q172 0 172 -139q0 -21 -4 -44l-60 -341h-48l12 81q-86 -93 -207 -93zM183 36q121 0 205 113l17 98h-143
q-85 0 -132 -31.5t-47 -94.5q0 -85 100 -85z" />
    <glyph glyph-name="Abreve" unicode="&#x102;" horiz-adv-x="602" 
d="M393 757q-51 0 -78 27t-27 74v15h44v-12q0 -58 63 -58q73 0 91 70h45q-12 -55 -48 -85.5t-90 -30.5zM-33 0l379 680h59l140 -680h-60l-38 192h-312l-107 -192h-61zM164 245h273l-73 365z" />
    <glyph glyph-name="abreve" unicode="&#x103;" horiz-adv-x="541" 
d="M326 600q-51 0 -78 27t-27 74v15h44v-12q0 -58 63 -58q73 0 91 70h45q-12 -55 -48 -85.5t-90 -30.5zM174 -12q-147 0 -147 130q0 86 63 131.5t173 45.5h150l8 46q4 24 4 39q0 95 -120 95q-138 0 -166 -112h-55q41 161 225 161q172 0 172 -139q0 -21 -4 -44l-60 -341h-48
l12 81q-86 -93 -207 -93zM183 36q121 0 205 113l17 98h-143q-85 0 -132 -31.5t-47 -94.5q0 -85 100 -85z" />
    <glyph glyph-name="Aogonek" unicode="&#x104;" horiz-adv-x="602" 
d="M420 -120q0 -34 41 -34q27 0 60 17l-9 -47q-30 -14 -62 -14q-82 0 -82 68q0 77 115 142l-36 180h-312l-107 -192h-61l379 680h59l140 -680h-12q-53 -27 -83 -58.5t-30 -61.5zM164 245h273l-73 365z" />
    <glyph glyph-name="aogonek" unicode="&#x105;" horiz-adv-x="541" 
d="M309 524q172 0 172 -139q0 -21 -4 -44l-60 -341h-12q-53 -27 -83 -58.5t-30 -61.5q0 -34 41 -34q27 0 60 17l-9 -47q-30 -14 -62 -14q-82 0 -82 68q0 83 132 151l9 60q-86 -93 -207 -93q-147 0 -147 130q0 86 63 131.5t173 45.5h150l8 46q4 24 4 39q0 95 -120 95
q-138 0 -166 -112h-55q41 161 225 161zM183 36q121 0 205 113l17 98h-143q-85 0 -132 -31.5t-47 -94.5q0 -85 100 -85z" />
    <glyph glyph-name="Cacute" unicode="&#x106;" horiz-adv-x="613" 
d="M346 754l130 127h75l-144 -127h-61zM276 -12q-106 0 -161 48.5t-55 143.5q0 38 7 74l32 176q47 262 291 262q103 0 157 -45.5t54 -129.5q0 -23 -3 -46h-56q2 22 2 35q0 133 -157 133q-195 0 -233 -216l-30 -169q-6 -31 -6 -68q0 -145 159 -145q179 0 218 167h57
q-50 -220 -276 -220z" />
    <glyph glyph-name="cacute" unicode="&#x107;" horiz-adv-x="513" 
d="M269 597l130 127h75l-144 -127h-61zM227 -12q-86 0 -132.5 41.5t-46.5 121.5q0 29 5 56l18 102q18 107 81 161t162 54q84 0 129 -39t45 -109q0 -20 -1 -29h-55q1 9 1 23q0 105 -119 105q-159 0 -188 -172l-16 -96q-5 -33 -5 -52q0 -118 125 -118q138 0 170 128h54
q-19 -85 -77 -131t-150 -46z" />
    <glyph glyph-name="Ccircumflex" unicode="&#x108;" horiz-adv-x="613" 
d="M268 754l130 127h55l86 -127h-54l-63 82l-93 -82h-61zM276 -12q-106 0 -161 48.5t-55 143.5q0 38 7 74l32 176q47 262 291 262q103 0 157 -45.5t54 -129.5q0 -23 -3 -46h-56q2 22 2 35q0 133 -157 133q-195 0 -233 -216l-30 -169q-6 -31 -6 -68q0 -145 159 -145
q179 0 218 167h57q-50 -220 -276 -220z" />
    <glyph glyph-name="ccircumflex" unicode="&#x109;" horiz-adv-x="513" 
d="M191 597l130 127h55l86 -127h-54l-63 82l-93 -82h-61zM227 -12q-86 0 -132.5 41.5t-46.5 121.5q0 29 5 56l18 102q18 107 81 161t162 54q84 0 129 -39t45 -109q0 -20 -1 -29h-55q1 9 1 23q0 105 -119 105q-159 0 -188 -172l-16 -96q-5 -33 -5 -52q0 -118 125 -118
q138 0 170 128h54q-19 -85 -77 -131t-150 -46z" />
    <glyph glyph-name="Cdotaccent" unicode="&#x10a;" horiz-adv-x="613" 
d="M376 777l14 79h63l-13 -79h-64zM276 -12q-106 0 -161 48.5t-55 143.5q0 38 7 74l32 176q47 262 291 262q103 0 157 -45.5t54 -129.5q0 -23 -3 -46h-56q2 22 2 35q0 133 -157 133q-195 0 -233 -216l-30 -169q-6 -31 -6 -68q0 -145 159 -145q179 0 218 167h57
q-50 -220 -276 -220z" />
    <glyph glyph-name="cdotaccent" unicode="&#x10b;" horiz-adv-x="513" 
d="M299 620l14 79h63l-13 -79h-64zM227 -12q-86 0 -132.5 41.5t-46.5 121.5q0 29 5 56l18 102q18 107 81 161t162 54q84 0 129 -39t45 -109q0 -20 -1 -29h-55q1 9 1 23q0 105 -119 105q-159 0 -188 -172l-16 -96q-5 -33 -5 -52q0 -118 125 -118q138 0 170 128h54
q-19 -85 -77 -131t-150 -46z" />
    <glyph glyph-name="Ccaron" unicode="&#x10c;" horiz-adv-x="613" 
d="M377 754l-86 127h54l64 -83l93 83h61l-131 -127h-55zM276 -12q-106 0 -161 48.5t-55 143.5q0 38 7 74l32 176q47 262 291 262q103 0 157 -45.5t54 -129.5q0 -23 -3 -46h-56q2 22 2 35q0 133 -157 133q-195 0 -233 -216l-30 -169q-6 -31 -6 -68q0 -145 159 -145
q179 0 218 167h57q-50 -220 -276 -220z" />
    <glyph glyph-name="ccaron" unicode="&#x10d;" horiz-adv-x="513" 
d="M300 597l-86 127h54l64 -83l93 83h61l-131 -127h-55zM227 -12q-86 0 -132.5 41.5t-46.5 121.5q0 29 5 56l18 102q18 107 81 161t162 54q84 0 129 -39t45 -109q0 -20 -1 -29h-55q1 9 1 23q0 105 -119 105q-159 0 -188 -172l-16 -96q-5 -33 -5 -52q0 -118 125 -118
q138 0 170 128h54q-19 -85 -77 -131t-150 -46z" />
    <glyph glyph-name="Dcaron" unicode="&#x10e;" horiz-adv-x="648" 
d="M376 754l-86 127h54l64 -83l93 83h61l-131 -127h-55zM54 0l120 680h223q221 0 221 -183q0 -34 -8 -80l-28 -159q-24 -135 -95 -196.5t-203 -61.5h-230zM120 53h164q107 0 165 50t77 158l28 159q6 31 6 68q0 74 -41 106.5t-131 32.5h-166z" />
    <glyph glyph-name="dcaron" unicode="&#x10f;" horiz-adv-x="583" 
d="M205 -12q-76 0 -116.5 40.5t-40.5 115.5q0 30 5 58l21 114q18 99 74.5 153.5t144.5 54.5q120 0 171 -107l56 313h56l-129 -730h-48l15 99q-87 -111 -209 -111zM590 535l75 195h63l-94 -195h-44zM214 37q120 0 207 137l30 167q-38 134 -156 134q-67 0 -109 -43.5
t-57 -122.5l-20 -108q-5 -25 -5 -50q0 -114 110 -114z" />
    <glyph glyph-name="Dcroat" unicode="&#x110;" horiz-adv-x="658" 
d="M407 680q221 0 221 -183q0 -34 -8 -80l-28 -159q-24 -135 -95 -196.5t-203 -61.5h-230l57 323h-81l9 53h81l54 304h223zM564 420q6 31 6 68q0 74 -41 106.5t-131 32.5h-166l-45 -251h180l-9 -53h-180l-48 -270h164q107 0 165 50t77 158z" />
    <glyph glyph-name="dcroat" unicode="&#x111;" horiz-adv-x="590" 
d="M648 635l-9 -46h-88l-104 -589h-48l15 99q-87 -111 -209 -111q-76 0 -116.5 40.5t-40.5 115.5q0 30 5 58l21 114q18 99 74.5 153.5t144.5 54.5q120 0 171 -107l31 172h-139l8 46h139l17 95h56l-17 -95h89zM421 174l30 167q-38 134 -156 134q-67 0 -109 -43.5t-57 -122.5
l-20 -108q-5 -25 -5 -50q0 -114 110 -114q120 0 207 137z" />
    <glyph glyph-name="Emacron" unicode="&#x112;" horiz-adv-x="582" 
d="M305 795l8 45h214l-8 -45h-214zM54 0l120 680h436l-9 -53h-379l-45 -251h329l-9 -53h-329l-48 -270h389l-9 -53h-446z" />
    <glyph glyph-name="emacron" unicode="&#x113;" horiz-adv-x="545" 
d="M233 638l8 45h214l-8 -45h-214zM235 -12q-92 0 -139 42t-47 124q0 33 4 53l18 102q18 104 81 159.5t165 55.5q89 0 135.5 -41.5t46.5 -122.5q0 -26 -5 -54l-10 -62h-368l-6 -37q-5 -33 -5 -50q0 -61 32 -90.5t99 -29.5q69 0 113.5 30t59.5 83h54q-20 -80 -79 -121
t-149 -41zM124 292h313l2 10q6 32 6 57q0 116 -129 116q-80 0 -126.5 -42.5t-63.5 -130.5z" />
    <glyph glyph-name="Ebreve" unicode="&#x114;" horiz-adv-x="582" 
d="M409 757q-51 0 -78 27t-27 74v15h44v-12q0 -58 63 -58q73 0 91 70h45q-12 -55 -48 -85.5t-90 -30.5zM54 0l120 680h436l-9 -53h-379l-45 -251h329l-9 -53h-329l-48 -270h389l-9 -53h-446z" />
    <glyph glyph-name="ebreve" unicode="&#x115;" horiz-adv-x="545" 
d="M337 600q-51 0 -78 27t-27 74v15h44v-12q0 -58 63 -58q73 0 91 70h45q-12 -55 -48 -85.5t-90 -30.5zM235 -12q-92 0 -139 42t-47 124q0 33 4 53l18 102q18 104 81 159.5t165 55.5q89 0 135.5 -41.5t46.5 -122.5q0 -26 -5 -54l-10 -62h-368l-6 -37q-5 -33 -5 -50
q0 -61 32 -90.5t99 -29.5q69 0 113.5 30t59.5 83h54q-20 -80 -79 -121t-149 -41zM124 292h313l2 10q6 32 6 57q0 116 -129 116q-80 0 -126.5 -42.5t-63.5 -130.5z" />
    <glyph glyph-name="Edotaccent" unicode="&#x116;" horiz-adv-x="582" 
d="M377 777l14 79h63l-13 -79h-64zM54 0l120 680h436l-9 -53h-379l-45 -251h329l-9 -53h-329l-48 -270h389l-9 -53h-446z" />
    <glyph glyph-name="edotaccent" unicode="&#x117;" horiz-adv-x="545" 
d="M305 620l14 79h63l-13 -79h-64zM235 -12q-92 0 -139 42t-47 124q0 33 4 53l18 102q18 104 81 159.5t165 55.5q89 0 135.5 -41.5t46.5 -122.5q0 -26 -5 -54l-10 -62h-368l-6 -37q-5 -33 -5 -50q0 -61 32 -90.5t99 -29.5q69 0 113.5 30t59.5 83h54q-20 -80 -79 -121
t-149 -41zM124 292h313l2 10q6 32 6 57q0 116 -129 116q-80 0 -126.5 -42.5t-63.5 -130.5z" />
    <glyph glyph-name="Eogonek" unicode="&#x118;" horiz-adv-x="582" 
d="M601 627h-379l-45 -251h329l-9 -53h-329l-48 -270h389l-9 -53h-12q-53 -27 -83 -58.5t-30 -61.5q0 -34 41 -34q27 0 60 17l-9 -47q-30 -14 -62 -14q-82 0 -82 68q0 70 95 130h-364l120 680h436z" />
    <glyph glyph-name="eogonek" unicode="&#x119;" horiz-adv-x="545" 
d="M317 524q89 0 135.5 -41.5t46.5 -122.5q0 -26 -5 -54l-10 -62h-368l-6 -37q-5 -33 -5 -50q0 -61 32 -90.5t99 -29.5q69 0 113.5 30t59.5 83h54q-22 -86 -90 -128q-96 -70 -96 -137q0 -39 42 -39q28 0 59 17l-9 -47q-28 -14 -62 -14q-82 0 -82 73q0 59 57 116
q-22 -3 -47 -3q-92 0 -139 42t-47 124q0 33 4 53l18 102q18 104 81 159.5t165 55.5zM439 302q6 32 6 57q0 116 -129 116q-80 0 -126.5 -42.5t-63.5 -130.5l-2 -10h313z" />
    <glyph glyph-name="Ecaron" unicode="&#x11a;" horiz-adv-x="582" 
d="M378 754l-86 127h54l64 -83l93 83h61l-131 -127h-55zM54 0l120 680h436l-9 -53h-379l-45 -251h329l-9 -53h-329l-48 -270h389l-9 -53h-446z" />
    <glyph glyph-name="ecaron" unicode="&#x11b;" horiz-adv-x="545" 
d="M306 597l-86 127h54l64 -83l93 83h61l-131 -127h-55zM235 -12q-92 0 -139 42t-47 124q0 33 4 53l18 102q18 104 81 159.5t165 55.5q89 0 135.5 -41.5t46.5 -122.5q0 -26 -5 -54l-10 -62h-368l-6 -37q-5 -33 -5 -50q0 -61 32 -90.5t99 -29.5q69 0 113.5 30t59.5 83h54
q-20 -80 -79 -121t-149 -41zM124 292h313l2 10q6 32 6 57q0 116 -129 116q-80 0 -126.5 -42.5t-63.5 -130.5z" />
    <glyph glyph-name="Gcircumflex" unicode="&#x11c;" horiz-adv-x="636" 
d="M271 754l130 127h55l86 -127h-54l-63 82l-93 -82h-61zM281 -12q-108 0 -165 50t-57 142q0 32 6 66l34 190q22 123 98 189.5t196 66.5q101 0 156.5 -47.5t55.5 -132.5q0 -19 -3 -37h-55q2 16 2 30q0 64 -40.5 99t-117.5 35q-96 0 -157 -54t-79 -154l-32 -182
q-6 -33 -6 -61q0 -147 167 -147q98 0 153.5 51.5t75.5 153.5l9 47h-167l9 53h223l-19 -105q-46 -253 -287 -253z" />
    <glyph glyph-name="gcircumflex" unicode="&#x11d;" horiz-adv-x="583" 
d="M204 597l130 127h55l86 -127h-54l-63 82l-93 -82h-61zM204 -194q-88 0 -135 34t-47 97q0 11 1 20h52v-12q0 -90 130 -90q82 0 128 37.5t60 114.5l19 107q-85 -104 -203 -104q-76 0 -116.5 41t-40.5 116q0 29 5 57l17 92q18 99 74.5 153.5t144.5 54.5q126 0 176 -117
l21 105h48l-90 -510q-34 -196 -244 -196zM218 60q122 0 209 140l25 137q-37 138 -156 138q-67 0 -109.5 -43.5t-57.5 -122.5l-16 -86q-5 -24 -5 -49q0 -114 110 -114z" />
    <glyph glyph-name="Gbreve" unicode="&#x11e;" horiz-adv-x="636" 
d="M411 757q-51 0 -78 27t-27 74v15h44v-12q0 -58 63 -58q73 0 91 70h45q-12 -55 -48 -85.5t-90 -30.5zM281 -12q-108 0 -165 50t-57 142q0 32 6 66l34 190q22 123 98 189.5t196 66.5q101 0 156.5 -47.5t55.5 -132.5q0 -19 -3 -37h-55q2 16 2 30q0 64 -40.5 99t-117.5 35
q-96 0 -157 -54t-79 -154l-32 -182q-6 -33 -6 -61q0 -147 167 -147q98 0 153.5 51.5t75.5 153.5l9 47h-167l9 53h223l-19 -105q-46 -253 -287 -253z" />
    <glyph glyph-name="gbreve" unicode="&#x11f;" horiz-adv-x="583" 
d="M344 600q-51 0 -78 27t-27 74v15h44v-12q0 -58 63 -58q73 0 91 70h45q-12 -55 -48 -85.5t-90 -30.5zM204 -194q-88 0 -135 34t-47 97q0 11 1 20h52v-12q0 -90 130 -90q82 0 128 37.5t60 114.5l19 107q-85 -104 -203 -104q-76 0 -116.5 41t-40.5 116q0 29 5 57l17 92
q18 99 74.5 153.5t144.5 54.5q126 0 176 -117l21 105h48l-90 -510q-34 -196 -244 -196zM218 60q122 0 209 140l25 137q-37 138 -156 138q-67 0 -109.5 -43.5t-57.5 -122.5l-16 -86q-5 -24 -5 -49q0 -114 110 -114z" />
    <glyph glyph-name="Gdotaccent" unicode="&#x120;" horiz-adv-x="636" 
d="M379 777l14 79h63l-13 -79h-64zM281 -12q-108 0 -165 50t-57 142q0 32 6 66l34 190q22 123 98 189.5t196 66.5q101 0 156.5 -47.5t55.5 -132.5q0 -19 -3 -37h-55q2 16 2 30q0 64 -40.5 99t-117.5 35q-96 0 -157 -54t-79 -154l-32 -182q-6 -33 -6 -61q0 -147 167 -147
q98 0 153.5 51.5t75.5 153.5l9 47h-167l9 53h223l-19 -105q-46 -253 -287 -253z" />
    <glyph glyph-name="gdotaccent" unicode="&#x121;" horiz-adv-x="583" 
d="M312 620l14 79h63l-13 -79h-64zM204 -194q-88 0 -135 34t-47 97q0 11 1 20h52v-12q0 -90 130 -90q82 0 128 37.5t60 114.5l19 107q-85 -104 -203 -104q-76 0 -116.5 41t-40.5 116q0 29 5 57l17 92q18 99 74.5 153.5t144.5 54.5q126 0 176 -117l21 105h48l-90 -510
q-34 -196 -244 -196zM218 60q122 0 209 140l25 137q-37 138 -156 138q-67 0 -109.5 -43.5t-57.5 -122.5l-16 -86q-5 -24 -5 -49q0 -114 110 -114z" />
    <glyph glyph-name="Gcommaaccent" unicode="&#x122;" horiz-adv-x="636" 
d="M281 -12q-108 0 -165 50t-57 142q0 32 6 66l34 190q22 123 98 189.5t196 66.5q101 0 156.5 -47.5t55.5 -132.5q0 -19 -3 -37h-55q2 16 2 30q0 64 -40.5 99t-117.5 35q-96 0 -157 -54t-79 -154l-32 -182q-6 -33 -6 -61q0 -147 167 -147q98 0 153.5 51.5t75.5 153.5l9 47
h-167l9 53h223l-19 -105q-46 -253 -287 -253zM199 -225l5 32q35 0 44 46h-26l11 64h64l-10 -56q-8 -46 -26 -65.5t-62 -20.5z" />
    <glyph glyph-name="gcommaaccent" unicode="&#x123;" horiz-adv-x="583" 
d="M406 737l-5 -32q-35 0 -44 -46h26l-11 -64h-64l10 56q8 46 26 65.5t62 20.5zM204 -194q-88 0 -135 34t-47 97q0 11 1 20h52v-12q0 -90 130 -90q82 0 128 37.5t60 114.5l19 107q-85 -104 -203 -104q-76 0 -116.5 41t-40.5 116q0 29 5 57l17 92q18 99 74.5 153.5
t144.5 54.5q126 0 176 -117l21 105h48l-90 -510q-34 -196 -244 -196zM218 60q122 0 209 140l25 137q-37 138 -156 138q-67 0 -109.5 -43.5t-57.5 -122.5l-16 -86q-5 -24 -5 -49q0 -114 110 -114z" />
    <glyph glyph-name="Hcircumflex" unicode="&#x124;" horiz-adv-x="695" 
d="M300 754l130 127h55l86 -127h-54l-63 82l-93 -82h-61zM54 0l120 681h57l-54 -304h383l54 304h57l-120 -681h-57l57 323h-383l-57 -323h-57z" />
    <glyph glyph-name="hcircumflex" unicode="&#x125;" horiz-adv-x="566" 
d="M79 804l130 127h55l86 -127h-54l-63 82l-93 -82h-61zM45 0l129 730h56l-54 -305q81 99 192 99q135 0 135 -132q0 -30 -5 -55l-59 -337h-56l58 332q5 25 5 52q0 89 -90 89q-114 0 -195 -136l-60 -337h-56z" />
    <glyph glyph-name="Hbar" unicode="&#x126;" horiz-adv-x="716" 
d="M738 543l-9 -49h-81l-87 -494h-57l57 323h-383l-57 -323h-57l87 494h-80l9 49h80l24 138h57l-25 -138h383l25 138h57l-24 -138h81zM570 377l21 117h-383l-21 -117h383z" />
    <glyph glyph-name="hbar" unicode="&#x127;" horiz-adv-x="574" 
d="M376 524q135 0 135 -132q0 -30 -5 -55l-59 -337h-56l58 332q5 25 5 52q0 89 -90 89q-114 0 -195 -136l-60 -337h-56l104 589h-89l8 46h89l17 95h56l-17 -95h139l-9 -46h-138l-29 -164q81 99 192 99z" />
    <glyph glyph-name="Itilde" unicode="&#x128;" horiz-adv-x="255" 
d="M275 767q-29 0 -59 29q-22 22 -38 22q-33 0 -47 -52h-41q22 99 89 99q29 0 59 -30q22 -22 39 -22q33 0 47 52h41q-24 -98 -90 -98zM54 0l120 680h57l-120 -680h-57z" />
    <glyph glyph-name="itilde" unicode="&#x129;" horiz-adv-x="236" 
d="M237 610q-29 0 -59 29q-22 22 -38 22q-33 0 -47 -52h-41q22 99 89 99q29 0 59 -30q22 -22 39 -22q33 0 47 52h41q-24 -98 -90 -98zM45 0l90 512h56l-90 -512h-56z" />
    <glyph glyph-name="Imacron" unicode="&#x12a;" horiz-adv-x="255" 
d="M124 795l8 45h199l-9 -45h-198zM54 0l120 680h57l-120 -680h-57z" />
    <glyph glyph-name="imacron" unicode="&#x12b;" horiz-adv-x="236" 
d="M86 638l8 45h199l-9 -45h-198zM45 0l90 512h56l-90 -512h-56z" />
    <glyph glyph-name="Ibreve" unicode="&#x12c;" horiz-adv-x="255" 
d="M220 757q-49 0 -74.5 26.5t-25.5 72.5q0 10 1 17h43v-15q0 -55 58 -55q70 0 86 70h45q-11 -55 -45.5 -85.5t-87.5 -30.5zM54 0l120 680h57l-120 -680h-57z" />
    <glyph glyph-name="ibreve" unicode="&#x12d;" horiz-adv-x="236" 
d="M182 600q-49 0 -74.5 26.5t-25.5 72.5q0 10 1 17h43v-15q0 -55 58 -55q70 0 86 70h45q-11 -55 -45.5 -85.5t-87.5 -30.5zM45 0l90 512h56l-90 -512h-56z" />
    <glyph glyph-name="Iogonek" unicode="&#x12e;" horiz-adv-x="255" 
d="M21 -118q0 -36 41 -36q26 0 61 17l-9 -47q-28 -14 -63 -14q-40 0 -61 18t-21 51q0 65 85 131l120 678h57l-120 -680h-3q-87 -64 -87 -118z" />
    <glyph glyph-name="iogonek" unicode="&#x12f;" horiz-adv-x="236" 
d="M165 701h63l-14 -83h-63zM98 0q-87 -64 -87 -118q0 -36 41 -36q26 0 61 17l-9 -47q-28 -14 -63 -14q-40 0 -61 18t-21 51q0 67 86 131l90 510h56l-90 -512h-3z" />
    <glyph glyph-name="Idotaccent" unicode="&#x130;" horiz-adv-x="255" 
d="M188 777l14 79h63l-13 -79h-64zM54 0l120 680h57l-120 -680h-57z" />
    <glyph glyph-name="dotlessi" unicode="&#x131;" horiz-adv-x="236" 
d="M45 0l90 512h56l-90 -512h-56z" />
    <glyph glyph-name="IJ" unicode="&#x132;" horiz-adv-x="804" 
d="M54 0l120 680h57l-120 -680h-57zM451 -12q-99 0 -145 40t-46 126q0 33 5 59l2 11h55l-1 -11q0 -2 -3 -24.5t-3 -33.5q0 -60 33 -87t105 -27q94 0 142.5 44.5t66.5 146.5l79 448h57l-80 -457q-21 -121 -85 -178t-182 -57z" />
    <glyph glyph-name="ij" unicode="&#x133;" horiz-adv-x="472" 
d="M151 618l14 83h63l-14 -83h-63zM387 618l14 83h63l-14 -83h-63zM45 0l90 512h56l-90 -512h-56zM155 -182l9 49h21q42 0 60.5 18.5t27.5 68.5l98 558h56l-99 -560q-13 -72 -45 -103t-94 -31h-34z" />
    <glyph glyph-name="Jcircumflex" unicode="&#x134;" horiz-adv-x="549" 
d="M396 754l125 127h56l80 -127h-53l-59 82l-89 -82h-60zM196 -12q-99 0 -145 40t-46 126q0 33 5 59l2 11h55l-1 -11q0 -2 -3 -24.5t-3 -33.5q0 -60 33 -87t105 -27q94 0 142.5 44.5t66.5 146.5l79 448h57l-80 -457q-21 -121 -85 -178t-182 -57z" />
    <glyph glyph-name="jcircumflex" unicode="&#x135;" horiz-adv-x="236" 
d="M47 597l125 127h56l80 -127h-53l-59 82l-89 -82h-60zM-81 -182l9 49h21q42 0 60.5 18.5t27.5 68.5l98 558h56l-99 -560q-13 -72 -45 -103t-94 -31h-34z" />
    <glyph glyph-name="Kcommaaccent" unicode="&#x136;" horiz-adv-x="617" 
d="M54 0l120 680h57l-70 -395l440 395h75l-308 -278l192 -402h-64l-172 362l-177 -157l-36 -205h-57zM210 -225l5 32q35 0 44 46h-26l11 64h64l-10 -56q-8 -46 -26 -65.5t-62 -20.5z" />
    <glyph glyph-name="kcommaaccent" unicode="&#x137;" horiz-adv-x="521" 
d="M45 0l129 730h56l-89 -501l334 283h74l-247 -210l161 -302h-63l-141 265l-130 -109l-28 -156h-56zM161 -225l5 32q35 0 44 46h-26l11 64h64l-10 -56q-8 -46 -26 -65.5t-62 -20.5z" />
    <glyph glyph-name="kgreenlandic" unicode="&#x138;" horiz-adv-x="521" 
d="M45 0l90 512h56l-50 -284l334 284h74l-247 -210l161 -302h-63l-141 265l-131 -109l-27 -156h-56z" />
    <glyph glyph-name="Lacute" unicode="&#x139;" horiz-adv-x="520" 
d="M158 754l130 127h75l-144 -127h-61zM54 0l120 680h57l-111 -627h357l-9 -53h-414z" />
    <glyph glyph-name="lacute" unicode="&#x13a;" horiz-adv-x="236" 
d="M157 804l130 127h75l-144 -127h-61zM45 0l129 730h56l-129 -730h-56z" />
    <glyph glyph-name="Lcommaaccent" unicode="&#x13b;" horiz-adv-x="520" 
d="M54 0l120 680h57l-111 -627h357l-9 -53h-414zM179 -225l5 32q35 0 44 46h-26l11 64h64l-10 -56q-8 -46 -26 -65.5t-62 -20.5z" />
    <glyph glyph-name="lcommaaccent" unicode="&#x13c;" horiz-adv-x="236" 
d="M45 0l129 730h56l-129 -730h-56zM-8 -225l5 32q35 0 44 46h-26l11 64h64l-10 -56q-8 -46 -26 -65.5t-62 -20.5z" />
    <glyph glyph-name="Lcaron" unicode="&#x13d;" horiz-adv-x="520" 
d="M54 0l120 680h57l-111 -627h357l-9 -53h-414zM264 485l75 195h63l-94 -195h-44z" />
    <glyph glyph-name="lcaron" unicode="&#x13e;" horiz-adv-x="236" 
d="M45 0l129 730h56l-129 -730h-56zM243 535l75 195h63l-94 -195h-44z" />
    <glyph glyph-name="Ldot" unicode="&#x13f;" horiz-adv-x="520" 
d="M54 0l120 680h57l-111 -627h357l-9 -53h-414zM363 310l16 82h68l-15 -82h-69z" />
    <glyph glyph-name="ldot" unicode="&#x140;" horiz-adv-x="246" 
d="M45 0l129 730h56l-129 -730h-56zM219 321l15 78h68l-16 -78h-67z" />
    <glyph glyph-name="Lslash" unicode="&#x141;" horiz-adv-x="530" 
d="M130 53h357l-9 -53h-414l39 219l-91 -57l10 60l91 57l71 401h57l-64 -361l248 155l-10 -60l-249 -155z" />
    <glyph glyph-name="lslash" unicode="&#x142;" horiz-adv-x="258" 
d="M292 494l-11 -59l-105 -71l-64 -364h-56l57 321l-107 -73l10 59l107 73l62 350h56l-54 -307z" />
    <glyph glyph-name="Nacute" unicode="&#x143;" horiz-adv-x="693" 
d="M376 754l130 127h75l-144 -127h-61zM613 680h55l-119 -680h-55l-278 603l-106 -603h-56l120 680h66l270 -586z" />
    <glyph glyph-name="nacute" unicode="&#x144;" horiz-adv-x="566" 
d="M287 597l130 127h75l-144 -127h-61zM45 0l90 512h48l-14 -97q81 109 199 109q135 0 135 -132q0 -30 -5 -55l-59 -337h-56l58 332q5 25 5 52q0 89 -90 89q-114 0 -195 -135l-60 -338h-56z" />
    <glyph glyph-name="Ncommaaccent" unicode="&#x145;" horiz-adv-x="693" 
d="M613 680h55l-119 -680h-55l-278 603l-106 -603h-56l120 680h66l270 -586zM220 -225l5 32q35 0 44 46h-26l11 64h64l-10 -56q-8 -46 -26 -65.5t-62 -20.5z" />
    <glyph glyph-name="ncommaaccent" unicode="&#x146;" horiz-adv-x="566" 
d="M45 0l90 512h48l-14 -97q81 109 199 109q135 0 135 -132q0 -30 -5 -55l-59 -337h-56l58 332q5 25 5 52q0 89 -90 89q-114 0 -195 -135l-60 -338h-56zM161 -225l5 32q35 0 44 46h-26l11 64h64l-10 -56q-8 -46 -26 -65.5t-62 -20.5z" />
    <glyph glyph-name="Ncaron" unicode="&#x147;" horiz-adv-x="693" 
d="M407 754l-86 127h54l64 -83l93 83h61l-131 -127h-55zM613 680h55l-119 -680h-55l-278 603l-106 -603h-56l120 680h66l270 -586z" />
    <glyph glyph-name="ncaron" unicode="&#x148;" horiz-adv-x="566" 
d="M318 597l-86 127h54l64 -83l93 83h61l-131 -127h-55zM45 0l90 512h48l-14 -97q81 109 199 109q135 0 135 -132q0 -30 -5 -55l-59 -337h-56l58 332q5 25 5 52q0 89 -90 89q-114 0 -195 -135l-60 -338h-56z" />
    <glyph glyph-name="napostrophe" unicode="&#x149;" horiz-adv-x="566" 
d="M133 568l5 31q36 1 42 45l1 7h-24l12 72h64l-13 -72q-7 -42 -26 -62t-61 -21zM45 0l90 512h48l-14 -97q81 109 199 109q135 0 135 -132q0 -30 -5 -55l-59 -337h-56l58 332q5 25 5 52q0 89 -90 89q-114 0 -195 -135l-60 -338h-56z" />
    <glyph glyph-name="Eng" unicode="&#x14a;" horiz-adv-x="694" 
d="M365 -182l9 49h24q42 0 60.5 19t27.5 69l8 45l-278 603l-106 -603h-56l120 680h66l270 -587l103 587h56l-128 -728q-13 -72 -45 -103t-94 -31h-37z" />
    <glyph glyph-name="eng" unicode="&#x14b;" horiz-adv-x="566" 
d="M255 -182l9 48h23q42 0 60.5 19t27.5 69l66 378q5 25 5 52q0 89 -90 89q-114 0 -195 -135l-60 -338h-56l90 512h48l-14 -97q81 109 199 109q135 0 135 -132q0 -30 -5 -55l-68 -385q-13 -72 -45 -103t-94 -31h-36z" />
    <glyph glyph-name="Omacron" unicode="&#x14c;" horiz-adv-x="652" 
d="M314 795l8 45h214l-8 -45h-214zM283 -12q-109 0 -165.5 49.5t-56.5 146.5q0 39 6 70l32 176q47 262 301 262q109 0 165.5 -49.5t56.5 -146.5q0 -34 -7 -70l-31 -176q-22 -130 -98.5 -196t-202.5 -66zM285 41q206 0 243 214l30 171q6 33 6 65q0 148 -167 148
q-206 0 -243 -214l-30 -171q-6 -33 -6 -65q0 -148 167 -148z" />
    <glyph glyph-name="omacron" unicode="&#x14d;" horiz-adv-x="559" 
d="M239 638l8 45h214l-8 -45h-214zM236 -12q-92 0 -139.5 43t-47.5 124q0 30 5 55l17 94q20 108 83.5 164t168.5 56q92 0 139.5 -42.5t47.5 -123.5q0 -31 -5 -56l-17 -94q-20 -108 -83.5 -164t-168.5 -56zM238 37q163 0 195 177l16 89q4 23 4 49q0 123 -132 123
q-163 0 -195 -177l-16 -89q-4 -23 -4 -49q0 -123 132 -123z" />
    <glyph glyph-name="Obreve" unicode="&#x14e;" horiz-adv-x="652" 
d="M418 757q-51 0 -78 27t-27 74v15h44v-12q0 -58 63 -58q73 0 91 70h45q-12 -55 -48 -85.5t-90 -30.5zM283 -12q-109 0 -165.5 49.5t-56.5 146.5q0 39 6 70l32 176q47 262 301 262q109 0 165.5 -49.5t56.5 -146.5q0 -34 -7 -70l-31 -176q-22 -130 -98.5 -196t-202.5 -66z
M285 41q206 0 243 214l30 171q6 33 6 65q0 148 -167 148q-206 0 -243 -214l-30 -171q-6 -33 -6 -65q0 -148 167 -148z" />
    <glyph glyph-name="obreve" unicode="&#x14f;" horiz-adv-x="559" 
d="M343 600q-51 0 -78 27t-27 74v15h44v-12q0 -58 63 -58q73 0 91 70h45q-12 -55 -48 -85.5t-90 -30.5zM236 -12q-92 0 -139.5 43t-47.5 124q0 30 5 55l17 94q20 108 83.5 164t168.5 56q92 0 139.5 -42.5t47.5 -123.5q0 -31 -5 -56l-17 -94q-20 -108 -83.5 -164t-168.5 -56z
M238 37q163 0 195 177l16 89q4 23 4 49q0 123 -132 123q-163 0 -195 -177l-16 -89q-4 -23 -4 -49q0 -123 132 -123z" />
    <glyph glyph-name="Ohungarumlaut" unicode="&#x150;" horiz-adv-x="652" 
d="M288 754l108 127h73l-124 -127h-57zM447 754l108 127h73l-124 -127h-57zM283 -12q-109 0 -165.5 49.5t-56.5 146.5q0 39 6 70l32 176q47 262 301 262q109 0 165.5 -49.5t56.5 -146.5q0 -34 -7 -70l-31 -176q-22 -130 -98.5 -196t-202.5 -66zM285 41q206 0 243 214l30 171
q6 33 6 65q0 148 -167 148q-206 0 -243 -214l-30 -171q-6 -33 -6 -65q0 -148 167 -148z" />
    <glyph glyph-name="ohungarumlaut" unicode="&#x151;" horiz-adv-x="559" 
d="M213 597l108 127h73l-124 -127h-57zM372 597l108 127h73l-124 -127h-57zM236 -12q-92 0 -139.5 43t-47.5 124q0 30 5 55l17 94q20 108 83.5 164t168.5 56q92 0 139.5 -42.5t47.5 -123.5q0 -31 -5 -56l-17 -94q-20 -108 -83.5 -164t-168.5 -56zM238 37q163 0 195 177
l16 89q4 23 4 49q0 123 -132 123q-163 0 -195 -177l-16 -89q-4 -23 -4 -49q0 -123 132 -123z" />
    <glyph glyph-name="OE" unicode="&#x152;" horiz-adv-x="920" 
d="M280 0q-221 0 -221 183q0 34 8 80l28 159q24 135 95.5 196.5t203.5 61.5h554l-9 -53h-353l-45 -251h303l-9 -53h-303l-48 -270h363l-9 -53h-558zM289 53h138l102 574h-136q-107 0 -164 -50t-77 -158l-29 -159q-6 -31 -6 -68q0 -74 41 -106.5t131 -32.5z" />
    <glyph glyph-name="oe" unicode="&#x153;" horiz-adv-x="923" 
d="M699 524q178 0 178 -163q0 -27 -5 -55l-10 -62h-368l-6 -37q-5 -33 -5 -50q0 -61 32 -90.5t99 -29.5q69 0 113.5 29.5t59.5 83.5h54q-20 -80 -79 -121t-147 -41q-149 0 -174 111q-62 -111 -206 -111q-91 0 -138.5 43t-47.5 124q0 30 5 55l17 94q20 108 83.5 164t166.5 56
q146 0 173 -111q62 111 205 111zM238 37q163 0 195 177l16 89q4 23 4 49q0 123 -132 123q-163 0 -195 -177l-16 -89q-4 -23 -4 -49q0 -123 132 -123zM502 292h313l2 10q6 32 6 57q0 116 -129 116q-80 0 -126.5 -42.5t-63.5 -130.5z" />
    <glyph glyph-name="Racute" unicode="&#x154;" horiz-adv-x="629" 
d="M337 754l130 127h75l-144 -127h-61zM54 0l120 680h252q100 0 142.5 -36t42.5 -120q0 -98 -50 -157t-144 -73l129 -294h-62l-127 290h-195l-51 -290h-57zM172 343h191q93 0 142 46t49 132q0 60 -29.5 83t-107.5 23h-195z" />
    <glyph glyph-name="racute" unicode="&#x155;" horiz-adv-x="346" 
d="M194 597l130 127h75l-144 -127h-61zM45 0l90 512h48l-15 -104q60 114 176 114h35l-9 -54h-26q-65 0 -111 -37.5t-77 -118.5l-55 -312h-56z" />
    <glyph glyph-name="Rcommaaccent" unicode="&#x156;" horiz-adv-x="629" 
d="M54 0l120 680h252q100 0 142.5 -36t42.5 -120q0 -98 -50 -157t-144 -73l129 -294h-62l-127 290h-195l-51 -290h-57zM172 343h191q93 0 142 46t49 132q0 60 -29.5 83t-107.5 23h-195zM207 -225l5 32q35 0 44 46h-26l11 64h64l-10 -56q-8 -46 -26 -65.5t-62 -20.5z" />
    <glyph glyph-name="rcommaaccent" unicode="&#x157;" horiz-adv-x="346" 
d="M45 0l90 512h48l-15 -104q60 114 176 114h35l-9 -54h-26q-65 0 -111 -37.5t-77 -118.5l-55 -312h-56zM-8 -225l5 32q35 0 44 46h-26l11 64h64l-10 -56q-8 -46 -26 -65.5t-62 -20.5z" />
    <glyph glyph-name="Rcaron" unicode="&#x158;" horiz-adv-x="629" 
d="M368 754l-86 127h54l64 -83l93 83h61l-131 -127h-55zM54 0l120 680h252q100 0 142.5 -36t42.5 -120q0 -98 -50 -157t-144 -73l129 -294h-62l-127 290h-195l-51 -290h-57zM172 343h191q93 0 142 46t49 132q0 60 -29.5 83t-107.5 23h-195z" />
    <glyph glyph-name="rcaron" unicode="&#x159;" horiz-adv-x="346" 
d="M225 597l-86 127h54l64 -83l93 83h61l-131 -127h-55zM45 0l90 512h48l-15 -104q60 114 176 114h35l-9 -54h-26q-65 0 -111 -37.5t-77 -118.5l-55 -312h-56z" />
    <glyph glyph-name="Sacute" unicode="&#x15a;" horiz-adv-x="556" 
d="M304 754l130 127h75l-144 -127h-61zM240 -12q-106 0 -162 39.5t-56 112.5q0 19 3 40h57q-3 -18 -3 -32q0 -107 163 -107q98 0 152.5 44.5t54.5 128.5q0 44 -38 69t-126 39q-105 17 -149 49.5t-44 93.5q0 108 70.5 167.5t189.5 59.5q200 0 200 -146q0 -18 -3 -41h-57
q3 19 3 34q0 52 -35 76t-108 24q-93 0 -148 -43.5t-55 -121.5q0 -41 35 -63t122 -36q108 -18 154 -53.5t46 -100.5q0 -113 -71 -173t-195 -60z" />
    <glyph glyph-name="sacute" unicode="&#x15b;" horiz-adv-x="496" 
d="M245 597l130 127h75l-144 -127h-61zM201 -12q-88 0 -135 32.5t-47 93.5q0 14 3 31h53q-2 -16 -2 -24q0 -84 131 -84q78 0 124.5 30.5t46.5 85.5q0 37 -31 56t-106 28q-88 10 -126.5 37.5t-38.5 80.5q0 77 60 123t158 46q80 0 124.5 -32.5t44.5 -90.5q0 -14 -3 -29h-54
q2 8 2 23q0 81 -117 81q-71 0 -115.5 -31.5t-44.5 -82.5q0 -33 29.5 -50t101.5 -25q91 -10 131.5 -40t40.5 -86q0 -83 -62 -128t-168 -45z" />
    <glyph glyph-name="Scircumflex" unicode="&#x15c;" horiz-adv-x="556" 
d="M226 754l130 127h55l86 -127h-54l-63 82l-93 -82h-61zM240 -12q-106 0 -162 39.5t-56 112.5q0 19 3 40h57q-3 -18 -3 -32q0 -107 163 -107q98 0 152.5 44.5t54.5 128.5q0 44 -38 69t-126 39q-105 17 -149 49.5t-44 93.5q0 108 70.5 167.5t189.5 59.5q200 0 200 -146
q0 -18 -3 -41h-57q3 19 3 34q0 52 -35 76t-108 24q-93 0 -148 -43.5t-55 -121.5q0 -41 35 -63t122 -36q108 -18 154 -53.5t46 -100.5q0 -113 -71 -173t-195 -60z" />
    <glyph glyph-name="scircumflex" unicode="&#x15d;" horiz-adv-x="496" 
d="M167 597l130 127h55l86 -127h-54l-63 82l-93 -82h-61zM201 -12q-88 0 -135 32.5t-47 93.5q0 14 3 31h53q-2 -16 -2 -24q0 -84 131 -84q78 0 124.5 30.5t46.5 85.5q0 37 -31 56t-106 28q-88 10 -126.5 37.5t-38.5 80.5q0 77 60 123t158 46q80 0 124.5 -32.5t44.5 -90.5
q0 -14 -3 -29h-54q2 8 2 23q0 81 -117 81q-71 0 -115.5 -31.5t-44.5 -82.5q0 -33 29.5 -50t101.5 -25q91 -10 131.5 -40t40.5 -86q0 -83 -62 -128t-168 -45z" />
    <glyph glyph-name="Scedilla" unicode="&#x15e;" horiz-adv-x="556" 
d="M549 505h-57q3 19 3 34q0 52 -35 76t-108 24q-93 0 -148 -43.5t-55 -121.5q0 -41 35 -63t122 -36q108 -18 154 -53.5t46 -100.5q0 -108 -65 -168t-181 -65l-31 -56q78 0 78 -55q0 -36 -29 -55.5t-83 -19.5q-52 0 -89 19l19 34q25 -18 62 -18q32 0 50 11.5t18 31.5
q0 13 -11 17t-44 4h-27l48 87q-97 4 -148 43.5t-51 108.5q0 19 3 40h57q-3 -18 -3 -32q0 -107 163 -107q98 0 152.5 44.5t54.5 128.5q0 44 -38 69t-126 39q-105 17 -149 49.5t-44 93.5q0 108 70.5 167.5t189.5 59.5q200 0 200 -146q0 -18 -3 -41z" />
    <glyph glyph-name="scedilla" unicode="&#x15f;" horiz-adv-x="496" 
d="M457 372h-54q2 8 2 23q0 81 -117 81q-71 0 -115.5 -31.5t-44.5 -82.5q0 -33 29.5 -50t101.5 -25q91 -10 131.5 -40t40.5 -86q0 -77 -55 -122t-150 -50l-31 -57q78 0 78 -55q0 -36 -29 -55.5t-83 -19.5q-52 0 -89 19l19 34q25 -18 62 -18q32 0 50 11.5t18 31.5
q0 13 -11 17t-44 4h-27l47 87q-81 3 -124 35.5t-43 90.5q0 14 3 31h53q-2 -16 -2 -24q0 -84 131 -84q78 0 124.5 30.5t46.5 85.5q0 37 -31 56t-106 28q-88 10 -126.5 37.5t-38.5 80.5q0 77 60 123t158 46q80 0 124.5 -32.5t44.5 -90.5q0 -14 -3 -29z" />
    <glyph glyph-name="Scaron" unicode="&#x160;" horiz-adv-x="556" 
d="M335 754l-86 127h54l64 -83l93 83h61l-131 -127h-55zM240 -12q-106 0 -162 39.5t-56 112.5q0 19 3 40h57q-3 -18 -3 -32q0 -107 163 -107q98 0 152.5 44.5t54.5 128.5q0 44 -38 69t-126 39q-105 17 -149 49.5t-44 93.5q0 108 70.5 167.5t189.5 59.5q200 0 200 -146
q0 -18 -3 -41h-57q3 19 3 34q0 52 -35 76t-108 24q-93 0 -148 -43.5t-55 -121.5q0 -41 35 -63t122 -36q108 -18 154 -53.5t46 -100.5q0 -113 -71 -173t-195 -60z" />
    <glyph glyph-name="scaron" unicode="&#x161;" horiz-adv-x="496" 
d="M276 597l-86 127h54l64 -83l93 83h61l-131 -127h-55zM201 -12q-88 0 -135 32.5t-47 93.5q0 14 3 31h53q-2 -16 -2 -24q0 -84 131 -84q78 0 124.5 30.5t46.5 85.5q0 37 -31 56t-106 28q-88 10 -126.5 37.5t-38.5 80.5q0 77 60 123t158 46q80 0 124.5 -32.5t44.5 -90.5
q0 -14 -3 -29h-54q2 8 2 23q0 81 -117 81q-71 0 -115.5 -31.5t-44.5 -82.5q0 -33 29.5 -50t101.5 -25q91 -10 131.5 -40t40.5 -86q0 -83 -62 -128t-168 -45z" />
    <glyph glyph-name="uni0162" unicode="&#x162;" horiz-adv-x="501" 
d="M82 680h486l-9 -53h-214l-111 -627h-7l-39 -68q78 0 78 -55q0 -36 -29 -55.5t-83 -19.5q-52 0 -89 19l19 34q26 -18 62 -18q32 0 50 11.5t18 31.5q0 13 -11 17t-44 4h-27l56 99h-11l111 627h-215z" />
    <glyph glyph-name="uni0163" unicode="&#x163;" horiz-adv-x="332" 
d="M203 466l-55 -315q-5 -28 -5 -45q0 -32 16 -44.5t55 -12.5h62l-9 -49h-69q-10 0 -26 2l-38 -70q78 0 78 -55q0 -36 -29 -55.5t-83 -19.5q-52 0 -89 19l19 34q26 -18 62 -18q32 0 50 11.5t18 31.5q0 13 -11 17t-44 4h-27l59 109q-50 22 -50 92q0 24 5 52l55 312h-97l8 46
h98l29 140h51l-25 -140h140l-9 -46h-139z" />
    <glyph glyph-name="Tcaron" unicode="&#x164;" horiz-adv-x="501" 
d="M312 754l-86 127h54l64 -83l93 83h61l-131 -127h-55zM177 0l111 627h-215l9 53h486l-9 -53h-214l-111 -627h-57z" />
    <glyph glyph-name="tcaron" unicode="&#x165;" horiz-adv-x="332" 
d="M272 580l75 195h63l-94 -195h-44zM198 0q-111 0 -111 102q0 24 5 52l55 312h-97l8 46h98l29 140h51l-25 -140h140l-9 -46h-139l-55 -315q-5 -28 -5 -45q0 -32 16 -44.5t55 -12.5h62l-9 -49h-69z" />
    <glyph glyph-name="Tbar" unicode="&#x166;" horiz-adv-x="501" 
d="M559 627h-214l-44 -247h143l-9 -53h-143l-58 -327h-57l58 327h-144l9 53h144l44 247h-215l9 53h486z" />
    <glyph glyph-name="tbar" unicode="&#x167;" horiz-adv-x="332" 
d="M342 466h-139l-23 -129h130l-8 -46h-130l-24 -140q-5 -28 -5 -45q0 -32 16 -44.5t55 -12.5h62l-9 -49h-69q-111 0 -111 102q0 24 5 52l24 137h-90l8 46h90l23 129h-97l8 46h98l29 140h51l-25 -140h140z" />
    <glyph glyph-name="Utilde" unicode="&#x168;" horiz-adv-x="643" 
d="M472 767q-33 0 -63 29q-23 22 -40 22q-33 0 -49 -52h-42q22 99 92 99q33 0 63 -29q23 -23 40 -23q33 0 49 52h42q-23 -98 -92 -98zM278 -13q-110 0 -160.5 40t-50.5 125q0 32 7 71l81 457h57l-81 -460q-6 -31 -6 -62q0 -65 37 -91.5t118 -26.5q103 0 154 41.5t68 141.5
l80 457h56l-81 -460q-21 -123 -85.5 -178t-193.5 -55z" />
    <glyph glyph-name="utilde" unicode="&#x169;" horiz-adv-x="570" 
d="M403 610q-33 0 -63 29q-23 22 -40 22q-33 0 -49 -52h-42q23 99 92 99q33 0 63 -29q23 -23 40 -23q33 0 49 52h42q-23 -98 -92 -98zM200 -12q-137 0 -137 134q0 21 5 53l60 337h56l-59 -334q-5 -25 -5 -49q0 -90 92 -90q114 0 197 133l60 340h56l-90 -512h-48l14 95
q-83 -107 -201 -107z" />
    <glyph glyph-name="Umacron" unicode="&#x16a;" horiz-adv-x="643" 
d="M310 795l8 45h214l-8 -45h-214zM278 -13q-110 0 -160.5 40t-50.5 125q0 32 7 71l81 457h57l-81 -460q-6 -31 -6 -62q0 -65 37 -91.5t118 -26.5q103 0 154 41.5t68 141.5l80 457h56l-81 -460q-21 -123 -85.5 -178t-193.5 -55z" />
    <glyph glyph-name="umacron" unicode="&#x16b;" horiz-adv-x="570" 
d="M241 638l8 45h214l-8 -45h-214zM200 -12q-137 0 -137 134q0 21 5 53l60 337h56l-59 -334q-5 -25 -5 -49q0 -90 92 -90q114 0 197 133l60 340h56l-90 -512h-48l14 95q-83 -107 -201 -107z" />
    <glyph glyph-name="Ubreve" unicode="&#x16c;" horiz-adv-x="643" 
d="M414 757q-51 0 -78 27t-27 74v15h44v-12q0 -58 63 -58q73 0 91 70h45q-12 -55 -48 -85.5t-90 -30.5zM278 -13q-110 0 -160.5 40t-50.5 125q0 32 7 71l81 457h57l-81 -460q-6 -31 -6 -62q0 -65 37 -91.5t118 -26.5q103 0 154 41.5t68 141.5l80 457h56l-81 -460
q-21 -123 -85.5 -178t-193.5 -55z" />
    <glyph glyph-name="ubreve" unicode="&#x16d;" horiz-adv-x="570" 
d="M345 600q-51 0 -78 27t-27 74v15h44v-12q0 -58 63 -58q73 0 91 70h45q-12 -55 -48 -85.5t-90 -30.5zM200 -12q-137 0 -137 134q0 21 5 53l60 337h56l-59 -334q-5 -25 -5 -49q0 -90 92 -90q114 0 197 133l60 340h56l-90 -512h-48l14 95q-83 -107 -201 -107z" />
    <glyph glyph-name="Uring" unicode="&#x16e;" horiz-adv-x="643" 
d="M416 742q-37 0 -60.5 22.5t-23.5 58.5q0 42 29 70.5t72 28.5q38 0 61 -22.5t23 -59.5q0 -41 -29 -69.5t-72 -28.5zM417 782q24 0 40.5 17t16.5 42q0 19 -12 30t-31 11q-24 0 -40.5 -17t-16.5 -42q0 -19 11.5 -30t31.5 -11zM278 -13q-110 0 -160.5 40t-50.5 125q0 32 7 71
l81 457h57l-81 -460q-6 -31 -6 -62q0 -65 37 -91.5t118 -26.5q103 0 154 41.5t68 141.5l80 457h56l-81 -460q-21 -123 -85.5 -178t-193.5 -55z" />
    <glyph glyph-name="uring" unicode="&#x16f;" horiz-adv-x="570" 
d="M347 585q-37 0 -60.5 22.5t-23.5 58.5q0 42 29 70.5t72 28.5q38 0 61 -22.5t23 -59.5q0 -41 -29 -69.5t-72 -28.5zM348 625q24 0 40.5 17t16.5 42q0 19 -12 30t-31 11q-24 0 -40.5 -17t-16.5 -42q0 -19 11.5 -30t31.5 -11zM200 -12q-137 0 -137 134q0 21 5 53l60 337h56
l-59 -334q-5 -25 -5 -49q0 -90 92 -90q114 0 197 133l60 340h56l-90 -512h-48l14 95q-83 -107 -201 -107z" />
    <glyph glyph-name="Uhungarumlaut" unicode="&#x170;" horiz-adv-x="643" 
d="M284 754l108 127h73l-124 -127h-57zM443 754l108 127h73l-124 -127h-57zM278 -13q-110 0 -160.5 40t-50.5 125q0 32 7 71l81 457h57l-81 -460q-6 -31 -6 -62q0 -65 37 -91.5t118 -26.5q103 0 154 41.5t68 141.5l80 457h56l-81 -460q-21 -123 -85.5 -178t-193.5 -55z" />
    <glyph glyph-name="uhungarumlaut" unicode="&#x171;" horiz-adv-x="570" 
d="M215 597l108 127h73l-124 -127h-57zM374 597l108 127h73l-124 -127h-57zM200 -12q-137 0 -137 134q0 21 5 53l60 337h56l-59 -334q-5 -25 -5 -49q0 -90 92 -90q114 0 197 133l60 340h56l-90 -512h-48l14 95q-83 -107 -201 -107z" />
    <glyph glyph-name="Uogonek" unicode="&#x172;" horiz-adv-x="643" 
d="M582 680h56l-81 -460q-18 -100 -62 -154t-126 -71q-55 -22 -85 -52t-30 -62q0 -35 41 -35q29 0 60 17l-9 -47q-28 -14 -61 -14q-83 0 -83 69q0 65 80 116h-4q-110 0 -160.5 40t-50.5 125q0 32 7 71l81 457h57l-81 -460q-6 -31 -6 -62q0 -65 37 -91.5t118 -26.5
q103 0 154 41.5t68 141.5z" />
    <glyph glyph-name="uogonek" unicode="&#x173;" horiz-adv-x="570" 
d="M423 0q-53 -27 -83 -58.5t-30 -61.5q0 -34 41 -34q27 0 60 17l-9 -47q-30 -14 -62 -14q-82 0 -82 68q0 83 132 151l11 74q-83 -107 -201 -107q-137 0 -137 134q0 21 5 53l60 337h56l-59 -334q-5 -25 -5 -49q0 -90 92 -90q114 0 197 133l60 340h56l-90 -512h-12z" />
    <glyph glyph-name="Wcircumflex" unicode="&#x174;" horiz-adv-x="871" 
d="M388 754l130 127h55l86 -127h-54l-63 82l-93 -82h-61zM161 0l-73 680h57l61 -589l274 589h58l67 -590l268 590h60l-312 -680h-59l-68 588l-275 -588h-58z" />
    <glyph glyph-name="wcircumflex" unicode="&#x175;" horiz-adv-x="773" 
d="M311 597l130 127h55l86 -127h-54l-63 82l-93 -82h-61zM139 0l-78 512h57l63 -442l222 442h56l66 -442l218 442h59l-258 -512h-60l-66 433l-218 -433h-61z" />
    <glyph glyph-name="Ycircumflex" unicode="&#x176;" horiz-adv-x="540" 
d="M222 754l130 127h55l86 -127h-54l-63 82l-93 -82h-61zM196 0l53 300l-177 380h64l150 -322l262 322h69l-311 -383l-53 -297h-57z" />
    <glyph glyph-name="ycircumflex" unicode="&#x177;" horiz-adv-x="464" 
d="M157 597l130 127h55l86 -127h-54l-63 82l-93 -82h-61zM-20 -182l9 49h32q35 0 55.5 14t43.5 57l48 89l-107 485h58l89 -418l226 418h59l-321 -588q-34 -61 -66 -83.5t-85 -22.5h-41z" />
    <glyph glyph-name="Ydieresis" unicode="&#x178;" horiz-adv-x="540" 
d="M246 777l14 79h63l-13 -79h-64zM414 777l14 79h63l-13 -79h-64zM196 0l53 300l-177 380h64l150 -322l262 322h69l-311 -383l-53 -297h-57z" />
    <glyph glyph-name="Zacute" unicode="&#x179;" horiz-adv-x="542" 
d="M305 754l130 127h75l-144 -127h-61zM-13 0l9 48l495 579h-375l9 53h451l-8 -48l-495 -579h401l-9 -53h-478z" />
    <glyph glyph-name="zacute" unicode="&#x17a;" horiz-adv-x="455" 
d="M232 597l130 127h75l-144 -127h-61zM-14 0l7 42l385 422h-289l9 48h363l-7 -42l-384 -421h314l-8 -49h-390z" />
    <glyph glyph-name="Zdotaccent" unicode="&#x17b;" horiz-adv-x="542" 
d="M335 777l14 79h63l-13 -79h-64zM-13 0l9 48l495 579h-375l9 53h451l-8 -48l-495 -579h401l-9 -53h-478z" />
    <glyph glyph-name="zdotaccent" unicode="&#x17c;" horiz-adv-x="455" 
d="M262 620l14 79h63l-13 -79h-64zM-14 0l7 42l385 422h-289l9 48h363l-7 -42l-384 -421h314l-8 -49h-390z" />
    <glyph glyph-name="Zcaron" unicode="&#x17d;" horiz-adv-x="542" 
d="M336 754l-86 127h54l64 -83l93 83h61l-131 -127h-55zM-13 0l9 48l495 579h-375l9 53h451l-8 -48l-495 -579h401l-9 -53h-478z" />
    <glyph glyph-name="zcaron" unicode="&#x17e;" horiz-adv-x="455" 
d="M263 597l-86 127h54l64 -83l93 83h61l-131 -127h-55zM-14 0l7 42l385 422h-289l9 48h363l-7 -42l-384 -421h314l-8 -49h-390z" />
    <glyph glyph-name="florin" unicode="&#x192;" horiz-adv-x="601" 
d="M3 -60l13 49h54q51 0 81.5 26t48.5 89l91 304h-137l9 49h143l27 90q25 82 66 117.5t114 35.5h82l-13 -49h-65q-51 0 -81 -26t-49 -88l-24 -80h162l-9 -49h-168l-94 -315q-24 -81 -65 -117t-113 -36h-73z" />
    <glyph glyph-name="Aringacute" unicode="&#x1fa;" horiz-adv-x="602" 
d="M364 941l130 127h75l-144 -127h-61zM391 724q-37 0 -60.5 22.5t-23.5 58.5q0 42 29 70.5t72 28.5q38 0 61 -22.5t23 -59.5q0 -41 -29 -69.5t-72 -28.5zM392 764q24 0 40.5 17t16.5 42q0 19 -12 30t-31 11q-24 0 -40.5 -17t-16.5 -42q0 -19 11.5 -30t31.5 -11zM-33 0
l379 680h59l140 -680h-60l-38 192h-312l-107 -192h-61zM164 245h273l-73 365z" />
    <glyph glyph-name="aringacute" unicode="&#x1fb;" horiz-adv-x="541" 
d="M297 784l130 127h75l-144 -127h-61zM324 567q-37 0 -60.5 22.5t-23.5 58.5q0 42 29 70.5t72 28.5q38 0 61 -22.5t23 -59.5q0 -41 -29 -69.5t-72 -28.5zM325 607q24 0 40.5 17t16.5 42q0 19 -12 30t-31 11q-24 0 -40.5 -17t-16.5 -42q0 -19 11.5 -30t31.5 -11zM174 -12
q-147 0 -147 130q0 86 63 131.5t173 45.5h150l8 46q4 24 4 39q0 95 -120 95q-138 0 -166 -112h-55q41 161 225 161q172 0 172 -139q0 -21 -4 -44l-60 -341h-48l12 81q-86 -93 -207 -93zM183 36q121 0 205 113l17 98h-143q-85 0 -132 -31.5t-47 -94.5q0 -85 100 -85z" />
    <glyph glyph-name="AEacute" unicode="&#x1fc;" horiz-adv-x="896" 
d="M489 754l130 127h75l-144 -127h-61zM-48 0l539 680h432l-9 -53h-352l-45 -251h303l-9 -53h-303l-48 -270h363l-9 -53h-420l34 192h-257l-153 -192h-66zM212 245h225l66 372z" />
    <glyph glyph-name="aeacute" unicode="&#x1fd;" horiz-adv-x="889" 
d="M441 597l130 127h75l-144 -127h-61zM664 524q179 0 179 -162q0 -28 -5 -56l-10 -62h-368l-6 -37q-5 -33 -5 -50q0 -61 32 -90.5t99 -29.5q69 0 113.5 29.5t59.5 83.5h54q-20 -80 -79 -121t-149 -41q-148 0 -180 106q-95 -106 -222 -106q-150 0 -150 130q0 85 63 130.5
t173 45.5h150l8 48q4 24 4 40q0 93 -120 93q-139 0 -166 -112h-55q40 161 223 161q143 0 160 -103q61 103 197 103zM468 292h313l2 10q6 30 6 57q0 116 -129 116q-80 0 -126.5 -42.5t-63.5 -130.5zM185 36q121 0 207 120q0 23 6 53l7 38h-144q-84 0 -131 -31.5t-47 -94.5
q0 -85 102 -85z" />
    <glyph glyph-name="Oslashacute" unicode="&#x1fe;" horiz-adv-x="653" 
d="M561 881l-144 -127h-61l130 127h75zM657 661l-57 -64q22 -41 22 -101q0 -34 -7 -70l-31 -176q-22 -130 -98.5 -196t-202.5 -66q-116 0 -172 56l-50 -56l-35 31l57 64q-22 41 -22 101q0 39 6 70l32 176q47 262 301 262q116 0 172 -56l50 56zM118 189q0 -31 8 -58l407 461
q-40 47 -136 47q-206 0 -243 -214l-30 -171q-6 -33 -6 -65zM564 491q0 33 -7 57l-408 -460q40 -47 136 -47q206 0 243 214l30 171q6 33 6 65z" />
    <glyph glyph-name="oslashacute" unicode="&#x1ff;" horiz-adv-x="559" 
d="M486 724l-144 -127h-61l130 127h75zM538 493l-47 -49q19 -35 19 -86q0 -31 -5 -56l-17 -94q-20 -108 -83.5 -164t-168.5 -56q-92 0 -141 44l-42 -44l-32 31l47 49q-19 35 -19 87q0 30 5 55l17 94q20 108 83.5 164t168.5 56q92 0 141 -44l42 44zM106 160q0 -26 6 -46
l313 325q-33 36 -104 36q-163 0 -195 -177l-16 -89q-4 -23 -4 -49zM453 352q0 26 -6 46l-313 -325q33 -36 104 -36q163 0 195 177l16 89q4 23 4 49z" />
    <glyph glyph-name="Scommaaccent" unicode="&#x218;" horiz-adv-x="556" 
d="M240 -12q-106 0 -162 39.5t-56 112.5q0 19 3 40h57q-3 -18 -3 -32q0 -107 163 -107q98 0 152.5 44.5t54.5 128.5q0 44 -38 69t-126 39q-105 17 -149 49.5t-44 93.5q0 108 70.5 167.5t189.5 59.5q200 0 200 -146q0 -18 -3 -41h-57q3 19 3 34q0 52 -35 76t-108 24
q-93 0 -148 -43.5t-55 -121.5q0 -41 35 -63t122 -36q108 -18 154 -53.5t46 -100.5q0 -113 -71 -173t-195 -60zM166 -225l5 32q35 0 44 46h-26l11 64h64l-10 -56q-8 -46 -26 -65.5t-62 -20.5z" />
    <glyph glyph-name="scommaaccent" unicode="&#x219;" horiz-adv-x="496" 
d="M201 -12q-88 0 -135 32.5t-47 93.5q0 14 3 31h53q-2 -16 -2 -24q0 -84 131 -84q78 0 124.5 30.5t46.5 85.5q0 37 -31 56t-106 28q-88 10 -126.5 37.5t-38.5 80.5q0 77 60 123t158 46q80 0 124.5 -32.5t44.5 -90.5q0 -14 -3 -29h-54q2 8 2 23q0 81 -117 81
q-71 0 -115.5 -31.5t-44.5 -82.5q0 -33 29.5 -50t101.5 -25q91 -10 131.5 -40t40.5 -86q0 -83 -62 -128t-168 -45zM132 -225l5 32q35 0 44 46h-26l11 64h64l-10 -56q-8 -46 -26 -65.5t-62 -20.5z" />
    <glyph glyph-name="uni021A" unicode="&#x21a;" horiz-adv-x="501" 
d="M177 0l111 627h-215l9 53h486l-9 -53h-214l-111 -627h-57zM125 -225l5 32q35 0 44 46h-26l11 64h64l-10 -56q-8 -46 -26 -65.5t-62 -20.5z" />
    <glyph glyph-name="uni021B" unicode="&#x21b;" horiz-adv-x="332" 
d="M198 0q-111 0 -111 102q0 24 5 52l55 312h-97l8 46h98l29 140h51l-25 -140h140l-9 -46h-139l-55 -315q-5 -28 -5 -45q0 -32 16 -44.5t55 -12.5h62l-9 -49h-69zM71 -225l5 32q35 0 44 46h-26l11 64h64l-10 -56q-8 -46 -26 -65.5t-62 -20.5z" />
    <glyph glyph-name="uni0237" unicode="&#x237;" horiz-adv-x="236" 
d="M-81 -182l9 49h21q42 0 60.5 18.5t27.5 68.5l98 558h56l-99 -560q-13 -72 -45 -103t-94 -31h-34z" />
    <glyph glyph-name="uni02BC" unicode="&#x2bc;" horiz-adv-x="127" 
d="M83 568l5 31q36 1 42 45l1 7h-24l12 72h64l-13 -72q-7 -42 -26 -62t-61 -21z" />
    <glyph glyph-name="circumflex" unicode="&#x2c6;" horiz-adv-x="500" 
d="M174 597l130 127h55l86 -127h-54l-63 82l-93 -82h-61z" />
    <glyph glyph-name="caron" unicode="&#x2c7;" horiz-adv-x="500" 
d="M283 597l-86 127h54l64 -83l93 83h61l-131 -127h-55z" />
    <glyph glyph-name="uni02C9" unicode="&#x2c9;" horiz-adv-x="500" 
d="M210 638l8 45h214l-8 -45h-214z" />
    <glyph glyph-name="breve" unicode="&#x2d8;" horiz-adv-x="500" 
d="M314 600q-51 0 -78 27t-27 74v15h44v-12q0 -58 63 -58q73 0 91 70h45q-12 -55 -48 -85.5t-90 -30.5z" />
    <glyph glyph-name="dotaccent" unicode="&#x2d9;" horiz-adv-x="500" 
d="M282 620l14 79h63l-13 -79h-64z" />
    <glyph glyph-name="ring" unicode="&#x2da;" horiz-adv-x="500" 
d="M316 585q-37 0 -60.5 22.5t-23.5 58.5q0 42 29 70.5t72 28.5q38 0 61 -22.5t23 -59.5q0 -41 -29 -69.5t-72 -28.5zM317 625q24 0 40.5 17t16.5 42q0 19 -12 30t-31 11q-24 0 -40.5 -17t-16.5 -42q0 -19 11.5 -30t31.5 -11z" />
    <glyph glyph-name="ogonek" unicode="&#x2db;" horiz-adv-x="500" 
d="M187 -198q-82 0 -82 68q0 90 153 161l20 -27q-121 -59 -121 -124q0 -34 41 -34q27 0 60 17l-9 -47q-30 -14 -62 -14z" />
    <glyph glyph-name="tilde" unicode="&#x2dc;" horiz-adv-x="500" 
d="M372 610q-33 0 -63 29q-23 22 -40 22q-33 0 -49 -52h-42q22 99 92 99q33 0 63 -29q23 -23 40 -23q33 0 49 52h42q-23 -98 -92 -98z" />
    <glyph glyph-name="hungarumlaut" unicode="&#x2dd;" horiz-adv-x="500" 
d="M184 597l108 127h73l-124 -127h-57zM343 597l108 127h73l-124 -127h-57z" />
    <glyph glyph-name="gravecomb" unicode="&#x300;" horiz-adv-x="0" 
d="M62 597l-100 127h69l85 -127h-54z" />
    <glyph glyph-name="acutecomb" unicode="&#x301;" horiz-adv-x="0" 
d="M2 597l130 127h75l-144 -127h-61z" />
    <glyph glyph-name="uni0302" unicode="&#x302;" horiz-adv-x="0" 
d="M-76 597l130 127h55l86 -127h-54l-63 82l-93 -82h-61z" />
    <glyph glyph-name="tildecomb" unicode="&#x303;" horiz-adv-x="0" 
d="M122 610q-33 0 -63 29q-23 22 -40 22q-33 0 -49 -52h-42q23 99 92 99q33 0 63 -29q23 -23 40 -23q33 0 49 52h42q-23 -98 -92 -98z" />
    <glyph glyph-name="uni0304" unicode="&#x304;" horiz-adv-x="0" 
d="M-40 638l8 45h214l-8 -45h-214z" />
    <glyph glyph-name="uni0306" unicode="&#x306;" horiz-adv-x="0" 
d="M64 600q-51 0 -78 27t-27 74v15h44v-12q0 -58 63 -58q73 0 91 70h45q-12 -55 -48 -85.5t-90 -30.5z" />
    <glyph glyph-name="uni0307" unicode="&#x307;" horiz-adv-x="0" 
d="M32 620l14 79h63l-13 -79h-64z" />
    <glyph glyph-name="uni0308" unicode="&#x308;" horiz-adv-x="0" 
d="M-52 620l14 79h63l-13 -79h-64zM116 620l14 79h63l-13 -79h-64z" />
    <glyph glyph-name="uni030A" unicode="&#x30a;" horiz-adv-x="0" 
d="M66 585q-37 0 -60.5 22.5t-23.5 58.5q0 42 29 70.5t72 28.5q38 0 61 -22.5t23 -59.5q0 -41 -29 -69.5t-72 -28.5zM67 625q24 0 40.5 17t16.5 42q0 19 -12 30t-31 11q-24 0 -40.5 -17t-16.5 -42q0 -19 11.5 -30t31.5 -11z" />
    <glyph glyph-name="uni030B" unicode="&#x30b;" horiz-adv-x="0" 
d="M-66 597l108 127h73l-124 -127h-57zM93 597l108 127h73l-124 -127h-57z" />
    <glyph glyph-name="uni030C" unicode="&#x30c;" horiz-adv-x="0" 
d="M33 597l-86 127h54l64 -83l93 83h61l-131 -127h-55z" />
    <glyph glyph-name="uni0312" unicode="&#x312;" horiz-adv-x="0" 
d="M28 596l10 56q8 45 26 64.5t62 20.5l-5 -31q-36 -2 -43 -46h25l-11 -64h-64z" />
    <glyph glyph-name="uni0326" unicode="&#x326;" horiz-adv-x="0" 
d="M-126 -225l5 32q35 0 44 46h-26l11 64h64l-10 -56q-8 -46 -26 -65.5t-62 -20.5z" />
    <glyph glyph-name="uni0327" unicode="&#x327;" horiz-adv-x="0" 
d="M-97 -198q-52 0 -89 19l19 34q26 -18 62 -18q32 0 50 11.5t18 31.5q0 13 -11 17t-44 4h-27l62 114h39l-45 -83q78 0 78 -55q0 -36 -29 -55.5t-83 -19.5z" />
    <glyph glyph-name="uni0328" unicode="&#x328;" horiz-adv-x="0" 
d="M-63 -198q-82 0 -82 68q0 90 153 161l20 -27q-121 -59 -121 -124q0 -34 41 -34q27 0 60 17l-9 -47q-30 -14 -62 -14z" />
    <glyph glyph-name="uni0394" unicode="&#x394;" horiz-adv-x="593" 
d="M-33 0l374 680h60l135 -680h-569zM57 53h410l-109 549z" />
    <glyph glyph-name="uni03A9" unicode="&#x3a9;" horiz-adv-x="653" 
d="M27 0l9 53h97q-69 47 -69 156q0 31 5 58l29 162q48 263 302 263q110 0 165.5 -50t55.5 -145q0 -33 -6 -72l-28 -162q-13 -72 -48.5 -127t-86.5 -83h93l-9 -53h-204l8 47q74 14 124 71t65 142l29 166q6 34 6 66q0 147 -167 147q-205 0 -243 -216l-29 -166q-5 -26 -5 -55
q0 -132 119 -155l-8 -47h-204z" />
    <glyph glyph-name="uni03BC" unicode="&#x3bc;" horiz-adv-x="579" 
d="M13 -182l123 694h56l-59 -335q-5 -28 -5 -48q0 -90 91 -90q115 0 200 140l59 333h56l-90 -512h-48l15 99q-86 -111 -201 -111q-71 0 -103 41l-38 -211h-56z" />
    <glyph glyph-name="pi" unicode="&#x3c0;" horiz-adv-x="586" 
d="M501 463l-58 -326q-5 -23 -5 -39q0 -27 14 -38t45 -11h31l-9 -49h-43q-48 0 -71 21t-23 67q0 26 5 51l58 324h-239l-81 -463h-56l81 463h-101l9 49h553l-9 -49h-101z" />
    <glyph glyph-name="Wgrave" unicode="&#x1e80;" horiz-adv-x="871" 
d="M526 754l-100 127h69l85 -127h-54zM161 0l-73 680h57l61 -589l274 589h58l67 -590l268 590h60l-312 -680h-59l-68 588l-275 -588h-58z" />
    <glyph glyph-name="wgrave" unicode="&#x1e81;" horiz-adv-x="773" 
d="M449 597l-100 127h69l85 -127h-54zM139 0l-78 512h57l63 -442l222 442h56l66 -442l218 442h59l-258 -512h-60l-66 433l-218 -433h-61z" />
    <glyph glyph-name="Wacute" unicode="&#x1e82;" horiz-adv-x="871" 
d="M466 754l130 127h75l-144 -127h-61zM161 0l-73 680h57l61 -589l274 589h58l67 -590l268 590h60l-312 -680h-59l-68 588l-275 -588h-58z" />
    <glyph glyph-name="wacute" unicode="&#x1e83;" horiz-adv-x="773" 
d="M389 597l130 127h75l-144 -127h-61zM139 0l-78 512h57l63 -442l222 442h56l66 -442l218 442h59l-258 -512h-60l-66 433l-218 -433h-61z" />
    <glyph glyph-name="Wdieresis" unicode="&#x1e84;" horiz-adv-x="871" 
d="M412 777l14 79h63l-13 -79h-64zM580 777l14 79h63l-13 -79h-64zM161 0l-73 680h57l61 -589l274 589h58l67 -590l268 590h60l-312 -680h-59l-68 588l-275 -588h-58z" />
    <glyph glyph-name="wdieresis" unicode="&#x1e85;" horiz-adv-x="773" 
d="M335 620l14 79h63l-13 -79h-64zM503 620l14 79h63l-13 -79h-64zM139 0l-78 512h57l63 -442l222 442h56l66 -442l218 442h59l-258 -512h-60l-66 433l-218 -433h-61z" />
    <glyph glyph-name="uni1E9E" unicode="&#x1e9e;" horiz-adv-x="625" 
d="M36 0l84 477q19 105 81.5 154t178.5 49h239l-9 -48l-230 -248q113 -1 160.5 -37t47.5 -121q0 -108 -66.5 -167t-189.5 -59h-120l9 53h111q96 0 147 43.5t51 124.5q0 62 -36.5 86.5t-130.5 24.5h-67l8 45l231 250h-156q-92 0 -140 -36.5t-62 -116.5l-84 -474h-57z" />
    <glyph glyph-name="Ygrave" unicode="&#x1ef2;" horiz-adv-x="540" 
d="M360 754l-100 127h69l85 -127h-54zM196 0l53 300l-177 380h64l150 -322l262 322h69l-311 -383l-53 -297h-57z" />
    <glyph glyph-name="ygrave" unicode="&#x1ef3;" horiz-adv-x="464" 
d="M295 597l-100 127h69l85 -127h-54zM-20 -182l9 49h32q35 0 55.5 14t43.5 57l48 89l-107 485h58l89 -418l226 418h59l-321 -588q-34 -61 -66 -83.5t-85 -22.5h-41z" />
    <glyph glyph-name="uni2002" unicode="&#x2002;" horiz-adv-x="500" 
 />
    <glyph glyph-name="uni2003" unicode="&#x2003;" horiz-adv-x="900" 
 />
    <glyph glyph-name="uni2007" unicode="&#x2007;" horiz-adv-x="601" 
 />
    <glyph glyph-name="uni2008" unicode="&#x2008;" horiz-adv-x="256" 
 />
    <glyph glyph-name="uni200B" unicode="&#x200b;" horiz-adv-x="0" 
 />
    <glyph glyph-name="figuredash" unicode="&#x2012;" horiz-adv-x="601" 
d="M32 267l8 48h541l-8 -48h-541z" />
    <glyph glyph-name="endash" unicode="&#x2013;" horiz-adv-x="500" 
d="M32 267l8 48h440l-8 -48h-440z" />
    <glyph glyph-name="emdash" unicode="&#x2014;" horiz-adv-x="900" 
d="M32 267l8 48h840l-8 -48h-840z" />
    <glyph glyph-name="quoteleft" unicode="&#x2018;" horiz-adv-x="229" 
d="M119 482l17 96q10 56 34.5 83.5t67.5 30.5l-7 -38q-17 -2 -31 -19t-20 -46l-3 -17h27l-16 -90h-69z" />
    <glyph glyph-name="quoteright" unicode="&#x2019;" horiz-adv-x="229" 
d="M106 470l7 39q17 2 31 18.5t19 46.5l3 17h-26l16 89h69l-17 -96q-18 -107 -102 -114z" />
    <glyph glyph-name="quotesinglbase" unicode="&#x201a;" horiz-adv-x="229" 
d="M2 -121l7 39q17 2 31 18.5t19 46.5l3 17h-26l16 89h69l-17 -96q-18 -107 -102 -114z" />
    <glyph glyph-name="quotedblleft" unicode="&#x201c;" horiz-adv-x="402" 
d="M119 482l17 96q10 56 34.5 83.5t67.5 30.5l-7 -38q-17 -2 -31 -19t-20 -46l-3 -17h27l-16 -90h-69zM292 482l17 96q10 56 34.5 83.5t67.5 30.5l-7 -38q-17 -2 -31 -19t-20 -46l-3 -17h27l-16 -90h-69z" />
    <glyph glyph-name="quotedblright" unicode="&#x201d;" horiz-adv-x="402" 
d="M106 470l7 39q17 2 31 18.5t19 46.5l3 17h-26l16 89h69l-17 -96q-18 -107 -102 -114zM279 470l7 39q17 2 31 18.5t19 46.5l3 17h-26l16 89h69l-17 -96q-18 -107 -102 -114z" />
    <glyph glyph-name="quotedblbase" unicode="&#x201e;" horiz-adv-x="402" 
d="M2 -121l7 39q17 2 31 18.5t19 46.5l3 17h-26l16 89h69l-17 -96q-18 -107 -102 -114zM175 -121l7 39q17 2 31 18.5t19 46.5l3 17h-26l16 89h69l-17 -96q-18 -107 -102 -114z" />
    <glyph glyph-name="dagger" unicode="&#x2020;" horiz-adv-x="584" 
d="M186 -182l98 557l-225 -5l10 57l223 -5l46 258h56l-46 -258l226 5l-10 -57l-224 5l-98 -557h-56z" />
    <glyph glyph-name="daggerdbl" unicode="&#x2021;" horiz-adv-x="584" 
d="M186 -182l42 238l-225 -5l10 57l223 -5l52 292l-225 -5l10 57l223 -5l42 238h56l-42 -238l227 5l-10 -57l-225 5l-52 -292l227 5l-10 -57l-225 5l-42 -238h-56z" />
    <glyph glyph-name="bullet" unicode="&#x2022;" horiz-adv-x="500" 
d="M145 194l34 194h189l-34 -194h-189z" />
    <glyph glyph-name="ellipsis" unicode="&#x2026;" horiz-adv-x="900" 
d="M71 0l15 89h68l-15 -89h-68zM371 0l15 89h68l-15 -89h-68zM671 0l15 89h68l-15 -89h-68z" />
    <glyph glyph-name="perthousand" unicode="&#x2030;" horiz-adv-x="1109" 
d="M200 318q-125 0 -125 104q0 16 3 33l18 102q23 135 162 135q125 0 125 -104q0 -16 -3 -33l-18 -102q-23 -135 -162 -135zM107 -12l529 704h52l-528 -704h-53zM202 362q94 0 112 97l17 95q2 9 2 30q0 64 -76 64q-97 0 -113 -97l-16 -96q-3 -24 -3 -29q0 -64 77 -64z
M539 -12q-125 0 -125 104q0 16 3 33l18 102q23 135 162 135q125 0 125 -104q0 -16 -3 -33l-18 -102q-23 -135 -162 -135zM882 -12q-125 0 -125 104q0 16 3 33l18 102q23 135 162 135q125 0 125 -104q0 -16 -3 -33l-18 -102q-23 -135 -162 -135zM540 32q94 0 112 97l17 96
q2 16 2 29q0 64 -76 64q-97 0 -113 -97l-16 -95q-3 -14 -3 -30q0 -64 77 -64zM883 32q94 0 112 97l17 96q2 16 2 29q0 64 -76 64q-97 0 -113 -97l-16 -95q-3 -14 -3 -30q0 -64 77 -64z" />
    <glyph glyph-name="guilsinglleft" unicode="&#x2039;" horiz-adv-x="259" 
d="M143 82l-116 175l174 173h67l-179 -178l112 -170h-58z" />
    <glyph glyph-name="guilsinglright" unicode="&#x203a;" horiz-adv-x="259" 
d="M-10 82l180 178l-112 170h58l116 -176l-174 -172h-68z" />
    <glyph glyph-name="fraction" unicode="&#x2044;" horiz-adv-x="102" 
d="M-208 -12l494 704h53l-494 -704h-53z" />
    <glyph glyph-name="uni2070" unicode="&#x2070;" 
d="M213 404q-123 0 -123 104q0 16 3 33l26 148q23 133 160 133q123 0 123 -104q0 -16 -3 -33l-26 -148q-23 -133 -160 -133zM214 448q93 0 110 95l25 142q3 13 3 27q0 66 -75 66q-93 0 -110 -95l-25 -142q-3 -13 -3 -27q0 -66 75 -66z" />
    <glyph glyph-name="uni2074" unicode="&#x2074;" 
d="M273 416l16 88h-216l8 46l258 260h53l-47 -262h51l-8 -44h-50l-16 -88h-49zM137 548h159l36 199z" />
    <glyph glyph-name="uni2075" unicode="&#x2075;" 
d="M209 404q-58 0 -91 24.5t-33 66.5q0 10 1 16h47q-1 -5 -1 -10q0 -25 21 -39t58 -14q56 0 88.5 31t32.5 79q0 68 -75 68q-59 0 -102 -32h-39l50 216h240l-8 -45h-199l-28 -121q43 26 97 26q112 0 112 -108q0 -71 -46 -114.5t-125 -43.5z" />
    <glyph glyph-name="uni2076" unicode="&#x2076;" 
d="M216 404q-59 0 -91 27t-32 77q0 16 3 32l26 147q24 135 163 135q59 0 89.5 -23.5t30.5 -64.5q0 -12 -1 -17h-47q1 4 1 10q0 51 -73 51q-99 0 -115 -96l-11 -64q45 47 116 47q106 0 106 -105q0 -70 -44 -113t-121 -43zM220 448q53 0 82.5 31.5t29.5 78.5q0 33 -16.5 48
t-51.5 15q-74 0 -116 -65l-3 -16q-3 -14 -3 -26q0 -32 20.5 -49t57.5 -17z" />
    <glyph glyph-name="uni2077" unicode="&#x2077;" 
d="M135 416q45 204 226 349h-236l8 45h294l-9 -48q-188 -146 -231 -346h-52z" />
    <glyph glyph-name="uni2078" unicode="&#x2078;" 
d="M209 404q-133 0 -133 99q0 90 94 118v1q-47 19 -47 76t43 90.5t116 33.5q121 0 121 -96q0 -78 -78 -104v-2q57 -22 57 -86q0 -63 -46.5 -96.5t-126.5 -33.5zM247 640q50 0 79 22.5t29 59.5q0 57 -74 57q-52 0 -81.5 -23.5t-29.5 -60.5q0 -55 77 -55zM211 447
q58 0 90.5 24t32.5 65q0 61 -85 61q-57 0 -90 -24t-33 -66q0 -60 85 -60z" />
    <glyph glyph-name="uni2079" unicode="&#x2079;" 
d="M206 404q-59 0 -89.5 23.5t-30.5 64.5q0 12 1 17h47q-1 -4 -1 -10q0 -51 73 -51q99 0 115 96l11 64q-45 -47 -116 -47q-106 0 -106 105q0 70 44 113t121 43q59 0 91 -27t32 -77q0 -16 -3 -32l-26 -147q-24 -135 -163 -135zM227 605q74 0 116 65l3 16q3 14 3 26
q0 32 -20.5 49t-57.5 17q-53 0 -82.5 -31.5t-29.5 -78.5q0 -33 16.5 -48t51.5 -15z" />
    <glyph glyph-name="uni2080" unicode="&#x2080;" 
d="M119 -132q-123 0 -123 104q0 16 3 33l26 148q23 133 160 133q123 0 123 -104q0 -16 -3 -33l-26 -148q-23 -133 -160 -133zM120 -88q93 0 110 95l25 142q3 13 3 27q0 66 -75 66q-93 0 -110 -95l-25 -142q-3 -13 -3 -27q0 -66 75 -66z" />
    <glyph glyph-name="uni2081" unicode="&#x2081;" 
d="M23 -120l8 44h94l51 287q-50 -24 -112 -26l7 39q66 4 118 50h47l-62 -350h95l-7 -44h-239z" />
    <glyph glyph-name="uni2082" unicode="&#x2082;" 
d="M159 29q-60 -25 -86.5 -48t-35.5 -56h226l-8 -45h-276l5 31q9 55 46 92.5t114 69.5q61 26 88.5 52.5t27.5 60.5q0 56 -72 56q-91 0 -105 -81l-1 -6h-48l3 15q24 116 154 116q117 0 117 -97q0 -51 -35 -88.5t-114 -71.5z" />
    <glyph glyph-name="uni2083" unicode="&#x2083;" 
d="M119 -132q-61 0 -94 23.5t-33 64.5q0 12 2 24l2 11h47l-1 -6q-1 -6 -1 -16q0 -57 79 -57q54 0 83.5 25t29.5 66q0 30 -18 43.5t-63 13.5h-48l7 44h46q46 0 72.5 23t26.5 60q0 55 -71 55q-43 0 -70.5 -18.5t-33.5 -52.5l-1 -5h-47l1 8q10 55 50.5 83.5t103.5 28.5
q117 0 117 -96q0 -81 -78 -105v-1q55 -19 55 -83q0 -62 -44 -97.5t-119 -35.5z" />
    <glyph glyph-name="uni2084" unicode="&#x2084;" 
d="M179 -120l16 88h-216l8 46l258 260h53l-47 -262h51l-8 -44h-50l-16 -88h-49zM43 12h159l36 199z" />
    <glyph glyph-name="uni2085" unicode="&#x2085;" 
d="M115 -132q-58 0 -91 24.5t-33 66.5q0 10 1 16h47q-1 -5 -1 -10q0 -25 21 -39t58 -14q56 0 88.5 31t32.5 79q0 68 -75 68q-59 0 -102 -32h-39l50 216h240l-8 -45h-199l-28 -121q43 26 97 26q112 0 112 -108q0 -71 -46 -114.5t-125 -43.5z" />
    <glyph glyph-name="uni2086" unicode="&#x2086;" 
d="M122 -132q-59 0 -91 27t-32 77q0 16 3 32l26 147q24 135 163 135q59 0 89.5 -23.5t30.5 -64.5q0 -12 -1 -17h-47q1 4 1 10q0 51 -73 51q-99 0 -115 -96l-11 -64q45 47 116 47q106 0 106 -105q0 -70 -44 -113t-121 -43zM126 -88q53 0 82.5 31.5t29.5 78.5q0 33 -16.5 48
t-51.5 15q-74 0 -116 -65l-3 -16q-3 -14 -3 -26q0 -32 20.5 -49t57.5 -17z" />
    <glyph glyph-name="uni2087" unicode="&#x2087;" 
d="M41 -120q45 204 226 349h-236l8 45h294l-9 -48q-188 -146 -231 -346h-52z" />
    <glyph glyph-name="uni2088" unicode="&#x2088;" 
d="M115 -132q-133 0 -133 99q0 90 94 118v1q-47 19 -47 76t43 90.5t116 33.5q121 0 121 -96q0 -78 -78 -104v-2q57 -22 57 -86q0 -63 -46.5 -96.5t-126.5 -33.5zM153 104q50 0 79 22.5t29 59.5q0 57 -74 57q-52 0 -81.5 -23.5t-29.5 -60.5q0 -55 77 -55zM117 -89
q58 0 90.5 24t32.5 65q0 61 -85 61q-57 0 -90 -24t-33 -66q0 -60 85 -60z" />
    <glyph glyph-name="uni2089" unicode="&#x2089;" 
d="M112 -132q-59 0 -89.5 23.5t-30.5 64.5q0 12 1 17h47q-1 -4 -1 -10q0 -51 73 -51q99 0 115 96l11 64q-45 -47 -116 -47q-106 0 -106 105q0 70 44 113t121 43q59 0 91 -27t32 -77q0 -16 -3 -32l-26 -147q-24 -135 -163 -135zM133 69q74 0 116 65l3 16q3 13 3 26
q0 32 -20.5 49t-57.5 17q-53 0 -82.5 -31.5t-29.5 -78.5q0 -33 16.5 -48t51.5 -15z" />
    <glyph glyph-name="Euro" unicode="&#x20ac;" horiz-adv-x="601" 
d="M283 -12q-94 0 -144 43.5t-50 127.5q0 31 5 56l5 28h-58l8 47h58l18 100h-58l8 47h59l5 30q19 110 86 167.5t176 57.5q92 0 140 -42.5t48 -122.5q0 -20 -2 -30h-53q2 18 2 26q0 118 -138 118q-85 0 -138 -45.5t-67 -133.5l-4 -25h231l-16 -47h-224l-17 -100h203l-15 -47
h-196l-5 -28q-5 -28 -5 -49q0 -127 142 -127q153 0 191 144h54q-48 -195 -249 -195z" />
    <glyph glyph-name="uni20B9" unicode="&#x20b9;" horiz-adv-x="601" 
d="M371 0l-286 291l8 42h125q93 0 150 36.5t71 104.5h-337l19 47h322q0 61 -35.5 86.5t-122.5 25.5h-155l19 47h486l-19 -47h-170q51 -34 52 -112h109l-19 -47h-93q-14 -90 -86.5 -139t-192.5 -49h-47l280 -286h-78z" />
    <glyph glyph-name="uni2113" unicode="&#x2113;" horiz-adv-x="460" 
d="M212 -12q-148 0 -148 136q0 28 4 52l68 384q32 182 193 182q128 0 128 -124q0 -112 -90 -217.5t-236 -191.5l-7 -39q-4 -20 -4 -39q0 -92 100 -92q68 0 135 47l18 -48q-76 -50 -161 -50zM142 274q116 71 188 159t72 180q0 39 -17 58.5t-60 19.5q-110 0 -134 -136z" />
    <glyph glyph-name="uni2116" unicode="&#x2116;" horiz-adv-x="1085" 
d="M613 680h55l-119 -680h-55l-278 603l-106 -603h-56l120 680h66l270 -586zM848 133q-136 0 -136 117q0 22 4 41l12 65q29 154 178 154q66 0 101.5 -29.5t35.5 -87.5q0 -22 -4 -41l-12 -65q-28 -154 -179 -154zM849 176q109 0 129 115l11 63q3 18 3 35q0 77 -87 77
q-108 0 -128 -114l-11 -63q-4 -24 -4 -35q0 -78 87 -78zM668 0l8 44h305l-8 -44h-305z" />
    <glyph glyph-name="uni2117" unicode="&#x2117;" horiz-adv-x="779" 
d="M404 -12q-152 0 -252 100t-100 252t100 252t252 100t252 -100t100 -252t-100 -252t-252 -100zM403 34q135 0 218.5 85.5t83.5 220.5t-83.5 220.5t-218.5 85.5q-134 0 -217.5 -85.5t-83.5 -220.5t83.5 -220.5t217.5 -85.5zM290 160v360h144q67 0 97.5 -26.5t30.5 -84.5
t-30.5 -85t-97.5 -27h-92v-137h-52zM342 342h88q43 0 62 15.5t19 51.5q0 35 -19 51t-62 16h-88v-134z" />
    <glyph glyph-name="uni2120" unicode="&#x2120;" horiz-adv-x="688" 
d="M156 353q-50 0 -77 19t-27 55q0 7 2 21h47q-2 -10 -2 -15q0 -41 57 -41q38 0 60.5 16.5t22.5 45.5q0 20 -14 29.5t-54 18.5q-49 11 -68.5 28t-19.5 50q0 49 33.5 78.5t92.5 29.5q46 0 71.5 -18.5t25.5 -52.5q0 -8 -2 -22h-46q1 5 1 14q0 40 -52 40q-36 0 -57 -16.5
t-21 -43.5q0 -20 14 -30t54 -18q49 -10 69 -28t20 -51q0 -52 -34 -80.5t-96 -28.5zM339 361l56 319h66l51 -254l141 254h70l-56 -319h-47l46 261l-146 -261h-36l-54 262l-47 -262h-44z" />
    <glyph glyph-name="trademark" unicode="&#x2122;" horiz-adv-x="663" 
d="M113 361l49 278h-94l7 41h235l-7 -41h-94l-49 -278h-47zM313 361l56 319h66l51 -254l141 254h71l-56 -319h-47l46 264l-147 -264h-36l-54 262l-47 -262h-44z" />
    <glyph glyph-name="uni2126" unicode="&#x2126;" horiz-adv-x="653" 
d="M27 0l9 53h97q-69 47 -69 156q0 31 5 58l29 162q48 263 302 263q110 0 165.5 -50t55.5 -145q0 -33 -6 -72l-28 -162q-13 -72 -48.5 -127t-86.5 -83h93l-9 -53h-204l8 47q74 14 124 71t65 142l29 166q6 34 6 66q0 147 -167 147q-205 0 -243 -216l-29 -166q-5 -26 -5 -55
q0 -132 119 -155l-8 -47h-204z" />
    <glyph glyph-name="estimated" unicode="&#x212e;" horiz-adv-x="804" 
d="M425 -12q-154 0 -262.5 103t-108.5 249t108.5 249t262.5 103t262.5 -103t108.5 -249v-9h-601q-5 0 -5 -5v-191q0 -10 9 -21q89 -105 228 -105q69 0 132 31.5t107 85.5h54q-52 -64 -129.5 -101t-165.5 -37zM195 351h461q6 0 6 6v193q0 12 -10 22q-94 99 -225 99
q-135 0 -228 -103q-9 -11 -9 -22v-190q0 -5 5 -5z" />
    <glyph glyph-name="uni2153" unicode="&#x2153;" horiz-adv-x="834" 
d="M158 -12l494 704h53l-494 -704h-53zM94 286l8 44h94l51 287q-50 -24 -112 -26l7 39q66 4 118 50h47l-62 -350h95l-7 -44h-239zM608 -12q-61 0 -94 23.5t-33 64.5q0 12 2 24l2 11h47l-1 -6q-1 -6 -1 -16q0 -57 79 -57q54 0 83.5 25t29.5 66q0 30 -18 43.5t-63 13.5h-48
l7 44h46q46 0 72.5 23t26.5 60q0 55 -71 55q-43 0 -70.5 -18.5t-33.5 -52.5l-1 -5h-47l1 8q10 55 50.5 83.5t103.5 28.5q117 0 117 -96q0 -81 -78 -105v-1q55 -19 55 -83q0 -62 -44 -97.5t-119 -35.5z" />
    <glyph glyph-name="uni2154" unicode="&#x2154;" horiz-adv-x="834" 
d="M231 435q-60 -25 -86.5 -48t-35.5 -56h226l-8 -45h-276l5 31q9 55 46 92.5t114 69.5q61 26 88.5 52.5t27.5 60.5q0 56 -72 56q-91 0 -105 -81l-1 -6h-48l3 15q24 116 154 116q117 0 117 -97q0 -51 -35 -88.5t-114 -71.5zM158 -12l494 704h53l-494 -704h-53zM608 -12
q-61 0 -94 23.5t-33 64.5q0 12 2 24l2 11h47l-1 -6q-1 -6 -1 -16q0 -57 79 -57q54 0 83.5 25t29.5 66q0 30 -18 43.5t-63 13.5h-48l7 44h46q46 0 72.5 23t26.5 60q0 55 -71 55q-43 0 -70.5 -18.5t-33.5 -52.5l-1 -5h-47l1 8q10 55 50.5 83.5t103.5 28.5q117 0 117 -96
q0 -81 -78 -105v-1q55 -19 55 -83q0 -62 -44 -97.5t-119 -35.5z" />
    <glyph glyph-name="uni2155" unicode="&#x2155;" horiz-adv-x="834" 
d="M158 -12l494 704h53l-494 -704h-53zM94 286l8 44h94l51 287q-50 -24 -112 -26l7 39q66 4 118 50h47l-62 -350h95l-7 -44h-239zM604 -12q-58 0 -91 24.5t-33 66.5q0 10 1 16h47q-1 -5 -1 -10q0 -25 21 -39t58 -14q56 0 88.5 31t32.5 79q0 68 -75 68q-59 0 -102 -32h-39
l50 216h240l-8 -45h-199l-28 -121q43 26 97 26q112 0 112 -108q0 -71 -46 -114.5t-125 -43.5z" />
    <glyph glyph-name="uni2156" unicode="&#x2156;" horiz-adv-x="834" 
d="M231 435q-60 -25 -86.5 -48t-35.5 -56h226l-8 -45h-276l5 31q9 55 46 92.5t114 69.5q61 26 88.5 52.5t27.5 60.5q0 56 -72 56q-91 0 -105 -81l-1 -6h-48l3 15q24 116 154 116q117 0 117 -97q0 -51 -35 -88.5t-114 -71.5zM158 -12l494 704h53l-494 -704h-53zM604 -12
q-58 0 -91 24.5t-33 66.5q0 10 1 16h47q-1 -5 -1 -10q0 -25 21 -39t58 -14q56 0 88.5 31t32.5 79q0 68 -75 68q-59 0 -102 -32h-39l50 216h240l-8 -45h-199l-28 -121q43 26 97 26q112 0 112 -108q0 -71 -46 -114.5t-125 -43.5z" />
    <glyph glyph-name="uni2157" unicode="&#x2157;" horiz-adv-x="834" 
d="M190 274q-61 0 -94 23.5t-33 64.5q0 12 2 24l2 11h47l-1 -6q-1 -6 -1 -16q0 -57 79 -57q54 0 83.5 25t29.5 66q0 30 -18 43.5t-63 13.5h-48l7 44h46q46 0 72.5 23t26.5 60q0 55 -71 55q-43 0 -70.5 -18.5t-33.5 -52.5l-1 -5h-47l1 8q10 55 50.5 83.5t103.5 28.5
q117 0 117 -96q0 -81 -78 -105v-1q55 -19 55 -83q0 -62 -44 -97.5t-119 -35.5zM158 -12l494 704h53l-494 -704h-53zM604 -12q-58 0 -91 24.5t-33 66.5q0 10 1 16h47q-1 -5 -1 -10q0 -25 21 -39t58 -14q56 0 88.5 31t32.5 79q0 68 -75 68q-59 0 -102 -32h-39l50 216h240
l-8 -45h-199l-28 -121q43 26 97 26q112 0 112 -108q0 -71 -46 -114.5t-125 -43.5z" />
    <glyph glyph-name="uni2158" unicode="&#x2158;" horiz-adv-x="834" 
d="M158 -12l494 704h53l-494 -704h-53zM250 286l16 88h-216l8 46l258 260h53l-47 -262h51l-8 -44h-50l-16 -88h-49zM114 418h159l36 199zM604 -12q-58 0 -91 24.5t-33 66.5q0 10 1 16h47q-1 -5 -1 -10q0 -25 21 -39t58 -14q56 0 88.5 31t32.5 79q0 68 -75 68q-59 0 -102 -32
h-39l50 216h240l-8 -45h-199l-28 -121q43 26 97 26q112 0 112 -108q0 -71 -46 -114.5t-125 -43.5z" />
    <glyph glyph-name="uni2159" unicode="&#x2159;" horiz-adv-x="834" 
d="M158 -12l494 704h53l-494 -704h-53zM94 286l8 44h94l51 287q-50 -24 -112 -26l7 39q66 4 118 50h47l-62 -350h95l-7 -44h-239zM611 -12q-59 0 -91 27t-32 77q0 16 3 32l26 147q24 135 163 135q59 0 89.5 -23.5t30.5 -64.5q0 -12 -1 -17h-47q1 4 1 10q0 51 -73 51
q-99 0 -115 -96l-11 -64q45 47 116 47q106 0 106 -105q0 -70 -44 -113t-121 -43zM615 32q53 0 82.5 31.5t29.5 78.5q0 33 -16.5 48t-51.5 15q-74 0 -116 -65l-3 -16q-3 -14 -3 -26q0 -32 20.5 -49t57.5 -17z" />
    <glyph glyph-name="uni215A" unicode="&#x215a;" horiz-adv-x="834" 
d="M158 -12l494 704h53l-494 -704h-53zM187 274q-58 0 -91 24.5t-33 66.5q0 10 1 16h47q-1 -5 -1 -10q0 -25 21 -39t58 -14q56 0 88.5 31t32.5 79q0 68 -75 68q-59 0 -102 -32h-39l50 216h240l-8 -45h-199l-28 -121q43 26 97 26q112 0 112 -108q0 -71 -46 -114.5t-125 -43.5
zM611 -12q-59 0 -91 27t-32 77q0 16 3 32l26 147q24 135 163 135q59 0 89.5 -23.5t30.5 -64.5q0 -12 -1 -17h-47q1 4 1 10q0 51 -73 51q-99 0 -115 -96l-11 -64q45 47 116 47q106 0 106 -105q0 -70 -44 -113t-121 -43zM615 32q53 0 82.5 31.5t29.5 78.5q0 33 -16.5 48
t-51.5 15q-74 0 -116 -65l-3 -16q-3 -14 -3 -26q0 -32 20.5 -49t57.5 -17z" />
    <glyph glyph-name="oneeighth" unicode="&#x215b;" horiz-adv-x="834" 
d="M158 -12l494 704h53l-494 -704h-53zM94 286l8 44h94l51 287q-50 -24 -112 -26l7 39q66 4 118 50h47l-62 -350h95l-7 -44h-239zM604 -12q-133 0 -133 99q0 90 94 118v1q-47 19 -47 76t43 90.5t116 33.5q121 0 121 -96q0 -78 -78 -104v-2q57 -22 57 -86q0 -63 -46.5 -96.5
t-126.5 -33.5zM642 224q50 0 79 22.5t29 59.5q0 57 -74 57q-52 0 -81.5 -23.5t-29.5 -60.5q0 -55 77 -55zM606 31q58 0 90.5 24t32.5 65q0 61 -85 61q-57 0 -90 -24t-33 -66q0 -60 85 -60z" />
    <glyph glyph-name="threeeighths" unicode="&#x215c;" horiz-adv-x="834" 
d="M190 274q-61 0 -94 23.5t-33 64.5q0 12 2 24l2 11h47l-1 -6q-1 -6 -1 -16q0 -57 79 -57q54 0 83.5 25t29.5 66q0 30 -18 43.5t-63 13.5h-48l7 44h46q46 0 72.5 23t26.5 60q0 55 -71 55q-43 0 -70.5 -18.5t-33.5 -52.5l-1 -5h-47l1 8q10 55 50.5 83.5t103.5 28.5
q117 0 117 -96q0 -81 -78 -105v-1q55 -19 55 -83q0 -62 -44 -97.5t-119 -35.5zM158 -12l494 704h53l-494 -704h-53zM604 -12q-133 0 -133 99q0 90 94 118v1q-47 19 -47 76t43 90.5t116 33.5q121 0 121 -96q0 -78 -78 -104v-2q57 -22 57 -86q0 -63 -46.5 -96.5t-126.5 -33.5z
M642 224q50 0 79 22.5t29 59.5q0 57 -74 57q-52 0 -81.5 -23.5t-29.5 -60.5q0 -55 77 -55zM606 31q58 0 90.5 24t32.5 65q0 61 -85 61q-57 0 -90 -24t-33 -66q0 -60 85 -60z" />
    <glyph glyph-name="fiveeighths" unicode="&#x215d;" horiz-adv-x="834" 
d="M158 -12l494 704h53l-494 -704h-53zM187 274q-58 0 -91 24.5t-33 66.5q0 10 1 16h47q-1 -5 -1 -10q0 -25 21 -39t58 -14q56 0 88.5 31t32.5 79q0 68 -75 68q-59 0 -102 -32h-39l50 216h240l-8 -45h-199l-28 -121q43 26 97 26q112 0 112 -108q0 -71 -46 -114.5t-125 -43.5
zM604 -12q-133 0 -133 99q0 90 94 118v1q-47 19 -47 76t43 90.5t116 33.5q121 0 121 -96q0 -78 -78 -104v-2q57 -22 57 -86q0 -63 -46.5 -96.5t-126.5 -33.5zM642 224q50 0 79 22.5t29 59.5q0 57 -74 57q-52 0 -81.5 -23.5t-29.5 -60.5q0 -55 77 -55zM606 31q58 0 90.5 24
t32.5 65q0 61 -85 61q-57 0 -90 -24t-33 -66q0 -60 85 -60z" />
    <glyph glyph-name="seveneighths" unicode="&#x215e;" horiz-adv-x="834" 
d="M125 -12l494 704h53l-494 -704h-53zM112 286q45 204 226 349h-236l8 45h294l-9 -48q-188 -146 -231 -346h-52zM604 -12q-133 0 -133 99q0 90 94 118v1q-47 19 -47 76t43 90.5t116 33.5q121 0 121 -96q0 -78 -78 -104v-2q57 -22 57 -86q0 -63 -46.5 -96.5t-126.5 -33.5z
M642 224q50 0 79 22.5t29 59.5q0 57 -74 57q-52 0 -81.5 -23.5t-29.5 -60.5q0 -55 77 -55zM606 31q58 0 90.5 24t32.5 65q0 61 -85 61q-57 0 -90 -24t-33 -66q0 -60 85 -60z" />
    <glyph glyph-name="arrowleft" unicode="&#x2190;" horiz-adv-x="800" 
d="M378 30l-309 310l309 310l34 -33l-252 -251h600v-52h-600l252 -251z" />
    <glyph glyph-name="arrowup" unicode="&#x2191;" horiz-adv-x="800" 
d="M390 0v601l-253 -255l-33 33l312 313l1 -1v1l312 -313l-33 -33l-253 255v-601h-53z" />
    <glyph glyph-name="arrowright" unicode="&#x2192;" horiz-adv-x="800" 
d="M451 32l-33 33l251 251h-599v52h599l-251 251l33 33l310 -310z" />
    <glyph glyph-name="arrowdown" unicode="&#x2193;" horiz-adv-x="800" 
d="M413 -12l-312 313l33 33l253 -255v601h53v-601l253 255l33 -33l-312 -313v1z" />
    <glyph glyph-name="arrowboth" unicode="&#x2194;" horiz-adv-x="1000" 
d="M358 50l-289 290l289 290l34 -33l-232 -231h709l-231 231l33 33l290 -290l-290 -290l-33 33l231 231h-709l232 -231z" />
    <glyph glyph-name="arrowupdn" unicode="&#x2195;" horiz-adv-x="800" 
d="M415 -84l-291 291l33 33l231 -233v666l-231 -233l-33 33l291 291l290 -291l-33 -33l-231 233v-666l231 233l33 -33z" />
    <glyph glyph-name="uni2196" unicode="&#x2196;" horiz-adv-x="800" 
d="M672 50l-476 475l2 -345h-49v428h428v-46l-346 1l477 -477z" />
    <glyph glyph-name="uni2197" unicode="&#x2197;" horiz-adv-x="800" 
d="M155 50l-36 36l477 477l-347 -1v46h428v-428h-49l1 343z" />
    <glyph glyph-name="uni2198" unicode="&#x2198;" horiz-adv-x="800" 
d="M253 72v46l347 -1l-477 477l36 36l474 -473l-1 343h49v-428h-428z" />
    <glyph glyph-name="uni2199" unicode="&#x2199;" horiz-adv-x="800" 
d="M153 72v428h49l-2 -345l476 475l36 -36l-477 -477l346 1v-46h-428z" />
    <glyph glyph-name="partialdiff" unicode="&#x2202;" horiz-adv-x="603" 
d="M212 -12q-85 0 -131.5 46.5t-46.5 131.5q0 119 81.5 208.5t201.5 89.5q69 0 116 -31.5t66 -89.5q20 83 20 163q0 96 -34.5 141.5t-124.5 45.5q-88 0 -155 -47l10 57q64 39 156 39q114 0 159.5 -57.5t45.5 -173.5q0 -93 -24 -184.5t-68.5 -167.5t-115.5 -123.5t-156 -47.5
zM219 37q87 0 152 62.5t104 164.5q-6 70 -48.5 110t-110.5 40q-96 0 -161 -75t-65 -170q0 -64 33.5 -98t95.5 -34z" />
    <glyph glyph-name="emptyset" unicode="&#x2205;" horiz-adv-x="845" 
d="M119 -12l-34 34l84 84q-84 97 -84 234q0 152 100 252t252 100q138 0 233 -84l84 84l34 -34l-84 -84q84 -97 84 -234q0 -152 -100 -252t-251 -100q-137 0 -234 84zM205 142l430 431q-83 70 -198 70q-130 0 -215 -86t-85 -217q0 -116 68 -198zM437 37q130 0 215 86t85 217
q0 117 -68 199l-431 -431q82 -71 199 -71z" />
    <glyph glyph-name="uni2206" unicode="&#x2206;" horiz-adv-x="593" 
d="M-33 0l374 680h60l135 -680h-569zM57 53h410l-109 549z" />
    <glyph glyph-name="product" unicode="&#x220f;" horiz-adv-x="785" 
d="M27 -183l168 954h576l-168 -954h-55l159 904h-466l-159 -904h-55z" />
    <glyph glyph-name="summation" unicode="&#x2211;" horiz-adv-x="605" 
d="M-54 -183l9 53l409 424l-260 424l9 53h560l-9 -50h-498l266 -432l-408 -422h491l-9 -50h-560z" />
    <glyph glyph-name="minus" unicode="&#x2212;" horiz-adv-x="601" 
d="M62 283l9 50h487l-9 -50h-487z" />
    <glyph glyph-name="uni2215" unicode="&#x2215;" horiz-adv-x="390" 
d="M-41 -12l443 704h60l-443 -704h-60z" />
    <glyph glyph-name="uni2219" unicode="&#x2219;" horiz-adv-x="256" 
d="M96 263l16 89h69l-16 -89h-69z" />
    <glyph glyph-name="radical" unicode="&#x221a;" horiz-adv-x="601" 
d="M179 -183l-57 354h-80l9 49h112l55 -322l428 873h55l-469 -954h-53z" />
    <glyph glyph-name="infinity" unicode="&#x221e;" horiz-adv-x="930" 
d="M230 108q-78 0 -121 45t-43 124q0 103 66.5 177.5t167.5 74.5q76 0 116 -42t68 -118q59 85 115.5 122.5t123.5 37.5q78 0 120.5 -45t42.5 -123q0 -103 -66 -178t-167 -75q-75 0 -115.5 42t-68.5 117q-59 -83 -116 -121t-123 -38zM238 156q58 0 106 36.5t106 125.5
q-11 31 -18.5 49.5t-21.5 43t-28.5 37.5t-36 22.5t-48.5 9.5q-77 0 -128.5 -62t-51.5 -140q0 -57 31 -89.5t90 -32.5zM656 157q77 0 128 62t51 140q0 58 -31 89.5t-90 31.5t-107 -36.5t-105 -124.5q14 -39 24.5 -62t28.5 -49.5t43 -38.5t58 -12z" />
    <glyph glyph-name="integral" unicode="&#x222b;" horiz-adv-x="297" 
d="M-29 -194q-32 0 -61 11l8 50q21 -12 50 -12q43 0 69 29t37 93l113 645q15 86 52.5 124.5t100.5 38.5q28 0 62 -10l-9 -51q-23 12 -49 12q-44 0 -69.5 -28.5t-36.5 -92.5l-114 -645q-15 -85 -52 -124.5t-101 -39.5z" />
    <glyph glyph-name="approxequal" unicode="&#x2248;" horiz-adv-x="601" 
d="M428 336q-34 0 -59.5 12t-56.5 41q-46 45 -90 45q-79 0 -104 -90h-45q16 68 55.5 103.5t98.5 35.5q34 0 59.5 -12t56.5 -41q46 -45 90 -45q79 0 104 90h45q-15 -67 -55 -103t-99 -36zM389 114q-34 0 -59.5 12t-56.5 41q-46 45 -90 45q-79 0 -104 -90h-45
q16 68 55.5 103.5t98.5 35.5q34 0 59.5 -12t56.5 -41q46 -45 90 -45q79 0 104 90h45q-15 -67 -55 -103t-99 -36z" />
    <glyph glyph-name="notequal" unicode="&#x2260;" horiz-adv-x="601" 
d="M587 591l-129 -147h119l-9 -50h-153l-151 -172h275l-9 -50h-309l-128 -146h-61l128 146h-117l9 50h152l150 172h-273l9 50h308l129 147h60z" />
    <glyph glyph-name="lessequal" unicode="&#x2264;" horiz-adv-x="601" 
d="M599 568l-11 -57l-445 -172l384 -173l-8 -50l-451 202l8 47zM12 0l9 50h487l-9 -50h-487z" />
    <glyph glyph-name="greaterequal" unicode="&#x2265;" horiz-adv-x="601" 
d="M32 116l10 56l447 173l-386 173l9 50l451 -202l-8 -47zM12 0l9 50h487l-9 -50h-487z" />
    <glyph glyph-name="lozenge" unicode="&#x25ca;" horiz-adv-x="601" 
d="M251 -32l-203 372l332 372l203 -372zM262 52l262 294l-155 282l-261 -294z" />
    <glyph glyph-name="uniF8FF" unicode="&#xf8ff;" horiz-adv-x="649" 
d="M277 50q-101 0 -163 61t-62 163q0 101 64.5 163t185.5 62h50v116h157v-116h132v-149h-132v-51q0 -116 -63.5 -182.5t-168.5 -66.5zM280 205q72 0 72 92v53h-49q-89 0 -89 -76q0 -32 17.5 -50.5t48.5 -18.5z" />
    <glyph glyph-name="Iacute_J.loclNLD" horiz-adv-x="804" 
d="M158 754l130 127h75l-144 -127h-61zM724 754l130 127h75l-144 -127h-61zM54 0l120 680h57l-120 -680h-57zM451 -12q-99 0 -145 40t-46 126q0 33 5 59l2 11h55l-1 -11q0 -2 -3 -24.5t-3 -33.5q0 -60 33 -87t105 -27q94 0 142.5 44.5t66.5 146.5l79 448h57l-80 -457
q-21 -121 -85 -178t-182 -57z" />
    <glyph glyph-name="iacute_j.loclNLD" horiz-adv-x="472" 
d="M120 597l130 127h75l-144 -127h-61zM356 597l130 127h75l-144 -127h-61zM45 0l90 512h56l-90 -512h-56zM155 -182l9 49h21q42 0 60.5 18.5t27.5 68.5l98 558h56l-99 -560q-13 -72 -45 -103t-94 -31h-34z" />
    <glyph glyph-name="i.loclTRK" horiz-adv-x="236" 
d="M151 618l14 83h63l-14 -83h-63zM45 0l90 512h56l-90 -512h-56z" />
    <glyph glyph-name="germandbls.calt" horiz-adv-x="625" 
d="M36 0l84 477q19 105 81.5 154t178.5 49h239l-9 -48l-230 -248q113 -1 160.5 -37t47.5 -121q0 -108 -66.5 -167t-189.5 -59h-120l9 53h111q96 0 147 43.5t51 124.5q0 62 -36.5 86.5t-130.5 24.5h-67l8 45l231 250h-156q-92 0 -140 -36.5t-62 -116.5l-84 -474h-57z" />
    <glyph glyph-name="zero.pf" horiz-adv-x="634" 
d="M273 -12q-97 0 -147.5 43t-50.5 126q0 31 5 59l45 253q19 110 86.5 166.5t178.5 56.5q97 0 147.5 -43t50.5 -126q0 -32 -5 -59l-44 -253q-19 -110 -87 -166.5t-179 -56.5zM275 39q177 0 209 181l43 244q4 20 4 51q0 126 -144 126q-176 0 -208 -181l-43 -244
q-5 -25 -5 -51q0 -126 144 -126z" />
    <glyph glyph-name="one.pf" horiz-adv-x="417" 
d="M205 0l107 604q-81 -51 -203 -59l8 49q120 7 209 86h55l-120 -680h-56z" />
    <glyph glyph-name="two.pf" horiz-adv-x="572" 
d="M15 0l7 41q16 92 77 153t195 120q116 50 165.5 100t49.5 115q0 112 -142 112q-85 0 -136.5 -40t-65.5 -116l-2 -11h-54l4 22q17 93 83.5 144.5t175.5 51.5q192 0 192 -159q0 -85 -59 -147t-193 -120q-115 -50 -167 -97.5t-65 -115.5h401l-9 -53h-457z" />
    <glyph glyph-name="three.pf" horiz-adv-x="597" 
d="M254 -12q-100 0 -153 39.5t-53 109.5q0 13 4 41l3 17h54l-2 -14q-3 -18 -3 -33q0 -109 153 -109q99 0 155.5 46t56.5 126q0 59 -35 86t-116 27h-80l8 51h80q82 0 132.5 43.5t50.5 112.5q0 110 -138 110q-84 0 -136 -39t-63 -106l-1 -6h-54l2 12q14 88 82 139t175 51
q188 0 188 -156q0 -67 -36.5 -114.5t-100.5 -67.5v-2q98 -29 98 -140q0 -103 -73.5 -163.5t-197.5 -60.5z" />
    <glyph glyph-name="four.pf" horiz-adv-x="590" 
d="M370 0l29 162h-374l9 55l447 463h65l-82 -467h87l-9 -51h-87l-29 -162h-56zM100 213h307l69 389z" />
    <glyph glyph-name="five.pf" horiz-adv-x="579" 
d="M242 -12q-95 0 -149.5 40t-54.5 108q0 12 2 30h55q-2 -14 -2 -22q0 -50 40 -77.5t110 -27.5q106 0 167.5 60t61.5 153q0 138 -149 138q-99 0 -182 -63h-49l84 353h398l-10 -53h-348l-56 -238q76 52 176 52q192 0 192 -183q0 -119 -77.5 -194.5t-208.5 -75.5z" />
    <glyph glyph-name="six.pf" horiz-adv-x="628" 
d="M280 -12q-97 0 -148.5 43.5t-51.5 128.5q0 28 5 56l44 251q19 111 89 168t182 57q92 0 142 -38.5t50 -108.5q0 -17 -2 -25h-54q1 5 1 16q0 105 -138 105q-183 0 -216 -185l-21 -119q82 91 210 91q88 0 134 -42t46 -120q0 -126 -73 -202t-199 -76zM282 39
q101 0 157.5 60.5t56.5 159.5q0 118 -135 118q-136 0 -214 -127l-6 -33q-5 -28 -5 -50q0 -128 146 -128z" />
    <glyph glyph-name="seven.pf" horiz-adv-x="536" 
d="M103 0q78 359 401 626h-414l9 54h483l-10 -57q-333 -271 -409 -623h-60z" />
    <glyph glyph-name="eight.pf" horiz-adv-x="619" 
d="M260 -12q-215 0 -215 164q0 76 45.5 128.5t124.5 73.5v2q-91 28 -91 127q0 93 73 151t190 58q94 0 145 -40t51 -118q0 -67 -38 -113.5t-106 -65.5v-2q107 -32 107 -146q0 -102 -77.5 -160.5t-208.5 -58.5zM324 376q95 0 150 42t55 112q0 111 -144 111q-94 0 -150 -44
t-56 -113q0 -108 145 -108zM263 39q105 0 167 45t62 123q0 119 -161 119q-105 0 -167 -44.5t-62 -123.5q0 -119 161 -119z" />
    <glyph glyph-name="nine.pf" horiz-adv-x="628" 
d="M257 -12q-92 0 -141.5 38.5t-49.5 108.5q0 17 1 25h54q-1 -5 -1 -16q0 -105 139 -105q183 0 216 185l21 119q-82 -91 -210 -91q-88 0 -134 42t-46 120q0 126 73 202t198 76q97 0 149 -43.5t52 -128.5q0 -29 -5 -56l-44 -251q-19 -111 -89.5 -168t-182.5 -57zM297 303
q138 0 215 129l5 31q5 28 5 50q0 128 -146 128q-101 0 -157.5 -60.5t-56.5 -159.5q0 -118 135 -118z" />
    <glyph glyph-name="zero.numr" 
d="M190 274q-123 0 -123 104q0 16 3 33l26 148q23 133 160 133q123 0 123 -104q0 -16 -3 -33l-26 -148q-23 -133 -160 -133zM191 318q93 0 110 95l25 142q3 13 3 27q0 66 -75 66q-93 0 -110 -95l-25 -142q-3 -13 -3 -27q0 -66 75 -66z" />
    <glyph glyph-name="one.numr" 
d="M94 286l8 44h94l51 287q-50 -24 -112 -26l7 39q66 4 118 50h47l-62 -350h95l-7 -44h-239z" />
    <glyph glyph-name="two.numr" 
d="M231 435q-60 -25 -86.5 -48t-35.5 -56h226l-8 -45h-276l5 31q9 55 46 92.5t114 69.5q61 26 88.5 52.5t27.5 60.5q0 56 -72 56q-91 0 -105 -81l-1 -6h-48l3 15q24 116 154 116q117 0 117 -97q0 -51 -35 -88.5t-114 -71.5z" />
    <glyph glyph-name="three.numr" 
d="M190 274q-61 0 -94 23.5t-33 64.5q0 12 2 24l2 11h47l-1 -6q-1 -6 -1 -16q0 -57 79 -57q54 0 83.5 25t29.5 66q0 30 -18 43.5t-63 13.5h-48l7 44h46q46 0 72.5 23t26.5 60q0 55 -71 55q-43 0 -70.5 -18.5t-33.5 -52.5l-1 -5h-47l1 8q10 55 50.5 83.5t103.5 28.5
q117 0 117 -96q0 -81 -78 -105v-1q55 -19 55 -83q0 -62 -44 -97.5t-119 -35.5z" />
    <glyph glyph-name="four.numr" 
d="M250 286l16 88h-216l8 46l258 260h53l-47 -262h51l-8 -44h-50l-16 -88h-49zM114 418h159l36 199z" />
    <glyph glyph-name="five.numr" 
d="M187 274q-58 0 -91 24.5t-33 66.5q0 10 1 16h47q-1 -5 -1 -10q0 -25 21 -39t58 -14q56 0 88.5 31t32.5 79q0 68 -75 68q-59 0 -102 -32h-39l50 216h240l-8 -45h-199l-28 -121q43 26 97 26q112 0 112 -108q0 -71 -46 -114.5t-125 -43.5z" />
    <glyph glyph-name="six.numr" 
d="M193 274q-59 0 -91 27t-32 77q0 16 3 32l26 147q24 135 163 135q59 0 89.5 -23.5t30.5 -64.5q0 -12 -1 -17h-47q1 4 1 10q0 51 -73 51q-99 0 -115 -96l-11 -64q45 47 116 47q106 0 106 -105q0 -70 -44 -113t-121 -43zM197 318q53 0 82.5 31.5t29.5 78.5q0 33 -16.5 48
t-51.5 15q-74 0 -116 -65l-3 -16q-3 -14 -3 -26q0 -32 20.5 -49t57.5 -17z" />
    <glyph glyph-name="seven.numr" 
d="M112 286q45 204 226 349h-236l8 45h294l-9 -48q-188 -146 -231 -346h-52z" />
    <glyph glyph-name="eight.numr" 
d="M187 274q-133 0 -133 99q0 90 94 118v1q-47 19 -47 76t43 90.5t116 33.5q121 0 121 -96q0 -78 -78 -104v-2q57 -22 57 -86q0 -63 -46.5 -96.5t-126.5 -33.5zM225 510q50 0 79 22.5t29 59.5q0 57 -74 57q-52 0 -81.5 -23.5t-29.5 -60.5q0 -55 77 -55zM189 317
q58 0 90.5 24t32.5 65q0 61 -85 61q-57 0 -90 -24t-33 -66q0 -60 85 -60z" />
    <glyph glyph-name="nine.numr" 
d="M183 274q-59 0 -89.5 23.5t-30.5 64.5q0 12 1 17h47q-1 -4 -1 -10q0 -51 73 -51q99 0 115 96l11 64q-45 -47 -116 -47q-106 0 -106 105q0 70 44 113t121 43q59 0 91 -27t32 -77q0 -16 -3 -32l-26 -147q-24 -135 -163 -135zM204 475q74 0 116 65l3 16q3 14 3 26
q0 32 -20.5 49t-57.5 17q-53 0 -82.5 -31.5t-29.5 -78.5q0 -33 16.5 -48t51.5 -15z" />
    <glyph glyph-name="zero.dnom" 
d="M140 -12q-123 0 -123 104q0 16 3 33l26 148q23 133 160 133q123 0 123 -104q0 -16 -3 -33l-26 -148q-23 -133 -160 -133zM141 32q93 0 110 95l25 142q3 13 3 27q0 66 -75 66q-93 0 -110 -95l-25 -142q-3 -13 -3 -27q0 -66 75 -66z" />
    <glyph glyph-name="one.dnom" 
d="M44 0l8 44h94l51 287q-50 -24 -112 -26l7 39q66 4 118 50h47l-62 -350h95l-7 -44h-239z" />
    <glyph glyph-name="two.dnom" 
d="M180 149q-60 -25 -86.5 -48t-35.5 -56h226l-8 -45h-276l5 31q9 55 46 92.5t114 69.5q61 26 88.5 52.5t27.5 60.5q0 56 -72 56q-91 0 -105 -81l-1 -6h-48l3 15q24 116 154 116q117 0 117 -97q0 -51 -35 -88.5t-114 -71.5z" />
    <glyph glyph-name="three.dnom" 
d="M140 -12q-61 0 -94 23.5t-33 64.5q0 12 2 24l2 11h47l-1 -6q-1 -6 -1 -16q0 -57 79 -57q54 0 83.5 25t29.5 66q0 30 -18 43.5t-63 13.5h-48l7 44h46q46 0 72.5 23t26.5 60q0 55 -71 55q-43 0 -70.5 -18.5t-33.5 -52.5l-1 -5h-47l1 8q10 55 50.5 83.5t103.5 28.5
q117 0 117 -96q0 -81 -78 -105v-1q55 -19 55 -83q0 -62 -44 -97.5t-119 -35.5z" />
    <glyph glyph-name="four.dnom" 
d="M200 0l16 88h-216l8 46l258 260h53l-47 -262h51l-8 -44h-50l-16 -88h-49zM64 132h159l36 199z" />
    <glyph glyph-name="five.dnom" 
d="M136 -12q-58 0 -91 24.5t-33 66.5q0 10 1 16h47q-1 -5 -1 -10q0 -25 21 -39t58 -14q56 0 88.5 31t32.5 79q0 68 -75 68q-59 0 -102 -32h-39l50 216h240l-8 -45h-199l-28 -121q43 26 97 26q112 0 112 -108q0 -71 -46 -114.5t-125 -43.5z" />
    <glyph glyph-name="six.dnom" 
d="M143 -12q-59 0 -91 27t-32 77q0 16 3 32l26 147q24 135 163 135q59 0 89.5 -23.5t30.5 -64.5q0 -12 -1 -17h-47q1 4 1 10q0 51 -73 51q-99 0 -115 -96l-11 -64q45 47 116 47q106 0 106 -105q0 -70 -44 -113t-121 -43zM147 32q53 0 82.5 31.5t29.5 78.5q0 33 -16.5 48
t-51.5 15q-74 0 -116 -65l-3 -16q-3 -13 -3 -26q0 -32 20.5 -49t57.5 -17z" />
    <glyph glyph-name="seven.dnom" 
d="M62 0q45 204 226 349h-236l8 45h294l-9 -48q-188 -146 -231 -346h-52z" />
    <glyph glyph-name="eight.dnom" 
d="M136 -12q-133 0 -133 99q0 90 94 118v1q-47 19 -47 76t43 90.5t116 33.5q121 0 121 -96q0 -78 -78 -104v-2q57 -22 57 -86q0 -63 -46.5 -96.5t-126.5 -33.5zM174 224q50 0 79 22.5t29 59.5q0 57 -74 57q-52 0 -81.5 -23.5t-29.5 -60.5q0 -55 77 -55zM138 31q58 0 90.5 24
t32.5 65q0 61 -85 61q-57 0 -90 -24t-33 -66q0 -60 85 -60z" />
    <glyph glyph-name="nine.dnom" 
d="M133 -12q-59 0 -89.5 23.5t-30.5 64.5q0 12 1 17h47q-1 -4 -1 -10q0 -51 73 -51q99 0 115 96l11 64q-45 -47 -116 -47q-106 0 -106 105q0 70 44 113t121 43q59 0 91 -27t32 -77q0 -16 -3 -32l-26 -147q-24 -135 -163 -135zM154 189q74 0 116 65l3 16q3 14 3 26
q0 32 -20.5 49t-57.5 17q-53 0 -82.5 -31.5t-29.5 -78.5q0 -33 16.5 -48t51.5 -15z" />
    <glyph glyph-name="exclamdown.case" horiz-adv-x="273" 
d="M161 591l15 89h69l-16 -89h-68zM62 0l29 160l64 316h40l-48 -316l-27 -160h-58z" />
    <glyph glyph-name="questiondown.case" horiz-adv-x="423" 
d="M255 591l15 89h69l-16 -89h-68zM170 -12q-79 0 -122 35.5t-43 100.5q0 64 28 107.5t96 82.5q53 31 77.5 61.5t33.5 75.5l5 25h48l-6 -30q-12 -59 -38.5 -95.5t-85.5 -71.5q-57 -34 -79.5 -67.5t-22.5 -83.5q0 -90 113 -90q67 0 110 35.5t55 101.5h53
q-16 -90 -73.5 -138.5t-148.5 -48.5z" />
    <glyph glyph-name="at.case" horiz-adv-x="760" 
d="M392 -18q-159 0 -249.5 84.5t-90.5 232.5q0 169 112.5 284t286.5 115q140 0 225.5 -76.5t85.5 -204.5q0 -101 -51.5 -179t-139.5 -78q-82 0 -88 71q-57 -71 -137 -71q-52 0 -79.5 27t-27.5 75q0 16 3 37l14 79q24 135 145 135q82 0 117 -71l14 59h45l-40 -226
q-2 -16 -2 -23q0 -44 44 -44q42 0 72.5 34t44 80.5t13.5 95.5q0 107 -70 169t-187 62q-152 0 -248.5 -100.5t-96.5 -248.5q0 -127 75 -198t208 -71q116 0 197 53l21 -48q-88 -54 -216 -54zM357 208q70 0 128 81l17 99q-25 78 -94 78q-81 0 -98 -96l-12 -69q-3 -13 -3 -31
q0 -62 62 -62z" />
    <glyph glyph-name="parenleft.case" horiz-adv-x="327" 
d="M243 -96q-166 69 -166 315q0 117 35 229t109.5 203t175.5 125l-8 -48q-82 -37 -143 -125.5t-89 -191t-28 -203.5q0 -196 122 -260z" />
    <glyph glyph-name="parenright.case" horiz-adv-x="327" 
d="M-41 -96l8 48q82 37 143 125.5t89 191t28 203.5q0 196 -122 260l8 44q166 -69 166 -315q0 -117 -35 -229t-109.5 -203t-175.5 -125z" />
    <glyph glyph-name="braceleft.case" horiz-adv-x="327" 
d="M201 -84q-117 0 -117 109q0 18 5 50l29 166q3 16 3 29q0 27 -17 37.5t-58 10.5l8 44q47 0 69 17.5t30 61.5l30 166q15 84 53.5 120.5t110.5 36.5h48l-7 -44h-37q-47 0 -76 -26.5t-40 -88.5l-28 -160q-8 -49 -26.5 -73.5t-51.5 -31.5v-1q44 -15 44 -70q0 -14 -3 -35
l-29 -163q-4 -23 -4 -40q0 -38 18 -54.5t59 -16.5h40l-8 -44h-45z" />
    <glyph glyph-name="braceright.case" horiz-adv-x="327" 
d="M-39 -84l8 44h36q48 0 76.5 26.5t39.5 88.5l28 160q8 48 27 73t51 32v1q-44 15 -44 70q0 7 4 35l28 163q4 23 4 40q0 38 -18 54.5t-59 16.5h-40l9 44h44q118 0 118 -109q0 -18 -5 -50l-30 -166q-3 -17 -3 -29q0 -27 17 -37.5t58 -10.5l-7 -44q-48 0 -70.5 -17.5
t-29.5 -61.5l-29 -166q-15 -83 -54 -120t-111 -37h-48z" />
    <glyph glyph-name="bracketleft.case" horiz-adv-x="327" 
d="M39 -84l150 848h206l-7 -44h-154l-133 -760h153l-8 -44h-207z" />
    <glyph glyph-name="bracketright.case" horiz-adv-x="327" 
d="M-39 -84l8 44h154l134 760h-155l8 44h208l-149 -848h-208z" />
    <glyph glyph-name="bar.case" horiz-adv-x="279" 
d="M40 -160l177 1000h51l-176 -1000h-52z" />
    <glyph glyph-name="brokenbar.case" horiz-adv-x="279" 
d="M146 440l71 400h51l-70 -400h-52zM40 -160l71 400h51l-70 -400h-52z" />
    <glyph glyph-name="periodcentered.case" horiz-adv-x="256" 
d="M102 295l16 89h69l-16 -89h-69z" />
    <glyph glyph-name="bullet.case" horiz-adv-x="500" 
d="M154 243l34 194h189l-34 -194h-189z" />
    <glyph glyph-name="hyphen.case" horiz-adv-x="362" 
d="M45 313l9 54h293l-9 -54h-293z" />
    <glyph glyph-name="uni00AD.case" horiz-adv-x="362" 
d="M45 313l9 54h293l-9 -54h-293z" />
    <glyph glyph-name="figuredash.case" horiz-adv-x="601" 
d="M41 316l8 48h541l-8 -48h-541z" />
    <glyph glyph-name="endash.case" horiz-adv-x="500" 
d="M41 316l8 48h440l-8 -48h-440z" />
    <glyph glyph-name="emdash.case" horiz-adv-x="900" 
d="M41 316l8 48h840l-8 -48h-840z" />
    <glyph glyph-name="guillemotleft.case" horiz-adv-x="454" 
d="M158 166l-116 175l174 173h67l-179 -178l112 -170h-58zM353 166l-116 175l174 173h67l-179 -178l112 -170h-58z" />
    <glyph glyph-name="guillemotright.case" horiz-adv-x="454" 
d="M4 166l180 178l-112 170h58l116 -176l-174 -172h-68zM199 166l180 178l-112 170h58l116 -176l-174 -172h-68z" />
    <glyph glyph-name="guilsinglleft.case" horiz-adv-x="259" 
d="M158 166l-116 175l174 173h67l-179 -178l112 -170h-58z" />
    <glyph glyph-name="guilsinglright.case" horiz-adv-x="259" 
d="M4 166l180 178l-112 170h58l116 -176l-174 -172h-68z" />
    <glyph glyph-name="caron.alt" horiz-adv-x="128" 
d="M69 535l75 195h63l-94 -195h-44z" />
    <glyph glyph-name="ringacute" horiz-adv-x="500" 
d="M285 784l130 127h75l-144 -127h-61zM312 567q-37 0 -60.5 22.5t-23.5 58.5q0 42 29 70.5t72 28.5q38 0 61 -22.5t23 -59.5q0 -41 -29 -69.5t-72 -28.5zM313 607q24 0 40.5 17t16.5 42q0 19 -12 30t-31 11q-24 0 -40.5 -17t-16.5 -42q0 -19 11.5 -30t31.5 -11z" />
    <glyph glyph-name="NULL" horiz-adv-x="0" 
 />
    </font>
</defs>
</svg>
