<svg xmlns="http://www.w3.org/2000/svg" width="28.303" height="27.611" viewBox="0 0 28.303 27.611"><g transform="translate(0 -5.365)"><path d="M26.405,12.413a14.09,14.09,0,0,0-5.15-5.15,13.842,13.842,0,0,0-7.1-1.9,13.843,13.843,0,0,0-7.1,1.9,14.089,14.089,0,0,0-5.15,5.15,13.843,13.843,0,0,0-1.9,7.1,13.753,13.753,0,0,0,2.7,8.32,13.86,13.86,0,0,0,6.974,5.113.825.825,0,0,0,.737-.129.721.721,0,0,0,.24-.553q0-.055-.009-1t-.009-1.64l-.424.073a5.406,5.406,0,0,1-1.023.065A7.792,7.792,0,0,1,7.9,29.642a2.862,2.862,0,0,1-1.235-.552,2.338,2.338,0,0,1-.811-1.133l-.184-.424a4.6,4.6,0,0,0-.58-.94,2.224,2.224,0,0,0-.8-.7L4.164,25.8a1.353,1.353,0,0,1-.24-.221,1.011,1.011,0,0,1-.166-.258q-.055-.129.092-.212a1.2,1.2,0,0,1,.534-.082l.368.055a2.69,2.69,0,0,1,.912.442,2.974,2.974,0,0,1,.894.958,3.248,3.248,0,0,0,1.023,1.152,2.169,2.169,0,0,0,1.207.4,5.24,5.24,0,0,0,1.05-.092,3.665,3.665,0,0,0,.829-.277,2.986,2.986,0,0,1,.9-1.9,12.617,12.617,0,0,1-1.889-.332,7.52,7.52,0,0,1-1.732-.719,4.961,4.961,0,0,1-1.483-1.234A5.933,5.933,0,0,1,5.5,21.543a9.2,9.2,0,0,1-.378-2.764,5.375,5.375,0,0,1,1.456-3.8,4.954,4.954,0,0,1,.129-3.759,2.582,2.582,0,0,1,1.585.249,11.079,11.079,0,0,1,1.539.71q.488.294.783.5a13.308,13.308,0,0,1,7.076,0l.7-.442a9.917,9.917,0,0,1,1.695-.811,2.415,2.415,0,0,1,1.493-.2,4.906,4.906,0,0,1,.147,3.759,5.375,5.375,0,0,1,1.456,3.8,9.3,9.3,0,0,1-.378,2.773,5.7,5.7,0,0,1-.976,1.935,5.151,5.151,0,0,1-1.493,1.225,7.534,7.534,0,0,1-1.732.719,12.6,12.6,0,0,1-1.889.332,3.282,3.282,0,0,1,.958,2.616v3.888a.734.734,0,0,0,.231.553.8.8,0,0,0,.728.129A13.858,13.858,0,0,0,25.6,27.835a13.756,13.756,0,0,0,2.7-8.32A13.854,13.854,0,0,0,26.405,12.413Z" fill="#26282e"/></g></svg>