<svg xmlns="http://www.w3.org/2000/svg" width="27.847" height="27.847" viewBox="0 0 27.847 27.847"><path d="M20.162,0H7.684A7.693,7.693,0,0,0,0,7.685V20.162a7.693,7.693,0,0,0,7.684,7.685H20.162a7.693,7.693,0,0,0,7.685-7.685V7.685A7.693,7.693,0,0,0,20.162,0Zm5.214,20.162a5.22,5.22,0,0,1-5.214,5.214H7.684a5.22,5.22,0,0,1-5.214-5.214V7.685A5.22,5.22,0,0,1,7.684,2.471H20.162a5.22,5.22,0,0,1,5.214,5.214V20.162Z" transform="translate(0)" /><path d="M48.143,40.97a7.175,7.175,0,1,0,7.175,7.175A7.183,7.183,0,0,0,48.143,40.97Zm0,11.88a4.7,4.7,0,1,1,4.7-4.7A4.71,4.71,0,0,1,48.143,52.85Z" transform="translate(-34.22 -34.222)" /><path d="M120.733,28.251a1.811,1.811,0,1,0,1.281.53A1.819,1.819,0,0,0,120.733,28.251Z" transform="translate(-99.333 -23.598)" /></svg>