<svg xmlns="http://www.w3.org/2000/svg" width="27.91" height="27.911" viewBox="0 0 27.91 27.911"><g transform="translate(-0.002)"><path d="M25.851,0H2.064A2.031,2.031,0,0,0,0,2V25.91a2.032,2.032,0,0,0,2.062,2H25.851a2.032,2.032,0,0,0,2.061-2V2A2.031,2.031,0,0,0,25.851,0ZM8.464,23.363H4.247v-12.6H8.464ZM6.355,9.04H6.327a2.184,2.184,0,1,1,.055-4.354A2.185,2.185,0,1,1,6.355,9.04ZM23.665,23.363H19.449V16.621c0-1.694-.611-2.85-2.135-2.85A2.3,2.3,0,0,0,15.151,15.3a2.816,2.816,0,0,0-.141,1.021v7.039H10.8s.055-11.419,0-12.6h4.216v1.787a4.186,4.186,0,0,1,3.8-2.083c2.775,0,4.855,1.8,4.855,5.672v7.226ZM14.984,12.588c.007-.012.017-.026.027-.04v.04Z" fill="#26282e"/></g></svg>