<svg xmlns="http://www.w3.org/2000/svg" width="19.905" height="19.905" viewBox="0 0 19.905 19.905"><path d="M16.254,11.269a4.986,4.986,0,1,0,4.985,4.986A4.991,4.991,0,0,0,16.254,11.269Z" transform="translate(-6.302 -6.302)" fill="#26282e"/><g transform="translate(8.98)"><path d="M21.346,3.5a.973.973,0,0,1-.973-.972V.973a.973.973,0,1,1,1.945,0V2.529A.973.973,0,0,1,21.346,3.5Z" transform="translate(-20.373)" fill="#26282e"/></g><g transform="translate(8.98 16.403)"><path d="M21.346,37.215a.973.973,0,0,0-.973.973v1.556a.973.973,0,1,0,1.945,0V38.188A.973.973,0,0,0,21.346,37.215Z" transform="translate(-20.373 -37.215)" fill="#26282e"/></g><g transform="translate(14.229 2.63)"><path d="M32.567,8.728a.973.973,0,0,1,0-1.376l1.1-1.1a.973.973,0,1,1,1.376,1.376l-1.1,1.1A.973.973,0,0,1,32.567,8.728Z" transform="translate(-32.282 -5.967)" fill="#26282e"/></g><g transform="translate(2.63 14.229)"><path d="M8.728,32.568a.972.972,0,0,0-1.376,0l-1.1,1.1a.973.973,0,0,0,1.376,1.376l1.1-1.1A.972.972,0,0,0,8.728,32.568Z" transform="translate(-5.967 -32.283)" fill="#26282e"/></g><g transform="translate(16.403 8.98)"><path d="M37.215,21.346a.973.973,0,0,1,.973-.973h1.556a.973.973,0,1,1,0,1.945H38.188A.972.972,0,0,1,37.215,21.346Z" transform="translate(-37.215 -20.373)" fill="#26282e"/></g><g transform="translate(0 8.98)"><path d="M3.5,21.346a.973.973,0,0,0-.973-.973H.973a.973.973,0,1,0,0,1.945H2.529A.972.972,0,0,0,3.5,21.346Z" transform="translate(0 -20.373)" fill="#26282e"/></g><g transform="translate(14.228 14.229)"><path d="M32.566,32.569a.973.973,0,0,1,1.376,0l1.1,1.1a.973.973,0,0,1-1.376,1.375l-1.1-1.1A.972.972,0,0,1,32.566,32.569Z" transform="translate(-32.282 -32.284)" fill="#26282e"/></g><g transform="translate(2.63 2.63)"><path d="M8.728,8.728a.973.973,0,0,0,0-1.376l-1.1-1.1A.973.973,0,0,0,6.251,7.628l1.1,1.1A.972.972,0,0,0,8.728,8.728Z" transform="translate(-5.966 -5.967)" fill="#26282e"/></g></svg>